<?xml version="1.0" standalone="no"?>
<!DOCTYPE svg PUBLIC "-//W3C//DTD SVG 1.1//EN" "http://www.w3.org/Graphics/SVG/1.1/DTD/svg11.dtd" >
<svg xmlns="http://www.w3.org/2000/svg">
<metadata>
This is a custom SVG webfont generated by Font Squirrel.
Copyright   : Copyrightc 2008 M FONTS PROJECT
Foundry URL : httpmplusfontssourceforgejp
</metadata>
<defs>
<font id="webfontt953r0a5" horiz-adv-x="1341" >
<font-face units-per-em="2048" ascent="1761" descent="-287" />
<missing-glyph horiz-adv-x="808" />
<glyph unicode=" "  horiz-adv-x="808" />
<glyph unicode="&#x09;" horiz-adv-x="808" />
<glyph unicode="&#xa0;" horiz-adv-x="808" />
<glyph unicode="!" horiz-adv-x="921" d="M215 1495h492l-62 -1003h-369zM256 0v328h410v-328h-410z" />
<glyph unicode="&#x22;" horiz-adv-x="1167" d="M123 1577h409l-61 -655h-287zM635 1577h409l-61 -655h-287z" />
<glyph unicode="#" horiz-adv-x="1458" d="M82 317v308h192l52 286h-136v308h189l49 276h369l-49 -276h122l50 276h368l-49 -276h139v-308h-192l-51 -286h135v-308h-189l-57 -317h-369l58 317h-123l-58 -317h-368l57 317h-139zM643 625h123l51 286h-123z" />
<glyph unicode="$" horiz-adv-x="1259" d="M92 1055q0 188 144.5 298.5t418.5 110.5v205h267v-223q117 -20 194 -43v-324q-100 39 -194 60v-316q133 -68 189 -154.5t56 -207.5q0 -416 -553 -430v-205h-266v225q-106 18 -205 62v336q102 -59 205 -87v322q-256 133 -256 371zM477 1055q0 -86 137 -123l41 -10v245 q-178 -6 -178 -112zM614 328q164 10 164 123q0 88 -164 133v-256z" />
<glyph unicode="%" horiz-adv-x="1925" d="M61 1095.5q0 198.5 107.5 309.5t302.5 111t302.5 -111t107.5 -309.5t-107.5 -309t-302.5 -110.5t-302.5 110.5t-107.5 309zM369 1095.5q0 -100.5 25.5 -141.5t76.5 -41t76.5 41t25.5 141.5t-25.5 141.5t-76.5 41t-76.5 -41t-25.5 -141.5zM461 0l737 1495h266l-737 -1495 h-266zM1044 399.5q0 198.5 108 309t302.5 110.5t302 -110.5t107.5 -309t-107.5 -309t-302 -110.5t-302.5 110.5t-108 309zM1352 399.5q0 -100.5 25.5 -141.5t76.5 -41t76.5 41t25.5 141.5t-25.5 141.5t-76.5 41t-76.5 -41t-25.5 -141.5z" />
<glyph unicode="&#x26;" horiz-adv-x="1658" d="M92 369q0 98 68.5 192t228.5 201q-133 121 -179 200.5t-46 184.5q0 160 143.5 264.5t388.5 104.5q270 0 406.5 -98.5t136.5 -280.5q0 -109 -79 -210.5t-259 -211.5l164 -152v215h369v-559l235 -219h-430l-90 82q-264 -102 -473 -102q-584 0 -584 389zM512 410 q0 -123 184 -123q82 0 178 39l-253 227q-109 -77 -109 -143zM553 1126q0 -43 22.5 -80.5t100.5 -115.5q109 63 141.5 99t32.5 77q0 61 -38 97t-105 36q-70 0 -112 -33t-42 -80z" />
<glyph unicode="'" horiz-adv-x="716" d="M133 1577h451l-62 -655h-327z" />
<glyph unicode="(" horiz-adv-x="952" d="M123 583.5q0 282.5 113.5 544t316.5 449.5h328q-389 -434 -389 -993t389 -994h-328q-203 188 -316.5 449.5t-113.5 544z" />
<glyph unicode=")" horiz-adv-x="952" d="M72 -410q389 434 389 993.5t-389 993.5h327q203 -188 316.5 -449.5t113.5 -544t-113.5 -543.5t-316.5 -450h-327z" />
<glyph unicode="*" horiz-adv-x="1101" d="M82 1098l82 254l266 -99l-12 283h266l-10 -283l264 99l84 -254l-272 -76l174 -223l-215 -156l-158 234l-156 -234l-217 156l176 223z" />
<glyph unicode="+" horiz-adv-x="1515" d="M143 440v308h451v440h328v-440h450v-308h-450v-440h-328v440h-451z" />
<glyph unicode="," horiz-adv-x="798" d="M102 -225l123 655h451l-246 -655h-328z" />
<glyph unicode="-" horiz-adv-x="1024" d="M143 440v308h738v-308h-738z" />
<glyph unicode="." horiz-adv-x="798" d="M174 0v430h451v-430h-451z" />
<glyph unicode="/" horiz-adv-x="1198" d="M51 -82l717 1577h348l-717 -1577h-348z" />
<glyph unicode="0" d="M51 747.5q0 407.5 151.5 588t463 180.5t463 -180.5t151.5 -588t-151.5 -587.5t-463 -180t-463 180t-151.5 587.5zM471 747.5q0 -262.5 46 -361.5t148.5 -99t148.5 99t46 361.5t-46 361.5t-148.5 99t-148.5 -99t-46 -361.5z" />
<glyph unicode="1" d="M174 778v451l389 266h430v-1495h-430v1044h-2z" />
<glyph unicode="2" d="M143 0v328q274 207 411.5 332.5t180.5 201.5t43 162q0 154 -174 154q-158 0 -430 -113v369q236 82 492 82t394 -120t138 -331q0 -168 -106.5 -319.5t-415.5 -413.5v-4h532v-328h-1065z" />
<glyph unicode="3" d="M133 1167v328h1034v-328l-379 -282v-4h21q168 0 273.5 -112t105.5 -298q0 -240 -147.5 -365.5t-426.5 -125.5q-246 0 -471 71v348q248 -96 430 -96q104 0 159.5 42t55.5 116q0 61 -28.5 92t-107.5 46t-232 15h-82v267l348 282v4h-553z" />
<glyph unicode="4" d="M10 266v318l656 911h389v-911h205v-318h-205v-266h-389v266h-656zM358 584h308v440h-4l-304 -436v-4z" />
<glyph unicode="5" d="M154 604l41 891h952v-328h-584l-10 -215h4q88 31 170 31q238 0 365 -122t127 -349q0 -532 -656 -532q-211 0 -399 51v338q221 -66 379 -66q276 0 276 209q0 164 -174 164q-66 0 -143 -72h-348z" />
<glyph unicode="6" d="M72 655q0 428 178 644.5t508 216.5q162 0 340 -41v-308q-152 61 -320 62q-137 0 -219 -75t-100 -220l4 -2q117 72 285 72q250 0 381 -125t131 -367q0 -250 -158 -391t-436 -141q-281 0 -437.5 170.5t-156.5 504.5zM461 502q0 -111 56 -173.5t149 -62.5q96 0 150 60.5 t54 175.5q0 236 -204 235q-96 0 -150.5 -61t-54.5 -174z" />
<glyph unicode="7" d="M123 1167v328h1085v-328q-166 -283 -286.5 -546t-245.5 -621h-440q248 635 583 1157v10h-696z" />
<glyph unicode="8" d="M51 410q0 106 61.5 187t213.5 157v4q-233 145 -234 368q0 168 152.5 279t421 111t421 -111t152.5 -279q0 -182 -254 -319v-4q295 -131 295 -393q0 -197 -162 -313.5t-452.5 -116.5t-452.5 116.5t-162 313.5zM451 430q0 -72 62 -123t152.5 -51t153 51t62.5 123 q0 68 -45 106.5t-218 100.5q-102 -53 -134.5 -98.5t-32.5 -108.5zM481 1085q0 -57 42 -97t163 -83q96 45 130 84t34 96q0 66 -51 110t-133 44t-133.5 -44t-51.5 -110z" />
<glyph unicode="9" d="M72 1004q0 236 157.5 374t436.5 138q281 0 437.5 -168t156.5 -488q0 -881 -687 -880q-168 0 -360 40v308q160 -61 340 -62q301 0 319 295l-4 2q-117 -72 -284 -71q-512 0 -512 512zM461 1014q0 -256 204.5 -256t204.5 256q0 98 -56 156.5t-148 58.5q-96 0 -150.5 -57.5 t-54.5 -157.5z" />
<glyph unicode=":" horiz-adv-x="962" d="M256 0v430h451v-430h-451zM256 758v430h451v-430h-451z" />
<glyph unicode=";" horiz-adv-x="962" d="M143 -225l123 655h451l-246 -655h-328zM266 758v430h451v-430h-451z" />
<glyph unicode="&#x3c;" horiz-adv-x="1433" d="M113 369v450l1147 389v-327l-922 -285v-4l922 -285v-327z" />
<glyph unicode="=" horiz-adv-x="1556" d="M164 174v307h1229v-307h-1229zM164 707v307h1229v-307h-1229z" />
<glyph unicode="&#x3e;" horiz-adv-x="1433" d="M174 -20v327l922 285v4l-922 285v327l1147 -389v-450z" />
<glyph unicode="?" horiz-adv-x="1351" d="M154 1116v338q266 61 532 62q260 0 406.5 -102.5t146.5 -266.5q0 -78 -20.5 -140.5t-65.5 -111.5t-79 -76.5t-97 -70.5q-66 -45 -99.5 -72t-68.5 -77t-41 -107h-369q0 76 22.5 140t69 118.5t81 85t96.5 77.5q51 41 73.5 60.5t45 51.5t22.5 60q0 113 -184 113 q-209 0 -471 -82zM379 0v328h409v-328h-409z" />
<glyph unicode="@" horiz-adv-x="1658" d="M61 748q0 336 218.5 552t549.5 216q336 0 552 -214.5t216 -553.5q0 -199 -109.5 -302.5t-318.5 -103.5q-88 0 -153 27q-61 25 -86 67h-4q-88 -94 -240 -94q-143 0 -229 102q-102 121 -70 304q33 188 141.5 291.5t264.5 103.5q37 0 79 -15q45 -12 72 -36h4l10 51h277 l-86 -473q-23 -131 12 -154q8 -8 27 -8q113 0 163 54t50 186q0 266 -155.5 423.5t-416.5 157.5q-256 0 -413.5 -160.5t-157.5 -421t157.5 -421t413.5 -160.5q195 0 349 86v-203q-154 -70 -349 -69q-326 0 -547 215t-221 553zM639 748q-16 -86 16 -132q29 -41 80 -41 q59 0 102.5 44.5t57.5 128.5q14 86 -16 133q-25 41 -80 41q-57 0 -101.5 -46t-58.5 -128z" />
<glyph unicode="A" horiz-adv-x="1454" d="M41 0l471 1495h430l471 -1495h-434l-64 287h-385l-63 -287h-426zM598 594h250l-123 553h-4z" />
<glyph unicode="B" horiz-adv-x="1320" d="M154 10v1475q213 31 450 31q614 0 615 -390q0 -131 -84 -222t-224 -113v-5q158 -20 253.5 -120.5t95.5 -235.5q0 -231 -151 -340.5t-484 -109.5q-250 -1 -471 30zM553 297q47 -10 92 -10q123 0 179.5 45t56.5 139q0 154 -226 154h-102v-328zM553 911h61q236 0 236 154 q0 143 -205 143q-45 0 -92 -10v-287z" />
<glyph unicode="C" horiz-adv-x="1351" d="M61 748q0 367 188.5 567.5t528.5 200.5q219 0 410 -52v-348q-201 72 -359 72q-164 0 -256 -111.5t-92 -328.5q0 -213 100.5 -329t268.5 -116q164 0 358 70v-342q-190 -51 -409 -51q-348 0 -543 196.5t-195 571.5z" />
<glyph unicode="D" horiz-adv-x="1443" d="M154 10v1475q213 31 450 31q369 0 573.5 -198t204.5 -550q0 -383 -205.5 -585.5t-572.5 -202.5q-239 -1 -450 30zM553 307q47 -10 92 -10q174 0 261 110.5t87 360.5q0 225 -87 327.5t-261 102.5q-45 0 -92 -10v-881z" />
<glyph unicode="E" horiz-adv-x="1269" d="M154 0v1495h983v-328h-574v-245h533v-308h-533v-286h574v-328h-983z" />
<glyph unicode="F" horiz-adv-x="1239" d="M154 0v1495h962v-328h-553v-286h512v-308h-512v-573h-409z" />
<glyph unicode="G" horiz-adv-x="1495" d="M61 747.5q0 364.5 203 566.5t576 202q231 0 430 -52v-334q-215 61 -379 62q-213 0 -313.5 -107.5t-100.5 -336.5q0 -231 96.5 -338t286.5 -107q53 0 103 14v297h-267v308h656v-861q-240 -82 -512 -81q-358 0 -568.5 201.5t-210.5 566z" />
<glyph unicode="H" horiz-adv-x="1495" d="M154 0v1495h409v-573h369v573h409v-1495h-409v614h-369v-614h-409z" />
<glyph unicode="I" horiz-adv-x="798" d="M174 0v1495h451v-1495h-451z" />
<glyph unicode="J" horiz-adv-x="1218" d="M61 51v352q188 -96 379 -96q117 0 171.5 69.5t54.5 237.5v881h419v-922q0 -322 -134 -457.5t-439 -135.5q-254 -1 -451 71z" />
<glyph unicode="K" horiz-adv-x="1454" d="M154 0v1495h409v-635h4l344 635h471l-430 -717l451 -778h-471l-365 696h-4v-696h-409z" />
<glyph unicode="L" horiz-adv-x="1280" d="M154 0v1495h419v-1157h605v-338h-1024z" />
<glyph unicode="M" horiz-adv-x="1781" d="M154 0v1495h415l316 -881h4l315 881h424v-1495h-383v819h-4l-190 -512h-328l-191 512h-4v-819h-374z" />
<glyph unicode="N" horiz-adv-x="1495" d="M154 0v1495h389l405 -819h4v819h389v-1495h-389l-405 819h-4v-819h-389z" />
<glyph unicode="O" horiz-adv-x="1556" d="M61 747.5q0 358.5 192.5 563.5t524.5 205t524.5 -205t192.5 -563.5t-192.5 -563t-524.5 -204.5t-524.5 204.5t-192.5 563zM481 747.5q0 -430.5 297 -430.5t297 430.5t-297 430.5t-297 -430.5z" />
<glyph unicode="P" horiz-adv-x="1351" d="M154 0v1485q213 31 450 31q696 0 696 -502q0 -272 -156.5 -412.5t-457.5 -140.5q-80 0 -133 6v-467h-399zM553 764q39 -6 92 -6q133 0 205 61.5t72 173.5q0 215 -277 215q-45 0 -92 -10v-434z" />
<glyph unicode="Q" horiz-adv-x="1628" d="M61 747.5q0 358.5 192.5 563.5t524.5 205t524.5 -205t192.5 -563q0 -410 -276 -623v-4q141 -74 258.5 -188.5t181.5 -239.5h-430q-106 199 -177 243t-274 44q-332 0 -524.5 204.5t-192.5 563zM481 747.5q0 -430.5 297 -430.5t297 430.5t-297 430.5t-297 -430.5z" />
<glyph unicode="R" horiz-adv-x="1413" d="M154 0v1485q266 31 532 31q614 0 614 -461q0 -129 -79.5 -239.5t-206.5 -158.5v-4q61 -35 102 -89t78 -154l147 -410h-419l-127 389q-23 72 -58 102.5t-92 30.5h-92v-522h-399zM553 819h113q104 0 164.5 52.5t60.5 142.5q0 195 -225 194q-66 0 -113 -10v-379z" />
<glyph unicode="S" horiz-adv-x="1269" d="M102 1085q0 201 144.5 316t419.5 115q270 0 460 -82v-334q-225 102 -440 102q-168 0 -168 -117q0 -102 137 -143q287 -84 399.5 -200.5t112.5 -311.5q0 -451 -583 -450q-254 0 -441 112v338q197 -133 420 -133q184 0 185 123q0 57 -29 88t-105 55q-272 84 -392 210 t-120 312z" />
<glyph unicode="T" horiz-adv-x="1392" d="M102 1157v338h1188v-338h-385v-1157h-418v1157h-385z" />
<glyph unicode="U" horiz-adv-x="1454" d="M133 553v942h414v-973q0 -119 43 -167t141 -48t141 48t43 167v973h406v-942q0 -287 -151.5 -430t-442.5 -143t-442.5 143t-151.5 430z" />
<glyph unicode="V" horiz-adv-x="1454" d="M41 1495h434l248 -1106h4l260 1106h426l-471 -1495h-430z" />
<glyph unicode="W" horiz-adv-x="1904" d="M72 1495h413l121 -1085h4l101 1085h491l101 -1085h4l120 1085h406l-287 -1495h-471l-121 1085h-4l-121 -1085h-471z" />
<glyph unicode="X" horiz-adv-x="1454" d="M92 0l359 758l-349 737h445l182 -512h4l182 512h437l-348 -737l358 -758h-455l-182 532h-4l-182 -532h-447z" />
<glyph unicode="Y" horiz-adv-x="1454" d="M41 1495h465l223 -614h4l223 614h457l-475 -942v-553h-422v553z" />
<glyph unicode="Z" horiz-adv-x="1331" d="M133 0v328l584 835v4h-584v328h1065v-328l-584 -835v-4h584v-328h-1065z" />
<glyph unicode="[" horiz-adv-x="1105" d="M215 -410v1987h737v-266h-389v-1454h389v-267h-737z" />
<glyph unicode="\" horiz-adv-x="1198" d="M82 1495h348l717 -1577h-348z" />
<glyph unicode="]" horiz-adv-x="1105" d="M154 -143h389v1454h-389v266h737v-1987h-737v267z" />
<glyph unicode="^" horiz-adv-x="1474" d="M61 573l431 922h491l430 -922h-369l-305 717h-4l-305 -717h-369z" />
<glyph unicode="_" horiz-adv-x="1269" d="M0 -143h1270v-267h-1270v267z" />
<glyph unicode="`" horiz-adv-x="808" d="M10 1659h492l246 -655h-328z" />
<glyph unicode="a" horiz-adv-x="1228" d="M82 307q0 369 553 369h82v20q0 123 -144 123q-180 0 -430 -61v266q84 23 224.5 42t226.5 19q270 0 391 -98t121 -311v-676h-363l-4 135h-4q-131 -156 -325 -155q-143 0 -235.5 91t-92.5 236zM430 338q0 -92 102 -92q80 0 132.5 50t52.5 134v31h-82q-205 0 -205 -123z" />
<glyph unicode="b" horiz-adv-x="1320" d="M143 0v1495h389v-532h5q139 123 303 122q188 0 298.5 -142t110.5 -411q0 -262 -115.5 -407t-293.5 -145q-197 0 -326 155h-4l-4 -135h-363zM522 420q0 -59 53.5 -106.5t120.5 -47.5q80 0 127 66.5t47 199.5q0 266 -174 267q-68 0 -121 -47t-53 -107v-225z" />
<glyph unicode="c" horiz-adv-x="1105" d="M61 532q0 268 140.5 410.5t402.5 142.5q176 0 359 -41v-286q-147 41 -287 41q-104 0 -154.5 -63.5t-50.5 -203.5q0 -141 54.5 -203.5t170.5 -62.5q139 0 287 41v-287q-182 -41 -358 -40q-272 0 -418 139t-146 413z" />
<glyph unicode="d" horiz-adv-x="1320" d="M72 532q0 268 110.5 410.5t298.5 142.5q164 0 303 -122h4v532h390v-1495h-363l-4 135h-4q-129 -156 -326 -155q-180 0 -294.5 145t-114.5 407zM451 532q0 -133 47 -199.5t127 -66.5q68 0 121 47t53 107v225q0 59 -53.5 106.5t-120.5 47.5q-174 -1 -174 -267z" />
<glyph unicode="e" horiz-adv-x="1198" d="M61 532q0 266 139.5 409.5t403.5 143.5q522 0 522 -553q0 -55 -8 -112h-672q14 -96 78 -135t203 -39q121 0 317 51v-266q-195 -51 -378 -51q-291 0 -448 142t-157 410zM442 635h326q0 104 -38 149t-116 45q-84 0 -124 -42.5t-48 -151.5z" />
<glyph unicode="f" horiz-adv-x="1157" d="M92 758v266h225v41q0 233 109 342t342 109q135 0 266 -31v-277q-82 31 -164 31q-96 0 -124.5 -31.5t-28.5 -142.5v-41h297v-266h-297v-758h-400v758h-225z" />
<glyph unicode="g" horiz-adv-x="1290" d="M72 553q0 254 111.5 393t297.5 139q176 0 305 -155h5l4 135h362v-963q0 -274 -167 -423.5t-468 -149.5q-178 0 -348 41v317q156 -61 328 -61q143 0 209.5 63.5t66.5 212.5v54h-4q-111 -125 -293 -125q-178 0 -293.5 140t-115.5 382zM451 553q0 -117 44 -176.5t119 -59.5 q66 0 115 43t49 101v174q0 72 -47 118t-117 46q-163 0 -163 -246z" />
<glyph unicode="h" horiz-adv-x="1310" d="M143 0v1495h389v-532h5q147 123 303 122q190 0 269 -109.5t79 -402.5v-573h-379v532q0 152 -25.5 199t-97.5 47q-57 0 -105.5 -45t-48.5 -98v-635h-389z" />
<glyph unicode="i" horiz-adv-x="757" d="M174 0v1065h410v-1065h-410zM174 1249v287h410v-287h-410z" />
<glyph unicode="j" horiz-adv-x="870" d="M-41 -154q150 0 216.5 14.5t89 48.5t22.5 111v1045h409v-1045q0 -139 -30.5 -225t-114.5 -143.5t-224.5 -80t-367.5 -22.5v297zM287 1249v287h409v-287h-409z" />
<glyph unicode="k" horiz-adv-x="1320" d="M143 0v1495h389v-799h5l272 369h440l-409 -512l409 -553h-440l-272 389h-5v-389h-389z" />
<glyph unicode="l" horiz-adv-x="757" d="M174 0v1536h410v-1536h-410z" />
<glyph unicode="m" horiz-adv-x="1812" d="M133 0v1065h359l8 -143h4q55 78 132 120.5t152 42.5q96 0 152.5 -33.5t106.5 -119.5h4q154 154 301 153q176 0 257 -95t81 -314v-676h-379v676q0 70 -19.5 94.5t-72.5 24.5q-41 0 -77 -27t-36 -51v-717h-379v676q0 70 -19.5 94.5t-72.5 24.5q-41 0 -77 -27t-36 -51v-717 h-389z" />
<glyph unicode="n" horiz-adv-x="1300" d="M133 0v1065h373l4 -135h4q127 156 315 155q186 0 267.5 -106.5t81.5 -364.5v-614h-379v614q0 94 -27 129t-96 35q-57 0 -105.5 -45t-48.5 -98v-635h-389z" />
<glyph unicode="o" horiz-adv-x="1228" d="M61 532.5q0 260.5 145.5 406.5t408 146t407.5 -146t145 -406.5t-145 -406.5t-407.5 -146t-408 146t-145.5 406.5zM451 532.5q0 -157.5 38.5 -222t124.5 -64.5t125 64.5t39 222t-39 222t-125 64.5t-124.5 -64.5t-38.5 -222z" />
<glyph unicode="p" horiz-adv-x="1310" d="M133 -451v1516h373l4 -135h4q125 156 315 155q188 0 299 -142t111 -411q0 -262 -114.5 -407t-295.5 -145q-164 0 -303 124h-4v-555h-389zM512 420q0 -55 54.5 -104.5t119.5 -49.5q80 0 127 66.5t47 199.5q0 266 -174 267q-66 0 -120 -49.5t-54 -104.5v-225z" />
<glyph unicode="q" horiz-adv-x="1310" d="M72 532q0 268 110.5 410.5t298.5 142.5q190 0 316 -155h4l4 135h373v-1516h-390v555h-4q-139 -125 -303 -124q-180 0 -294.5 145t-114.5 407zM451 532q0 -133 47 -199.5t127 -66.5q66 0 120 49.5t54 104.5v225q0 55 -54.5 104.5t-119.5 49.5q-174 -1 -174 -267z" />
<glyph unicode="r" horiz-adv-x="1085" d="M133 0v1065h389v-205h4q154 205 426 205h41v-287h-41q-188 0 -304 -101.5t-116 -256.5v-420h-399z" />
<glyph unicode="s" horiz-adv-x="1126" d="M102 758q0 156 120 241.5t362 85.5q219 0 409 -41v-276q-178 51 -370 51q-68 0 -94.5 -14t-26.5 -47q0 -61 92 -72q233 -33 331.5 -119t98.5 -250q0 -162 -116.5 -249.5t-344.5 -87.5q-248 0 -450 61v287q182 -72 399 -72q113 0 113 66q0 31 -18.5 45t-74.5 22 q-227 37 -328.5 127t-101.5 242z" />
<glyph unicode="t" horiz-adv-x="1136" d="M82 758v266h215v389h389v-389h318v-266h-318v-307q0 -123 20.5 -154t92.5 -31q96 0 184 31v-287q-135 -31 -287 -30q-219 0 -309 94t-90 336v348h-215z" />
<glyph unicode="u" horiz-adv-x="1290" d="M123 430v635h379v-614q0 -94 25.5 -129t86.5 -35q57 0 105.5 45t48.5 98v635h389v-1065h-373l-4 135h-4q-127 -156 -315 -155q-180 0 -259 100t-79 350z" />
<glyph unicode="v" horiz-adv-x="1249" d="M51 1065h414l162 -840h4l162 840h405l-317 -1065h-512z" />
<glyph unicode="w" horiz-adv-x="1740" d="M72 1065h383l90 -758h4l110 758h431l110 -758h4l90 758h375l-225 -1065h-451l-121 737h-4l-120 -737h-451z" />
<glyph unicode="x" horiz-adv-x="1269" d="M82 0l297 543l-287 522h414l131 -340h4l131 340h406l-287 -522l297 -543h-414l-141 354h-4l-142 -354h-405z" />
<glyph unicode="y" horiz-adv-x="1269" d="M51 1065h430l142 -717h4l182 717h410l-543 -1516h-410l185 451z" />
<glyph unicode="z" horiz-adv-x="1208" d="M133 0v266l451 529v4h-451v266h942v-266l-450 -529v-4h450v-266h-942z" />
<glyph unicode="{" horiz-adv-x="1146" d="M102 440v287h82q102 0 143.5 48t41.5 177v277q0 188 81.5 268t266.5 80h266v-266h-82q-127 0 -155.5 -28t-28.5 -157v-184q0 -147 -56.5 -227t-189.5 -129v-4q133 -49 189.5 -129t56.5 -228v-184q0 -129 28.5 -156.5t155.5 -27.5h82v-267h-266q-184 0 -266 80t-82 269 v276q0 129 -41 177t-144 48h-82z" />
<glyph unicode="|" horiz-adv-x="860" d="M256 -451v2110h348v-2110h-348z" />
<glyph unicode="}" horiz-adv-x="1146" d="M164 -143h82q127 0 155.5 27.5t28.5 156.5v184q0 147 56.5 227t189.5 130v4q-133 49 -189.5 129t-56.5 227v184q0 129 -28.5 157t-155.5 28h-82v266h266q184 0 266 -80t82 -268v-277q0 -129 41 -177t144 -48h81v-287h-81q-102 0 -143.5 -48t-41.5 -177v-276 q0 -188 -82 -268.5t-266 -80.5h-266v267z" />
<glyph unicode="~" horiz-adv-x="1536" d="M92 606q162 295 426 295q178 0 336 -151q88 -90 164 -91q53 0 98 37t115 142l213 -215q-162 -295 -426 -295q-178 0 -336 151q-88 90 -164 90q-53 0 -98 -36.5t-115 -141.5z" />
<glyph unicode="&#xa5;" horiz-adv-x="1474" d="M51 1495h465l223 -614h4l224 614h456l-352 -696h240v-226h-353l-12 -20v-102h365v-226h-365v-225h-418v225h-364v226h364v102l-12 20h-352v226h239z" />
<glyph unicode="&#xaa;" horiz-adv-x="1228" d="M82 307q0 369 553 369h82v20q0 123 -144 123q-180 0 -430 -61v266q84 23 224.5 42t226.5 19q270 0 391 -98t121 -311v-676h-363l-4 135h-4q-131 -156 -325 -155q-143 0 -235.5 91t-92.5 236zM430 338q0 -92 102 -92q80 0 132.5 50t52.5 134v31h-82q-205 0 -205 -123z" />
<glyph unicode="&#xad;" horiz-adv-x="1024" d="M143 440v308h738v-308h-738z" />
<glyph unicode="&#xb2;" d="M143 0v328q274 207 411.5 332.5t180.5 201.5t43 162q0 154 -174 154q-158 0 -430 -113v369q236 82 492 82t394 -120t138 -331q0 -168 -106.5 -319.5t-415.5 -413.5v-4h532v-328h-1065z" />
<glyph unicode="&#xb3;" d="M133 1167v328h1034v-328l-379 -282v-4h21q168 0 273.5 -112t105.5 -298q0 -240 -147.5 -365.5t-426.5 -125.5q-246 0 -471 71v348q248 -96 430 -96q104 0 159.5 42t55.5 116q0 61 -28.5 92t-107.5 46t-232 15h-82v267l348 282v4h-553z" />
<glyph unicode="&#xb9;" d="M174 778v451l389 266h430v-1495h-430v1044h-2z" />
<glyph unicode="&#xba;" horiz-adv-x="1228" d="M61 532.5q0 260.5 145.5 406.5t408 146t407.5 -146t145 -406.5t-145 -406.5t-407.5 -146t-408 146t-145.5 406.5zM451 532.5q0 -157.5 38.5 -222t124.5 -64.5t125 64.5t39 222t-39 222t-125 64.5t-124.5 -64.5t-38.5 -222z" />
<glyph unicode="&#xc0;" horiz-adv-x="1454" d="M153 2294h492l246 -655h-328zM41 0l471 1495h430l471 -1495h-434l-64 287h-385l-63 -287h-426zM598 594h250l-123 553h-4z" />
<glyph unicode="&#xc2;" horiz-adv-x="1454" d="M51 1638l431 922h491l430 -922h-369l-305 717h-4l-305 -717h-369zM41 0l471 1495h430l471 -1495h-434l-64 287h-385l-63 -287h-426zM598 594h250l-123 553h-4z" />
<glyph unicode="&#xc3;" horiz-adv-x="1454" d="M51 1917q162 295 426 295q178 0 336 -151q88 -90 164 -91q53 0 98 37t115 142l213 -215q-162 -295 -426 -295q-178 0 -336 151q-88 90 -164 90q-53 0 -98 -36.5t-115 -141.5zM41 0l471 1495h430l471 -1495h-434l-64 287h-385l-63 -287h-426zM598 594h250l-123 553h-4z " />
<glyph unicode="&#xc8;" horiz-adv-x="1269" d="M71 2294h492l246 -655h-328zM154 0v1495h983v-328h-574v-245h533v-308h-533v-286h574v-328h-983z" />
<glyph unicode="&#xca;" horiz-adv-x="1269" d="M-31 1638l431 922h491l430 -922h-369l-305 717h-4l-305 -717h-369zM154 0v1495h983v-328h-574v-245h533v-308h-533v-286h574v-328h-983z" />
<glyph unicode="&#xcc;" horiz-adv-x="798" d="M-174 2294h492l246 -655h-328zM174 0v1495h451v-1495h-451z" />
<glyph unicode="&#xce;" horiz-adv-x="798" d="M-277 1638l431 922h491l430 -922h-369l-305 717h-4l-305 -717h-369zM174 0v1495h451v-1495h-451z" />
<glyph unicode="&#xd1;" horiz-adv-x="1495" d="M72 1917q162 295 426 295q178 0 336 -151q88 -90 164 -91q53 0 98 37t115 142l213 -215q-162 -295 -426 -295q-178 0 -336 151q-88 90 -164 90q-53 0 -98 -36.5t-115 -141.5zM154 0v1495h389l405 -819h4v819h389v-1495h-389l-405 819h-4v-819h-389z" />
<glyph unicode="&#xd2;" horiz-adv-x="1556" d="M205 2294h492l246 -655h-328zM61 747.5q0 358.5 192.5 563.5t524.5 205t524.5 -205t192.5 -563.5t-192.5 -563t-524.5 -204.5t-524.5 204.5t-192.5 563zM481 747.5q0 -430.5 297 -430.5t297 430.5t-297 430.5t-297 -430.5z" />
<glyph unicode="&#xd4;" horiz-adv-x="1556" d="M102 1638l431 922h491l430 -922h-369l-305 717h-4l-305 -717h-369zM61 747.5q0 358.5 192.5 563.5t524.5 205t524.5 -205t192.5 -563.5t-192.5 -563t-524.5 -204.5t-524.5 204.5t-192.5 563zM481 747.5q0 -430.5 297 -430.5t297 430.5t-297 430.5t-297 -430.5z" />
<glyph unicode="&#xd5;" horiz-adv-x="1556" d="M102 1917q162 295 426 295q178 0 336 -151q88 -90 164 -91q53 0 98 37t115 142l213 -215q-162 -295 -426 -295q-178 0 -336 151q-88 90 -164 90q-53 0 -98 -36.5t-115 -141.5zM61 747.5q0 358.5 192.5 563.5t524.5 205t524.5 -205t192.5 -563.5t-192.5 -563 t-524.5 -204.5t-524.5 204.5t-192.5 563zM481 747.5q0 -430.5 297 -430.5t297 430.5t-297 430.5t-297 -430.5z" />
<glyph unicode="&#xd9;" horiz-adv-x="1454" d="M153 2294h492l246 -655h-328zM133 553v942h414v-973q0 -119 43 -167t141 -48t141 48t43 167v973h406v-942q0 -287 -151.5 -430t-442.5 -143t-442.5 143t-151.5 430z" />
<glyph unicode="&#xdb;" horiz-adv-x="1454" d="M51 1638l431 922h491l430 -922h-369l-305 717h-4l-305 -717h-369zM133 553v942h414v-973q0 -119 43 -167t141 -48t141 48t43 167v973h406v-942q0 -287 -151.5 -430t-442.5 -143t-442.5 143t-151.5 430z" />
<glyph unicode="&#xe0;" horiz-adv-x="1228" d="M20 1864h492l246 -655h-328zM82 307q0 369 553 369h82v20q0 123 -144 123q-180 0 -430 -61v266q84 23 224.5 42t226.5 19q270 0 391 -98t121 -311v-676h-363l-4 135h-4q-131 -156 -325 -155q-143 0 -235.5 91t-92.5 236zM430 338q0 -92 102 -92q80 0 132.5 50t52.5 134 v31h-82q-205 0 -205 -123z" />
<glyph unicode="&#xe2;" horiz-adv-x="1228" d="M-82 1208l431 922h491l430 -922h-369l-305 717h-4l-305 -717h-369zM82 307q0 369 553 369h82v20q0 123 -144 123q-180 0 -430 -61v266q84 23 224.5 42t226.5 19q270 0 391 -98t121 -311v-676h-363l-4 135h-4q-131 -156 -325 -155q-143 0 -235.5 91t-92.5 236zM430 338 q0 -92 102 -92q80 0 132.5 50t52.5 134v31h-82q-205 0 -205 -123z" />
<glyph unicode="&#xe3;" horiz-adv-x="1228" d="M-82 1487q162 295 426 295q178 0 336 -151q88 -90 164 -91q53 0 98 37t115 142l213 -215q-162 -295 -426 -295q-178 0 -336 151q-88 90 -164 90q-53 0 -98 -36.5t-115 -141.5zM82 307q0 369 553 369h82v20q0 123 -144 123q-180 0 -430 -61v266q84 23 224.5 42t226.5 19 q270 0 391 -98t121 -311v-676h-363l-4 135h-4q-131 -156 -325 -155q-143 0 -235.5 91t-92.5 236zM430 338q0 -92 102 -92q80 0 132.5 50t52.5 134v31h-82q-205 0 -205 -123z" />
<glyph unicode="&#xe8;" horiz-adv-x="1198" d="M30 1864h492l246 -655h-328zM61 532q0 266 139.5 409.5t403.5 143.5q522 0 522 -553q0 -55 -8 -112h-672q14 -96 78 -135t203 -39q121 0 317 51v-266q-195 -51 -378 -51q-291 0 -448 142t-157 410zM442 635h326q0 104 -38 149t-116 45q-84 0 -124 -42.5t-48 -151.5z" />
<glyph unicode="&#xea;" horiz-adv-x="1198" d="M-72 1208l431 922h491l430 -922h-369l-305 717h-4l-305 -717h-369zM61 532q0 266 139.5 409.5t403.5 143.5q522 0 522 -553q0 -55 -8 -112h-672q14 -96 78 -135t203 -39q121 0 317 51v-266q-195 -51 -378 -51q-291 0 -448 142t-157 410zM442 635h326q0 104 -38 149 t-116 45q-84 0 -124 -42.5t-48 -151.5z" />
<glyph unicode="&#xec;" horiz-adv-x="757" d="M-195 2314h492l246 -655h-328zM174 0v1065h410v-1065h-410zM174 1249v287h410v-287h-410z" />
<glyph unicode="&#xee;" horiz-adv-x="757" d="M-297 1658l431 922h491l430 -922h-369l-305 717h-4l-305 -717h-369zM174 0v1065h410v-1065h-410zM174 1249v287h410v-287h-410z" />
<glyph unicode="&#xf1;" horiz-adv-x="1300" d="M-21 1487q162 295 426 295q178 0 336 -151q88 -90 164 -91q53 0 98 37t115 142l213 -215q-162 -295 -426 -295q-178 0 -336 151q-88 90 -164 90q-53 0 -98 -36.5t-115 -141.5zM133 0v1065h373l4 -135h4q127 156 315 155q186 0 267.5 -106.5t81.5 -364.5v-614h-379v614 q0 94 -27 129t-96 35q-57 0 -105.5 -45t-48.5 -98v-635h-389z" />
<glyph unicode="&#xf2;" horiz-adv-x="1228" d="M41 1864h492l246 -655h-328zM61 532.5q0 260.5 145.5 406.5t408 146t407.5 -146t145 -406.5t-145 -406.5t-407.5 -146t-408 146t-145.5 406.5zM451 532.5q0 -157.5 38.5 -222t124.5 -64.5t125 64.5t39 222t-39 222t-125 64.5t-124.5 -64.5t-38.5 -222z" />
<glyph unicode="&#xf4;" horiz-adv-x="1228" d="M-62 1208l431 922h491l430 -922h-369l-305 717h-4l-305 -717h-369zM61 532.5q0 260.5 145.5 406.5t408 146t407.5 -146t145 -406.5t-145 -406.5t-407.5 -146t-408 146t-145.5 406.5zM451 532.5q0 -157.5 38.5 -222t124.5 -64.5t125 64.5t39 222t-39 222t-125 64.5 t-124.5 -64.5t-38.5 -222z" />
<glyph unicode="&#xf5;" horiz-adv-x="1228" d="M-62 1487q162 295 426 295q178 0 336 -151q88 -90 164 -91q53 0 98 37t115 142l213 -215q-162 -295 -426 -295q-178 0 -336 151q-88 90 -164 90q-53 0 -98 -36.5t-115 -141.5zM61 532.5q0 260.5 145.5 406.5t408 146t407.5 -146t145 -406.5t-145 -406.5t-407.5 -146 t-408 146t-145.5 406.5zM451 532.5q0 -157.5 38.5 -222t124.5 -64.5t125 64.5t39 222t-39 222t-125 64.5t-124.5 -64.5t-38.5 -222z" />
<glyph unicode="&#xf9;" horiz-adv-x="1290" d="M67 1864h492l246 -655h-328zM123 430v635h379v-614q0 -94 25.5 -129t86.5 -35q57 0 105.5 45t48.5 98v635h389v-1065h-373l-4 135h-4q-127 -156 -315 -155q-180 0 -259 100t-79 350z" />
<glyph unicode="&#xfb;" horiz-adv-x="1290" d="M-37 1208l431 922h491l430 -922h-369l-305 717h-4l-305 -717h-369zM123 430v635h379v-614q0 -94 25.5 -129t86.5 -35q57 0 105.5 45t48.5 98v635h389v-1065h-373l-4 135h-4q-127 -156 -315 -155q-180 0 -259 100t-79 350z" />
<glyph unicode="&#x152;" horiz-adv-x="2826" d="M1710 0v1495h983v-328h-574v-245h533v-308h-533v-286h574v-328h-983zM61 747.5q0 358.5 192.5 563.5t524.5 205t524.5 -205t192.5 -563.5t-192.5 -563t-524.5 -204.5t-524.5 204.5t-192.5 563zM481 747.5q0 -430.5 297 -430.5t297 430.5t-297 430.5t-297 -430.5z" />
<glyph unicode="&#x153;" horiz-adv-x="2426" d="M1290 532q0 266 139.5 409.5t403.5 143.5q522 0 522 -553q0 -55 -8 -112h-672q14 -96 78 -135t203 -39q121 0 317 51v-266q-195 -51 -378 -51q-291 0 -448 142t-157 410zM1671 635h326q0 104 -38 149t-116 45q-84 0 -124 -42.5t-48 -151.5zM61 532.5q0 260.5 145.5 406.5 t408 146t407.5 -146t145 -406.5t-145 -406.5t-407.5 -146t-408 146t-145.5 406.5zM451 532.5q0 -157.5 38.5 -222t124.5 -64.5t125 64.5t39 222t-39 222t-125 64.5t-124.5 -64.5t-38.5 -222z" />
<glyph unicode="&#x2c6;" horiz-adv-x="1474" d="M61 573l431 922h491l430 -922h-369l-305 717h-4l-305 -717h-369z" />
<glyph unicode="&#x2dc;" horiz-adv-x="808" d="M-676 401q162 295 426 295q178 0 336 -151q88 -90 164 -91q53 0 98 37t115 142l213 -215q-162 -295 -426 -295q-178 0 -336 151q-88 90 -164 90q-53 0 -98 -36.5t-115 -141.5z" />
<glyph unicode="&#x2000;" horiz-adv-x="1290" />
<glyph unicode="&#x2001;" horiz-adv-x="2580" />
<glyph unicode="&#x2002;" horiz-adv-x="1290" />
<glyph unicode="&#x2003;" horiz-adv-x="2580" />
<glyph unicode="&#x2004;" horiz-adv-x="860" />
<glyph unicode="&#x2005;" horiz-adv-x="645" />
<glyph unicode="&#x2006;" horiz-adv-x="430" />
<glyph unicode="&#x2007;" horiz-adv-x="430" />
<glyph unicode="&#x2008;" horiz-adv-x="321" />
<glyph unicode="&#x2009;" horiz-adv-x="516" />
<glyph unicode="&#x200a;" horiz-adv-x="143" />
<glyph unicode="&#x2010;" horiz-adv-x="1024" d="M143 440v308h738v-308h-738z" />
<glyph unicode="&#x2011;" horiz-adv-x="1024" d="M143 440v308h738v-308h-738z" />
<glyph unicode="&#x2012;" horiz-adv-x="1024" d="M143 440v308h738v-308h-738z" />
<glyph unicode="&#x2013;" horiz-adv-x="972" d="M0 440v308h973v-308h-973z" />
<glyph unicode="&#x2014;" horiz-adv-x="1945" d="M0 440v308h1946v-308h-1946z" />
<glyph unicode="&#x2018;" horiz-adv-x="768" d="M72 922l245 655h328l-123 -655h-450z" />
<glyph unicode="&#x2019;" horiz-adv-x="768" d="M123 922l123 655h450l-245 -655h-328z" />
<glyph unicode="&#x201a;" horiz-adv-x="798" d="M102 -225l123 655h451l-246 -655h-328z" />
<glyph unicode="&#x201c;" horiz-adv-x="1218" d="M61 922l246 655h287l-123 -655h-410zM573 922l246 655h287l-123 -655h-410z" />
<glyph unicode="&#x201d;" horiz-adv-x="1218" d="M113 922l123 655h409l-246 -655h-286zM625 922l123 655h409l-246 -655h-286z" />
<glyph unicode="&#x201e;" horiz-adv-x="1249" d="M92 -225l123 655h410l-246 -655h-287zM604 -225l123 655h410l-246 -655h-287z" />
<glyph unicode="&#x2022;" horiz-adv-x="1044" d="M236 594q0 119 83.5 203t202.5 84t203 -84t84 -203t-84 -203t-203 -84t-202.5 84t-83.5 203z" />
<glyph unicode="&#x2026;" horiz-adv-x="2048" d="M158 532v431h450v-431h-450zM840 532v431h450v-431h-450zM1522 532v431h450v-431h-450z" />
<glyph unicode="&#x202f;" horiz-adv-x="516" />
<glyph unicode="&#x2039;" horiz-adv-x="1433" d="M113 369v450l1147 389v-327l-922 -285v-4l922 -285v-327z" />
<glyph unicode="&#x203a;" horiz-adv-x="1433" d="M174 -20v327l922 285v4l-922 285v327l1147 -389v-450z" />
<glyph unicode="&#x205f;" horiz-adv-x="645" />
<glyph unicode="&#x2122;" horiz-adv-x="3174" d="M1547 0v1495h415l316 -881h4l315 881h424v-1495h-383v819h-4l-190 -512h-328l-191 512h-4v-819h-374zM102 1157v338h1188v-338h-385v-1157h-418v1157h-385z" />
<glyph unicode="&#xe000;" horiz-adv-x="1065" d="M0 1065h1065v-1065h-1065v1065z" />
<glyph unicode="&#xfb01;" horiz-adv-x="1914" d="M1331 0v1065h410v-1065h-410zM1331 1249v287h410v-287h-410zM92 758v266h225v41q0 233 109 342t342 109q135 0 266 -31v-277q-82 31 -164 31q-96 0 -124.5 -31.5t-28.5 -142.5v-41h297v-266h-297v-758h-400v758h-225z" />
<glyph unicode="&#xfb02;" horiz-adv-x="1914" d="M1331 0v1536h410v-1536h-410zM92 758v266h225v41q0 233 109 342t342 109q135 0 266 -31v-277q-82 31 -164 31q-96 0 -124.5 -31.5t-28.5 -142.5v-41h297v-266h-297v-758h-400v758h-225z" />
<glyph unicode="&#xfb03;" horiz-adv-x="3072" d="M2488 0v1065h410v-1065h-410zM2488 1249v287h410v-287h-410zM1249 758v266h225v41q0 233 109 342t342 109q135 0 266 -31v-277q-82 31 -164 31q-96 0 -124.5 -31.5t-28.5 -142.5v-41h297v-266h-297v-758h-400v758h-225zM92 758v266h225v41q0 233 109 342t342 109 q135 0 266 -31v-277q-82 31 -164 31q-96 0 -124.5 -31.5t-28.5 -142.5v-41h297v-266h-297v-758h-400v758h-225z" />
<glyph unicode="&#xfb04;" horiz-adv-x="3072" d="M2488 0v1536h410v-1536h-410zM1249 758v266h225v41q0 233 109 342t342 109q135 0 266 -31v-277q-82 31 -164 31q-96 0 -124.5 -31.5t-28.5 -142.5v-41h297v-266h-297v-758h-400v758h-225zM92 758v266h225v41q0 233 109 342t342 109q135 0 266 -31v-277q-82 31 -164 31 q-96 0 -124.5 -31.5t-28.5 -142.5v-41h297v-266h-297v-758h-400v758h-225z" />
</font>
</defs>
</svg>
