<?xml version="1.0" standalone="no"?>
<!DOCTYPE svg PUBLIC "-//W3C//DTD SVG 1.1//EN" "http://www.w3.org/Graphics/SVG/1.1/DTD/svg11.dtd" >
<svg xmlns="http://www.w3.org/2000/svg">
<metadata>
This is a custom SVG webfont generated by Font Squirrel.
Copyright   : Copyrightc 2008 M FONTS PROJECT
Foundry URL : httpmplusfontssourceforgejp
</metadata>
<defs>
<font id="webfontHUCSkXWG" horiz-adv-x="1255" >
<font-face units-per-em="2048" ascent="1761" descent="-287" />
<missing-glyph horiz-adv-x="722" />
<glyph unicode=" "  horiz-adv-x="722" />
<glyph unicode="&#x09;" horiz-adv-x="722" />
<glyph unicode="&#xa0;" horiz-adv-x="722" />
<glyph unicode="!" horiz-adv-x="544" d="M252 0v225h41v-225h-41zM252 389v1106h41v-1106h-41z" />
<glyph unicode="&#x22;" horiz-adv-x="688" d="M160 1126v451h41v-451h-41zM487 1126v451h41v-451h-41z" />
<glyph unicode="#" horiz-adv-x="1368" d="M119 440v41h270l100 574h-262v41h271l69 399h41l-69 -399h409l70 399h41l-70 -399h262v-41h-270l-100 -574h262v-41h-271l-77 -440h-41l77 440h-409l-78 -440h-41l78 440h-262zM430 481h410l100 574h-410z" />
<glyph unicode="$" horiz-adv-x="1087" d="M129 111v43q188 -76 379 -82v680q-379 68 -379 374q0 152 102.5 243t276.5 95v205h41v-205q180 -2 369 -57v-43q-184 57 -369 59v-639q229 -41 319 -149.5t90 -245.5q0 -162 -110.5 -258t-298.5 -100v-205h-41v205q-197 6 -379 80zM170 1126q0 -270 338 -333v630 q-154 -4 -246 -84t-92 -213zM549 72q170 4 269.5 89t99.5 228q0 287 -369 354v-671z" />
<glyph unicode="%" horiz-adv-x="1589" d="M98 1136.5q0 178.5 84 279t233.5 100.5t233.5 -100.5t84 -279t-84 -278.5t-233.5 -100t-233.5 100t-84 278.5zM139 1136.5q0 -157.5 73 -247.5t204 -90t203.5 90t72.5 247.5t-72.5 248t-203.5 90.5t-204 -90.5t-73 -248zM340 0l862 1495h47l-862 -1495h-47zM856 358.5 q0 178.5 84 278.5t233.5 100t233.5 -100t84 -278.5t-84 -278.5t-233.5 -100t-233.5 100t-84 278.5zM897 358.5q0 -157.5 72.5 -248t204 -90.5t204 90.5t72.5 248t-72.5 247.5t-204 90t-204 -90t-72.5 -247.5z" />
<glyph unicode="&#x26;" horiz-adv-x="1402" d="M129 348q0 119 93 232.5t304 255.5l27 18l-29 33q-121 135 -166 216t-45 167q0 109 89.5 177.5t228.5 68.5q150 0 233.5 -66t83.5 -180q0 -113 -68.5 -201t-265.5 -223l488 -539v574h41v-621l235 -260h-55l-205 227q-203 -248 -538 -247q-215 0 -333 96t-118 272z M170 348q0 -156 107.5 -242t302.5 -86q324 0 510 238l-508 565l-31 -20q-203 -137 -292 -243t-89 -212zM354 1270q0 -72 39 -145.5t160 -209.5l35 -38q195 133 257 215t62 178q0 98 -71.5 151.5t-204.5 53.5q-125 0 -201 -56.5t-76 -148.5z" />
<glyph unicode="'" horiz-adv-x="380" d="M170 1126v451h41v-451h-41z" />
<glyph unicode="(" horiz-adv-x="698" d="M160 676q0 547 370 901h60q-389 -350 -389 -901t389 -901h-60q-370 354 -370 901z" />
<glyph unicode=")" horiz-adv-x="698" d="M109 -225q389 350 389 901t-389 901h59q371 -354 371 -901t-371 -901h-59z" />
<glyph unicode="*" horiz-adv-x="1067" d="M119 1219l12 38l383 -122v401h41v-401l381 122l14 -38l-383 -123l236 -326l-33 -25l-235 326l-238 -326l-33 25l238 326z" />
<glyph unicode="+" horiz-adv-x="1507" d="M180 573v41h553v574h41v-574h553v-41h-553v-573h-41v573h-553z" />
<glyph unicode="," horiz-adv-x="505" d="M139 -225l164 450h43l-164 -450h-43z" />
<glyph unicode="-" horiz-adv-x="933" d="M180 553v41h574v-41h-574z" />
<glyph unicode="." horiz-adv-x="462" d="M211 0v225h41v-225h-41z" />
<glyph unicode="/" horiz-adv-x="952" d="M88 -82l703 1577h45l-703 -1577h-45z" />
<glyph unicode="0" d="M129 747.5q0 182.5 32 322.5t81 223t118.5 134.5t137 70t143.5 18.5t143.5 -18.5t137 -70t119 -134.5t81 -223t31.5 -322.5t-31.5 -322.5t-81 -223t-119 -134.5t-137 -69.5t-143.5 -18t-143.5 18t-137 69.5t-118.5 134.5t-81 223t-32 322.5zM170 747.5 q0 -727.5 471 -727.5t471 727.5t-471 727.5t-471 -727.5z" />
<glyph unicode="1" d="M252 1073v53l450 369h41v-1495h-41v1438h-4z" />
<glyph unicode="2" d="M190 0v41q475 418 648.5 649.5t173.5 415.5q0 176 -100.5 272.5t-280.5 96.5q-217 0 -410 -119v47q190 113 410 113q199 0 310.5 -109t111.5 -301q0 -197 -175.5 -429.5t-625.5 -631.5v-4h819v-41h-881z" />
<glyph unicode="3" d="M201 1454v41h850v-41l-592 -590v-4h106q506 0 506 -409q0 -471 -512 -471q-188 0 -338 92v49q150 -100 338 -101q471 0 471 431q0 369 -465 368h-164v41l590 590v4h-790z" />
<glyph unicode="4" d="M57 389v41l779 1065h41v-1065h286v-41h-286v-389h-41v389h-779zM109 430h727v995h-5l-722 -991v-4z" />
<glyph unicode="5" d="M221 72v47q166 -98 359 -99q225 0 342.5 115t117.5 336q0 193 -112.5 296t-327.5 103q-180 0 -315 -102h-43l53 727h725v-41h-688l-47 -635h4q143 92 311 92q229 0 355 -114.5t126 -325.5q0 -238 -129 -364.5t-372 -126.5q-193 0 -359 92z" />
<glyph unicode="6" d="M150 655q0 434 148 647.5t415 213.5q174 0 327 -62v-45q-152 66 -327 66q-246 0 -384.5 -200t-140.5 -597l5 -2q49 139 182 223t307 84q211 0 341 -135t130 -356q0 -242 -132 -377t-359 -135q-244 0 -378 165.5t-134 509.5zM205 532q0 -41 4 -83.5t29.5 -126.5 t69.5 -144.5t136.5 -109t217.5 -48.5q215 0 332.5 123t117.5 349q0 203 -117.5 326.5t-312.5 123.5q-207 0 -342 -118t-135 -292z" />
<glyph unicode="7" d="M180 1454v41h922v-41q-367 -612 -633 -1454h-43q258 827 629 1450v4h-875z" />
<glyph unicode="8" d="M129 389q0 315 408 408v4q-164 45 -256.5 143t-92.5 234q0 154 124 246t329 92t329 -92.5t124 -245.5q0 -135 -92.5 -233.5t-256.5 -143.5v-4q408 -92 408 -408q0 -188 -138 -298.5t-373.5 -110.5t-374 110.5t-138.5 298.5zM170 389q0 -170 127 -269.5t344 -99.5 t344 99.5t127 269.5q0 317 -471 389q-471 -72 -471 -389zM229 1178q0 -137 111 -233.5t301 -125.5q190 29 301 125t111 234q0 135 -113 216t-299 81t-299 -81t-113 -216z" />
<glyph unicode="9" d="M139 1024q0 225 138.5 358.5t353.5 133.5q244 0 378 -163t134 -493q0 -881 -563 -880q-176 0 -349 61v45q166 -66 349 -66q514 0 522 807h-4q-49 -145 -179.5 -230t-308.5 -85q-213 0 -342 138t-129 374zM180 1024q0 -215 117 -343t313 -128q209 0 343 121t134 309 q0 20 -2 45t-11 76t-25.5 96t-51 97.5t-81 90t-121 62.5t-164.5 25q-201 0 -326 -121t-125 -330z" />
<glyph unicode=":" horiz-adv-x="626" d="M293 0v225h41v-225h-41zM293 799v225h41v-225h-41z" />
<glyph unicode=";" horiz-adv-x="669" d="M180 -225l164 450h43l-164 -450h-43zM313 799v225h41v-225h-41z" />
<glyph unicode="&#x3c;" horiz-adv-x="1343" d="M150 567v54l983 505v-45l-947 -485v-4l947 -486v-45z" />
<glyph unicode="=" horiz-adv-x="1548" d="M201 348v41h1147v-41h-1147zM201 799v41h1147v-41h-1147z" />
<glyph unicode="&#x3e;" horiz-adv-x="1343" d="M211 61v45l946 486v4l-946 485v45l983 -505v-54z" />
<glyph unicode="?" horiz-adv-x="1282" d="M190 1401v43q217 72 451 72q236 0 364 -81t128 -227q0 -76 -21.5 -136t-71 -110.5t-84 -76t-104.5 -72.5q-76 -47 -113 -75.5t-87 -81t-71.5 -117t-21.5 -150.5h-41q0 76 20.5 140.5t46 106.5t75 86t81 66.5t88.5 59.5q68 45 101 69.5t78 69.5t64.5 99.5t19.5 121.5 q0 127 -118 197t-333 70q-238 0 -451 -74zM518 0v225h41v-225h-41z" />
<glyph unicode="@" horiz-adv-x="1691" d="M98 747.5q0 329.5 209 538.5t539 209q336 0 541.5 -206t205.5 -541q0 -201 -112.5 -319t-292.5 -118q-113 0 -154 60q-35 47 -28 137h-2q-119 -197 -328 -197q-129 0 -207 101q-102 137 -39 356q59 209 177 326.5t263 117.5q133 0 207 -96q39 -57 51 -135h2l58 201h43 l-164 -572q-47 -156 0 -215q31 -43 121 -43q166 0 265 107.5t99 288.5q0 317 -194.5 511.5t-511.5 194.5q-311 0 -509 -197.5t-198 -509t198 -509t509 -197.5q201 0 368 92v-45q-166 -88 -368 -88q-330 0 -539 209t-209 538.5zM471 756q-59 -197 31 -320q66 -84 174 -84 q143 0 237.5 100.5t157.5 319.5q57 207 -27 320q-63 80 -174 79q-131 0 -237.5 -110t-161.5 -305z" />
<glyph unicode="A" horiz-adv-x="1323" d="M78 0l553 1495h61l553 -1495h-43l-188 512h-705l-188 -512h-43zM326 553h671l-333 907h-5z" />
<glyph unicode="B" horiz-adv-x="1189" d="M190 14v1467q145 35 308 35q152 0 258 -31t158.5 -85t74 -109.5t21.5 -123.5q0 -131 -80 -219t-230 -123v-4q186 -33 289 -142.5t103 -248.5q0 -68 -13.5 -126t-52.5 -119.5t-101.5 -105.5t-166 -71.5t-240.5 -27.5q-172 -1 -328 34zM231 47q145 -27 287 -27 q532 0 533 410q0 162 -147.5 265.5t-426.5 103.5h-246v-752zM231 840h246q236 0 364 86t128 241q0 307 -471 308q-129 0 -267 -27v-608z" />
<glyph unicode="C" horiz-adv-x="1220" d="M98 747.5q0 362.5 154 565.5t412 203q195 0 366 -72v-45q-174 76 -366 76q-246 0 -385.5 -194t-139.5 -533q0 -336 146.5 -532t396.5 -196q190 0 358 76v-45q-172 -72 -358 -71q-262 0 -423 202.5t-161 565z" />
<glyph unicode="D" horiz-adv-x="1312" d="M190 14v1467q156 35 308 35q717 0 716 -748q0 -788 -716 -788q-158 -1 -308 34zM231 47q137 -27 267 -27q346 0 511 182.5t165 565.5q0 360 -165 533.5t-511 173.5q-129 0 -267 -27v-1401z" />
<glyph unicode="E" horiz-adv-x="1179" d="M190 0v1495h820v-41h-779v-614h738v-41h-738v-758h779v-41h-820z" />
<glyph unicode="F" horiz-adv-x="1148" d="M190 0v1495h799v-41h-758v-635h717v-41h-717v-778h-41z" />
<glyph unicode="G" horiz-adv-x="1384" d="M98 748q0 352 186.5 560t489.5 208q190 0 369 -62v-43q-182 63 -369 64q-289 0 -462 -198t-173 -529.5t167 -529.5t448 -198q225 0 409 76v703h-573v41h614v-772q-205 -88 -450 -88q-291 0 -473.5 205t-182.5 563z" />
<glyph unicode="H" horiz-adv-x="1323" d="M190 0v1495h41v-655h861v655h41v-1495h-41v799h-861v-799h-41z" />
<glyph unicode="I" horiz-adv-x="585" d="M272 0v1495h41v-1495h-41z" />
<glyph unicode="J" horiz-adv-x="1046" d="M98 41v43q164 -63 348 -64q201 0 295.5 114t94.5 358v1003h41v-1003q0 -264 -107.5 -388t-323.5 -124q-184 0 -348 61z" />
<glyph unicode="K" horiz-adv-x="1179" d="M190 0v1495h41v-688h5l774 688h61l-809 -717l830 -778h-60l-796 750h-5v-750h-41z" />
<glyph unicode="L" horiz-adv-x="1169" d="M190 0v1495h41v-1454h799v-41h-840z" />
<glyph unicode="M" horiz-adv-x="1650" d="M190 0v1495h68l565 -942h4l566 942h67v-1495h-41v1452h-4l-565 -940h-49l-565 940h-5v-1452h-41z" />
<glyph unicode="N" horiz-adv-x="1384" d="M190 0v1495h66l893 -1452h4v1452h41v-1495h-66l-892 1452h-5v-1452h-41z" />
<glyph unicode="O" horiz-adv-x="1425" d="M98 747.5q0 366.5 161 567.5t454 201t453.5 -201t160.5 -567.5t-160.5 -567t-453.5 -200.5t-454 200.5t-161 567zM139 747.5q0 -352.5 147.5 -540t426 -187.5t426 187.5t147.5 540t-147.5 540t-426 187.5t-426 -187.5t-147.5 -540z" />
<glyph unicode="P" horiz-adv-x="1179" d="M190 0v1481q168 35 349 35q268 0 410.5 -114t142.5 -327q0 -215 -144.5 -332.5t-408.5 -117.5q-162 0 -308 18v-643h-41zM231 684q145 -18 308 -18q248 0 380 105.5t132 303.5q0 197 -130 298.5t-382 101.5q-154 0 -308 -29v-762z" />
<glyph unicode="Q" horiz-adv-x="1497" d="M98 747.5q0 366.5 161 567.5t454 201t453.5 -201t160.5 -567q0 -299 -107.5 -488.5t-310.5 -251.5v-4q399 -51 582 -311h-51q-217 287 -727 287q-293 0 -454 200.5t-161 567zM139 747.5q0 -352.5 147.5 -540t426 -187.5t426 187.5t147.5 540t-147.5 540t-426 187.5 t-426 -187.5t-147.5 -540z" />
<glyph unicode="R" horiz-adv-x="1220" d="M190 0v1485q154 31 328 31q553 0 553 -400q0 -309 -371 -371v-4q57 -23 101.5 -84t118.5 -227l192 -430h-45l-184 414q-45 100 -72 149t-54.5 89t-68.5 52.5t-83 17.5t-128 5h-246v-727h-41zM231 768h246q289 0 421 86t132 262q0 358 -512 359q-129 0 -287 -25v-682z" />
<glyph unicode="S" horiz-adv-x="1097" d="M139 1198q0 154 103.5 236t296.5 82q205 0 389 -93v-45q-188 96 -389 97q-358 0 -359 -277q0 -129 93.5 -226.5t271.5 -152.5q217 -70 315 -176t98 -274q0 -188 -108.5 -288.5t-310.5 -100.5q-223 0 -389 112v51q164 -123 389 -123q186 0 282.5 89.5t96.5 259.5 q0 152 -91.5 249t-294.5 160q-393 125 -393 420z" />
<glyph unicode="T" horiz-adv-x="1302" d="M139 1454v41h1024v-41h-491v-1454h-41v1454h-492z" />
<glyph unicode="U" horiz-adv-x="1323" d="M170 492v1003h41v-1003q0 -231 114.5 -351.5t336 -120.5t336 120t114.5 352v1003h41v-1003q0 -250 -129 -381t-362.5 -131t-362.5 131t-129 381z" />
<glyph unicode="V" horiz-adv-x="1323" d="M78 1495h45l536 -1460h5l536 1460h45l-553 -1495h-61z" />
<glyph unicode="W" horiz-adv-x="1794" d="M109 1495h43l333 -1460h4l375 1460h66l375 -1460h4l333 1460h44l-347 -1495h-65l-375 1460h-4l-375 -1460h-65z" />
<glyph unicode="X" horiz-adv-x="1282" d="M129 0l487 756l-477 739h49l451 -702h4l451 702h49l-477 -739l487 -756h-49l-461 719h-4l-461 -719h-49z" />
<glyph unicode="Y" horiz-adv-x="1282" d="M78 1495h49l512 -782h4l512 782h49l-542 -825v-670h-41v670z" />
<glyph unicode="Z" horiz-adv-x="1241" d="M170 0v41l850 1409v4h-850v41h901v-41l-850 -1409v-4h850v-41h-901z" />
<glyph unicode="[" horiz-adv-x="913" d="M252 -225v1802h471v-41h-430v-1720h430v-41h-471z" />
<glyph unicode="\" horiz-adv-x="952" d="M119 1495h45l702 -1577h-45z" />
<glyph unicode="]" horiz-adv-x="913" d="M190 -184h431v1720h-431v41h472v-1802h-472v41z" />
<glyph unicode="^" horiz-adv-x="1220" d="M98 573l482 922h61l481 -922h-47l-463 893h-4l-463 -893h-47z" />
<glyph unicode="_" horiz-adv-x="1105" d="M0 -184h1106v-41h-1106v41z" />
<glyph unicode="`" horiz-adv-x="452" d="M47 1659h47l260 -451h-47z" />
<glyph unicode="a" horiz-adv-x="1056" d="M119 287q0 55 14 103t54 98.5t103.5 86t172 58t250.5 22.5h143v103q0 158 -68.5 222t-238.5 64q-205 0 -379 -75v45q170 72 379 71q188 0 268 -75.5t80 -251.5v-758h-41v238h-4q-55 -119 -167 -188.5t-259 -69.5q-143 0 -225 82t-82 225zM160 287q0 -125 70.5 -196 t195.5 -71q186 0 308 116t122 294v184h-143q-553 1 -553 -327z" />
<glyph unicode="b" horiz-adv-x="1148" d="M180 0v1495h41v-621h4q53 94 157.5 152.5t227.5 58.5q207 0 318.5 -143t111.5 -410q0 -264 -112.5 -408t-317.5 -144q-123 0 -227 58t-158 152h-4v-190h-41zM221 338q0 -127 117 -222.5t272 -95.5q188 0 288.5 132.5t100.5 379.5q0 252 -99 382t-290 130 q-156 0 -272.5 -95t-116.5 -222v-389z" />
<glyph unicode="c" horiz-adv-x="1015" d="M98 532q0 272 121 412.5t340 140.5q145 0 287 -51v-45q-131 55 -287 55q-123 0 -210 -45t-130 -124.5t-61.5 -161.5t-18.5 -181q0 -512 441 -512q145 0 276 54v-43q-135 -51 -276 -51q-233 0 -357.5 139t-124.5 413z" />
<glyph unicode="d" horiz-adv-x="1148" d="M109 532q0 266 111.5 409.5t318.5 143.5q123 0 227 -58t158 -153h4v621h41v-1495h-41v190h-4q-53 -94 -157.5 -152t-227.5 -58q-205 0 -317.5 144t-112.5 408zM150 532q0 -248 100 -380t289 -132q156 0 272.5 95.5t116.5 222.5v389q0 127 -117 222t-272 95 q-190 0 -289.5 -130t-99.5 -382z" />
<glyph unicode="e" horiz-adv-x="1067" d="M98 532q0 131 28 232.5t72 161t105.5 96.5t119.5 50t126 13q410 0 409 -532v-21h-819q0 -512 441 -512q168 0 317 66v-45q-154 -61 -317 -61q-482 -1 -482 552zM139 573h779q-8 471 -369 471q-392 0 -410 -471z" />
<glyph unicode="f" horiz-adv-x="1046" d="M129 983v41h307v184q0 166 65.5 237t221.5 71q90 0 164 -31v-45q-76 35 -164 35q-137 0 -191.5 -58.5t-54.5 -208.5v-184h389v-41h-389v-983h-41v983h-307z" />
<glyph unicode="g" horiz-adv-x="1118" d="M109 532q0 164 36.5 279t102 171t133.5 79.5t147 23.5q129 0 227.5 -56t147.5 -152h4v188h41v-1024q0 -268 -107.5 -390t-342.5 -122q-162 0 -287 51v43q133 -53 287 -53q217 0 313 110.5t96 360.5v168h-4q-49 -96 -147.5 -152.5t-227.5 -56.5q-197 0 -308 141t-111 391z M150 532q0 -231 100 -361t278 -130q164 0 271.5 95t107.5 243v328q0 147 -107.5 242t-271.5 95q-378 0 -378 -512z" />
<glyph unicode="h" horiz-adv-x="1118" d="M180 0v1495h41v-651h4q59 98 167 169.5t218 71.5q184 0 266 -102t82 -348v-635h-40v635q0 242 -74 325.5t-234 83.5q-131 0 -260 -112.5t-129 -214.5v-717h-41z" />
<glyph unicode="i" horiz-adv-x="585" d="M272 0v1065h41v-1065h-41zM272 1331v205h41v-205h-41z" />
<glyph unicode="j" horiz-adv-x="698" d="M-4 -410q242 0 315.5 65.5t73.5 283.5v1126h41v-1126q0 -236 -85 -313t-345 -77v41zM385 1331v205h41v-205h-41z" />
<glyph unicode="k" horiz-adv-x="1067" d="M180 0v1495h41v-913h4l654 483h69l-696 -512l706 -553h-65l-668 524h-4v-524h-41z" />
<glyph unicode="l" horiz-adv-x="585" d="M272 0v1536h41v-1536h-41z" />
<glyph unicode="m" horiz-adv-x="1599" d="M170 0v1065h41v-188h4q47 92 130 150t173 58q242 0 291 -241h4q41 102 131 171.5t189 69.5q158 0 232.5 -100t74.5 -309v-676h-41v676q0 193 -63.5 280.5t-202.5 87.5q-115 0 -211.5 -102t-96.5 -225v-717h-41v676q0 197 -64.5 282.5t-201.5 85.5q-115 0 -211 -102 t-96 -225v-717h-41z" />
<glyph unicode="n" horiz-adv-x="1107" d="M170 0v1065h41v-215h4q57 98 167 166.5t218 68.5q184 0 266 -102t82 -348v-635h-41v635q0 242 -73.5 325.5t-233.5 83.5q-135 0 -262 -108.5t-127 -218.5v-717h-41z" />
<glyph unicode="o" horiz-adv-x="1118" d="M98 532.5q0 264.5 121 408.5t340 144t340 -144t121 -408.5t-121 -408.5t-340 -144t-340 144t-121 408.5zM139 532.5q0 -247.5 108.5 -380t311.5 -132.5t311.5 132.5t108.5 380t-108.5 379.5t-311.5 132t-311.5 -132t-108.5 -379.5z" />
<glyph unicode="p" horiz-adv-x="1138" d="M170 -451v1516h41v-193h4q51 98 152.5 155.5t232.5 57.5q207 0 318.5 -143t111.5 -410q0 -264 -112.5 -408t-317.5 -144q-131 0 -232.5 57t-152.5 156h-4v-644h-41zM211 358q0 -141 110.5 -239.5t278.5 -98.5q188 0 288.5 132.5t100.5 379.5q0 252 -99 382t-290 130 q-168 0 -278.5 -98t-110.5 -239v-349z" />
<glyph unicode="q" horiz-adv-x="1138" d="M109 532q0 266 111.5 409.5t318.5 143.5q131 0 232 -57t153 -156h4v193h41v-1516h-41v644h-4q-51 -98 -152.5 -155.5t-232.5 -57.5q-205 0 -317.5 144t-112.5 408zM150 532q0 -248 100 -380t289 -132q168 0 278.5 98.5t110.5 239.5v349q0 141 -110.5 239t-278.5 98 q-190 0 -289.5 -130t-99.5 -382z" />
<glyph unicode="r" horiz-adv-x="872" d="M170 0v1065h41v-301h4q59 139 187 220t300 81h41v-41h-41q-217 0 -354 -132t-137 -339v-553h-41z" />
<glyph unicode="s" horiz-adv-x="995" d="M139 61v45q172 -86 348 -86q154 0 241 66t87 180q0 92 -66.5 160t-265.5 106q-184 37 -264 103.5t-80 183.5q0 121 95.5 193.5t252.5 72.5q174 0 338 -61v-45q-166 66 -338 65q-143 0 -225 -60t-82 -165q0 -92 65.5 -150.5t246.5 -95.5q188 -39 276 -112.5t88 -194.5 q0 -133 -99.5 -209.5t-269.5 -76.5q-182 -1 -348 81z" />
<glyph unicode="t" horiz-adv-x="1005" d="M119 983v41h256v389h41v-389h420v-41h-420v-696q0 -164 50 -215.5t185 -51.5q84 0 164 35v-45q-78 -31 -164 -30q-158 0 -217 65.5t-59 241.5v696h-256z" />
<glyph unicode="u" horiz-adv-x="1097" d="M160 389v676h41v-676q0 -213 74.5 -291t222.5 -78q135 0 262 109t127 219v717h41v-1065h-41v215h-4q-57 -98 -167 -166.5t-218 -68.5q-174 0 -256 95t-82 314z" />
<glyph unicode="v" horiz-adv-x="1097" d="M88 1065h45l414 -1032h4l414 1032h45l-430 -1065h-62z" />
<glyph unicode="w" horiz-adv-x="1609" d="M109 1065h43l313 -1026h4l305 1026h62l305 -1026h4l313 1026h43l-327 -1065h-62l-305 1026h-4l-305 -1026h-62z" />
<glyph unicode="x" horiz-adv-x="1077" d="M119 0l395 539l-385 526h51l357 -492h4l356 492h51l-385 -526l395 -539h-51l-366 504h-4l-367 -504h-51z" />
<glyph unicode="y" horiz-adv-x="1097" d="M88 1065h45l395 -989h4l433 989h45l-666 -1516h-45l209 476z" />
<glyph unicode="z" horiz-adv-x="1077" d="M170 0v41l684 979v4h-684v41h737v-41l-684 -979v-4h684v-41h-737z" />
<glyph unicode="{" horiz-adv-x="1015" d="M139 655v41h103q76 0 120 73t44 194v327q0 152 58 219.5t187 67.5h164v-41h-164q-102 0 -153.5 -51t-51.5 -195v-327q0 -219 -122 -285v-4q123 -66 122 -285v-328q0 -143 51.5 -194t153.5 -51h164v-41h-164q-129 0 -187 67.5t-58 218.5v328q0 121 -44.5 193.5 t-119.5 72.5h-103z" />
<glyph unicode="|" horiz-adv-x="626" d="M293 -451v2110h41v-2110h-41z" />
<glyph unicode="}" horiz-adv-x="1015" d="M201 -184h164q102 0 153 51t51 194v328q0 219 123 285v4q-123 66 -123 285v327q0 143 -51 194.5t-153 51.5h-164v41h164q129 0 187 -67.5t58 -219.5v-327q0 -121 44 -194t120 -73h103v-41h-103q-76 0 -120 -72.5t-44 -193.5v-328q0 -152 -58 -219t-187 -67h-164v41z" />
<glyph unicode="~" horiz-adv-x="1404" d="M129 575q123 182 320 183q141 0 268 -129q115 -117 239 -117q174 0 285 164l35 -23q-123 -182 -320 -182q-141 0 -268 129q-115 117 -239 117q-174 0 -285 -164z" />
<glyph unicode="&#xa5;" horiz-adv-x="1302" d="M88 1495h49l512 -782h4l512 782h49l-524 -799h432v-41h-450v-256h450v-41h-450v-358h-41v358h-451v41h451v256h-451v41h432z" />
<glyph unicode="&#xaa;" horiz-adv-x="1056" d="M119 287q0 55 14 103t54 98.5t103.5 86t172 58t250.5 22.5h143v103q0 158 -68.5 222t-238.5 64q-205 0 -379 -75v45q170 72 379 71q188 0 268 -75.5t80 -251.5v-758h-41v238h-4q-55 -119 -167 -188.5t-259 -69.5q-143 0 -225 82t-82 225zM160 287q0 -125 70.5 -196 t195.5 -71q186 0 308 116t122 294v184h-143q-553 1 -553 -327z" />
<glyph unicode="&#xad;" horiz-adv-x="933" d="M180 553v41h574v-41h-574z" />
<glyph unicode="&#xb2;" d="M190 0v41q475 418 648.5 649.5t173.5 415.5q0 176 -100.5 272.5t-280.5 96.5q-217 0 -410 -119v47q190 113 410 113q199 0 310.5 -109t111.5 -301q0 -197 -175.5 -429.5t-625.5 -631.5v-4h819v-41h-881z" />
<glyph unicode="&#xb3;" d="M201 1454v41h850v-41l-592 -590v-4h106q506 0 506 -409q0 -471 -512 -471q-188 0 -338 92v49q150 -100 338 -101q471 0 471 431q0 369 -465 368h-164v41l590 590v4h-790z" />
<glyph unicode="&#xb9;" d="M252 1073v53l450 369h41v-1495h-41v1438h-4z" />
<glyph unicode="&#xba;" horiz-adv-x="1118" d="M98 532.5q0 264.5 121 408.5t340 144t340 -144t121 -408.5t-121 -408.5t-340 -144t-340 144t-121 408.5zM139 532.5q0 -247.5 108.5 -380t311.5 -132.5t311.5 132.5t108.5 380t-108.5 379.5t-311.5 132t-311.5 -132t-108.5 -379.5z" />
<glyph unicode="&#xc0;" horiz-adv-x="1323" d="M379 2089h47l260 -451h-47zM78 0l553 1495h61l553 -1495h-43l-188 512h-705l-188 -512h-43zM326 553h671l-333 907h-5z" />
<glyph unicode="&#xc2;" horiz-adv-x="1323" d="M149 1638l482 922h61l481 -922h-47l-463 893h-4l-463 -893h-47zM78 0l553 1495h61l553 -1495h-43l-188 512h-705l-188 -512h-43zM326 553h671l-333 907h-5z" />
<glyph unicode="&#xc3;" horiz-adv-x="1323" d="M88 1742q123 182 320 183q141 0 268 -129q115 -117 239 -117q174 0 285 164l35 -23q-123 -182 -320 -182q-141 0 -268 129q-115 117 -239 117q-174 0 -285 -164zM78 0l553 1495h61l553 -1495h-43l-188 512h-705l-188 -512h-43zM326 553h671l-333 907h-5z" />
<glyph unicode="&#xc8;" horiz-adv-x="1179" d="M317 2089h47l260 -451h-47zM190 0v1495h820v-41h-779v-614h738v-41h-738v-758h779v-41h-820z" />
<glyph unicode="&#xca;" horiz-adv-x="1179" d="M88 1638l482 922h61l481 -922h-47l-463 893h-4l-463 -893h-47zM190 0v1495h820v-41h-779v-614h738v-41h-738v-758h779v-41h-820z" />
<glyph unicode="&#xcc;" horiz-adv-x="585" d="M10 2089h47l260 -451h-47zM272 0v1495h41v-1495h-41z" />
<glyph unicode="&#xce;" horiz-adv-x="585" d="M-219 1638l482 922h61l481 -922h-47l-463 893h-4l-463 -893h-47zM272 0v1495h41v-1495h-41z" />
<glyph unicode="&#xd1;" horiz-adv-x="1384" d="M119 1742q123 182 320 183q141 0 268 -129q115 -117 239 -117q174 0 285 164l35 -23q-123 -182 -320 -182q-141 0 -268 129q-115 117 -239 117q-174 0 -285 -164zM190 0v1495h66l893 -1452h4v1452h41v-1495h-66l-892 1452h-5v-1452h-41z" />
<glyph unicode="&#xd2;" horiz-adv-x="1425" d="M428 2089h47l260 -451h-47zM98 747.5q0 366.5 161 567.5t454 201t453.5 -201t160.5 -567.5t-160.5 -567t-453.5 -200.5t-454 200.5t-161 567zM139 747.5q0 -352.5 147.5 -540t426 -187.5t426 187.5t147.5 540t-147.5 540t-426 187.5t-426 -187.5t-147.5 -540z" />
<glyph unicode="&#xd4;" horiz-adv-x="1425" d="M200 1638l482 922h61l481 -922h-47l-463 893h-4l-463 -893h-47zM98 747.5q0 366.5 161 567.5t454 201t453.5 -201t160.5 -567.5t-160.5 -567t-453.5 -200.5t-454 200.5t-161 567zM139 747.5q0 -352.5 147.5 -540t426 -187.5t426 187.5t147.5 540t-147.5 540t-426 187.5 t-426 -187.5t-147.5 -540z" />
<glyph unicode="&#xd5;" horiz-adv-x="1425" d="M139 1742q123 182 320 183q141 0 268 -129q115 -117 239 -117q174 0 285 164l35 -23q-123 -182 -320 -182q-141 0 -268 129q-115 117 -239 117q-174 0 -285 -164zM98 747.5q0 366.5 161 567.5t454 201t453.5 -201t160.5 -567.5t-160.5 -567t-453.5 -200.5t-454 200.5 t-161 567zM139 747.5q0 -352.5 147.5 -540t426 -187.5t426 187.5t147.5 540t-147.5 540t-426 187.5t-426 -187.5t-147.5 -540z" />
<glyph unicode="&#xd9;" horiz-adv-x="1323" d="M379 2089h47l260 -451h-47zM170 492v1003h41v-1003q0 -231 114.5 -351.5t336 -120.5t336 120t114.5 352v1003h41v-1003q0 -250 -129 -381t-362.5 -131t-362.5 131t-129 381z" />
<glyph unicode="&#xdb;" horiz-adv-x="1323" d="M149 1638l482 922h61l481 -922h-47l-463 893h-4l-463 -893h-47zM170 492v1003h41v-1003q0 -231 114.5 -351.5t336 -120.5t336 120t114.5 352v1003h41v-1003q0 -250 -129 -381t-362.5 -131t-362.5 131t-129 381z" />
<glyph unicode="&#xe0;" horiz-adv-x="1056" d="M264 1659h47l260 -451h-47zM119 287q0 55 14 103t54 98.5t103.5 86t172 58t250.5 22.5h143v103q0 158 -68.5 222t-238.5 64q-205 0 -379 -75v45q170 72 379 71q188 0 268 -75.5t80 -251.5v-758h-41v238h-4q-55 -119 -167 -188.5t-259 -69.5q-143 0 -225 82t-82 225z M160 287q0 -125 70.5 -196t195.5 -71q186 0 308 116t122 294v184h-143q-553 1 -553 -327z" />
<glyph unicode="&#xe2;" horiz-adv-x="1056" d="M37 1208l482 922h61l481 -922h-47l-463 893h-4l-463 -893h-47zM119 287q0 55 14 103t54 98.5t103.5 86t172 58t250.5 22.5h143v103q0 158 -68.5 222t-238.5 64q-205 0 -379 -75v45q170 72 379 71q188 0 268 -75.5t80 -251.5v-758h-41v238h-4q-55 -119 -167 -188.5 t-259 -69.5q-143 0 -225 82t-82 225zM160 287q0 -125 70.5 -196t195.5 -71q186 0 308 116t122 294v184h-143q-553 1 -553 -327z" />
<glyph unicode="&#xe3;" horiz-adv-x="1056" d="M-25 1312q123 182 320 183q141 0 268 -129q115 -117 239 -117q174 0 285 164l35 -23q-123 -182 -320 -182q-141 0 -268 129q-115 117 -239 117q-174 0 -285 -164zM119 287q0 55 14 103t54 98.5t103.5 86t172 58t250.5 22.5h143v103q0 158 -68.5 222t-238.5 64 q-205 0 -379 -75v45q170 72 379 71q188 0 268 -75.5t80 -251.5v-758h-41v238h-4q-55 -119 -167 -188.5t-259 -69.5q-143 0 -225 82t-82 225zM160 287q0 -125 70.5 -196t195.5 -71q186 0 308 116t122 294v184h-143q-553 1 -553 -327z" />
<glyph unicode="&#xe8;" horiz-adv-x="1067" d="M264 1659h47l260 -451h-47zM98 532q0 131 28 232.5t72 161t105.5 96.5t119.5 50t126 13q410 0 409 -532v-21h-819q0 -512 441 -512q168 0 317 66v-45q-154 -61 -317 -61q-482 -1 -482 552zM139 573h779q-8 471 -369 471q-392 0 -410 -471z" />
<glyph unicode="&#xea;" horiz-adv-x="1067" d="M37 1208l482 922h61l481 -922h-47l-463 893h-4l-463 -893h-47zM98 532q0 131 28 232.5t72 161t105.5 96.5t119.5 50t126 13q410 0 409 -532v-21h-819q0 -512 441 -512q168 0 317 66v-45q-154 -61 -317 -61q-482 -1 -482 552zM139 573h779q-8 471 -369 471 q-392 0 -410 -471z" />
<glyph unicode="&#xec;" horiz-adv-x="585" d="M10 2110h47l260 -451h-47zM272 0v1065h41v-1065h-41zM272 1331v205h41v-205h-41z" />
<glyph unicode="&#xee;" horiz-adv-x="585" d="M-219 1658l482 922h61l481 -922h-47l-463 893h-4l-463 -893h-47zM272 0v1065h41v-1065h-41zM272 1331v205h41v-205h-41z" />
<glyph unicode="&#xf1;" horiz-adv-x="1107" d="M-14 1312q123 182 320 183q141 0 268 -129q115 -117 239 -117q174 0 285 164l35 -23q-123 -182 -320 -182q-141 0 -268 129q-115 117 -239 117q-174 0 -285 -164zM170 0v1065h41v-215h4q57 98 167 166.5t218 68.5q184 0 266 -102t82 -348v-635h-41v635q0 242 -73.5 325.5 t-233.5 83.5q-135 0 -262 -108.5t-127 -218.5v-717h-41z" />
<glyph unicode="&#xf2;" horiz-adv-x="1118" d="M276 1659h47l260 -451h-47zM98 532.5q0 264.5 121 408.5t340 144t340 -144t121 -408.5t-121 -408.5t-340 -144t-340 144t-121 408.5zM139 532.5q0 -247.5 108.5 -380t311.5 -132.5t311.5 132.5t108.5 380t-108.5 379.5t-311.5 132t-311.5 -132t-108.5 -379.5z" />
<glyph unicode="&#xf4;" horiz-adv-x="1118" d="M47 1208l482 922h61l481 -922h-47l-463 893h-4l-463 -893h-47zM98 532.5q0 264.5 121 408.5t340 144t340 -144t121 -408.5t-121 -408.5t-340 -144t-340 144t-121 408.5zM139 532.5q0 -247.5 108.5 -380t311.5 -132.5t311.5 132.5t108.5 380t-108.5 379.5t-311.5 132 t-311.5 -132t-108.5 -379.5z" />
<glyph unicode="&#xf5;" horiz-adv-x="1118" d="M-14 1312q123 182 320 183q141 0 268 -129q115 -117 239 -117q174 0 285 164l35 -23q-123 -182 -320 -182q-141 0 -268 129q-115 117 -239 117q-174 0 -285 -164zM98 532.5q0 264.5 121 408.5t340 144t340 -144t121 -408.5t-121 -408.5t-340 -144t-340 144t-121 408.5z M139 532.5q0 -247.5 108.5 -380t311.5 -132.5t311.5 132.5t108.5 380t-108.5 379.5t-311.5 132t-311.5 -132t-108.5 -379.5z" />
<glyph unicode="&#xf9;" horiz-adv-x="1097" d="M260 1659h47l260 -451h-47zM160 389v676h41v-676q0 -213 74.5 -291t222.5 -78q135 0 262 109t127 219v717h41v-1065h-41v215h-4q-57 -98 -167 -166.5t-218 -68.5q-174 0 -256 95t-82 314z" />
<glyph unicode="&#xfb;" horiz-adv-x="1097" d="M32 1208l482 922h61l481 -922h-47l-463 893h-4l-463 -893h-47zM160 389v676h41v-676q0 -213 74.5 -291t222.5 -78q135 0 262 109t127 219v717h41v-1065h-41v215h-4q-57 -98 -167 -166.5t-218 -68.5q-174 0 -256 95t-82 314z" />
<glyph unicode="&#x152;" horiz-adv-x="2605" d="M1615 0v1495h820v-41h-779v-614h738v-41h-738v-758h779v-41h-820zM98 747.5q0 366.5 161 567.5t454 201t453.5 -201t160.5 -567.5t-160.5 -567t-453.5 -200.5t-454 200.5t-161 567zM139 747.5q0 -352.5 147.5 -540t426 -187.5t426 187.5t147.5 540t-147.5 540t-426 187.5 t-426 -187.5t-147.5 -540z" />
<glyph unicode="&#x153;" horiz-adv-x="2185" d="M1216 532q0 131 28 232.5t72 161t105.5 96.5t119.5 50t126 13q410 0 409 -532v-21h-819q0 -512 441 -512q168 0 317 66v-45q-154 -61 -317 -61q-482 -1 -482 552zM1257 573h779q-8 471 -369 471q-392 0 -410 -471zM98 532.5q0 264.5 121 408.5t340 144t340 -144 t121 -408.5t-121 -408.5t-340 -144t-340 144t-121 408.5zM139 532.5q0 -247.5 108.5 -380t311.5 -132.5t311.5 132.5t108.5 380t-108.5 379.5t-311.5 132t-311.5 -132t-108.5 -379.5z" />
<glyph unicode="&#x2c6;" horiz-adv-x="1220" d="M98 573l482 922h61l481 -922h-47l-463 893h-4l-463 -893h-47z" />
<glyph unicode="&#x2dc;" horiz-adv-x="722" d="M-573 227q123 182 320 183q141 0 268 -129q115 -117 239 -117q174 0 285 164l35 -23q-123 -182 -320 -182q-141 0 -268 129q-115 117 -239 117q-174 0 -285 -164z" />
<glyph unicode="&#x2000;" horiz-adv-x="1290" />
<glyph unicode="&#x2001;" horiz-adv-x="2580" />
<glyph unicode="&#x2002;" horiz-adv-x="1290" />
<glyph unicode="&#x2003;" horiz-adv-x="2580" />
<glyph unicode="&#x2004;" horiz-adv-x="860" />
<glyph unicode="&#x2005;" horiz-adv-x="645" />
<glyph unicode="&#x2006;" horiz-adv-x="430" />
<glyph unicode="&#x2007;" horiz-adv-x="430" />
<glyph unicode="&#x2008;" horiz-adv-x="321" />
<glyph unicode="&#x2009;" horiz-adv-x="516" />
<glyph unicode="&#x200a;" horiz-adv-x="143" />
<glyph unicode="&#x2010;" horiz-adv-x="933" d="M180 553v41h574v-41h-574z" />
<glyph unicode="&#x2011;" horiz-adv-x="933" d="M180 553v41h574v-41h-574z" />
<glyph unicode="&#x2012;" horiz-adv-x="933" d="M180 553v41h574v-41h-574z" />
<glyph unicode="&#x2013;" horiz-adv-x="972" d="M0 573v41h973v-41h-973z" />
<glyph unicode="&#x2014;" horiz-adv-x="1945" d="M0 573v41h1946v-41h-1946z" />
<glyph unicode="&#x2018;" horiz-adv-x="475" d="M109 1126l163 451h43l-163 -451h-43z" />
<glyph unicode="&#x2019;" horiz-adv-x="475" d="M160 1126l164 451h43l-164 -451h-43z" />
<glyph unicode="&#x201a;" horiz-adv-x="505" d="M139 -225l164 450h43l-164 -450h-43z" />
<glyph unicode="&#x201c;" horiz-adv-x="780" d="M98 1126l164 451h43l-164 -451h-43zM424 1126l164 451h43l-164 -451h-43z" />
<glyph unicode="&#x201d;" horiz-adv-x="780" d="M150 1126l163 451h43l-163 -451h-43zM475 1126l164 451h43l-164 -451h-43z" />
<glyph unicode="&#x201e;" horiz-adv-x="811" d="M129 -225l164 450h43l-164 -450h-43zM455 -225l163 450h44l-164 -450h-43z" />
<glyph unicode="&#x2022;" horiz-adv-x="831" d="M272 594q0 59 42 101t101.5 42t101.5 -42t42 -101t-42 -101t-101.5 -42t-101.5 42t-42 101z" />
<glyph unicode="&#x2026;" horiz-adv-x="2048" d="M215 614v246h41v-246h-41zM897 614v246h41v-246h-41zM1579 614v246h41v-246h-41z" />
<glyph unicode="&#x202f;" horiz-adv-x="516" />
<glyph unicode="&#x2039;" horiz-adv-x="1343" d="M150 567v54l983 505v-45l-947 -485v-4l947 -486v-45z" />
<glyph unicode="&#x203a;" horiz-adv-x="1343" d="M211 61v45l946 486v4l-946 485v45l983 -505v-54z" />
<glyph unicode="&#x205f;" horiz-adv-x="645" />
<glyph unicode="&#x2122;" horiz-adv-x="2953" d="M1493 0v1495h68l565 -942h4l566 942h67v-1495h-41v1452h-4l-565 -940h-49l-565 940h-5v-1452h-41zM139 1454v41h1024v-41h-491v-1454h-41v1454h-492z" />
<glyph unicode="&#xe000;" horiz-adv-x="1065" d="M0 1065h1065v-1065h-1065v1065z" />
<glyph unicode="&#xfb01;" horiz-adv-x="1632" d="M1319 0v1065h41v-1065h-41zM1319 1331v205h41v-205h-41zM129 983v41h307v184q0 166 65.5 237t221.5 71q90 0 164 -31v-45q-76 35 -164 35q-137 0 -191.5 -58.5t-54.5 -208.5v-184h389v-41h-389v-983h-41v983h-307z" />
<glyph unicode="&#xfb02;" horiz-adv-x="1632" d="M1319 0v1536h41v-1536h-41zM129 983v41h307v184q0 166 65.5 237t221.5 71q90 0 164 -31v-45q-76 35 -164 35q-137 0 -191.5 -58.5t-54.5 -208.5v-184h389v-41h-389v-983h-41v983h-307z" />
<glyph unicode="&#xfb03;" horiz-adv-x="2678" d="M2365 0v1065h41v-1065h-41zM2365 1331v205h41v-205h-41zM1176 983v41h307v184q0 166 65.5 237t221.5 71q90 0 164 -31v-45q-76 35 -164 35q-137 0 -191.5 -58.5t-54.5 -208.5v-184h389v-41h-389v-983h-41v983h-307zM129 983v41h307v184q0 166 65.5 237t221.5 71 q90 0 164 -31v-45q-76 35 -164 35q-137 0 -191.5 -58.5t-54.5 -208.5v-184h389v-41h-389v-983h-41v983h-307z" />
<glyph unicode="&#xfb04;" horiz-adv-x="2678" d="M2365 0v1536h41v-1536h-41zM1176 983v41h307v184q0 166 65.5 237t221.5 71q90 0 164 -31v-45q-76 35 -164 35q-137 0 -191.5 -58.5t-54.5 -208.5v-184h389v-41h-389v-983h-41v983h-307zM129 983v41h307v184q0 166 65.5 237t221.5 71q90 0 164 -31v-45q-76 35 -164 35 q-137 0 -191.5 -58.5t-54.5 -208.5v-184h389v-41h-389v-983h-41v983h-307z" />
</font>
</defs>
</svg>
