<?xml version="1.0" standalone="no"?>
<!DOCTYPE svg PUBLIC "-//W3C//DTD SVG 1.1//EN" "http://www.w3.org/Graphics/SVG/1.1/DTD/svg11.dtd" >
<svg xmlns="http://www.w3.org/2000/svg">
<metadata>
This is a custom SVG webfont generated by Font Squirrel.
Copyright   : Copyright 2003 2008 B Jackowski and J M Nowacki on behalf of TeX users groups This work is released under the GUST Font License   see httptugorgfontslicensesGUSTFONTLICENSEtxt for details
</metadata>
<defs>
<font id="webfontVPMqY46D" horiz-adv-x="972" >
<font-face units-per-em="2048" ascent="1706" descent="-342" />
<missing-glyph horiz-adv-x="649" />
<glyph unicode=" "  horiz-adv-x="649" />
<glyph unicode="&#x09;" horiz-adv-x="649" />
<glyph unicode="&#xa0;" horiz-adv-x="649" />
<glyph unicode="!" horiz-adv-x="626" d="M205 92v35q0 53 18.5 71.5t71.5 18.5h37q55 0 72.5 -19.5t17.5 -70.5v-37q0 -53 -18.5 -71.5t-71.5 -18.5h-35q-55 0 -73.5 19.5t-18.5 72.5zM205 1374q0 35 8 41t45 6h113q37 0 44 -6t7 -41l-10 -495l-11 -484q-4 -20 -53 -20h-69q-41 0 -50 14q-12 20 -12 391z" />
<glyph unicode="&#x22;" horiz-adv-x="999" d="M156 952v432q0 33 22.5 54.5t52.5 21.5h78q31 0 53.5 -21.5t22.5 -54.5v-432q0 -31 -22.5 -53t-53.5 -22h-78q-31 0 -53 22t-22 53zM614 952v432q0 33 22.5 54.5t53.5 21.5h78q31 0 53.5 -21.5t22.5 -54.5v-432q0 -31 -22.5 -53t-53.5 -22h-78q-31 0 -53.5 22t-22.5 53z " />
<glyph unicode="#" horiz-adv-x="1622" d="M109 307.5q0 71.5 92 71.5h286l82 323h-368q-92 0 -92 72t104 72h395l127 506q16 70 74 69q31 0 51.5 -21.5t20.5 -49.5q0 -12 -9 -41l-116 -463h268l127 506q16 70 74 69q31 0 51 -21.5t20 -49.5q0 -12 -8 -41l-117 -463h236q104 0 104 -72t-92 -72h-284l-82 -323h366 q92 0 92 -71.5t-104 -71.5h-393l-131 -519q-16 -59 -72 -59q-31 0 -51.5 21.5t-20.5 50.5q0 6 9 41l118 465h-268l-131 -519q-16 -59 -72 -59q-31 0 -51 21.5t-20 50.5q0 6 8 41l119 465h-238q-104 0 -104 71.5zM637 379h266l82 323h-266z" />
<glyph unicode="$" d="M86 147q0 6 10 59.5t13 61.5q0 25 22 25q10 0 29 -17q119 -96 260 -116v467q-135 29 -223 140.5t-88 269t72.5 267t238.5 134.5q0 98 65.5 98t65.5 -96q92 -10 172 -51q106 -53 106 -89q0 -6 -10 -59t-12 -61q0 -25 -23 -25q-10 0 -28 16q-96 76 -205 91v-412 q143 -31 227 -153t84 -283q0 -379 -311 -430q0 -98 -65.5 -98.5t-65.5 98.5q-115 12 -207 61q-127 75 -127 102zM311 1073q0 -135 109 -184v366q-109 -32 -109 -182zM551 168q109 39 108 207q0 158 -108 213v-420z" />
<glyph unicode="%" horiz-adv-x="1800" d="M109 1124q0 190 77 297q86 115 240 115q74 0 131 -25.5t89 -70.5t52.5 -87t27.5 -97.5t9 -80t2 -53.5q0 -27 -2 -51t-9 -79.5t-27.5 -98.5t-52.5 -87t-89 -69.5t-131 -25.5q-100 0 -170 45t-98.5 117.5t-38.5 131t-10 119.5zM315 1122.5q0 -57.5 2 -91.5t11.5 -85 t34 -77.5t63.5 -26.5q117 0 117 282q0 88 -12.5 147.5t-32 86t-37 37t-35.5 10.5q-39 0 -63.5 -26.5t-34 -78t-11.5 -86t-2 -92zM354 -43q0 23 21 53l936 1481q31 45 67 45q31 0 51.5 -21.5t20.5 -50.5q0 -23 -20 -53l-936 -1481q-27 -45 -68 -45q-29 0 -50.5 21.5 t-21.5 50.5zM1061 299q0 190 78 297q86 115 239 115q74 0 131.5 -26t89 -71t52 -87t28 -97t9.5 -79.5t2 -53.5q0 -27 -2 -51.5t-9.5 -79.5t-28 -98t-52 -87t-89 -70t-131.5 -26q-100 0 -169.5 45t-98.5 118t-39 131.5t-10 119.5zM1268 297q0 -57 2 -91t11 -85t33.5 -78 t63.5 -27q117 0 117 283q0 88 -12.5 147.5t-31.5 86t-36.5 37t-36.5 10.5q-39 0 -63.5 -27t-33.5 -78t-11 -86t-2 -92z" />
<glyph unicode="&#x26;" horiz-adv-x="1468" d="M82 295q0 147 106 242l177 153q-84 199 -84 400q0 166 97 268t228 102q129 0 210 -98t81 -221q0 -94 -77 -194.5t-236 -241.5q82 -162 258 -379q184 190 272 538q8 35 13.5 44.5t19.5 9.5q4 0 61.5 -15.5t63.5 -17.5q23 -12 22 -27q0 -18 -34.5 -131t-94.5 -229 q-76 -154 -198 -293q86 -68 174 -68q80 0 170 29q16 8 24 8q23 0 23 -53v-70q0 -37 -11.5 -47t-70.5 -24q-68 -18 -141 -19q-170 0 -320 115q-188 -115 -379 -115q-152 0 -253 98.5t-101 235.5zM309 344q0 -18 3 -41.5t13.5 -66.5t41 -71t75.5 -28q123 0 240 64 q-145 162 -260 364q-37 -31 -57.5 -52t-38 -65.5t-17.5 -103.5zM477 1128q0 -123 51 -294q88 84 131 153.5t43 153.5q0 63 -22.5 125.5t-73.5 62.5q-53 0 -91 -56.5t-38 -144.5z" />
<glyph unicode="'" horiz-adv-x="540" d="M156 952v432q0 33 22.5 54.5t52.5 21.5h78q31 0 53.5 -21.5t22.5 -54.5v-432q0 -31 -22.5 -53t-53.5 -22h-78q-31 0 -53 22t-22 53z" />
<glyph unicode="(" horiz-adv-x="755" d="M147 541q0 524 240 843q43 59 88 103.5t55 46.5q0 2 35 2h29q29 0 39 -3t10 -20q0 -10 -20 -34q-123 -160 -185.5 -382.5t-62.5 -555.5q0 -205 23.5 -369t66.5 -275.5t80 -175t86 -127.5q12 -16 12 -26q0 -16 -10 -19.5t-39 -3.5h-29q-37 0 -41 4q-27 20 -53.5 45 t-91 114t-110.5 190.5t-84 274.5t-38 368z" />
<glyph unicode=")" horiz-adv-x="755" d="M111 -432q0 10 20 35q121 160 184.5 379t63.5 559q0 205 -23.5 369.5t-67.5 275t-79 173t-86 128.5q-12 16 -12 26q0 23 51 23h26q37 0 41 -4q27 -20 53.5 -45t91 -114t110.5 -190.5t84 -274.5t38 -367q0 -524 -239 -844q-43 -59 -88.5 -103.5t-55.5 -46.5q0 -2 -35 -2 h-26q-51 0 -51 23z" />
<glyph unicode="*" d="M117 864q0 45 51 72l262 117l-262 116q-51 27 -51 72q0 35 27.5 64.5t62.5 29.5q29 0 57 -28l189 -189l-47 295q-6 35 -7 47q0 37 28 56.5t58.5 19.5t58 -19.5t27.5 -56.5q0 -12 -6 -47l-47 -295l191 189q29 29 55 28q37 0 63.5 -28.5t26.5 -65.5q0 -45 -51 -72 l-262 -116l262 -117q51 -27 51 -72q0 -35 -27.5 -64.5t-62.5 -29.5q-29 0 -57 29l-189 188q53 -311 53 -342q0 -37 -27.5 -56.5t-58 -19.5t-58.5 19.5t-28 56.5q0 12 7 47l47 295l-191 -188q-29 -29 -55 -29q-37 0 -63.5 28.5t-26.5 65.5z" />
<glyph unicode="+" horiz-adv-x="1513" d="M109 540.5q0 71.5 96 71.5h479v482q0 96 71.5 96t71.5 -96v-482h480q96 0 96 -71.5t-96 -71.5h-480v-481q0 -96 -71.5 -96.5t-71.5 96.5v481h-479q-96 0 -96 71.5z" />
<glyph unicode="," horiz-adv-x="540" d="M162 53v111q0 39 7 46t44 7h115q37 0 44 -7t7 -46v-111q0 -37 -17 -71q-66 -139 -86 -177q-10 -23 -18 -27.5t-41 -4.5q-23 0 -32 1t-16 6t-7 17q0 16 57 203q-41 0 -49 7t-8 46z" />
<glyph unicode="-" horiz-adv-x="649" d="M23 483.5q0 65.5 90 65.5h336q90 0 90 -65.5t-90 -65.5h-336q-90 0 -90 65.5z" />
<glyph unicode="." horiz-adv-x="540" d="M162 53v111q0 39 7 46t44 7h115q37 0 44 -7t7 -46v-111q0 -39 -7 -46t-44 -7h-113q-39 0 -46 7t-7 46z" />
<glyph unicode="/" d="M109 -383q0 10 10 39l600 1821q16 59 72 59q31 0 51 -21.5t20 -50.5q0 -10 -10 -39l-600 -1820q-16 -59 -72 -60q-31 0 -51 21.5t-20 50.5z" />
<glyph unicode="0" d="M76 702.5q0 77.5 1 123.5t9 135.5t22.5 146.5t44 131t71.5 117t109.5 73.5t151.5 30.5t152 -30.5t109.5 -73.5t71.5 -117t44.5 -131t22.5 -146.5t9 -135.5t1 -123.5t-1 -122.5t-9 -133.5t-22.5 -143.5t-44.5 -127t-71.5 -114t-109.5 -71.5t-152 -29.5t-151.5 29.5 t-109.5 71.5t-71.5 114t-44 127t-22.5 143.5t-9 133.5t-1 122.5zM303 608q0 -41 2 -113.5t7 -111.5t13.5 -93t21.5 -83t32.5 -59.5t46.5 -43t59.5 -12.5t59 12.5t46 43t33 59.5t21.5 83l13.5 93t7.5 111.5t2 113.5v123v134q0 44 -4.5 120t-10.5 116t-19 91t-32.5 75.5 t-48.5 43t-68 18.5q-137 0 -170 -233q-12 -109 -12 -365v-123z" />
<glyph unicode="1" d="M137 1253q0 23 16.5 43.5t55.5 22.5q180 8 262 106q29 35 72 35q37 0 55 -16.5t20.5 -31.5t2.5 -42v-1239h124q90 0 90.5 -65.5t-90.5 -65.5h-491q-92 0 -92 65.5t92 65.5h137v1088q-88 -31 -170 -31q-84 -1 -84 65z" />
<glyph unicode="2" d="M82 1128q0 18 30.5 93t84.5 133q100 106 262 106q193 0 304 -134t111 -322q0 -98 -43 -188.5t-104 -163t-215 -238.5l-199 -226q14 2 41 2h250l127 3q92 0 117.5 -13.5t25.5 -77.5v-12q0 -53 -18 -71.5t-72 -18.5h-596q-55 0 -73.5 19.5t-18.5 72.5q0 41 19 62l350 440 q174 219 174 407q0 27 -5 61t-22.5 91t-64.5 94t-117 37q-98 0 -147.5 -67.5t-75.5 -180.5q-6 -25 -11.5 -32t-17.5 -7t-31 25q-65 96 -65 106z" />
<glyph unicode="3" d="M82 182q0 4 12 78q4 35 9.5 45t19.5 10q10 0 31 -28q47 -68 115.5 -107t110.5 -47t79 -8q61 0 102 29.5t55.5 84t18.5 89t4 86.5q0 150 -44 219t-151 69h-69q-37 0 -44 7.5t-7 46.5v24q0 41 12 49q8 4 57 9q43 4 64.5 8t48 22.5t47.5 53.5q47 76 47 200q0 37 -4 63.5 t-16.5 57.5t-42 47.5t-76.5 16.5q-23 0 -47.5 -5.5t-63.5 -20.5t-75.5 -53t-61.5 -95q-10 -25 -24.5 -25t-46 52t-31.5 61q0 12 21.5 47t60 80t113.5 78.5t163 33.5q174 0 270.5 -91t96.5 -247q0 -121 -59.5 -210t-145.5 -142q258 -78 258 -360q0 -223 -117 -336t-305 -113 q-88 0 -166 29.5t-123 70.5t-70.5 74t-25.5 47z" />
<glyph unicode="4" d="M53 430v37q0 39 15 68l403 837q16 33 31.5 41t54.5 8h107q53 0 71.5 -18.5t18.5 -71.5v-825h73q29 0 44.5 -3t31 -22.5t15.5 -58.5q0 -29 -7.5 -47.5t-24 -24.5t-27.5 -8t-32 -2h-73v-250q0 -53 -18.5 -71.5t-71.5 -18.5h-35q-55 0 -72.5 19.5t-17.5 70.5v250h-396 q-55 0 -72.5 19.5t-17.5 70.5zM233 506h318v731q-2 -33 -64 -178q-41 -102 -95 -220l-103 -219z" />
<glyph unicode="5" d="M68 197l30 65q31 63 47 64q18 0 23 -19q27 -63 67.5 -104t85 -55.5t66 -18.5t39.5 -4q47 0 83 14.5t56.5 43t33.5 56t18.5 73.5t6.5 72t1 73q0 70 -2 109.5t-13.5 100t-39 90t-72.5 29.5q-51 0 -94.5 -27.5t-56.5 -45.5l-34 -49q-14 -27 -30.5 -34t-49.5 -7q-41 0 -61 15 t-23.5 31.5t-3.5 47.5v610q0 55 18.5 74.5t74.5 19.5h481q51 0 70.5 -17.5t19.5 -70.5t-19.5 -70.5t-70.5 -17.5h-359v-358q63 31 142 31q92 0 166.5 -37t115.5 -95q90 -125 90 -335q0 -236 -116 -365q-117 -125 -326 -125q-88 0 -162.5 33t-115.5 77t-63.5 79t-22.5 47z " />
<glyph unicode="6" d="M82 694q0 356 115 545q72 113 177 167t218 54q66 0 115 -20q45 -18 54 -29.5t9 -46.5v-49q0 -53 -22 -53l-33 14q-49 31 -117 31q-61 0 -109.5 -23.5t-78 -70t-48 -91.5t-27.5 -113.5t-12.5 -107.5t-5.5 -100q68 170 228 170q178 0 274 -162q70 -119 70 -332 q0 -129 -19.5 -212t-85.5 -169q-102 -135 -292 -135q-410 0 -410 733zM322 514q0 -389 167 -389q47 0 80 22.5t49.5 52t24.5 85t9 91.5t1 101q0 86 -3 131t-16 108.5t-47 93.5t-89 30q-176 0 -176 -326z" />
<glyph unicode="7" d="M82 1319v14q0 66 25.5 78t132.5 12h73l478 -2q31 0 44 -2t28.5 -10t20.5 -26.5t5 -49.5q0 -43 -19 -67q-367 -559 -372 -1221q0 -66 -90 -65h-60q-41 0 -61.5 13t-24.5 29.5t-4 51.5q0 627 412 1159q-14 -2 -47 -2h-265l-129 -2q-98 0 -122.5 13.5t-24.5 76.5z" />
<glyph unicode="8" d="M82 408q0 283 237 360q-211 70 -210 305q0 180 96 283.5t280 103.5q182 0 279.5 -102.5t97.5 -284.5q0 -238 -211 -305q238 -78 238 -360q0 -215 -106.5 -331t-297.5 -116q-188 0 -295.5 115t-107.5 332zM315 412q0 -49 1 -78t10.5 -74t26 -70.5t50 -45t83 -19.5t83 19.5 t50 45t25.5 70.5t10 73.5t1 78.5q0 61 -3 97t-17 88t-52 78.5t-97.5 26.5t-97.5 -26.5t-52 -78.5t-17.5 -88t-3.5 -97zM319 1071q0 -51 3.5 -79.5t17.5 -71.5t50 -64.5t95.5 -21.5t95 21.5t50 64.5t17.5 71.5t3 79.5q0 53 -3 82t-17.5 71t-50 62.5t-95.5 20.5 q-47 0 -80.5 -16.5t-50 -36t-24.5 -57.5t-9.5 -60.5t-1.5 -65.5z" />
<glyph unicode="9" d="M82 946q0 80 4 127t27.5 118t70.5 130q111 139 305 139q399 0 400 -729q0 -106 -5 -181t-35 -189.5t-85 -202.5q-57 -88 -152.5 -142.5t-208.5 -54.5q-115 0 -187.5 49t-72.5 74l33 63q33 61 47 62q12 0 25 -12q59 -72 153 -72q68 0 125.5 45t85.5 133q14 45 22.5 95.5 t10.5 84.5l8 138q-76 -170 -227 -170q-180 0 -279 172q-65 112 -65 323zM317 944q0 -84 3.5 -130t16.5 -109.5t47 -93t89 -29.5q61 0 102 42t54.5 108.5t17.5 101t4 69.5q0 403 -159 404q-43 0 -74 -14.5t-49.5 -45t-29.5 -59.5t-15.5 -79t-5.5 -80t-1 -85z" />
<glyph unicode=":" horiz-adv-x="540" d="M162 53v111q0 39 7 46t44 7h115q37 0 44 -7t7 -46v-111q0 -39 -7 -46t-44 -7h-113q-39 0 -46 7t-7 46zM162 803v110q0 39 7 46.5t46 7.5h113q37 0 44 -7.5t7 -46.5v-110q0 -39 -7 -46t-44 -7h-115q-37 0 -44 7t-7 46z" />
<glyph unicode=";" horiz-adv-x="540" d="M162 53v111q0 39 7 46t44 7h115q37 0 44 -7t7 -46v-111q0 -37 -17 -71q-66 -139 -86 -177q-10 -23 -18 -27.5t-41 -4.5q-23 0 -32 1t-16 6t-7 17q0 16 57 203q-41 0 -49 7t-8 46zM162 803v110q0 39 7 46.5t46 7.5h113q37 0 44 -7.5t7 -46.5v-110q0 -39 -7 -46t-44 -7 h-115q-37 0 -44 7t-7 46z" />
<glyph unicode="&#x3c;" horiz-adv-x="1593" d="M170 512q0 27 39 45l1134 535q27 14 37 14q16 0 28.5 -12.5t12.5 -28.5q0 -25 -39 -45l-1075 -508l1075 -508q39 -20 39 -45q0 -16 -12 -28.5t-29 -12.5q-10 0 -37 14l-1134 535q-39 18 -39 45z" />
<glyph unicode="=" horiz-adv-x="1513" d="M109 307.5q0 71.5 92 71.5h1110q92 0 92 -71.5t-105 -71.5h-1085q-104 0 -104 71.5zM109 774q0 72 104 72h1085q104 0 104.5 -72t-91.5 -72h-1110q-92 0 -92 72z" />
<glyph unicode="&#x3e;" horiz-adv-x="1593" d="M170 -41q0 25 39 45l1075 508l-1075 508q-39 20 -39 45q0 16 12.5 28.5t28.5 12.5q10 0 37 -14l1134 -535q39 -18 39 -45t-39 -45l-1134 -535q-27 -14 -37 -14q-16 0 -28.5 12.5t-12.5 28.5z" />
<glyph unicode="?" horiz-adv-x="919" d="M111 1315q0 27 100 77t229 50q369 0 369 -312q0 -154 -94 -233q-195 -162 -195 -397v-70q0 -41 -7 -48t-46 -7h-70q-37 0 -44 7t-7 42v88q0 236 186 465q20 27 27.5 39t15 44t7.5 81q0 90 -28 130t-120 40q-141 0 -235 -109q-14 -20 -27 -20q-10 0 -16 8t-23 51 q-22 68 -22 74zM324 92v35q0 53 18 71.5t72 18.5h37q55 0 72.5 -19.5t17.5 -70.5v-37q0 -53 -18.5 -71.5t-71.5 -18.5h-35q-55 0 -73.5 19.5t-18.5 72.5z" />
<glyph unicode="@" horiz-adv-x="1296" d="M109 711q0 326 145 512q172 219 496 219q86 0 154.5 -23.5t113.5 -60.5t77.5 -95.5t50 -112.5t28 -131t12.5 -133.5t2 -134t-3 -120.5t-20.5 -111.5t-54.5 -124.5q-96 -150 -299 -149q-188 0 -291 141q-84 117 -84 324q0 41 2 76.5t22.5 113.5t56.5 132t113 98.5 t183 44.5q68 0 123 -19q-18 68 -68.5 111t-117.5 43q-229 0 -351 -201q-84 -139 -84 -399q0 -37 1 -66t9.5 -95.5t24 -117.5t49 -114.5t78.5 -105.5t118 -71.5t163 -29.5q160 0 291 90h88q29 0 39 -3t10 -20q0 -10 -31 -41t-83 -66.5t-139 -63t-181 -27.5q-160 0 -295 60 t-215 177q-133 189 -133 494zM643 711q0 -86 12.5 -155t52.5 -124t105 -55q20 0 40.5 7t53.5 34.5t53.5 102.5t20.5 190q0 86 -12.5 154.5t-52 123.5t-105.5 55q-20 0 -40.5 -7t-53.5 -34.5t-53.5 -102t-20.5 -189.5z" />
<glyph unicode="A" horiz-adv-x="1302" d="M72 51l8 33l395 1262q25 76 117 75h117q29 0 45 -2t37.5 -20.5t33.5 -55.5l396 -1263l8 -29q0 -51 -78 -51h-70q-63 0 -84.5 23.5t-48.5 107.5l-67 219h-496l-86 -268q-8 -29 -16.5 -43t-33 -26.5t-67.5 -12.5h-32q-78 0 -78 51zM432 504h402l-115 379q-76 252 -86 321 h-2q-10 -70 -80 -305z" />
<glyph unicode="B" horiz-adv-x="1300" d="M166 92v1237q0 55 19.5 73.5t72.5 18.5h410q242 0 355.5 -104.5t113.5 -259.5q0 -121 -75 -202t-206 -112q178 -31 256 -127t78 -223q0 -164 -111.5 -278.5t-359.5 -114.5h-461q-55 0 -73.5 19.5t-18.5 72.5zM403 154h254q143 0 221 62.5t78 180.5q0 78 -30.5 134.5 t-68.5 83t-93 41t-82 16.5t-57 2h-222v-520zM403 805h203q158 0 230.5 69.5t72.5 178.5q0 74 -37.5 123t-100 66.5t-95.5 21.5t-70 4h-203v-463z" />
<glyph unicode="C" horiz-adv-x="1243" d="M109 711q0 340 149 530q170 219 502 219q160 0 311 -57q35 -14 43 -20.5t8 -20.5q0 -37 -26 -152q-6 -29 -25 -28q-10 0 -29 14q-129 88 -280 88q-82 0 -148.5 -27.5t-107.5 -67.5t-72 -100.5t-44 -108.5t-21.5 -112.5t-9.5 -92t-1 -64.5q0 -74 7.5 -140.5t32 -149.5 t67.5 -142.5t121 -100.5t182 -41t167.5 21.5t139.5 74.5q25 18 35 19q16 0 23 -25q12 -86 12 -123q0 -12 -6 -19t-39 -30q-86 -55 -157 -74.5t-179 -19.5q-305 0 -483 191q-172 186 -172 559z" />
<glyph unicode="D" horiz-adv-x="1409" d="M166 92v1237q0 55 19.5 73.5t72.5 18.5h447q141 0 263 -55t197 -164q131 -188 131 -502q0 -344 -161 -526q-150 -174 -428 -174h-449q-55 0 -73.5 19.5t-18.5 72.5zM410 154h229q86 0 153.5 22.5t109.5 55t73 87t45 97.5t22.5 106.5t9.5 95t1 83t-1 84t-9.5 99 t-22.5 110.5t-45 100.5t-74 91.5t-110.5 58.5t-153.5 23.5h-227v-1114z" />
<glyph unicode="E" horiz-adv-x="1161" d="M166 92v1231q0 55 19.5 73.5t72.5 18.5h703q57 0 73.5 -21.5t16.5 -70.5q0 -45 -14.5 -65.5t-32 -23.5t-60.5 -3l-434 6h-94v-420h491q29 0 44.5 -3t30.5 -22.5t15 -58.5q0 -29 -7 -47t-23.5 -24.5t-27.5 -8.5t-32 -2h-491v-463q37 4 270 5l289 4q39 0 56.5 -3.5 t31.5 -23.5t14 -64v-16q0 -53 -18.5 -71.5t-71.5 -18.5h-729q-55 0 -73.5 19.5t-18.5 72.5z" />
<glyph unicode="F" horiz-adv-x="1105" d="M166 92v1231q0 55 19.5 73.5t72.5 18.5h674q57 0 73.5 -21.5t16.5 -70.5q0 -45 -14.5 -65.5t-32 -23.5t-57.5 -3l-420 6h-82v-446h436q29 0 44 -3.5t30.5 -23t15.5 -57.5q0 -29 -7 -47.5t-23.5 -24.5t-28 -8t-31.5 -2h-436v-535q0 -53 -18.5 -71.5t-71.5 -18.5h-68 q-55 0 -73.5 19.5t-18.5 72.5z" />
<glyph unicode="G" horiz-adv-x="1296" d="M109 711q0 360 170 557q170 193 479 192q190 0 338 -80q39 -20 46 -27t7 -20q0 -37 -27 -151q-6 -29 -24 -29q-10 0 -27 12q-135 119 -309 119q-82 0 -148.5 -27.5t-107.5 -67.5t-72 -99.5t-44 -108.5t-21.5 -112.5t-9.5 -92t-1 -65.5t1 -65t9.5 -92.5t21.5 -112.5 t44 -108.5t72 -100t107.5 -67.5t148.5 -28q90 0 176 23v366h-127q-41 0 -48 8.5t-7 49.5v51q0 41 8 49t49 8h297q41 0 48 -8t7 -49v-516q0 -35 -6 -45.5t-41 -26.5q-170 -86 -362 -86q-322 0 -494 213q-153 191 -153 537z" />
<glyph unicode="H" horiz-adv-x="1388" d="M166 92v1237q0 55 19.5 73.5t72.5 18.5h68q55 0 72.5 -19.5t17.5 -70.5v-510h555v510q0 53 18.5 71.5t71.5 18.5h69q55 0 73 -19.5t18 -70.5v-1241q0 -53 -18.5 -71.5t-72.5 -18.5h-69q-55 0 -72.5 19.5t-17.5 70.5v565h-555v-565q0 -53 -18.5 -71.5t-71.5 -18.5h-68 q-55 0 -73.5 19.5t-18.5 72.5z" />
<glyph unicode="I" horiz-adv-x="579" d="M164 92v1237q0 55 19.5 73.5t72.5 18.5h68q55 0 72.5 -19.5t17.5 -70.5v-1241q0 -53 -18.5 -71.5t-71.5 -18.5h-68q-55 0 -73.5 19.5t-18.5 72.5z" />
<glyph unicode="J" horiz-adv-x="921" d="M82 74q0 41 24 139q6 25 25 25q12 0 27 -21q80 -94 200 -94q152 0 152 190v1018q0 53 18.5 71.5t71.5 18.5h64q55 0 72.5 -19.5t17.5 -70.5v-1030q0 -160 -92.5 -250t-245.5 -90q-145 0 -289 70q-2 2 -6 4q-25 12 -32 18.5t-7 20.5z" />
<glyph unicode="K" horiz-adv-x="1357" d="M166 92v1237q0 55 19.5 73.5t72.5 18.5h45q55 0 72.5 -19.5t17.5 -70.5v-592l586 639q39 43 106 43h76q68 0 68 -39q0 -14 -25 -41l-465 -507l500 -779q0 -27 -10 -39t-21.5 -14t-38.5 -2h-79q-41 0 -57.5 7t-37.5 40l-403 627l-199 -217v-367q0 -53 -18.5 -71.5 t-71.5 -18.5h-45q-55 0 -73.5 19.5t-18.5 72.5z" />
<glyph unicode="L" horiz-adv-x="1052" d="M166 92v1237q0 55 19.5 73.5t72.5 18.5h68q55 0 72.5 -19.5t17.5 -70.5v-1153l467 8q41 0 60.5 -15t22.5 -31.5t3 -47.5q0 -51 -16.5 -71.5t-73.5 -20.5h-621q-55 0 -73.5 19.5t-18.5 72.5z" />
<glyph unicode="M" horiz-adv-x="1712" d="M166 92v1237q0 55 19.5 73.5t72.5 18.5h127q29 0 45 -3t40 -21.5t36 -55.5l184 -538l90 -279q63 -203 72 -266h2q6 43 68 250l82 252l198 575q10 31 18.5 45.5t34 27.5t68.5 13h131q55 0 72.5 -19.5t17.5 -70.5v-1241q0 -53 -18.5 -71.5t-71.5 -18.5h-33 q-55 0 -72.5 19.5t-17.5 70.5v1106q-2 -25 -72.5 -250t-80.5 -252l-197 -569q-18 -53 -43 -69.5t-86 -16.5q-27 0 -40 1t-32.5 8t-33 24.5t-23.5 46.5l-184 540l-86 271q-66 221 -72 266h-2v-1106q0 -53 -18.5 -71.5t-71.5 -18.5h-31q-55 0 -73.5 19.5t-18.5 72.5z" />
<glyph unicode="N" horiz-adv-x="1388" d="M166 92v1237q0 55 19.5 73.5t72.5 18.5h148q55 0 81.5 -16t47.5 -66l387 -905q63 -154 84 -217h2v1114q0 53 18 71.5t72 18.5h32q55 0 73 -19.5t18 -70.5v-1241q0 -53 -18.5 -71.5t-72.5 -18.5h-149q-55 0 -82 16.5t-47 65.5l-387 905q-63 154 -84 217h-2v-1114 q0 -53 -18.5 -71.5t-71.5 -18.5h-31q-55 0 -73.5 19.5t-18.5 72.5z" />
<glyph unicode="O" horiz-adv-x="1427" d="M109 700q0 334 135 535q74 109 197.5 167t271.5 58q328 0 487 -256q117 -186 117 -504q0 -362 -162 -553q-158 -186 -442 -186q-283 0 -437 178q-167 194 -167 561zM358 733q0 -266 62 -411q51 -121 133 -167t160 -46t159.5 46t133.5 164q61 145 61 414q0 270 -70 406 q-92 178 -284 178q-186 0 -279 -168q-76 -133 -76 -416z" />
<glyph unicode="P" horiz-adv-x="1245" d="M166 92v1237q0 55 19.5 73.5t72.5 18.5h422q223 0 339 -115.5t116 -314.5q0 -117 -40 -204t-105.5 -132t-138.5 -65.5t-153 -20.5h-282v-479q0 -53 -18.5 -71.5t-71.5 -18.5h-68q-55 0 -73.5 19.5t-18.5 72.5zM410 711h208q94 0 155 23.5t86.5 68.5t33.5 86t8 100 q0 61 -8 103.5t-35 86.5t-87 66.5t-153 22.5h-208v-557z" />
<glyph unicode="Q" horiz-adv-x="1427" d="M109 700q0 334 135 535q74 109 197.5 167t271.5 58q328 0 487 -256q117 -186 117 -504q0 -225 -62 -381q-68 -174 -190 -253l131 -193q29 -45 29 -57q0 -43 -68 -43h-123q-47 0 -60 10t-50 65l-74 125q-68 -12 -137 -12q-283 0 -437 178q-167 194 -167 561zM352 702 q0 -262 64 -397q92 -201 297 -201q49 0 49 9l-53 90l-50 80q-35 55 -34 71q0 43 69 43h94q33 0 43.5 -3t22.5 -21l102 -154q117 135 117 483q0 274 -72 428q-43 88 -120.5 137.5t-167.5 49.5q-84 0 -157 -42t-116 -116q-88 -152 -88 -457z" />
<glyph unicode="R" horiz-adv-x="1257" d="M166 92v1237q0 55 19.5 73.5t72.5 18.5h408q238 0 359.5 -109.5t121.5 -287.5q0 -276 -293 -360l307 -588q12 -25 13 -31q0 -45 -72 -45h-86q-43 0 -57.5 8t-30.5 41l-303 596h-215v-555q0 -53 -18.5 -71.5t-72.5 -18.5h-61q-55 0 -73.5 19.5t-18.5 72.5zM410 776h225 q166 0 222 65.5t56 180.5q0 117 -56 181.5t-220 64.5h-227v-492z" />
<glyph unicode="S" horiz-adv-x="1081" d="M86 129q0 37 27 152q6 29 24 28q10 0 33 -20q162 -137 367 -137q123 0 171 66.5t48 158.5q0 82 -42 138t-96 79q-10 4 -64 18.5l-69 18.5q-100 25 -153 50.5t-119 92.5q-14 14 -32.5 39t-45 93.5t-26.5 142.5q0 180 105 295.5t329 115.5q174 0 313 -82q35 -20 42 -26 t7 -19q0 -37 -26 -151q-6 -29 -25 -29q-10 0 -25 14q-123 115 -284 115q-102 0 -161.5 -49t-59.5 -154q0 -80 67 -153q25 -25 56.5 -36t130.5 -38q72 -18 106.5 -29.5t85.5 -42t90 -78.5q111 -131 111 -303q0 -197 -108.5 -317.5t-323.5 -120.5q-209 0 -394 113 q-43 27 -51 34t-8 21z" />
<glyph unicode="T" horiz-adv-x="1318" d="M70 1317q0 55 19.5 73.5t72.5 18.5h995q57 0 73.5 -21.5t16.5 -70.5q0 -57 -19.5 -74.5t-74.5 -17.5l-369 6v-1141q0 -53 -18 -71.5t-72 -18.5h-67q-55 0 -73.5 19.5t-18.5 72.5v1139l-369 -6q-57 0 -76.5 17.5t-19.5 74.5z" />
<glyph unicode="U" horiz-adv-x="1345" d="M166 467v862q0 55 19.5 73.5t72.5 18.5h68q55 0 72.5 -19.5t17.5 -70.5v-866q0 -350 262 -350q272 0 272 352v864q0 53 18.5 71.5t71.5 18.5h47q55 0 73 -19.5t18 -70.5v-864q0 -223 -127 -364.5t-375 -141.5t-379 140.5t-131 365.5z" />
<glyph unicode="V" horiz-adv-x="1302" d="M47 1370q0 51 76 51h70q29 0 45 -3t38.5 -21.5t34.5 -55.5l236 -720q18 -51 63 -211q45 -141 54 -193h2q20 115 143 481l211 641q16 53 41.5 67.5t77.5 14.5h39q76 0 75 -51q0 -10 -10 -39l-412 -1251q-12 -37 -35.5 -55.5t-40 -21.5t-42.5 -3h-125q-29 0 -45.5 3 t-39 21.5t-34.5 57.5l-412 1249q-10 29 -10 39z" />
<glyph unicode="W" horiz-adv-x="1843" d="M41 1368q0 53 80 53h43q27 0 43 -2t37.5 -20.5t29.5 -55.5l170 -720q70 -299 78 -400h2q10 109 109 527l139 589q8 39 29.5 57.5t38 21.5t45.5 3h88q27 0 43 -3t37.5 -21.5t29.5 -55.5l162 -682q78 -334 92 -440h2q14 117 95 451l159 673q8 37 30 55.5t39 20.5t50 2 q88 0 88 -53l-6 -29l-303 -1259q-8 -37 -29.5 -55.5t-37 -21.5t-44.5 -3h-98q-23 0 -35 2t-29.5 8t-28.5 24.5t-20 49.5l-157 664q-80 330 -97 454h-2q-8 -72 -46 -241.5t-48 -206.5l-157 -666q-8 -31 -19.5 -50.5t-29 -26.5t-30 -9t-34.5 -2h-88q-29 0 -44.5 3t-37 21.5 t-29.5 55.5l-303 1259z" />
<glyph unicode="X" horiz-adv-x="1302" d="M63 43q0 14 17 39l436 670l-405 587q-18 27 -19 41q0 41 70 41h114q41 0 56.5 -7t34.5 -36l270 -413l262 419q23 37 88 37h100q70 0 70 -43q0 -8 -16 -35l-383 -591l477 -697q0 -27 -9 -39t-20.5 -14t-38.5 -2h-114q-41 0 -56.5 7t-35.5 38l-324 516l-313 -516 q-12 -23 -26.5 -32t-27 -11t-39.5 -2h-98q-23 0 -34 1t-23.5 11.5t-12.5 30.5z" />
<glyph unicode="Y" horiz-adv-x="1302" d="M39 1378q0 43 72 43h84q98 0 143 -73l231 -387q74 -125 99 -183q18 57 171.5 313.5t174.5 282.5q41 47 125 47h51q72 0 72 -43q0 -10 -19 -41l-471 -770v-479q0 -55 -20.5 -71.5t-69.5 -16.5h-64q-53 0 -71.5 18.5t-18.5 71.5v479l-477 777q-12 18 -12 32z" />
<glyph unicode="Z" horiz-adv-x="1189" d="M109 92q0 43 18 72l664 1091h-74l-471 -6q-45 0 -63.5 3t-33 22.5t-14.5 60.5q0 39 15.5 59.5t31 23.5t45.5 3h762q49 0 69.5 -17.5t20.5 -70.5q0 -39 -18 -67l-662 -1088l590 8q59 0 81 -15t22 -79q0 -51 -16.5 -71.5t-74.5 -20.5h-802q-55 0 -72.5 20.5t-17.5 71.5z " />
<glyph unicode="[" horiz-adv-x="600" d="M160 -365v1811q0 53 18.5 71.5t71.5 18.5h215q90 0 90 -65.5t-90 -65.5h-90v-1729h90q90 0 90 -65.5t-90 -65.5h-215q-55 0 -72.5 19.5t-17.5 70.5z" />
<glyph unicode="\" horiz-adv-x="1024" d="M115 1495q0 16 12 28.5t29 12.5q29 0 45 -45l696 -1925l10 -37q0 -16 -12 -28.5t-29 -12.5q-29 0 -45 45l-696 1925z" />
<glyph unicode="]" horiz-adv-x="600" d="M43 -389.5q0 65.5 90 65.5h90v1729h-90q-90 0 -90 65.5t90 65.5h215q55 0 72.5 -19.5t17.5 -70.5v-1811q0 -53 -18.5 -71.5t-71.5 -18.5h-215q-90 0 -90 65.5z" />
<glyph unicode="^" horiz-adv-x="1138" d="M-10 1196l579 328l580 -328l-25 -45l-557 252l-555 -252z" />
<glyph unicode="_" horiz-adv-x="1302" d="M0 -141h1303v-230h-1303v230z" />
<glyph unicode="`" d="M211 1399q0 16 10 19t39 3h125q29 0 37 -3t20 -19l164 -228l17 -30q0 -23 -52 -23h-63l-277 250q-20 19 -20 31z" />
<glyph unicode="a" horiz-adv-x="927" d="M53 270q0 72 30 128.5t85 90t106.5 56t121 33t100 13.5t69.5 5q16 2 19.5 7t3.5 32v41q0 70 -13.5 115t-40 61t-43 20.5t-40.5 4.5q-152 0 -256 -103q-23 -20 -33 -20q-14 0 -18.5 11t-8.5 48q-6 49 -6 74q0 16 8 23.5t41 23.5q131 63 281 63q180 0 268 -85t88 -234v-588 q0 -53 -18.5 -71.5t-71.5 -18.5h-41q-55 0 -72.5 19.5t-17.5 70.5v51q-33 -59 -103.5 -110t-168.5 -51q-117 0 -193 87.5t-76 202.5zM268 274q0 -68 39 -115.5t99 -47.5q20 0 44.5 7t58.5 25.5t56.5 63.5t22.5 110v207q-37 -2 -72 -8t-83 -22.5t-82 -42t-58.5 -72 t-24.5 -105.5z" />
<glyph unicode="b" horiz-adv-x="989" d="M115 92v1237q0 55 19.5 73.5t72.5 18.5h39q55 0 72.5 -19.5t17.5 -70.5v-457q94 113 239 113q104 0 177 -49t107 -131t48.5 -160t14.5 -162q0 -223 -82 -346q-106 -160 -303 -159q-121 0 -195 92q0 -33 -17.5 -50.5t-31.5 -19.5t-41 -2h-45q-55 0 -73.5 19.5t-18.5 72.5z M342 193q51 -82 139 -82q61 0 104.5 28.5t64 64.5t31.5 97t12 95t1 91q0 45 -1 72t-6 78t-17.5 83t-33 66.5t-54 52t-80.5 17.5q-55 0 -107 -31q-37 -27 -45 -41t-8 -45v-546z" />
<glyph unicode="c" horiz-adv-x="864" d="M66 485q0 246 109.5 379t320.5 133q92 0 145 -16t121 -55q2 -2 6 -4q29 -16 29 -33q0 -4 -15 -76q-6 -37 -11 -47t-17 -10q-10 0 -29 18q-55 43 -102.5 61.5t-124.5 18.5q-70 0 -114 -34t-62.5 -96t-23.5 -113.5t-5 -123.5q0 -49 1 -80.5t11 -91t29.5 -96.5t59.5 -66.5 t98 -29.5q141 0 258 117q14 18 26 18q14 0 18.5 -10t8.5 -47q6 -49 6 -74q0 -18 -30.5 -45t-61.5 -43l-31 -16q-90 -43 -199 -43q-205 0 -313 131q-108 132 -108 374z" />
<glyph unicode="d" horiz-adv-x="989" d="M66 483q0 231 88 361q98 143 282 143q131 0 215 -100v444q0 53 18.5 71.5t71.5 18.5h41q55 0 72.5 -19.5t17.5 -70.5v-1241q0 -53 -18 -71.5t-72 -18.5h-47q-55 0 -72.5 19.5t-17.5 70.5q-8 -12 -28.5 -33.5t-75 -49t-115.5 -27.5q-188 0 -289 165q-71 121 -71 338z M293 481q0 -45 1 -72.5t6 -78.5t17.5 -83t33 -67t54 -52t80.5 -17q98 0 160 96v579q-70 70 -139 70q-61 0 -104.5 -28.5t-64 -64.5t-31.5 -97.5t-12 -95.5t-1 -89z" />
<glyph unicode="e" horiz-adv-x="897" d="M53 489q0 143 39 249t104.5 159t134 76.5t142.5 23.5q178 0 273.5 -111.5t95.5 -322.5q0 -53 -19.5 -70.5t-70.5 -17.5h-488q0 -27 1 -49.5t7.5 -71.5t22.5 -86t40.5 -75.5t69 -60t101.5 -21.5q158 0 264 127q16 18 27 18q14 0 17 -6t7 -35q2 -6 2 -8q6 -55 6 -74 q0 -47 -129 -108q-100 -45 -202 -45q-63 0 -123 14t-120 51t-103 92.5t-71 146t-28 205.5zM266 571h400q-2 45 -4.5 73t-13.5 75t-29.5 74.5t-55.5 50t-88 22.5q-98 0 -150.5 -85t-58.5 -210z" />
<glyph unicode="f" horiz-adv-x="593" d="M51 901q0 31 19.5 46.5t38 17.5t51.5 2v157q0 150 87 234t253 84q61 0 114 -10q43 -10 51.5 -18.5t8.5 -45.5v-57q0 -51 -23 -51q-10 0 -26 12q-53 39 -125 39q-35 0 -60.5 -10.5t-38 -22.5t-18.5 -33.5t-7 -35t-1 -33.5v-209h90q90 0 90 -65.5t-90 -65.5h-84v-746 q0 -53 -18.5 -71.5t-71.5 -18.5h-39q-55 0 -73.5 19.5t-18.5 72.5v744q-35 0 -52.5 2t-37 17t-19.5 46z" />
<glyph unicode="g" horiz-adv-x="989" d="M66 487q0 221 90 351q102 150 297 149q125 0 198 -119q0 72 13.5 95.5t76.5 23.5h41q55 0 72.5 -19.5t17.5 -70.5v-842q0 -188 -94 -313t-301 -125q-168 0 -309 68q-23 12 -28 20t-5 41v47q0 53 23 53q10 0 26 -14q135 -84 289 -84q172 0 172 252v190h-2 q-57 -147 -205 -147q-184 0 -284 129q-88 114 -88 315zM293 487q0 -39 4 -74.5t19.5 -99t58.5 -101.5t108 -38q160 0 162 334q0 29 6 49v129q0 68 -41 119t-104.5 51t-107.5 -35t-65.5 -93t-30.5 -116.5t-9 -124.5z" />
<glyph unicode="h" horiz-adv-x="989" d="M111 92v1237q0 55 19.5 73.5t72.5 18.5h39q55 0 72.5 -19.5t17.5 -70.5v-538h2q90 195 280 194q147 0 205 -74.5t58 -212.5v-610q0 -53 -18.5 -71.5t-72.5 -18.5h-47q-55 0 -72.5 19.5t-17.5 70.5v602q0 88 -23.5 126t-86.5 38q-80 0 -140.5 -72.5t-60.5 -203.5v-490 q0 -53 -18.5 -71.5t-71.5 -18.5h-45q-55 0 -73.5 19.5t-18.5 72.5z" />
<glyph unicode="i" horiz-adv-x="448" d="M98 1245v49q0 59 19.5 78t72.5 19h68q55 0 73.5 -19.5t18.5 -77.5v-49q0 -57 -19.5 -76.5t-72.5 -19.5h-68q-55 0 -73.5 20.5t-18.5 75.5zM113 92v782q0 55 19.5 74t72.5 19h39q55 0 72.5 -19.5t17.5 -70.5v-787q0 -53 -18.5 -71.5t-71.5 -18.5h-39q-55 0 -73.5 19.5 t-18.5 72.5z" />
<glyph unicode="j" horiz-adv-x="503" d="M-127 -279q0 4 8 29t8 31q10 31 15.5 39t17.5 8q2 0 27 -12q51 -29 106 -29q51 0 79 24.5t31 46t3 56.5v963q0 53 18.5 71.5t71.5 18.5h41q55 0 72.5 -19.5t17.5 -70.5v-928q0 -154 -70.5 -232.5t-191.5 -78.5q-78 0 -166 28t-88 55zM137 1245v49q0 59 19.5 78t72.5 19 h68q55 0 73.5 -19.5t18.5 -77.5v-49q0 -57 -19.5 -76.5t-72.5 -19.5h-68q-55 0 -73.5 20.5t-18.5 75.5z" />
<glyph unicode="k" horiz-adv-x="935" d="M125 92v1237q0 55 19.5 73.5t72.5 18.5h19q55 0 72.5 -19.5t17.5 -70.5v-706l274 301q18 20 35.5 29.5t30 10.5t39.5 1h67q68 0 68 -39q0 -14 -25 -41l-278 -303l317 -508q14 -20 14 -33q0 -43 -69 -43h-58q-63 0 -84 31l-251 405l-87 -90v-256q0 -53 -18 -71.5 t-72 -18.5h-12q-55 0 -73.5 19.5t-18.5 72.5z" />
<glyph unicode="l" horiz-adv-x="448" d="M113 92v1237q0 55 19.5 73.5t72.5 18.5h39q55 0 72.5 -19.5t17.5 -70.5v-1241q0 -53 -18.5 -71.5t-71.5 -18.5h-39q-55 0 -73.5 19.5t-18.5 72.5z" />
<glyph unicode="m" horiz-adv-x="1529" d="M111 92v795q0 55 19.5 73.5t72.5 18.5h33q55 0 72.5 -19.5t17.5 -70.5v-109l2 -2q88 209 286 209q229 0 258 -199q94 199 283 199q145 0 204.5 -72.5t59.5 -214.5v-610q0 -53 -18.5 -71.5t-71.5 -18.5h-45q-55 0 -73.5 19.5t-18.5 72.5v600q0 88 -23.5 126t-87.5 38 q-82 0 -142 -72.5t-60 -203.5v-490q0 -53 -18.5 -71.5t-72.5 -18.5h-45q-55 0 -73.5 19.5t-18.5 72.5v600q0 88 -23.5 126t-86.5 38q-82 0 -142.5 -72.5t-60.5 -203.5v-490q0 -53 -18.5 -71.5t-71.5 -18.5h-45q-55 0 -73.5 19.5t-18.5 72.5z" />
<glyph unicode="n" horiz-adv-x="989" d="M111 92v795q0 55 19.5 73.5t72.5 18.5h33q55 0 72.5 -19.5t17.5 -70.5v-111h2q94 209 286 209q147 0 205 -74.5t58 -212.5v-610q0 -53 -18.5 -71.5t-72.5 -18.5h-47q-55 0 -72.5 19.5t-17.5 70.5v602q0 88 -23.5 126t-86.5 38q-80 0 -140.5 -72.5t-60.5 -203.5v-490 q0 -53 -18.5 -71.5t-71.5 -18.5h-45q-55 0 -73.5 19.5t-18.5 72.5z" />
<glyph unicode="o" d="M53 475q0 238 105 375q109 147 327 147q213 0 326 -143q106 -133 107 -379q0 -242 -115 -369q-113 -127 -318 -126q-213 0 -323 131q-109 133 -109 364zM281 499.5q0 -59.5 1 -94t12 -95t30.5 -96.5t60.5 -63.5t100.5 -27.5t100.5 27.5t60.5 63.5t30.5 96.5t12 95t1 94.5 q0 47 -1 74.5t-6 79t-18.5 82t-35 64.5t-58 50t-86.5 16q-59 0 -100 -26.5t-60.5 -60.5t-30.5 -93t-12 -93t-1 -93.5z" />
<glyph unicode="p" horiz-adv-x="989" d="M115 -250v1124q0 55 19.5 74t72.5 19h39q43 0 63.5 -14.5t23.5 -31t3 -53.5q109 119 254 119q98 0 166.5 -47t102.5 -127t48.5 -159t14.5 -167q0 -219 -84 -352q-49 -74 -129 -114.5t-170 -40.5q-111 0 -197 92v-324q0 -53 -18.5 -71.5t-71.5 -18.5h-45q-55 0 -73.5 19.5 t-18.5 72.5zM342 190q53 -80 139 -79q74 0 122 46t65.5 122.5t21.5 117.5t4 86t-4 86t-19.5 114t-59.5 117t-111 44q-92 0 -158 -76v-578z" />
<glyph unicode="q" horiz-adv-x="989" d="M66 481q0 209 75 338q100 168 303 168q133 0 207 -127v37q0 53 18.5 71.5t71.5 18.5h41q55 0 72.5 -19.5t17.5 -70.5v-1149q0 -53 -18 -71.5t-72 -18.5h-47q-55 0 -72.5 19.5t-17.5 70.5v340q-84 -109 -213 -108q-109 0 -185.5 48t-113.5 129t-52 159.5t-15 164.5z M293 479q0 -102 16.5 -180t61.5 -133t116 -55q106 0 164 112v453q0 66 -41 117t-106 51q-74 0 -121 -45t-64.5 -120t-21.5 -115t-4 -85z" />
<glyph unicode="r" horiz-adv-x="657" d="M115 92v795q0 55 19.5 73.5t72.5 18.5h29q55 0 72.5 -19.5t17.5 -70.5v-135h2q41 119 115.5 176t152.5 57q23 0 28 -9t5 -44v-60q0 -37 -5.5 -44t-31.5 -9q-111 -10 -183.5 -95t-72.5 -222v-414q0 -53 -18.5 -71.5t-71.5 -18.5h-39q-55 0 -73.5 19.5t-18.5 72.5z" />
<glyph unicode="s" horiz-adv-x="745" d="M53 102q0 6 10.5 59.5t12.5 61.5q0 25 22 25q12 0 33 -21q106 -106 249.5 -106t143.5 133q0 41 -13 68.5t-43 44t-50.5 22.5t-61.5 17q-291 59 -290 303q0 289 317 288q135 0 242 -55q31 -14 37 -20.5t6 -18.5q0 -33 -15 -76q-6 -37 -11 -46t-17 -9q-10 0 -23 10 q-100 88 -231 88q-129 0 -129 -120q0 -37 11 -62.5t40 -41t49 -22t66 -16.5q51 -10 78.5 -18t66.5 -31.5t72 -60.5q76 -88 75 -211q0 -307 -315 -307q-102 0 -199 34q-133 49 -133 88z" />
<glyph unicode="t" horiz-adv-x="708" d="M37 901.5q0 65.5 92 65.5h39v184q0 55 19.5 73.5t72.5 18.5h27q55 0 72.5 -19.5t17.5 -70.5v-186h151q90 0 90 -65.5t-90 -65.5h-151v-551q0 -162 69 -162q80 0 129 57q16 25 31 25q12 0 17.5 -8.5t13.5 -34.5q0 -2 7 -29t7 -31q0 -29 -99 -75.5t-210 -46.5 q-180 0 -180 268v588h-35q-90 0 -90 65.5z" />
<glyph unicode="u" horiz-adv-x="989" d="M111 264v610q0 55 19.5 74t72.5 19h45q55 0 72.5 -19.5t17.5 -70.5v-627q0 -96 22.5 -129t100.5 -33q94 0 141 84t47 199v506q0 53 18.5 71.5t71.5 18.5h47q55 0 73 -19.5t18 -70.5v-787q0 -53 -18.5 -71.5t-72.5 -18.5h-41q-55 0 -72.5 19.5t-17.5 70.5v64 q-78 -174 -245 -174q-154 0 -226.5 65t-72.5 219z" />
<glyph unicode="v" horiz-adv-x="882" d="M43 915q6 35 24.5 43.5t53.5 8.5h24q55 0 77 -18.5t36 -63.5l184 -658l185 656q16 53 41.5 68.5t72.5 15.5h19q78 0 78 -52q0 -6 -7 -30l-227 -805q-10 -37 -31.5 -55.5t-38 -21.5t-45.5 -3h-98q-29 0 -45 3t-37.5 21.5t-32.5 55.5z" />
<glyph unicode="w" horiz-adv-x="1314" d="M41 913q0 53 80 54h22q43 0 66.5 -13.5t30 -28t14.5 -46.5l119 -504q18 -78 26 -139h2q6 43 39 188l107 450q8 33 14 48.5t28.5 30t61.5 14.5q84 0 103 -80l155 -656l156 656q8 37 29.5 55.5t38 21.5t51.5 3q88 0 88 -54q0 -2 -6 -32l-191 -801q-8 -37 -29.5 -55.5 t-38 -21.5t-42.5 -3h-99q-78 0 -102 49q-10 25 -70.5 297t-68.5 379q0 -96 -63.5 -376.5t-74.5 -301.5q-25 -47 -100 -47h-39q-27 0 -43 3t-37.5 21.5t-29.5 55.5l-189 797z" />
<glyph unicode="x" horiz-adv-x="882" d="M39 41q0 18 16 41l291 418l-278 387q-16 25 -17 39q0 41 68 41h49q45 0 59.5 -8.5t32.5 -34.5l174 -256l166 254q20 29 35.5 37t56.5 8h49q68 0 68 -43q0 -14 -16 -37l-271 -387l303 -422q16 -23 17 -37q0 -41 -70 -41h-49q-41 0 -57.5 8t-34.5 37l-197 320l-186 -318 q-18 -33 -35.5 -40t-56.5 -7h-50q-67 0 -67 41z" />
<glyph unicode="y" horiz-adv-x="882" d="M49 918q0 49 76 49h25q68 0 90 -24.5t59 -125.5q164 -432 170 -575q10 125 84 379l76 264q10 39 29.5 57.5t37 21.5t54.5 3q29 0 43 -2t28.5 -13.5t14.5 -36.5l-11 -38l-293 -981q-35 -113 -116.5 -185.5t-196.5 -72.5q-111 0 -137 20q-6 6 -12.5 58.5t-6.5 72.5 q0 29 25 29l14 -6q61 -29 119 -29q84 0 123 70q10 16 29.5 73.5t19.5 71.5l-8 31l-326 852z" />
<glyph unicode="z" horiz-adv-x="841" d="M53 78q0 31 21 61l458 695h-77l-267 -5q-33 0 -51 2.5t-36.5 18.5t-18.5 47q0 70 92 70h512q27 0 42 -2t31.5 -20.5t16.5 -55.5q0 -31 -20 -62l-459 -694h94l281 4q35 0 53 -2t36.5 -18.5t18.5 -48.5q0 -68 -90 -68h-547q-27 0 -42 2t-31.5 20.5t-16.5 55.5z" />
<glyph unicode="{" horiz-adv-x="1024" d="M147 512q0 23 29 23q129 8 213 92q39 41 46 86t7 196v375q2 109 118 180.5t274 71.5q41 0 40 -23q0 -18 -18 -22q-66 -4 -115 -21.5t-67.5 -32t-44.5 -40.5q-35 -37 -42 -80t-7 -164v-369q0 -203 -242 -272q207 -59 237 -211q4 -20 5 -186v-308q0 -76 6 -98 q16 -66 80.5 -118t175.5 -58h4q29 -4 28 -22q0 -23 -40 -23q-174 0 -285 78q-72 51 -89.5 104.5t-17.5 159.5v406q0 72 -27.5 124t-71.5 77.5t-83 37.5t-80 14h-4q-29 5 -29 23z" />
<glyph unicode="|" horiz-adv-x="569" d="M244 -444v1912q0 68 41 68t41 -68v-1912q0 -68 -41 -68t-41 68z" />
<glyph unicode="}" horiz-adv-x="1024" d="M147 -489q0 18 19 22q66 4 115 21.5t67.5 32t44.5 40.5q35 37 42 80t7 164v369q0 203 242 272q-207 59 -238 211q-4 20 -4 186v308q0 76 -6 98q-16 66 -80.5 118t-175.5 58h-4q-29 4 -29 22q0 23 41 23q170 0 285 -78q72 -51 89.5 -104.5t17.5 -159.5v-406 q0 -72 27.5 -124t71.5 -77.5t83 -37.5t80 -14h4q29 -4 28 -23q0 -23 -28 -23q-129 -8 -213 -92q-39 -41 -46 -86t-7 -196v-375q-2 -109 -118 -180.5t-274 -71.5q-41 0 -41 23z" />
<glyph unicode="~" horiz-adv-x="1138" d="M0 459l111 90q41 35 116 72q82 37 150 36q86 0 205 -69q133 -76 213 -76q139 0 313 145l29 -34l-111 -91q-41 -35 -117 -71q-82 -37 -149 -37q-86 0 -205 70q-133 76 -213 75q-139 0 -313 -145z" />
<glyph unicode="&#xa0;" />
<glyph unicode="&#xa1;" horiz-adv-x="626" d="M205 -295l10 498l10 481q2 23 54 23h69q41 0 49 -13q2 -6 5.5 -93t5.5 -187.5t2 -112.5l12 -596q0 -35 -7 -41t-44 -6h-113q-37 0 -45 6t-8 41zM205 954v35q0 55 19.5 73.5t72.5 18.5h35q55 0 72.5 -19.5t17.5 -70.5v-37q0 -53 -18.5 -71.5t-71.5 -18.5h-37 q-55 0 -72.5 19.5t-17.5 70.5z" />
<glyph unicode="&#xa2;" horiz-adv-x="864" d="M66 485q0 211 81.5 340t239.5 162v113q0 18 13.5 30.5t31.5 12.5h88q18 0 30.5 -12.5t12.5 -30.5v-105q100 -10 199 -69q2 -2 6 -4q29 -16 29 -33q0 -4 -15 -76q-6 -37 -11 -47t-17 -10q-10 0 -29 18q-84 63 -162 76v-719q96 18 187 109q14 18 26 18q14 0 18.5 -10 t8.5 -47q6 -49 6 -74q0 -18 -30.5 -45t-61.5 -43l-31 -16q-53 -25 -123 -37v-119q0 -16 -12 -29.5t-31 -13.5h-88q-18 0 -31.5 13t-13.5 30v123q-135 29 -213 121q-108 132 -108 374zM293 487q0 -258 94 -331v665q-94 -72 -94 -334z" />
<glyph unicode="&#xa3;" horiz-adv-x="1302" d="M131 76q0 41 23 69q141 180 184 404q6 25 14 74h-155q-27 0 -46.5 19.5t-19.5 45.5v45q0 29 18.5 47.5t47.5 18.5h163v172q4 182 96.5 316t243.5 134q154 0 248 -135t94 -321q0 -47 -33.5 -81t-80.5 -34t-81 34t-34 81q0 227 -113 227q-106 0 -110 -227v-166h127 q27 0 46 -19.5t19 -46.5v-45q0 -27 -19.5 -46t-45.5 -19h-135q-6 -57 -19 -121q-25 -123 -78 -244q94 -8 238 -45q82 -23 139 -23q39 0 59.5 39t20.5 93q0 47 34 80.5t81 33.5t80.5 -33.5t33.5 -80.5q0 -147 -88 -254t-221 -107q-78 0 -196 31q-84 20 -134.5 30.5t-113 10.5 t-82.5 -27q-35 -45 -90 -45q-47 0 -81 34t-34 81z" />
<glyph unicode="&#xa4;" horiz-adv-x="1513" d="M297 999.5q47 47.5 119 -16.5l80 -80q121 84 260 84q147 0 260 -84l78 78q72 66 118 16q49 -47 -16 -118l-78 -76q84 -117 84 -262.5t-84 -261.5l80 -78q63 -72 16 -119t-118 16l-80 80q-113 -84 -260 -84q-139 0 -260 84l-78 -78q-72 -66 -119 -16q-49 47 16 119l80 78 q-84 117 -84 260t84 260l-82 80q-63 71 -16 118.5zM455 541q0 -125 88 -214t213 -89t214 88t89 215t-89 215t-214 88t-213 -89t-88 -214z" />
<glyph unicode="&#xa5;" horiz-adv-x="1302" d="M39 1378q0 43 72 43h84q98 0 143 -73l231 -387q68 -113 97 -177h4q25 66 175 316t169 274q41 47 125 47h51q72 0 72 -43q0 -10 -19 -41l-338 -553h115q27 0 46 -19.5t19 -45.5v-45q0 -27 -18 -46.5t-47 -19.5h-223l-25 -41v-71h248q29 0 47 -18.5t18 -47.5v-45 q0 -29 -18 -47.5t-47 -18.5h-248v-231q0 -55 -20.5 -71.5t-69.5 -16.5h-64q-53 0 -71.5 18.5t-18.5 71.5v229h-245q-29 0 -47.5 18.5t-18.5 47.5v45q0 29 18.5 47.5t47.5 18.5h245v73l-24 39h-221q-29 0 -47.5 19.5t-18.5 46.5v45q0 27 19.5 46t46.5 19h112l-344 562 q-12 18 -12 32z" />
<glyph unicode="&#xa6;" horiz-adv-x="569" d="M244 322q0 88 41 88t41 -88v-766q0 -68 -41 -68t-41 68v766zM244 702v766q0 68 41 68t41 -68v-766q0 -88 -41 -88t-41 88z" />
<glyph unicode="&#xa7;" horiz-adv-x="1005" d="M70 590q0 166 94 315q-68 88 -68 187q0 152 121 254t287 102t286.5 -102.5t120.5 -253.5h-229q0 66 -52 108.5t-126 42.5t-126 -43t-52 -108q0 -29 28.5 -61t54 -49t74.5 -46l183 -105q121 -72 196.5 -174t75.5 -223q0 -166 -94 -315q68 -92 67 -187q0 -152 -120.5 -254 t-286.5 -102t-287 102.5t-121 253.5h230q0 -66 52 -108.5t126 -42.5t126 43t52 108q0 29 -28.5 61t-54.5 49t-75 46l-182 105q-121 72 -196.5 174t-75.5 223zM299 590q0 -106 158 -199l182 -104l39 -25q31 72 31 172q0 106 -158 199l-182 104l-39 25q-31 -76 -31 -172z" />
<glyph unicode="&#xa8;" d="M166 1247v45q0 53 17.5 69.5t64.5 16.5h61q49 0 66.5 -17.5t17.5 -68.5v-45q0 -51 -17.5 -68.5t-66.5 -17.5h-61q-49 0 -65.5 18.5t-16.5 67.5zM582 1247v45q0 53 17 69.5t65 16.5h61q49 0 66.5 -17.5t17.5 -68.5v-45q0 -51 -17.5 -68.5t-66.5 -17.5h-61 q-49 0 -65.5 18.5t-16.5 67.5z" />
<glyph unicode="&#xa9;" horiz-adv-x="1421" d="M0 711q0 295 208 502.5t503 207.5t502.5 -207.5t207.5 -502.5t-207.5 -503t-502.5 -208t-503 208t-208 503zM131 711q0 -240 170 -410t410 -170q242 0 410.5 170t168.5 410q0 242 -169 410.5t-410 168.5q-240 0 -410 -168.5t-170 -410.5zM354 711q0 209 90 323 q106 135 308 135q92 0 190 -34q29 -14 31 -27q0 -27 -17 -92q-6 -16 -14 -17q-6 0 -18 9q-78 53 -170 53q-70 0 -121 -32t-74.5 -71.5t-36 -98t-14.5 -87.5t-2 -61q0 -57 8 -108.5t31.5 -112t78 -95.5t132.5 -35q106 0 188 60q14 10 21 10q10 0 14 -14q8 -33 8 -76 q0 -8 -29 -29q-88 -57 -204 -57q-186 0 -295 117q-105 115 -105 340z" />
<glyph unicode="&#xaa;" horiz-adv-x="729" d="M45 952q0 51 25.5 91t70.5 62.5t90 39t102 22.5l84 10q28 3 58 3q12 2 15.5 6t3.5 22v29q0 49 -11.5 80t-33 42t-36 14t-34.5 3q-129 0 -215 -71q-23 -14 -29 -15q-12 0 -15 7.5t-7 33.5q0 6 -2 27.5t-2 25.5q0 8 4 12.5t11 8.5t26 12q109 43 235 43q152 0 225.5 -59.5 t73.5 -163.5v-412q0 -37 -15.5 -49t-60.5 -12h-33q-47 0 -61 13.5t-14 47.5v37q-29 -41 -88.5 -76.5t-141.5 -35.5q-98 0 -161.5 61t-63.5 141zM133 625q0 27 25.5 45t62.5 18h287q37 0 62.5 -18.5t25.5 -44.5q0 -25 -25.5 -43.5t-62.5 -18.5h-287q-37 0 -62.5 18.5 t-25.5 43.5zM225 954q0 -45 33 -79.5t82 -34.5q25 0 54.5 7t64.5 43t35 95v145q-41 -2 -79 -9t-85 -24.5t-76 -54.5t-29 -88z" />
<glyph unicode="&#xab;" d="M154 532q-2 8 0 17l192 518q4 14 21 14h86q27 0 22 -26l-94 -514l94 -514q4 -27 -22 -27h-86q-16 0 -21 14zM543 532q-2 8 0 17l192 518q4 14 21 14h86q27 0 22 -26l-94 -514l94 -514q4 -27 -22 -27h-86q-16 0 -21 14z" />
<glyph unicode="&#xac;" horiz-adv-x="1513" d="M109 774q0 29 21.5 50.5t49.5 21.5h1151q29 0 50.5 -21.5t21.5 -50.5v-467q0 -29 -21.5 -50t-50 -21t-50 21.5t-21.5 49.5v395h-1080q-29 0 -50 21.5t-21 50.5z" />
<glyph unicode="&#xad;" horiz-adv-x="649" d="M23 483.5q0 65.5 90 65.5h336q90 0 90 -65.5t-90 -65.5h-336q-90 0 -90 65.5z" />
<glyph unicode="&#xae;" horiz-adv-x="1421" d="M0 711q0 295 208 502.5t503 207.5t502.5 -207.5t207.5 -502.5t-207.5 -503t-502.5 -208t-503 208t-208 503zM131 711q0 -240 170 -410t410 -170q242 0 410.5 170t168.5 410q0 242 -169 410.5t-410 168.5q-240 0 -410 -168.5t-170 -410.5zM434 334v756q0 33 11.5 44 t43.5 11h250q145 0 219 -66.5t74 -175.5q0 -170 -178 -221l188 -358q6 -12 7 -19q0 -29 -43 -29h-54q-25 0 -34 5.5t-19 25.5l-184 365h-131v-340q0 -33 -11.5 -44.5t-44.5 -11.5h-39q-33 0 -44 12.5t-11 45.5zM584 752h137q102 0 136 39.5t34 109.5q0 72 -35 111t-135 39 h-137v-299z" />
<glyph unicode="&#xaf;" d="M137 1249v43q0 39 7.5 46.5t43.5 7.5h598q37 0 44.5 -7.5t7.5 -46.5v-43q0 -39 -7.5 -46t-44.5 -7h-596q-39 0 -46 7t-7 46z" />
<glyph unicode="&#xb0;" horiz-adv-x="729" d="M94 1153q0 111 79 189.5t191.5 78.5t191.5 -78.5t79 -189.5q0 -113 -79 -191.5t-191.5 -78.5t-191.5 78.5t-79 191.5zM238 1153q0 -53 36.5 -90t90 -37t90.5 37t37 90q0 51 -37 88t-90.5 37t-90 -37t-36.5 -88z" />
<glyph unicode="&#xb1;" horiz-adv-x="1513" d="M109 71.5q0 71.5 96 71.5h479v435h-479q-96 0 -96 71.5t96 71.5h479v481q0 96 71.5 96t71.5 -96v-481h480q96 0 96 -71.5t-96 -71.5h-480v-435h480q96 0 96 -71.5t-96 -71.5h-1102q-96 0 -96 71.5z" />
<glyph unicode="&#xb2;" horiz-adv-x="688" d="M59 1262q0 10 22.5 55t59.5 80q70 63 189 63q139 0 219 -80t80 -192q0 -84 -51.5 -149.5t-208.5 -204.5l-144 -136h31h178l92 2q47 0 64.5 -2t28 -13t10.5 -38v-8q0 -31 -12.5 -42t-51.5 -11h-430q-39 0 -52 11t-13 44q0 25 12 37l252 264q127 127 127 244q0 16 -4 36.5 t-16.5 54.5t-46.5 56.5t-85 22.5q-119 0 -159 -150q-8 -23 -21 -22q-8 0 -23 14q-47 60 -47 64z" />
<glyph unicode="&#xb3;" horiz-adv-x="698" d="M59 694q0 14 9 47q6 33 20 33q8 0 23 -16q82 -98 219 -99q131 0 131 175q0 90 -33 131t-109 41h-49q-29 0 -33 4t-4 28v15q0 27 9 30l8 2q10 0 33 2q33 2 47 5.5t33.5 14.5t33.5 32q35 43 35 118q0 23 -3 39.5t-12 35t-30.5 27.5t-54.5 9q-123 0 -178 -104 q-6 -14 -19 -15q-10 0 -32.5 31t-22.5 37q0 29 70.5 86t187.5 57q125 0 194.5 -54t69.5 -149q0 -133 -147 -210q184 -47 184 -216q0 -135 -84 -202.5t-219 -67.5q-117 0 -197 54t-80 79z" />
<glyph unicode="&#xb4;" d="M350 1141l17 30l163 228q12 16 20.5 19t37.5 3h125q29 0 39 -3t10 -19q0 -12 -21 -31l-276 -250h-64q-51 0 -51 23z" />
<glyph unicode="&#xb5;" horiz-adv-x="989" d="M111 -250v1124q0 55 19.5 74t72.5 19h45q55 0 72.5 -19.5t17.5 -70.5v-627q0 -96 22.5 -129t100.5 -33q94 0 141 84t47 199v506q0 53 18.5 71.5t71.5 18.5h47q55 0 73 -19.5t18 -70.5v-787q0 -53 -18.5 -71.5t-72.5 -18.5h-41q-55 0 -72.5 19.5t-17.5 70.5v64 q-78 -174 -245 -174q-35 0 -72 20v-252q0 -53 -18.5 -71.5t-71.5 -18.5h-45q-55 0 -73.5 19.5t-18.5 72.5z" />
<glyph unicode="&#xb6;" horiz-adv-x="1439" d="M131 936q0 209 174 347t414 138h561q92 0 92 -63q0 -61 -92 -62h-104v-1603q0 -90 -64 -90q-61 0 -61 90v1603h-164v-1603q0 -90 -64 -90q-61 0 -61 90v758q-283 16 -457 148t-174 337z" />
<glyph unicode="&#xb7;" horiz-adv-x="1513" d="M647 655v111q0 39 7.5 46t43.5 7h115q37 0 44 -7t7 -46v-111q0 -39 -7 -46t-44 -7h-113q-39 0 -46 7t-7 46z" />
<glyph unicode="&#xb8;" horiz-adv-x="864" d="M262 -315l12 28l140 217q12 18 20 22.5t37 4.5h27q51 0 51 -23q0 -12 -8 -28l-95 -213q-10 -23 -18 -27t-41 -4h-74q-51 0 -51 23z" />
<glyph unicode="&#xb9;" horiz-adv-x="700" d="M98 1337q0 12 12.5 24.5t39.5 14.5q133 8 190 64q18 20 51 20q25 0 38 -10t15 -18.5t2 -24.5v-743h91q66 0 65.5 -39t-65.5 -39h-355q-66 0 -65.5 39t65.5 39h101v653q-59 -18 -123 -19q-62 0 -62 39z" />
<glyph unicode="&#xba;" horiz-adv-x="815" d="M45 1096q0 166 88 262q88 102 275 102q182 0 274 -100q88 -92 88 -264q0 -170 -96 -258q-92 -88 -266 -88q-182 0 -273 90q-90 94 -90 256zM133 625q0 27 25.5 45t62.5 18h373q37 0 62.5 -18.5t25.5 -44.5q0 -25 -25.5 -43.5t-62.5 -18.5h-373q-37 0 -62.5 18.5 t-25.5 43.5zM236 1112q0 -41 1 -65.5t10 -66.5t25.5 -66.5t51 -44t84 -19.5t84 19.5t51 44t26 66.5t10.5 66.5t1 65.5t-1 65.5t-10.5 65.5t-26 64.5t-51 43t-84 19.5t-84 -19.5t-51 -43t-25.5 -64.5t-10 -65.5t-1 -65.5z" />
<glyph unicode="&#xbb;" d="M109 27l94 514l-94 514q-4 27 22 26h86q16 0 21 -14l192 -518q2 -8 0 -17l-192 -518q-4 -14 -21 -14h-86q-26 0 -22 27zM498 27l94 514l-94 514q-4 27 22 26h86q16 0 21 -14l192 -518q2 -8 0 -17l-192 -518q-4 -14 -21 -14h-86q-26 0 -22 27z" />
<glyph unicode="&#xbc;" horiz-adv-x="1542" d="M98 1337q0 12 12.5 24.5t39.5 14.5q133 8 190 64q18 20 51 20q25 0 38 -10t15 -18.5t2 -24.5v-743h91q66 0 65.5 -39t-65.5 -39h-355q-66 0 -65.5 39t65.5 39h101v653q-59 -18 -123 -19q-62 0 -62 39zM397.5 5q-20.5 36 -0.5 73l779 1339q20 35 61 35t61.5 -36t-0.5 -70 l-778 -1342q-20 -35 -61 -35t-61.5 36zM821 258v23q0 23 10 41l291 501q10 20 20.5 24.5t41.5 4.5h76q39 0 52 -11.5t13 -41.5v-496h53q20 0 30.5 -2t22 -13.5t11.5 -34t-11.5 -33.5t-21.5 -13t-31 -2h-53v-152q0 -31 -13.5 -42t-51.5 -11h-25q-39 0 -52.5 12.5t-13.5 40.5 v152h-284q-39 0 -51.5 11t-12.5 42zM950 303h230v438q-4 -23 -47 -106q-46 -92 -183 -332z" />
<glyph unicode="&#xbd;" horiz-adv-x="1712" d="M98 1337q0 12 12.5 24.5t39.5 14.5q133 8 190 64q18 20 51 20q25 0 38 -10t15 -18.5t2 -24.5v-743h91q66 0 65.5 -39t-65.5 -39h-355q-66 0 -65.5 39t65.5 39h101v653q-59 -18 -123 -19q-62 0 -62 39zM405.5 5q-20.5 36 0.5 73l778 1339q20 35 61 35t61.5 -36t0.5 -70 l-779 -1342q-20 -35 -61 -35t-61.5 36zM1042 678l23 51q23 49 61 84q74 63 189 64q139 0 219 -80t80 -195q0 -84 -51.5 -148.5t-208.5 -205.5l-144 -135q10 2 29 2h180h92q47 0 64.5 -2t28 -13.5t10.5 -38.5v-8q0 -31 -13.5 -42t-52.5 -11h-428q-39 0 -53 11.5t-14 43.5 q0 25 14 37l252 264q125 133 125 244q0 16 -4 36.5t-16.5 54.5t-45 56.5t-84.5 22.5q-119 0 -161 -147q0 -2 -3 -7q-6 -18 -18 -18q-6 0 -22 14q-48 60 -48 66z" />
<glyph unicode="&#xbe;" horiz-adv-x="1542" d="M119 694q0 14 8 47q6 33 20 33q6 0 23 -16q82 -98 219 -99q45 0 74 17.5t40 50.5t13 54.5t2 52.5q0 90 -31.5 131t-107.5 41h-49q-27 0 -32 4t-5 28v15q0 27 8 30l41 4q33 2 47 5.5t32.5 14.5t35.5 32q35 43 35 118q0 23 -3.5 39.5t-12.5 35t-30.5 27.5t-54.5 9 q-123 0 -178 -104q-8 -14 -18.5 -14.5t-33 30.5t-22.5 37q0 29 71 86t187 57q125 0 195 -54t70 -149q0 -131 -148 -210q184 -47 184 -216q0 -135 -84 -202.5t-219 -67.5q-117 0 -196.5 54t-79.5 79zM397.5 5q-20.5 36 -0.5 73l779 1339q20 35 61 35t61.5 -36t-0.5 -70 l-778 -1342q-20 -35 -61 -35t-61.5 36zM821 258v23q0 23 10 41l291 501q10 20 20.5 24.5t41.5 4.5h76q39 0 52 -11.5t13 -41.5v-496h53q20 0 30.5 -2t22 -13.5t11.5 -34t-11.5 -33.5t-21.5 -13t-31 -2h-53v-152q0 -31 -13.5 -42t-51.5 -11h-25q-39 0 -52.5 12.5t-13.5 40.5 v152h-284q-39 0 -51.5 11t-12.5 42zM950 303h230v438q-4 -23 -47 -106q-46 -92 -183 -332z" />
<glyph unicode="&#xbf;" horiz-adv-x="919" d="M109 -51q0 152 79 233q90 90 124 196.5t34 248.5v30q0 35 7 42.5t44 7.5h70q39 0 46 -10.5t7 -63.5q0 -76 -4 -128t-39 -165t-102 -229q-25 -39 -32 -69t-7 -103q0 -98 18.5 -134t83.5 -36q154 0 277 108q20 20 30.5 20.5t16.5 -8t22 -51.5l25 -74q0 -29 -122 -77.5 t-255 -48.5q-323 0 -323 311zM324 954v35q0 55 19 73.5t73 18.5h35q55 0 72.5 -19.5t17.5 -70.5v-37q0 -53 -18.5 -71.5t-71.5 -18.5h-37q-55 0 -72.5 19.5t-17.5 70.5z" />
<glyph unicode="&#xc0;" horiz-adv-x="1302" d="M72 51l8 33l395 1262q25 76 117 75h117q29 0 45 -2t37.5 -20.5t33.5 -55.5l396 -1263l8 -29q0 -51 -78 -51h-70q-63 0 -84.5 23.5t-48.5 107.5l-67 219h-496l-86 -268q-8 -29 -16.5 -43t-33 -26.5t-67.5 -12.5h-32q-78 0 -78 51zM279.5 1771.5q3.5 18.5 29.5 18.5h260 l258 -211q14 -12 9 -24.5t-23 -12.5h-137l-383 203q-17 8 -13.5 26.5zM432 504h402l-115 379q-76 252 -86 321h-2q-10 -70 -80 -305z" />
<glyph unicode="&#xc1;" horiz-adv-x="1302" d="M72 51l8 33l395 1262q25 76 117 75h117q29 0 45 -2t37.5 -20.5t33.5 -55.5l396 -1263l8 -29q0 -51 -78 -51h-70q-63 0 -84.5 23.5t-48.5 107.5l-67 219h-496l-86 -268q-8 -29 -16.5 -43t-33 -26.5t-67.5 -12.5h-32q-78 0 -78 51zM432 504h402l-115 379q-76 252 -86 321 h-2q-10 -70 -80 -305zM468 1554.5q-5 12.5 9 24.5l258 211h260q27 0 30 -18.5t-13 -26.5l-383 -203h-137q-19 0 -24 12.5z" />
<glyph unicode="&#xc2;" horiz-adv-x="1302" d="M72 51l8 33l395 1262q25 76 117 75h117q29 0 45 -2t37.5 -20.5t33.5 -55.5l396 -1263l8 -29q0 -51 -78 -51h-70q-63 0 -84.5 23.5t-48.5 107.5l-67 219h-496l-86 -268q-8 -29 -16.5 -43t-33 -26.5t-67.5 -12.5h-32q-78 0 -78 51zM295 1537q-6 15 6 26l225 213q6 6 17 6 h227q10 0 16 -6l220 -209q12 -10 6 -27.5t-23 -17.5h-96l-10 2l-230 166l-229 -166l-10 -2h-97q-16 0 -22 15zM432 504h402l-115 379q-76 252 -86 321h-2q-10 -70 -80 -305z" />
<glyph unicode="&#xc3;" horiz-adv-x="1302" d="M72 51l8 33l395 1262q25 76 117 75h117q29 0 45 -2t37.5 -20.5t33.5 -55.5l396 -1263l8 -29q0 -51 -78 -51h-70q-63 0 -84.5 23.5t-48.5 107.5l-67 219h-496l-86 -268q-8 -29 -16.5 -43t-33 -26.5t-67.5 -12.5h-32q-78 0 -78 51zM330 1556q0 72 53 140.5t141 68.5 q80 0 164 -65q61 -47 92 -47q55 0 66 82q2 23 10 26.5t41 3.5h29q33 0 42 -5t9 -29q0 -72 -53.5 -140.5t-141.5 -68.5q-80 0 -164 65q-61 47 -92 47q-55 0 -65 -82q-2 -23 -10.5 -26.5t-40.5 -3.5h-27q-35 0 -44 4.5t-9 29.5zM432 504h402l-115 379q-76 252 -86 321h-2 q-10 -70 -80 -305z" />
<glyph unicode="&#xc4;" horiz-adv-x="1302" d="M72 51l8 33l395 1262q25 76 117 75h117q29 0 45 -2t37.5 -20.5t33.5 -55.5l396 -1263l8 -29q0 -51 -78 -51h-70q-63 0 -84.5 23.5t-48.5 107.5l-67 219h-496l-86 -268q-8 -29 -16.5 -43t-33 -26.5t-67.5 -12.5h-32q-78 0 -78 51zM293 1608v45q0 53 17.5 69.5t64.5 16.5 h61q49 0 66.5 -17.5t17.5 -68.5v-45q0 -51 -17.5 -68.5t-66.5 -17.5h-61q-49 0 -65.5 18.5t-16.5 67.5zM432 504h402l-115 379q-76 252 -86 321h-2q-10 -70 -80 -305zM786 1608v45q0 53 17.5 69.5t64.5 16.5h62q49 0 66.5 -17.5t17.5 -68.5v-45q0 -51 -17.5 -68.5 t-66.5 -17.5h-62q-49 0 -65.5 18.5t-16.5 67.5z" />
<glyph unicode="&#xc5;" horiz-adv-x="1302" d="M72 51l8 33l395 1262q25 76 117 75h117q29 0 45 -2t37.5 -20.5t33.5 -55.5l396 -1263l8 -29q0 -51 -78 -51h-70q-63 0 -84.5 23.5t-48.5 107.5l-67 219h-496l-86 -268q-8 -29 -16.5 -43t-33 -26.5t-67.5 -12.5h-32q-78 0 -78 51zM432 504h402l-115 379q-76 252 -86 321 h-2q-10 -70 -80 -305zM434 1573q0 152 219 151q25 0 48.5 -3t68.5 -15t71.5 -46t26.5 -87q0 -152 -219 -152q-25 0 -48 3t-68.5 15.5t-72 46.5t-26.5 87zM555 1573q0 -31 16.5 -46.5t33 -18.5t47 -3t48 3t33 18.5t15.5 46.5t-16.5 46t-33 18t-47 3t-48 -3t-33 -18t-15.5 -46 z" />
<glyph unicode="&#xc6;" horiz-adv-x="1677" d="M76 49q0 12 10 37l467 1255q14 37 36.5 55.5t39 21.5t47.5 3h801q57 0 73.5 -21.5t16.5 -70.5q0 -61 -21.5 -76.5t-77.5 -15.5l-358 6h-45v-424h358q29 0 44.5 -3t30.5 -22.5t15 -58.5q0 -29 -7 -47t-23.5 -24.5t-27.5 -8.5t-32 -2h-358v-463h90l342 7q53 0 74.5 -15.5 t21.5 -75.5v-16q0 -53 -18.5 -71.5t-71.5 -18.5h-594q-55 0 -73.5 19.5t-18.5 72.5v324h-385l-125 -338q-14 -37 -36.5 -55.5t-39 -20.5t-45.5 -2h-34q-76 0 -76 49zM489 569h328v676h-76z" />
<glyph unicode="&#xc7;" horiz-adv-x="1243" d="M109 711q0 340 149 530q170 219 502 219q160 0 311 -57q35 -14 43 -20.5t8 -20.5q0 -37 -26 -152q-6 -29 -25 -28q-10 0 -29 14q-129 88 -280 88q-82 0 -148.5 -27.5t-107.5 -67.5t-72 -100.5t-44 -108.5t-21.5 -112.5t-9.5 -92t-1 -64.5q0 -74 7.5 -140.5t32 -149.5 t67.5 -142.5t121 -100.5t182 -41t167.5 21.5t139.5 74.5q25 18 35 19q16 0 23 -25q12 -86 12 -123q0 -12 -6 -19t-39 -30q-86 -55 -157 -74.5t-179 -19.5q-305 0 -483 191q-172 186 -172 559zM492 -354l12 28l139 217q12 18 20.5 22.5t36.5 4.5h27q51 0 51 -22q0 -12 -8 -29 l-94 -213q-10 -23 -18.5 -27t-41.5 -4h-73q-51 0 -51 23z" />
<glyph unicode="&#xc8;" horiz-adv-x="1161" d="M166 92v1231q0 55 19.5 73.5t72.5 18.5h703q57 0 73.5 -21.5t16.5 -70.5q0 -45 -14.5 -65.5t-32 -23.5t-60.5 -3l-434 6h-94v-420h491q29 0 44.5 -3t30.5 -22.5t15 -58.5q0 -29 -7 -47t-23.5 -24.5t-27.5 -8.5t-32 -2h-491v-463q37 4 270 5l289 4q39 0 56.5 -3.5 t31.5 -23.5t14 -64v-16q0 -53 -18.5 -71.5t-71.5 -18.5h-729q-55 0 -73.5 19.5t-18.5 72.5zM208 1771.5q3 18.5 30 18.5h260l258 -211q14 -12 9 -24.5t-24 -12.5h-137l-383 203q-16 8 -13 26.5z" />
<glyph unicode="&#xc9;" horiz-adv-x="1161" d="M166 92v1231q0 55 19.5 73.5t72.5 18.5h703q57 0 73.5 -21.5t16.5 -70.5q0 -45 -14.5 -65.5t-32 -23.5t-60.5 -3l-434 6h-94v-420h491q29 0 44.5 -3t30.5 -22.5t15 -58.5q0 -29 -7 -47t-23.5 -24.5t-27.5 -8.5t-32 -2h-491v-463q37 4 270 5l289 4q39 0 56.5 -3.5 t31.5 -23.5t14 -64v-16q0 -53 -18.5 -71.5t-71.5 -18.5h-729q-55 0 -73.5 19.5t-18.5 72.5zM396 1554.5q-5 12.5 10 24.5l258 211h260q27 0 29.5 -18.5t-13.5 -26.5l-383 -203h-137q-19 0 -24 12.5z" />
<glyph unicode="&#xca;" horiz-adv-x="1161" d="M166 92v1231q0 55 19.5 73.5t72.5 18.5h703q57 0 73.5 -21.5t16.5 -70.5q0 -45 -14.5 -65.5t-32 -23.5t-60.5 -3l-434 6h-94v-420h491q29 0 44.5 -3t30.5 -22.5t15 -58.5q0 -29 -7 -47t-23.5 -24.5t-27.5 -8.5t-32 -2h-491v-463q37 4 270 5l289 4q39 0 56.5 -3.5 t31.5 -23.5t14 -64v-16q0 -53 -18.5 -71.5t-71.5 -18.5h-729q-55 0 -73.5 19.5t-18.5 72.5zM223 1537q-6 15 6 26l226 213q6 6 16 6h227q10 0 17 -6l219 -209q12 -10 6 -27.5t-22 -17.5h-97l-10 2l-229 166l-230 -166l-10 -2h-96q-17 0 -23 15z" />
<glyph unicode="&#xcb;" horiz-adv-x="1161" d="M166 92v1231q0 55 19.5 73.5t72.5 18.5h703q57 0 73.5 -21.5t16.5 -70.5q0 -45 -14.5 -65.5t-32 -23.5t-60.5 -3l-434 6h-94v-420h491q29 0 44.5 -3t30.5 -22.5t15 -58.5q0 -29 -7 -47t-23.5 -24.5t-27.5 -8.5t-32 -2h-491v-463q37 4 270 5l289 4q39 0 56.5 -3.5 t31.5 -23.5t14 -64v-16q0 -53 -18.5 -71.5t-71.5 -18.5h-729q-55 0 -73.5 19.5t-18.5 72.5zM221 1608v45q0 53 17.5 69.5t64.5 16.5h62q49 0 66.5 -17.5t17.5 -68.5v-45q0 -51 -17.5 -68.5t-66.5 -17.5h-62q-49 0 -65.5 18.5t-16.5 67.5zM715 1608v45q0 53 17.5 69.5 t64.5 16.5h61q49 0 66.5 -17.5t17.5 -68.5v-45q0 -51 -17.5 -68.5t-66.5 -17.5h-61q-49 0 -65.5 18.5t-16.5 67.5z" />
<glyph unicode="&#xcc;" horiz-adv-x="579" d="M-144 1771.5q3 18.5 29 18.5h260l258 -211q14 -12 9.5 -24.5t-23.5 -12.5h-137l-383 203q-16 8 -13 26.5zM164 92v1237q0 55 19.5 73.5t72.5 18.5h68q55 0 72.5 -19.5t17.5 -70.5v-1241q0 -53 -18.5 -71.5t-71.5 -18.5h-68q-55 0 -73.5 19.5t-18.5 72.5z" />
<glyph unicode="&#xcd;" horiz-adv-x="579" d="M164 92v1237q0 55 19.5 73.5t72.5 18.5h68q55 0 72.5 -19.5t17.5 -70.5v-1241q0 -53 -18.5 -71.5t-71.5 -18.5h-68q-55 0 -73.5 19.5t-18.5 72.5zM165 1554.5q-5 12.5 9 24.5l258 211h260q27 0 30 -18.5t-13 -26.5l-383 -203h-138q-18 0 -23 12.5z" />
<glyph unicode="&#xce;" horiz-adv-x="579" d="M-67.5 1537q-6.5 15 6.5 26l225 213q6 6 16 6h228q10 0 16 -6l219 -209q12 -10 6 -27.5t-22 -17.5h-97l-10 2l-229 166l-230 -166l-10 -2h-96q-16 0 -22.5 15zM164 92v1237q0 55 19.5 73.5t72.5 18.5h68q55 0 72.5 -19.5t17.5 -70.5v-1241q0 -53 -18.5 -71.5t-71.5 -18.5 h-68q-55 0 -73.5 19.5t-18.5 72.5z" />
<glyph unicode="&#xcf;" horiz-adv-x="579" d="M-70 1608v45q0 53 17.5 69.5t64.5 16.5h62q49 0 66.5 -17.5t17.5 -68.5v-45q0 -51 -17.5 -68.5t-66.5 -17.5h-62q-49 0 -65.5 18.5t-16.5 67.5zM164 92v1237q0 55 19.5 73.5t72.5 18.5h68q55 0 72.5 -19.5t17.5 -70.5v-1241q0 -53 -18.5 -71.5t-71.5 -18.5h-68 q-55 0 -73.5 19.5t-18.5 72.5zM424 1608v45q0 53 17.5 69.5t64.5 16.5h61q49 0 66.5 -17.5t17.5 -68.5v-45q0 -51 -17.5 -68.5t-66.5 -17.5h-61q-49 0 -65.5 18.5t-16.5 67.5z" />
<glyph unicode="&#xd0;" horiz-adv-x="1409" d="M51 688v45q0 29 19.5 47.5t46.5 18.5h49v530q0 55 19.5 73.5t72.5 18.5h447q141 0 263 -55t197 -164q131 -188 131 -502q0 -344 -161 -526q-150 -174 -428 -174h-449q-55 0 -73.5 19.5t-18.5 72.5v531h-49q-27 0 -46.5 19t-19.5 46zM410 154h229q86 0 153.5 22.5 t109.5 55t73 87t45 97.5t22.5 106.5t9.5 95t1 83t-1 84t-9.5 99t-22.5 110.5t-45 100.5t-74 91.5t-110.5 58.5t-153.5 23.5h-227v-469h114q27 0 46.5 -19.5t19.5 -46.5v-45q0 -27 -19.5 -46t-46.5 -19h-114v-469z" />
<glyph unicode="&#xd1;" horiz-adv-x="1388" d="M166 92v1237q0 55 19.5 73.5t72.5 18.5h148q55 0 81.5 -16t47.5 -66l387 -905q63 -154 84 -217h2v1114q0 53 18 71.5t72 18.5h32q55 0 73 -19.5t18 -70.5v-1241q0 -53 -18.5 -71.5t-72.5 -18.5h-149q-55 0 -82 16.5t-47 65.5l-387 905q-63 154 -84 217h-2v-1114 q0 -53 -18.5 -71.5t-71.5 -18.5h-31q-55 0 -73.5 19.5t-18.5 72.5zM371 1556q0 72 53 140.5t141 68.5q80 0 164 -65q61 -47 92 -47q55 0 66 82q2 23 10 26.5t41 3.5h29q33 0 42 -5t9 -29q0 -72 -53.5 -140.5t-141.5 -68.5q-80 0 -164 65q-61 47 -92 47q-55 0 -65 -82 q-2 -23 -10.5 -26.5t-40.5 -3.5h-27q-35 0 -44 4.5t-9 29.5z" />
<glyph unicode="&#xd2;" horiz-adv-x="1427" d="M109 700q0 334 135 535q74 109 197.5 167t271.5 58q328 0 487 -256q117 -186 117 -504q0 -362 -162 -553q-158 -186 -442 -186q-283 0 -437 178q-167 194 -167 561zM341 1771.5q3 18.5 30 18.5h260l258 -211q14 -12 9 -24.5t-24 -12.5h-137l-383 203q-16 8 -13 26.5z M358 733q0 -266 62 -411q51 -121 133 -167t160 -46t159.5 46t133.5 164q61 145 61 414q0 270 -70 406q-92 178 -284 178q-186 0 -279 -168q-76 -133 -76 -416z" />
<glyph unicode="&#xd3;" horiz-adv-x="1427" d="M109 700q0 334 135 535q74 109 197.5 167t271.5 58q328 0 487 -256q117 -186 117 -504q0 -362 -162 -553q-158 -186 -442 -186q-283 0 -437 178q-167 194 -167 561zM358 733q0 -266 62 -411q51 -121 133 -167t160 -46t159.5 46t133.5 164q61 145 61 414q0 270 -70 406 q-92 178 -284 178q-186 0 -279 -168q-76 -133 -76 -416zM529.5 1554.5q-5.5 12.5 9.5 24.5l258 211h260q27 0 30 -18.5t-14 -26.5l-383 -203h-137q-18 0 -23.5 12.5z" />
<glyph unicode="&#xd4;" horiz-adv-x="1427" d="M109 700q0 334 135 535q74 109 197.5 167t271.5 58q328 0 487 -256q117 -186 117 -504q0 -362 -162 -553q-158 -186 -442 -186q-283 0 -437 178q-167 194 -167 561zM356 1537q-6 15 6 26l226 213q6 6 16 6h227q10 0 17 -6l219 -209q12 -10 6 -27.5t-22 -17.5h-97l-10 2 l-229 166l-230 -166l-10 -2h-96q-17 0 -23 15zM358 733q0 -266 62 -411q51 -121 133 -167t160 -46t159.5 46t133.5 164q61 145 61 414q0 270 -70 406q-92 178 -284 178q-186 0 -279 -168q-76 -133 -76 -416z" />
<glyph unicode="&#xd5;" horiz-adv-x="1427" d="M109 700q0 334 135 535q74 109 197.5 167t271.5 58q328 0 487 -256q117 -186 117 -504q0 -362 -162 -553q-158 -186 -442 -186q-283 0 -437 178q-167 194 -167 561zM358 733q0 -266 62 -411q51 -121 133 -167t160 -46t159.5 46t133.5 164q61 145 61 414q0 270 -70 406 q-92 178 -284 178q-186 0 -279 -168q-76 -133 -76 -416zM391 1556q0 72 53.5 140.5t141.5 68.5q80 0 164 -65q61 -47 92 -47q55 0 65 82q2 23 10.5 26.5t40.5 3.5h29q33 0 42 -5t9 -29q0 -72 -53 -140.5t-141 -68.5q-80 0 -164 65q-61 47 -92 47q-55 0 -66 -82 q-2 -23 -10 -26.5t-41 -3.5h-27q-35 0 -44 4.5t-9 29.5z" />
<glyph unicode="&#xd6;" horiz-adv-x="1427" d="M109 700q0 334 135 535q74 109 197.5 167t271.5 58q328 0 487 -256q117 -186 117 -504q0 -362 -162 -553q-158 -186 -442 -186q-283 0 -437 178q-167 194 -167 561zM354 1608v45q0 53 17.5 69.5t64.5 16.5h62q49 0 66.5 -17.5t17.5 -68.5v-45q0 -51 -17.5 -68.5 t-66.5 -17.5h-62q-49 0 -65.5 18.5t-16.5 67.5zM358 733q0 -266 62 -411q51 -121 133 -167t160 -46t159.5 46t133.5 164q61 145 61 414q0 270 -70 406q-92 178 -284 178q-186 0 -279 -168q-76 -133 -76 -416zM848 1608v45q0 53 17.5 69.5t64.5 16.5h61q49 0 66.5 -17.5 t17.5 -68.5v-45q0 -51 -17.5 -68.5t-66.5 -17.5h-61q-49 0 -65.5 18.5t-16.5 67.5z" />
<glyph unicode="&#xd7;" horiz-adv-x="1513" d="M297 999.5q47 47.5 119 -16.5l340 -342l338 340q72 66 118 16q49 -47 -16 -118l-340 -338l342 -340q63 -72 16 -119t-118 16l-340 342l-338 -340q-72 -66 -119 -16q-49 47 16 119l340 338l-342 340q-63 71 -16 118.5z" />
<glyph unicode="&#xd8;" horiz-adv-x="1513" d="M109 700q0 365 174 568q164 193 473 192q145 0 272 -51l62 119q25 47 63 47q25 0 50.5 -18.5t25.5 -51.5q0 -16 -15 -43l-61 -125q250 -182 250 -637q0 -352 -168 -546q-76 -88 -200 -140.5t-279 -52.5q-150 0 -273 49l-49 -96q-23 -43 -36 -55.5t-40 -12.5 q-25 0 -50 18.5t-25 51.5q0 18 34 88q6 8 39 76q-247 178 -247 620zM336 702q0 -158 20.5 -266t81.5 -194l523 1036q-88 51 -205 51q-86 0 -155 -27.5t-112 -66.5t-74.5 -101.5t-46 -112.5t-22.5 -123t-9 -108t-1 -88zM551 143q92 -51 205 -51q86 0 154.5 26.5t111.5 63.5 t74.5 98.5t46 109.5t23 119t9.5 105.5t1 87.5q0 332 -105 474z" />
<glyph unicode="&#xd9;" horiz-adv-x="1345" d="M166 467v862q0 55 19.5 73.5t72.5 18.5h68q55 0 72.5 -19.5t17.5 -70.5v-866q0 -350 262 -350q272 0 272 352v864q0 53 18.5 71.5t71.5 18.5h47q55 0 73 -19.5t18 -70.5v-864q0 -223 -127 -364.5t-375 -141.5t-379 140.5t-131 365.5zM300 1771.5q3 18.5 30 18.5h260 l258 -211q14 -12 9 -24.5t-23 -12.5h-138l-383 203q-16 8 -13 26.5z" />
<glyph unicode="&#xda;" horiz-adv-x="1345" d="M166 467v862q0 55 19.5 73.5t72.5 18.5h68q55 0 72.5 -19.5t17.5 -70.5v-866q0 -350 262 -350q272 0 272 352v864q0 53 18.5 71.5t71.5 18.5h47q55 0 73 -19.5t18 -70.5v-864q0 -223 -127 -364.5t-375 -141.5t-379 140.5t-131 365.5zM488.5 1554.5q-5.5 12.5 9.5 24.5 l258 211h260q27 0 30 -18.5t-14 -26.5l-383 -203h-137q-18 0 -23.5 12.5z" />
<glyph unicode="&#xdb;" horiz-adv-x="1345" d="M166 467v862q0 55 19.5 73.5t72.5 18.5h68q55 0 72.5 -19.5t17.5 -70.5v-866q0 -350 262 -350q272 0 272 352v864q0 53 18.5 71.5t71.5 18.5h47q55 0 73 -19.5t18 -70.5v-864q0 -223 -127 -364.5t-375 -141.5t-379 140.5t-131 365.5zM315.5 1537q-6.5 15 6.5 26l225 213 q6 6 16 6h228q10 0 16 -6l219 -209q12 -10 6 -27.5t-22 -17.5h-97l-10 2l-229 166l-230 -166l-10 -2h-96q-16 0 -22.5 15z" />
<glyph unicode="&#xdc;" horiz-adv-x="1345" d="M166 467v862q0 55 19.5 73.5t72.5 18.5h68q55 0 72.5 -19.5t17.5 -70.5v-866q0 -350 262 -350q272 0 272 352v864q0 53 18.5 71.5t71.5 18.5h47q55 0 73 -19.5t18 -70.5v-864q0 -223 -127 -364.5t-375 -141.5t-379 140.5t-131 365.5zM313 1608v45q0 53 17.5 69.5 t64.5 16.5h62q49 0 66.5 -17.5t17.5 -68.5v-45q0 -51 -17.5 -68.5t-66.5 -17.5h-62q-49 0 -65.5 18.5t-16.5 67.5zM807 1608v45q0 53 17.5 69.5t64.5 16.5h61q49 0 66.5 -17.5t17.5 -68.5v-45q0 -51 -17.5 -68.5t-66.5 -17.5h-61q-49 0 -65.5 18.5t-16.5 67.5z" />
<glyph unicode="&#xdd;" horiz-adv-x="1302" d="M39 1378q0 43 72 43h84q98 0 143 -73l231 -387q74 -125 99 -183q18 57 171.5 313.5t174.5 282.5q41 47 125 47h51q72 0 72 -43q0 -10 -19 -41l-471 -770v-479q0 -55 -20.5 -71.5t-69.5 -16.5h-64q-53 0 -71.5 18.5t-18.5 71.5v479l-477 777q-12 18 -12 32zM468 1554.5 q-5 12.5 9 24.5l258 211h260q27 0 30 -18.5t-13 -26.5l-383 -203h-137q-19 0 -24 12.5z" />
<glyph unicode="&#xde;" horiz-adv-x="1245" d="M166 92v1237q0 55 19.5 73.5t72.5 18.5h68q55 0 72.5 -19.5t17.5 -70.5v-194h264q223 0 339 -116t116 -314q0 -117 -40 -204t-105.5 -132t-138.5 -65.5t-153 -20.5h-282v-195q0 -53 -18.5 -71.5t-71.5 -18.5h-68q-55 0 -73.5 19.5t-18.5 72.5zM410 432h208q94 0 155 23.5 t86.5 68.5t33.5 86t8 101q0 61 -8 103t-35 86t-87 66.5t-153 22.5h-208v-557z" />
<glyph unicode="&#xdf;" horiz-adv-x="958" d="M115 92v1069q0 68 23.5 120t60.5 82t88 48.5t97 24.5t97 6q66 0 125.5 -12.5t116.5 -40t91 -85t34 -137.5q0 -188 -139 -272q195 -135 194 -502q0 -37 -2 -69.5t-20.5 -101t-52 -117t-105.5 -87t-170 -38.5q-53 0 -106.5 17t-53.5 40l17 59q6 20 10 27.5t10 12.5t14 5 l13 -6q57 -25 90 -24q45 0 74.5 28.5t40 81.5t13.5 86t3 86q0 420 -195 443q-29 4 -34 11t-5 42v24q0 35 4.5 43.5t30.5 10.5q66 8 105 49t39 149q0 70 -29 108t-115 38q-49 0 -79.5 -12.5t-44 -38t-16.5 -47t-3 -56.5v-1067q0 -53 -18.5 -71.5t-71.5 -18.5h-39 q-55 0 -73.5 19.5t-18.5 72.5z" />
<glyph unicode="&#xe0;" horiz-adv-x="927" d="M53 270q0 72 30 128.5t85 90t106.5 56t121 33t100 13.5t69.5 5q16 2 19.5 7t3.5 32v41q0 70 -13.5 115t-40 61t-43 20.5t-40.5 4.5q-152 0 -256 -103q-23 -20 -33 -20q-14 0 -18.5 11t-8.5 48q-6 49 -6 74q0 16 8 23.5t41 23.5q131 63 281 63q180 0 268 -85t88 -234v-588 q0 -53 -18.5 -71.5t-71.5 -18.5h-41q-55 0 -72.5 19.5t-17.5 70.5v51q-33 -59 -103.5 -110t-168.5 -51q-117 0 -193 87.5t-76 202.5zM188 1399q0 16 10.5 19t39.5 3h124q29 0 37.5 -3t20.5 -19l164 -228l16 -30q0 -23 -51 -23h-64l-276 250q-21 19 -21 31zM268 274 q0 -68 39 -115.5t99 -47.5q20 0 44.5 7t58.5 25.5t56.5 63.5t22.5 110v207q-37 -2 -72 -8t-83 -22.5t-82 -42t-58.5 -72t-24.5 -105.5z" />
<glyph unicode="&#xe1;" horiz-adv-x="927" d="M53 270q0 72 30 128.5t85 90t106.5 56t121 33t100 13.5t69.5 5q16 2 19.5 7t3.5 32v41q0 70 -13.5 115t-40 61t-43 20.5t-40.5 4.5q-152 0 -256 -103q-23 -20 -33 -20q-14 0 -18.5 11t-8.5 48q-6 49 -6 74q0 16 8 23.5t41 23.5q131 63 281 63q180 0 268 -85t88 -234v-588 q0 -53 -18.5 -71.5t-71.5 -18.5h-41q-55 0 -72.5 19.5t-17.5 70.5v51q-33 -59 -103.5 -110t-168.5 -51q-117 0 -193 87.5t-76 202.5zM268 274q0 -68 39 -115.5t99 -47.5q20 0 44.5 7t58.5 25.5t56.5 63.5t22.5 110v207q-37 -2 -72 -8t-83 -22.5t-82 -42t-58.5 -72 t-24.5 -105.5zM328 1141l16 30l164 228q12 16 20.5 19t36.5 3h125q29 0 39 -3t10 -19q0 -12 -20 -31l-277 -250h-63q-51 0 -51 23z" />
<glyph unicode="&#xe2;" horiz-adv-x="927" d="M53 270q0 72 30 128.5t85 90t106.5 56t121 33t100 13.5t69.5 5q16 2 19.5 7t3.5 32v41q0 70 -13.5 115t-40 61t-43 20.5t-40.5 4.5q-152 0 -256 -103q-23 -20 -33 -20q-14 0 -18.5 11t-8.5 48q-6 49 -6 74q0 16 8 23.5t41 23.5q131 63 281 63q180 0 268 -85t88 -234v-588 q0 -53 -18.5 -71.5t-71.5 -18.5h-41q-55 0 -72.5 19.5t-17.5 70.5v51q-33 -59 -103.5 -110t-168.5 -51q-117 0 -193 87.5t-76 202.5zM134 1117q-7 13 1 26l201 284q6 8 18 9h228q12 0 18 -9l195 -280q8 -12 0.5 -27.5t-21.5 -15.5h-96l-12 4l-201 207l-201 -207l-12 -4h-96 q-15 0 -22 13zM268 274q0 -68 39 -115.5t99 -47.5q20 0 44.5 7t58.5 25.5t56.5 63.5t22.5 110v207q-37 -2 -72 -8t-83 -22.5t-82 -42t-58.5 -72t-24.5 -105.5z" />
<glyph unicode="&#xe3;" horiz-adv-x="927" d="M53 270q0 72 30 128.5t85 90t106.5 56t121 33t100 13.5t69.5 5q16 2 19.5 7t3.5 32v41q0 70 -13.5 115t-40 61t-43 20.5t-40.5 4.5q-152 0 -256 -103q-23 -20 -33 -20q-14 0 -18.5 11t-8.5 48q-6 49 -6 74q0 16 8 23.5t41 23.5q131 63 281 63q180 0 268 -85t88 -234v-588 q0 -53 -18.5 -71.5t-71.5 -18.5h-41q-55 0 -72.5 19.5t-17.5 70.5v51q-33 -59 -103.5 -110t-168.5 -51q-117 0 -193 87.5t-76 202.5zM141 1184q0 72 53.5 140.5t141.5 68.5q80 0 164 -66q61 -47 92 -47q55 0 65 82q2 23 10.5 27t41.5 4h28q33 0 42 -5.5t9 -29.5 q0 -72 -53 -140.5t-141 -68.5q-80 0 -164 65q-61 47 -92 48q-55 0 -66 -82q-2 -23 -10 -27t-41 -4h-26q-35 0 -44.5 5t-9.5 30zM268 274q0 -68 39 -115.5t99 -47.5q20 0 44.5 7t58.5 25.5t56.5 63.5t22.5 110v207q-37 -2 -72 -8t-83 -22.5t-82 -42t-58.5 -72t-24.5 -105.5z " />
<glyph unicode="&#xe4;" horiz-adv-x="927" d="M53 270q0 72 30 128.5t85 90t106.5 56t121 33t100 13.5t69.5 5q16 2 19.5 7t3.5 32v41q0 70 -13.5 115t-40 61t-43 20.5t-40.5 4.5q-152 0 -256 -103q-23 -20 -33 -20q-14 0 -18.5 11t-8.5 48q-6 49 -6 74q0 16 8 23.5t41 23.5q131 63 281 63q180 0 268 -85t88 -234v-588 q0 -53 -18.5 -71.5t-71.5 -18.5h-41q-55 0 -72.5 19.5t-17.5 70.5v51q-33 -59 -103.5 -110t-168.5 -51q-117 0 -193 87.5t-76 202.5zM143 1247v45q0 53 17.5 69.5t64.5 16.5h62q49 0 66.5 -17.5t17.5 -68.5v-45q0 -51 -17.5 -68.5t-66.5 -17.5h-62q-49 0 -65.5 18.5 t-16.5 67.5zM268 274q0 -68 39 -115.5t99 -47.5q20 0 44.5 7t58.5 25.5t56.5 63.5t22.5 110v207q-37 -2 -72 -8t-83 -22.5t-82 -42t-58.5 -72t-24.5 -105.5zM559 1247v45q0 53 17.5 69.5t64.5 16.5h61q49 0 66.5 -17.5t17.5 -68.5v-45q0 -51 -17 -68.5t-67 -17.5h-61 q-49 0 -65.5 18.5t-16.5 67.5z" />
<glyph unicode="&#xe5;" horiz-adv-x="927" d="M53 270q0 72 30 128.5t85 90t106.5 56t121 33t100 13.5t69.5 5q16 2 19.5 7t3.5 32v41q0 70 -13.5 115t-40 61t-43 20.5t-40.5 4.5q-152 0 -256 -103q-23 -20 -33 -20q-14 0 -18.5 11t-8.5 48q-6 49 -6 74q0 16 8 23.5t41 23.5q131 63 281 63q180 0 268 -85t88 -234v-588 q0 -53 -18.5 -71.5t-71.5 -18.5h-41q-55 0 -72.5 19.5t-17.5 70.5v51q-33 -59 -103.5 -110t-168.5 -51q-117 0 -193 87.5t-76 202.5zM246 1247q0 152 219 152q25 0 48.5 -3t68.5 -15.5t71.5 -46.5t26.5 -87q0 -152 -219 -151q-25 0 -48.5 3t-68.5 15t-71.5 46t-26.5 87z M268 274q0 -68 39 -115.5t99 -47.5q20 0 44.5 7t58.5 25.5t56.5 63.5t22.5 110v207q-37 -2 -72 -8t-83 -22.5t-82 -42t-58.5 -72t-24.5 -105.5zM367 1247.5q0 -30.5 16 -46t32.5 -18.5t47.5 -3t48 3t32.5 18.5t15.5 46t-16.5 46t-32.5 18.5t-47 3t-48.5 -3t-32.5 -18.5 t-15 -46z" />
<glyph unicode="&#xe6;" horiz-adv-x="1404" d="M55 252q0 272 533 293v133q0 70 -13.5 114t-38 60t-41 20.5t-42.5 4.5q-152 0 -258 -103q-23 -20 -33 -20q-14 0 -18.5 11t-8.5 48q-6 49 -6 74q0 10 2 14t13.5 13.5t37.5 21.5q135 61 279 61q182 0 276 -94q109 94 269 94q182 0 270 -131q74 -113 74 -301 q0 -51 -18.5 -70.5t-71.5 -19.5h-445q8 -365 223 -364q145 0 242 129q12 16 25 16q14 0 17 -6t7 -35q2 -6 2 -8q6 -55 6 -74q0 -37 -93 -95t-214 -58q-193 0 -323 131q-59 -61 -167 -96t-221 -35q-127 0 -195.5 87t-68.5 185zM270 256q0 -57 38 -101t100 -44q70 0 133 44 t75 126q-14 45 -22 104l-6 61q-37 -2 -74 -7t-100.5 -22.5t-103.5 -59.5t-40 -101zM817 571h350q-2 45 -4 71t-11 75t-24.5 76.5t-46 50t-73.5 22.5q-86 0 -135.5 -85t-55.5 -210z" />
<glyph unicode="&#xe7;" horiz-adv-x="864" d="M66 485q0 246 109.5 379t320.5 133q92 0 145 -16t121 -55q2 -2 6 -4q29 -16 29 -33q0 -4 -15 -76q-6 -37 -11 -47t-17 -10q-10 0 -29 18q-55 43 -102.5 61.5t-124.5 18.5q-70 0 -114 -34t-62.5 -96t-23.5 -113.5t-5 -123.5q0 -49 1 -80.5t11 -91t29.5 -96.5t59.5 -66.5 t98 -29.5q141 0 258 117q14 18 26 18q14 0 18.5 -10t8.5 -47q6 -49 6 -74q0 -18 -30.5 -45t-61.5 -43l-31 -16q-90 -43 -199 -43q-205 0 -313 131q-108 132 -108 374zM305 -354l12 28l140 217q12 18 20 22.5t37 4.5h27q51 0 51 -22q0 -12 -8 -29l-95 -213q-10 -23 -18 -27 t-41 -4h-74q-51 0 -51 23z" />
<glyph unicode="&#xe8;" horiz-adv-x="897" d="M53 489q0 143 39 249t104.5 159t134 76.5t142.5 23.5q178 0 273.5 -111.5t95.5 -322.5q0 -53 -19.5 -70.5t-70.5 -17.5h-488q0 -27 1 -49.5t7.5 -71.5t22.5 -86t40.5 -75.5t69 -60t101.5 -21.5q158 0 264 127q16 18 27 18q14 0 17 -6t7 -35q2 -6 2 -8q6 -55 6 -74 q0 -47 -129 -108q-100 -45 -202 -45q-63 0 -123 14t-120 51t-103 92.5t-71 146t-28 205.5zM174 1399q0 16 10.5 19t38.5 3h125q29 0 37 -3t21 -19l163 -228l17 -30q0 -23 -51 -23h-64l-276 250q-21 19 -21 31zM266 571h400q-2 45 -4.5 73t-13.5 75t-29.5 74.5t-55.5 50 t-88 22.5q-98 0 -150.5 -85t-58.5 -210z" />
<glyph unicode="&#xe9;" horiz-adv-x="897" d="M53 489q0 143 39 249t104.5 159t134 76.5t142.5 23.5q178 0 273.5 -111.5t95.5 -322.5q0 -53 -19.5 -70.5t-70.5 -17.5h-488q0 -27 1 -49.5t7.5 -71.5t22.5 -86t40.5 -75.5t69 -60t101.5 -21.5q158 0 264 127q16 18 27 18q14 0 17 -6t7 -35q2 -6 2 -8q6 -55 6 -74 q0 -47 -129 -108q-100 -45 -202 -45q-63 0 -123 14t-120 51t-103 92.5t-71 146t-28 205.5zM266 571h400q-2 45 -4.5 73t-13.5 75t-29.5 74.5t-55.5 50t-88 22.5q-98 0 -150.5 -85t-58.5 -210zM313 1141l17 30l164 228q12 16 20 19t37 3h125q29 0 39 -3t10 -19q0 -12 -20 -31 l-277 -250h-63q-52 0 -52 23z" />
<glyph unicode="&#xea;" horiz-adv-x="897" d="M53 489q0 143 39 249t104.5 159t134 76.5t142.5 23.5q178 0 273.5 -111.5t95.5 -322.5q0 -53 -19.5 -70.5t-70.5 -17.5h-488q0 -27 1 -49.5t7.5 -71.5t22.5 -86t40.5 -75.5t69 -60t101.5 -21.5q158 0 264 127q16 18 27 18q14 0 17 -6t7 -35q2 -6 2 -8q6 -55 6 -74 q0 -47 -129 -108q-100 -45 -202 -45q-63 0 -123 14t-120 51t-103 92.5t-71 146t-28 205.5zM120 1117q-7 13 1 26l201 284q6 8 18 9h227q12 0 19 -9l194 -280q8 -12 1 -27.5t-21 -15.5h-96l-13 4l-200 207l-201 -207l-12 -4h-97q-14 0 -21 13zM266 571h400q-2 45 -4.5 73 t-13.5 75t-29.5 74.5t-55.5 50t-88 22.5q-98 0 -150.5 -85t-58.5 -210z" />
<glyph unicode="&#xeb;" horiz-adv-x="897" d="M53 489q0 143 39 249t104.5 159t134 76.5t142.5 23.5q178 0 273.5 -111.5t95.5 -322.5q0 -53 -19.5 -70.5t-70.5 -17.5h-488q0 -27 1 -49.5t7.5 -71.5t22.5 -86t40.5 -75.5t69 -60t101.5 -21.5q158 0 264 127q16 18 27 18q14 0 17 -6t7 -35q2 -6 2 -8q6 -55 6 -74 q0 -47 -129 -108q-100 -45 -202 -45q-63 0 -123 14t-120 51t-103 92.5t-71 146t-28 205.5zM129 1247v45q0 53 17.5 69.5t64.5 16.5h61q49 0 66.5 -17.5t17.5 -68.5v-45q0 -51 -17 -68.5t-67 -17.5h-61q-49 0 -65.5 18.5t-16.5 67.5zM266 571h400q-2 45 -4.5 73t-13.5 75 t-29.5 74.5t-55.5 50t-88 22.5q-98 0 -150.5 -85t-58.5 -210zM545 1247v45q0 53 17.5 69.5t64.5 16.5h61q49 0 66.5 -17.5t17.5 -68.5v-45q0 -51 -17.5 -68.5t-66.5 -17.5h-61q-49 0 -65.5 18.5t-16.5 67.5z" />
<glyph unicode="&#xec;" horiz-adv-x="448" d="M-78 1399q0 16 10.5 19t38.5 3h125q29 0 37 -3t21 -19l163 -228l17 -30q0 -23 -51 -23h-64l-276 250q-21 19 -21 31zM113 92v782q0 55 19.5 74t72.5 19h39q55 0 72.5 -19.5t17.5 -70.5v-787q0 -53 -18.5 -71.5t-71.5 -18.5h-39q-55 0 -73.5 19.5t-18.5 72.5z" />
<glyph unicode="&#xed;" horiz-adv-x="448" d="M113 92v782q0 55 19.5 74t72.5 19h39q55 0 72.5 -19.5t17.5 -70.5v-787q0 -53 -18.5 -71.5t-71.5 -18.5h-39q-55 0 -73.5 19.5t-18.5 72.5zM113 1141l16 30l164 228q12 16 20.5 19t36.5 3h125q29 0 39 -3t10 -19q0 -12 -20 -31l-277 -250h-63q-51 0 -51 23z" />
<glyph unicode="&#xee;" horiz-adv-x="448" d="M-105.5 1117q-7.5 13 1.5 26l200 284q6 8 19 9h227q12 0 18 -9l195 -280q8 -12 1 -27.5t-21 -15.5h-97l-12 4l-201 207l-200 -207l-13 -4h-96q-14 0 -21.5 13zM113 92v782q0 55 19.5 74t72.5 19h39q55 0 72.5 -19.5t17.5 -70.5v-787q0 -53 -18.5 -71.5t-71.5 -18.5h-39 q-55 0 -73.5 19.5t-18.5 72.5z" />
<glyph unicode="&#xef;" horiz-adv-x="448" d="M-96 1247v45q0 53 17.5 69.5t64.5 16.5h61q49 0 66.5 -17.5t17.5 -68.5v-45q0 -51 -17.5 -68.5t-66.5 -17.5h-61q-49 0 -65.5 18.5t-16.5 67.5zM113 92v782q0 55 19.5 74t72.5 19h39q55 0 72.5 -19.5t17.5 -70.5v-787q0 -53 -18.5 -71.5t-71.5 -18.5h-39 q-55 0 -73.5 19.5t-18.5 72.5zM319 1247v45q0 53 17.5 69.5t64.5 16.5h62q49 0 66.5 -17.5t17.5 -68.5v-45q0 -51 -17.5 -68.5t-66.5 -17.5h-62q-49 0 -65.5 18.5t-16.5 67.5z" />
<glyph unicode="&#xf0;" d="M53 475q0 238 105 375q109 147 327 147q100 0 189 -36q-12 106 -23 151l-22 -10q-25 -10 -50.5 0t-35.5 35l-19 41q-10 25 -1 50t36 36l29 12q-23 29 -39 39q-61 41 -62 84v45q0 29 18.5 47t45.5 14q145 -25 227 -147l90 41q25 10 50.5 0t35.5 -35l19 -41q10 -25 1 -50.5 t-36 -35.5l-86 -39q66 -215 66 -723q0 -96 -17 -170q-27 -119 -98 -199q-113 -127 -318 -126q-213 0 -323 131q-109 133 -109 364zM281 499.5q0 -59.5 1 -94t12 -95t30.5 -96.5t60.5 -63.5t100.5 -27.5t100.5 27.5t60.5 63.5t30.5 96.5t12 95t1 94.5q0 47 -1 74.5t-6 79 t-18.5 82t-35 64.5t-58 50t-86.5 16q-59 0 -100 -26.5t-60.5 -60.5t-30.5 -93t-12 -93t-1 -93.5z" />
<glyph unicode="&#xf1;" horiz-adv-x="989" d="M111 92v795q0 55 19.5 73.5t72.5 18.5h33q55 0 72.5 -19.5t17.5 -70.5v-111h2q94 209 286 209q147 0 205 -74.5t58 -212.5v-610q0 -53 -18.5 -71.5t-72.5 -18.5h-47q-55 0 -72.5 19.5t-17.5 70.5v602q0 88 -23.5 126t-86.5 38q-80 0 -140.5 -72.5t-60.5 -203.5v-490 q0 -53 -18.5 -71.5t-71.5 -18.5h-45q-55 0 -73.5 19.5t-18.5 72.5zM172 1184q0 72 53.5 140.5t141.5 68.5q80 0 163 -66q61 -47 93 -47q55 0 65 82q2 23 10.5 27t40.5 4h29q33 0 42 -5.5t9 -29.5q0 -72 -53 -140.5t-141 -68.5q-80 0 -164 65q-61 47 -92 48q-55 0 -66 -82 q-2 -23 -10 -27t-41 -4h-27q-33 0 -43 5t-10 30z" />
<glyph unicode="&#xf2;" d="M53 475q0 238 105 375q109 147 327 147q213 0 326 -143q106 -133 107 -379q0 -242 -115 -369q-113 -127 -318 -126q-213 0 -323 131q-109 133 -109 364zM211 1399q0 16 10 19t39 3h125q29 0 37 -3t20 -19l164 -228l17 -30q0 -23 -52 -23h-63l-277 250q-20 19 -20 31z M281 499.5q0 -59.5 1 -94t12 -95t30.5 -96.5t60.5 -63.5t100.5 -27.5t100.5 27.5t60.5 63.5t30.5 96.5t12 95t1 94.5q0 47 -1 74.5t-6 79t-18.5 82t-35 64.5t-58 50t-86.5 16q-59 0 -100 -26.5t-60.5 -60.5t-30.5 -93t-12 -93t-1 -93.5z" />
<glyph unicode="&#xf3;" d="M53 475q0 238 105 375q109 147 327 147q213 0 326 -143q106 -133 107 -379q0 -242 -115 -369q-113 -127 -318 -126q-213 0 -323 131q-109 133 -109 364zM281 499.5q0 -59.5 1 -94t12 -95t30.5 -96.5t60.5 -63.5t100.5 -27.5t100.5 27.5t60.5 63.5t30.5 96.5t12 95t1 94.5 q0 47 -1 74.5t-6 79t-18.5 82t-35 64.5t-58 50t-86.5 16q-59 0 -100 -26.5t-60.5 -60.5t-30.5 -93t-12 -93t-1 -93.5zM350 1141l17 30l163 228q12 16 20.5 19t37.5 3h125q29 0 39 -3t10 -19q0 -12 -21 -31l-276 -250h-64q-51 0 -51 23z" />
<glyph unicode="&#xf4;" d="M53 475q0 238 105 375q109 147 327 147q213 0 326 -143q106 -133 107 -379q0 -242 -115 -369q-113 -127 -318 -126q-213 0 -323 131q-109 133 -109 364zM157 1117q-7 13 1 26l200 284q6 8 19 9h227q12 0 19 -9l194 -280q8 -12 1 -27.5t-21 -15.5h-97l-12 4l-201 207 l-200 -207l-13 -4h-96q-14 0 -21 13zM281 499.5q0 -59.5 1 -94t12 -95t30.5 -96.5t60.5 -63.5t100.5 -27.5t100.5 27.5t60.5 63.5t30.5 96.5t12 95t1 94.5q0 47 -1 74.5t-6 79t-18.5 82t-35 64.5t-58 50t-86.5 16q-59 0 -100 -26.5t-60.5 -60.5t-30.5 -93t-12 -93t-1 -93.5z " />
<glyph unicode="&#xf5;" d="M53 475q0 238 105 375q109 147 327 147q213 0 326 -143q106 -133 107 -379q0 -242 -115 -369q-113 -127 -318 -126q-213 0 -323 131q-109 133 -109 364zM164 1184q0 72 53 140.5t141 68.5q80 0 164 -66q61 -47 92 -47q55 0 66 82q2 23 10 27t41 4h29q33 0 42 -5.5 t9 -29.5q0 -72 -53 -140.5t-142 -68.5q-80 0 -163 65q-61 47 -93 48q-55 0 -65 -82q-2 -23 -10.5 -27t-40.5 -4h-27q-33 0 -43 5t-10 30zM281 499.5q0 -59.5 1 -94t12 -95t30.5 -96.5t60.5 -63.5t100.5 -27.5t100.5 27.5t60.5 63.5t30.5 96.5t12 95t1 94.5q0 47 -1 74.5 t-6 79t-18.5 82t-35 64.5t-58 50t-86.5 16q-59 0 -100 -26.5t-60.5 -60.5t-30.5 -93t-12 -93t-1 -93.5z" />
<glyph unicode="&#xf6;" d="M53 475q0 238 105 375q109 147 327 147q213 0 326 -143q106 -133 107 -379q0 -242 -115 -369q-113 -127 -318 -126q-213 0 -323 131q-109 133 -109 364zM166 1247v45q0 53 17.5 69.5t64.5 16.5h61q49 0 66.5 -17.5t17.5 -68.5v-45q0 -51 -17.5 -68.5t-66.5 -17.5h-61 q-49 0 -65.5 18.5t-16.5 67.5zM281 499.5q0 -59.5 1 -94t12 -95t30.5 -96.5t60.5 -63.5t100.5 -27.5t100.5 27.5t60.5 63.5t30.5 96.5t12 95t1 94.5q0 47 -1 74.5t-6 79t-18.5 82t-35 64.5t-58 50t-86.5 16q-59 0 -100 -26.5t-60.5 -60.5t-30.5 -93t-12 -93t-1 -93.5z M582 1247v45q0 53 17 69.5t65 16.5h61q49 0 66.5 -17.5t17.5 -68.5v-45q0 -51 -17.5 -68.5t-66.5 -17.5h-61q-49 0 -65.5 18.5t-16.5 67.5z" />
<glyph unicode="&#xf7;" horiz-adv-x="1513" d="M109 540.5q0 71.5 104 71.5h1085q104 0 104.5 -71.5t-91.5 -71.5h-1110q-92 0 -92 71.5zM647 127v111q0 39 7.5 46t43.5 7h115q37 0 44 -7.5t7 -45.5v-111q0 -39 -7 -46t-44 -7h-113q-39 0 -46 7t-7 46zM647 844v110q0 39 7.5 46.5t43.5 7.5h115q37 0 44 -7.5t7 -46.5 v-110q0 -39 -7 -46t-44 -7h-113q-39 0 -46 7t-7 46z" />
<glyph unicode="&#xf8;" d="M53 475q0 238 105 375q109 147 327 147q90 0 168 -30l97 188q23 49 63 49q31 0 49.5 -21.5t18.5 -43.5q0 -14 -17 -43l-96 -195q150 -139 150 -426q0 -242 -115 -369q-113 -127 -318 -126q-94 0 -168 26l-69 -141q-33 -68 -47.5 -84.5t-42.5 -16.5q-31 0 -49.5 21.5 t-18.5 44.5q0 14 55 125q20 37 58 115q-150 129 -150 405zM260 475q0 -164 29 -233l301 598q-45 27 -105 26q-53 0 -94 -18.5t-64.5 -55t-38 -71.5t-20.5 -88t-7 -82t-1 -76zM383 133l35 -10q33 -12 67 -12q63 0 109.5 27.5t68 61t34 93t13.5 93.5t1 89q0 170 -31 250z" />
<glyph unicode="&#xf9;" horiz-adv-x="989" d="M111 264v610q0 55 19.5 74t72.5 19h45q55 0 72.5 -19.5t17.5 -70.5v-627q0 -96 22.5 -129t100.5 -33q94 0 141 84t47 199v506q0 53 18.5 71.5t71.5 18.5h47q55 0 73 -19.5t18 -70.5v-787q0 -53 -18.5 -71.5t-72.5 -18.5h-41q-55 0 -72.5 19.5t-17.5 70.5v64 q-78 -174 -245 -174q-154 0 -226.5 65t-72.5 219zM219 1399q0 16 10.5 19t38.5 3h125q29 0 37 -3t21 -19l163 -228l17 -30q0 -23 -51 -23h-64l-276 250q-21 19 -21 31z" />
<glyph unicode="&#xfa;" horiz-adv-x="989" d="M111 264v610q0 55 19.5 74t72.5 19h45q55 0 72.5 -19.5t17.5 -70.5v-627q0 -96 22.5 -129t100.5 -33q94 0 141 84t47 199v506q0 53 18.5 71.5t71.5 18.5h47q55 0 73 -19.5t18 -70.5v-787q0 -53 -18.5 -71.5t-72.5 -18.5h-41q-55 0 -72.5 19.5t-17.5 70.5v64 q-78 -174 -245 -174q-154 0 -226.5 65t-72.5 219zM358 1141l17 30l164 228q12 16 20 19t37 3h125q29 0 39 -3t10 -19q0 -12 -20 -31l-277 -250h-63q-52 0 -52 23z" />
<glyph unicode="&#xfb;" horiz-adv-x="989" d="M111 264v610q0 55 19.5 74t72.5 19h45q55 0 72.5 -19.5t17.5 -70.5v-627q0 -96 22.5 -129t100.5 -33q94 0 141 84t47 199v506q0 53 18.5 71.5t71.5 18.5h47q55 0 73 -19.5t18 -70.5v-787q0 -53 -18.5 -71.5t-72.5 -18.5h-41q-55 0 -72.5 19.5t-17.5 70.5v64 q-78 -174 -245 -174q-154 0 -226.5 65t-72.5 219zM165 1117q-7 13 1 26l201 284q6 8 18 9h227q12 0 19 -9l194 -280q8 -12 1 -27.5t-21 -15.5h-96l-13 4l-200 207l-201 -207l-12 -4h-97q-14 0 -21 13z" />
<glyph unicode="&#xfc;" horiz-adv-x="989" d="M111 264v610q0 55 19.5 74t72.5 19h45q55 0 72.5 -19.5t17.5 -70.5v-627q0 -96 22.5 -129t100.5 -33q94 0 141 84t47 199v506q0 53 18.5 71.5t71.5 18.5h47q55 0 73 -19.5t18 -70.5v-787q0 -53 -18.5 -71.5t-72.5 -18.5h-41q-55 0 -72.5 19.5t-17.5 70.5v64 q-78 -174 -245 -174q-154 0 -226.5 65t-72.5 219zM174 1247v45q0 53 17.5 69.5t64.5 16.5h61q49 0 66.5 -17.5t17.5 -68.5v-45q0 -51 -17 -68.5t-67 -17.5h-61q-49 0 -65.5 18.5t-16.5 67.5zM590 1247v45q0 53 17.5 69.5t64.5 16.5h61q49 0 66.5 -17.5t17.5 -68.5v-45 q0 -51 -17.5 -68.5t-66.5 -17.5h-61q-49 0 -65.5 18.5t-16.5 67.5z" />
<glyph unicode="&#xfd;" horiz-adv-x="882" d="M49 918q0 49 76 49h25q68 0 90 -24.5t59 -125.5q164 -432 170 -575q10 125 84 379l76 264q10 39 29.5 57.5t37 21.5t54.5 3q29 0 43 -2t28.5 -13.5t14.5 -36.5l-11 -38l-293 -981q-35 -113 -116.5 -185.5t-196.5 -72.5q-111 0 -137 20q-6 6 -12.5 58.5t-6.5 72.5 q0 29 25 29l14 -6q61 -29 119 -29q84 0 123 70q10 16 29.5 73.5t19.5 71.5l-8 31l-326 852zM305 1141l17 30l163 228q12 16 20.5 19t37.5 3h125q29 0 39 -3t10 -19q0 -12 -21 -31l-276 -250h-64q-51 0 -51 23z" />
<glyph unicode="&#xfe;" horiz-adv-x="989" d="M115 -250v1579q0 55 19.5 73.5t72.5 18.5h39q55 0 72.5 -19.5t17.5 -70.5v-463q109 119 254 119q98 0 166.5 -47t102.5 -127t48.5 -159t14.5 -167q0 -219 -84 -352q-49 -74 -129 -114.5t-170 -40.5q-111 0 -197 92v-324q0 -53 -18.5 -71.5t-71.5 -18.5h-45 q-55 0 -73.5 19.5t-18.5 72.5zM342 193q51 -82 139 -82q61 0 104.5 28.5t64 64.5t31.5 97t12 95t1 91q0 45 -1 72t-6 78t-17.5 83t-33 66.5t-54 52t-80.5 17.5q-55 0 -107 -31q-37 -27 -45 -41t-8 -45v-546z" />
<glyph unicode="&#xff;" horiz-adv-x="882" d="M49 918q0 49 76 49h25q68 0 90 -24.5t59 -125.5q164 -432 170 -575q10 125 84 379l76 264q10 39 29.5 57.5t37 21.5t54.5 3q29 0 43 -2t28.5 -13.5t14.5 -36.5l-11 -38l-293 -981q-35 -113 -116.5 -185.5t-196.5 -72.5q-111 0 -137 20q-6 6 -12.5 58.5t-6.5 72.5 q0 29 25 29l14 -6q61 -29 119 -29q84 0 123 70q10 16 29.5 73.5t19.5 71.5l-8 31l-326 852zM121 1247v45q0 53 17.5 69.5t64.5 16.5h61q49 0 66.5 -17.5t17.5 -68.5v-45q0 -51 -17.5 -68.5t-66.5 -17.5h-61q-49 0 -65.5 18.5t-16.5 67.5zM537 1247v45q0 53 17 69.5t64 16.5 h62q49 0 66.5 -17.5t17.5 -68.5v-45q0 -51 -17.5 -68.5t-66.5 -17.5h-62q-49 0 -65 18.5t-16 67.5z" />
<glyph unicode="&#x152;" horiz-adv-x="1894" d="M57 700q0 367 174 568q82 96 207 144t262 48q55 0 181 -20q109 -18 168 -19h645q57 0 73.5 -21.5t16.5 -70.5q0 -45 -14.5 -65.5t-32 -23.5t-58.5 -3l-424 6h-88v-424h473q29 0 44.5 -3t31 -22.5t15.5 -58.5q0 -29 -7.5 -47t-24 -24.5t-27.5 -8.5t-32 -2h-473v-465l267 5 l274 4q39 0 56.5 -3.5t31.5 -23.5t14 -64v-16q0 -53 -18 -71.5t-72 -18.5h-671q-61 0 -168 -18q-125 -20 -181 -21q-324 0 -491 211q-152 192 -152 528zM301 735q0 -285 88 -446q49 -92 132 -144.5t188 -52.5q51 0 88 8.5t59.5 33t35.5 47t19.5 74.5t7.5 90t1 118l2 248 q0 367 -11 438q-12 96 -51 138t-151 42q-84 0 -150.5 -28.5t-108.5 -69.5t-73 -104.5t-44.5 -113.5t-21.5 -116t-9 -95.5t-1 -66.5z" />
<glyph unicode="&#x153;" horiz-adv-x="1513" d="M53 489q0 229 105 365q111 143 327 143q205 0 324 -131q119 131 305 131q182 0 270 -131q74 -113 74 -301q0 -51 -18.5 -70.5t-71.5 -19.5h-444q8 -365 223 -364q145 0 242 129q12 16 24 16q14 0 17.5 -6t7.5 -35q2 -6 2 -8q6 -55 6 -74q0 -37 -93 -95t-214 -58 q-209 0 -326 137q-121 -137 -328 -137q-213 0 -323 139q-109 132 -109 370zM268 498q0 -43 1 -70t6.5 -80t19.5 -88t36.5 -72.5t62.5 -57t91.5 -19.5t89 19.5t59 56t36 71.5t19.5 88t6 81t1 71q0 45 -1 71.5t-6 76.5t-19.5 83t-36 67.5t-59 52t-89 17.5t-91.5 -17.5 t-62.5 -53t-36.5 -68.5t-19.5 -83t-6.5 -76.5t-1 -69.5zM926 571h350q-2 45 -4 71t-11.5 75t-24.5 76.5t-46 50t-74 22.5q-86 0 -135 -85t-55 -210z" />
<glyph unicode="&#x178;" horiz-adv-x="1302" d="M39 1378q0 43 72 43h84q98 0 143 -73l231 -387q74 -125 99 -183q18 57 171.5 313.5t174.5 282.5q41 47 125 47h51q72 0 72 -43q0 -10 -19 -41l-471 -770v-479q0 -55 -20.5 -71.5t-69.5 -16.5h-64q-53 0 -71.5 18.5t-18.5 71.5v479l-477 777q-12 18 -12 32zM293 1608v45 q0 53 17.5 69.5t64.5 16.5h61q49 0 66.5 -17.5t17.5 -68.5v-45q0 -51 -17.5 -68.5t-66.5 -17.5h-61q-49 0 -65.5 18.5t-16.5 67.5zM786 1608v45q0 53 17.5 69.5t64.5 16.5h62q49 0 66.5 -17.5t17.5 -68.5v-45q0 -51 -17.5 -68.5t-66.5 -17.5h-62q-49 0 -65.5 18.5 t-16.5 67.5z" />
<glyph unicode="&#x2c6;" d="M157 1117q-7 13 1 26l200 284q6 8 19 9h227q12 0 19 -9l194 -280q8 -12 1 -27.5t-21 -15.5h-97l-12 4l-201 207l-200 -207l-13 -4h-96q-14 0 -21 13z" />
<glyph unicode="&#x2dc;" d="M164 1184q0 72 53 140.5t141 68.5q80 0 164 -66q61 -47 92 -47q55 0 66 82q2 23 10 27t41 4h29q33 0 42 -5.5t9 -29.5q0 -72 -53 -140.5t-142 -68.5q-80 0 -163 65q-61 47 -93 48q-55 0 -65 -82q-2 -23 -10.5 -27t-40.5 -4h-27q-33 0 -43 5t-10 30z" />
<glyph unicode="&#x2000;" horiz-adv-x="894" />
<glyph unicode="&#x2001;" horiz-adv-x="1789" />
<glyph unicode="&#x2002;" horiz-adv-x="894" />
<glyph unicode="&#x2003;" horiz-adv-x="1789" />
<glyph unicode="&#x2004;" horiz-adv-x="595" />
<glyph unicode="&#x2005;" horiz-adv-x="446" />
<glyph unicode="&#x2006;" horiz-adv-x="296" />
<glyph unicode="&#x2007;" horiz-adv-x="296" />
<glyph unicode="&#x2008;" horiz-adv-x="223" />
<glyph unicode="&#x2009;" horiz-adv-x="356" />
<glyph unicode="&#x200a;" horiz-adv-x="98" />
<glyph unicode="&#x2010;" horiz-adv-x="649" d="M23 483.5q0 65.5 90 65.5h336q90 0 90 -65.5t-90 -65.5h-336q-90 0 -90 65.5z" />
<glyph unicode="&#x2011;" horiz-adv-x="649" d="M23 483.5q0 65.5 90 65.5h336q90 0 90 -65.5t-90 -65.5h-336q-90 0 -90 65.5z" />
<glyph unicode="&#x2012;" horiz-adv-x="649" d="M23 483.5q0 65.5 90 65.5h336q90 0 90 -65.5t-90 -65.5h-336q-90 0 -90 65.5z" />
<glyph unicode="&#x2013;" d="M0 598q0 66 90 66h791q90 0 90 -66t-90 -66h-791q-90 0 -90 66z" />
<glyph unicode="&#x2014;" horiz-adv-x="1945" d="M0 598q0 66 90 66h1763q90 0 90.5 -66t-90.5 -66h-1763q-90 0 -90 66z" />
<glyph unicode="&#x2018;" horiz-adv-x="540" d="M162 1030v146l102 215q10 23 18.5 26.5t41.5 3.5q23 0 32 -1t16 -6t7 -17q0 -2 -8 -35l-49 -168q41 0 49 -7t8 -46v-111q0 -39 -7 -46t-44 -7h-115q-37 0 -44 7t-7 46z" />
<glyph unicode="&#x2019;" horiz-adv-x="540" d="M162 1001q0 2 8 35l49 168q-41 0 -49 7.5t-8 45.5v111q0 39 7 46t44 7h115q37 0 44 -7t7 -46v-145l-103 -215q-10 -23 -18 -27t-41 -4q-23 0 -32 1t-16 6t-7 17z" />
<glyph unicode="&#x201a;" horiz-adv-x="540" d="M162 49v111q0 39 7 46t44 7h115q37 0 44 -7t7 -46v-146l-103 -215q-10 -23 -18 -26.5t-41 -3.5q-23 0 -32 1t-16 6t-7 17q0 2 8 35l49 168q-41 0 -49 7t-8 46z" />
<glyph unicode="&#x201c;" horiz-adv-x="919" d="M162 1030v146l102 215q10 23 18.5 26.5t41.5 3.5q23 0 32 -1t16 -6t7 -17q0 -2 -8 -35l-49 -168q41 0 49 -7t8 -46v-111q0 -39 -7 -46t-44 -7h-115q-37 0 -44 7t-7 46zM541 1030v146l102 215q10 23 18.5 26.5t40.5 3.5q23 0 32 -1t16.5 -6t7.5 -17q0 -2 -8 -35l-50 -168 q41 0 49.5 -7t8.5 -46v-111q0 -39 -7.5 -46t-43.5 -7h-115q-37 0 -44 7t-7 46z" />
<glyph unicode="&#x201d;" horiz-adv-x="919" d="M162 1001q0 2 8 35l49 168q-41 0 -49 7.5t-8 45.5v111q0 39 7 46t44 7h115q37 0 44 -7t7 -46v-145l-103 -215q-10 -23 -18 -27t-41 -4q-23 0 -32 1t-16 6t-7 17zM541 1001q0 2 8 35l49 168q-41 0 -49 7.5t-8 45.5v111q0 39 7 46t44 7h115q37 0 44 -7t7 -46v-145 l-103 -215q-10 -23 -18 -27t-41 -4q-23 0 -32 1t-16 6t-7 17z" />
<glyph unicode="&#x201e;" horiz-adv-x="919" d="M162 49v111q0 39 7 46t44 7h115q37 0 44 -7t7 -46v-146l-103 -215q-10 -23 -18 -26.5t-41 -3.5q-23 0 -32 1t-16 6t-7 17q0 2 8 35l49 168q-41 0 -49 7t-8 46zM541 49v111q0 39 7 46t44 7h115q37 0 44 -7t7 -46v-146l-103 -215q-10 -23 -18 -26.5t-41 -3.5q-23 0 -32 1 t-16 6t-7 17q0 2 8 35l49 168q-41 0 -49 7t-8 46z" />
<glyph unicode="&#x2022;" horiz-adv-x="1513" d="M410 373v352q0 127 22.5 148.5t140.5 21.5h365q119 0 141.5 -21.5t22.5 -148.5v-352q0 -127 -22.5 -148.5t-141.5 -21.5h-358q-123 0 -146.5 23.5t-23.5 146.5z" />
<glyph unicode="&#x2026;" horiz-adv-x="1323" d="M162 53v111q0 39 7 46t44 7h115q37 0 44 -7t7 -46v-111q0 -39 -7 -46t-44 -7h-113q-39 0 -46 7t-7 46zM553 53v111q0 39 7 46t44 7h115q37 0 44 -7t7 -46v-111q0 -39 -7 -46t-44 -7h-113q-39 0 -46 7t-7 46zM944 53v111q0 39 7 46t44 7h115q37 0 44 -7t7 -46v-111 q0 -39 -7 -46t-44 -7h-113q-39 0 -46 7t-7 46z" />
<glyph unicode="&#x202f;" horiz-adv-x="356" />
<glyph unicode="&#x2039;" horiz-adv-x="583" d="M154 532q-2 8 0 17l192 518q4 14 21 14h86q27 0 22 -26l-94 -514l94 -514q4 -27 -22 -27h-86q-16 0 -21 14z" />
<glyph unicode="&#x203a;" horiz-adv-x="583" d="M109 27l94 514l-94 514q-4 27 22 26h86q16 0 21 -14l192 -518q2 -8 0 -17l-192 -518q-4 -14 -21 -14h-86q-26 0 -22 27z" />
<glyph unicode="&#x205f;" horiz-adv-x="446" />
<glyph unicode="&#x20ac;" horiz-adv-x="1165" d="M98 500l21 110q4 18 22 19h78l-2 82l2 82h-98q-27 0 -23 26l21 111q4 18 22 18h95q31 188 124 316q70 94 178.5 145t233.5 51q143 0 264 -74q14 -6 11 -22l-29 -164q-4 -14 -16.5 -17t-22.5 7q-84 94 -207 94q-70 0 -128 -39t-95 -104q-45 -82 -66 -193h441q27 0 22 -26 l-20 -111q-4 -18 -23 -18h-434l-2 -82l2 -82h397q27 0 23 -27l-19 -110q-4 -18 -22 -19h-365q18 -106 66 -192q37 -66 95 -105t128 -39q147 0 244 107q10 10 24.5 6t14.5 -19l12 -131q0 -10 -6 -18q-117 -121 -289 -121q-125 0 -233.5 51t-178.5 148q-94 125 -124 313h-115 q-27 0 -23 27z" />
<glyph unicode="&#x2122;" horiz-adv-x="1818" d="M41 1366q0 33 11 44t44 11h598q35 0 44.5 -12t9.5 -43q0 -33 -11.5 -44t-44.5 -11l-221 4v-684q0 -31 -11 -42t-44 -11h-39q-33 0 -44 11t-11 44v682l-222 -4q-35 0 -47 10t-12 45zM848 633v741q0 33 11 44.5t44 11.5h76q57 0 74 -48l110 -323l54 -168q37 -111 43 -160h2 q2 20 38 150l50 151l120 346q4 18 9.5 26.5t21 17t41.5 8.5h78q33 0 44 -12.5t11 -41.5v-745q0 -31 -11 -42t-44 -11h-18q-35 0 -45.5 11t-10.5 42v663q0 -14 -43 -151t-49 -150l-117 -342q-10 -31 -25.5 -41t-51.5 -10q-61 0 -78 47l-111 326l-51 162q-39 123 -43 159h-2 v-663q0 -31 -10.5 -42t-42.5 -11h-19q-33 0 -44 11t-11 44z" />
<glyph unicode="&#xe000;" horiz-adv-x="965" d="M0 965h965v-965h-965v965z" />
<glyph unicode="&#xfb01;" horiz-adv-x="1036" d="M51 901q0 31 19.5 46.5t38 17.5t51.5 2v163q0 160 77.5 236t200.5 76q47 0 90 -12q33 -8 39 -16.5t6 -45.5v-63q0 -51 -22 -52q-10 0 -27 17q-33 41 -82 41q-68 0 -67 -127v-217h108q90 0 90 -65.5t-90 -65.5h-102v-746q0 -53 -18.5 -71.5t-71.5 -18.5h-39 q-55 0 -73.5 19.5t-18.5 72.5v744q-35 0 -52.5 2t-37 17t-19.5 46zM694 1286v47q0 53 18.5 71.5t71.5 18.5h47q55 0 73 -19.5t18 -70.5v-47q0 -53 -18.5 -71.5t-72.5 -18.5h-47q-55 0 -72.5 19.5t-17.5 70.5zM698 90v787q0 53 18.5 71.5t71.5 18.5h41q55 0 73 -19.5 t18 -70.5v-787q0 -53 -18.5 -71.5t-72.5 -18.5h-41q-55 0 -72.5 19.5t-17.5 70.5z" />
<glyph unicode="&#xfb02;" horiz-adv-x="1036" d="M51 901q0 31 19.5 46.5t38 17.5t51.5 2v163q0 160 77.5 236t200.5 76q47 0 90 -12q33 -8 39 -16.5t6 -45.5v-57q0 -51 -22 -51q-10 0 -21 10q-35 41 -88 41q-68 0 -67 -127v-217h108q90 0 90 -65.5t-90 -65.5h-102v-746q0 -53 -18.5 -71.5t-71.5 -18.5h-39 q-55 0 -73.5 19.5t-18.5 72.5v744q-35 0 -52.5 2t-37 17t-19.5 46zM698 90v1241q0 53 18.5 71.5t71.5 18.5h41q55 0 73 -19.5t18 -70.5v-1241q0 -53 -18.5 -71.5t-72.5 -18.5h-41q-55 0 -72.5 19.5t-17.5 70.5z" />
<glyph unicode="&#xfb03;" horiz-adv-x="1574" d="M51 901q0 31 19.5 46.5t38 17.5t51.5 2v159q0 152 81 234t228 82q49 0 100 -10q37 -8 44.5 -17.5t7.5 -46.5v-57q0 -51 -23 -51q-8 0 -23 10q-45 41 -106 41q-94 0 -94 -131v-213h108q90 0 90 -65.5t-90 -65.5h-102v-746q0 -53 -18.5 -71.5t-71.5 -18.5h-39 q-55 0 -73.5 19.5t-18.5 72.5v744q-35 0 -52.5 2t-37 17t-19.5 46zM698 92v1038q0 154 77 233t204 79q47 0 92 -12q29 -8 35 -16.5t6 -41.5v-65q0 -29 -3 -40.5t-19 -11.5q-10 0 -25 17q-33 39 -84 39q-68 0 -68 -127v-217h109q90 0 90 -65.5t-90 -65.5h-102v-746 q0 -53 -18.5 -71.5t-72.5 -18.5h-38q-55 0 -74 19.5t-19 72.5zM1233 1286v47q0 53 18.5 71.5t71.5 18.5h47q55 0 72.5 -19.5t17.5 -70.5v-47q0 -53 -18.5 -71.5t-71.5 -18.5h-47q-55 0 -72.5 19.5t-17.5 70.5zM1237 90v787q0 53 18.5 71.5t71.5 18.5h41q55 0 72.5 -19.5 t17.5 -70.5v-787q0 -53 -18.5 -71.5t-71.5 -18.5h-41q-55 0 -72.5 19.5t-17.5 70.5z" />
<glyph unicode="&#xfb04;" horiz-adv-x="1574" d="M51 901q0 31 19.5 46.5t38 17.5t51.5 2v159q0 152 81 234t228 82q49 0 100 -10q37 -8 44.5 -17.5t7.5 -46.5v-57q0 -51 -23 -51q-8 0 -23 10q-45 41 -106 41q-94 0 -94 -131v-213h108q90 0 90 -65.5t-90 -65.5h-102v-746q0 -53 -18.5 -71.5t-71.5 -18.5h-39 q-55 0 -73.5 19.5t-18.5 72.5v744q-35 0 -52.5 2t-37 17t-19.5 46zM698 92v1038q0 160 78 236t201 76q47 0 90 -12q33 -8 39 -16.5t6 -45.5v-57q0 -29 -3 -40t-19 -11q-10 0 -21 10q-35 41 -88 41q-68 0 -68 -127v-217h109q90 0 90 -65.5t-90 -65.5h-102v-746 q0 -53 -18.5 -71.5t-72.5 -18.5h-38q-55 0 -74 19.5t-19 72.5zM1237 90v1241q0 53 18.5 71.5t71.5 18.5h41q55 0 72.5 -19.5t17.5 -70.5v-1241q0 -53 -18.5 -71.5t-71.5 -18.5h-41q-55 0 -72.5 19.5t-17.5 70.5z" />
</font>
</defs>
</svg>
