<?xml version="1.0" standalone="no"?>
<!DOCTYPE svg PUBLIC "-//W3C//DTD SVG 1.1//EN" "http://www.w3.org/Graphics/SVG/1.1/DTD/svg11.dtd" >
<svg xmlns="http://www.w3.org/2000/svg">
<metadata>
This is a custom SVG webfont generated by Font Squirrel.
Copyright   : Copyright 2003 2008 B Jackowski and J M Nowacki on behalf of TeX users groups This work is released under the GUST Font License   see httptugorgfontslicensesGUSTFONTLICENSEtxt for details
</metadata>
<defs>
<font id="webfont9WNQ7a3J" horiz-adv-x="1126" >
<font-face units-per-em="2048" ascent="1651" descent="-397" />
<missing-glyph horiz-adv-x="751" />
<glyph unicode=" "  horiz-adv-x="751" />
<glyph unicode="&#x09;" horiz-adv-x="751" />
<glyph unicode="&#xa0;" horiz-adv-x="751" />
<glyph unicode="!" horiz-adv-x="751" d="M262 98l17 72q10 55 35.5 76.5t82.5 21.5h72q59 0 73.5 -22.5t4.5 -75.5l-17 -72q-10 -55 -35.5 -76.5t-82.5 -21.5h-72q-55 0 -71.5 21.5t-6.5 76.5zM360 422q-2 6 31 180l43 225q12 63 45 255t56 296q8 31 18 37t47 6h158q37 0 45 -6t0 -37q-18 -84 -58 -241l-53 -219 l-110 -459q-10 -41 -20.5 -49.5t-49.5 -8.5h-100q-23 0 -31 1t-14.5 5.5t-6.5 14.5z" />
<glyph unicode="&#x22;" horiz-adv-x="1183" d="M381 973l86 401q8 39 40 65.5t71 26.5h92q39 0 61.5 -26.5t13.5 -65.5l-86 -401q-8 -39 -41.5 -65.5t-72.5 -26.5h-92q-39 0 -59.5 26.5t-12.5 65.5zM938 973l86 401q8 39 40 65.5t71 26.5h92q39 0 61.5 -26.5t14.5 -65.5l-86 -401q-8 -39 -42 -65.5t-73 -26.5h-92 q-39 0 -59.5 26.5t-12.5 65.5z" />
<glyph unicode="#" horiz-adv-x="1878" d="M184 276q18 86 129 86h332l148 300h-416q-23 0 -40.5 2t-39 23.5t-12.5 60.5q18 86 127 86h469l258 512q35 76 102 75q37 0 55.5 -25.5t12.5 -60.5q-2 -12 -57 -121l-118 -235q-65 -127 -73 -145h297l258 512q35 76 102 75q37 0 55.5 -25.5t12.5 -60.5q-2 -12 -56 -121 l-119 -235q-65 -127 -73 -145h283q20 0 37.5 -2.5t39 -24t13.5 -59.5q-18 -86 -129 -86h-332l-147 -300h415q23 0 40.5 -2t39 -23.5t12.5 -60.5q-18 -86 -127 -86h-469l-258 -512q-41 -76 -102 -75q-37 0 -56.5 25.5t-11.5 60.5q4 31 248 501h-297l-258 -512 q-41 -76 -102 -75q-37 0 -56.5 25.5t-11.5 60.5q4 31 248 501h-283q-20 0 -37.5 2.5t-39 23.5t-13.5 60zM825 362h297l148 300h-297z" />
<glyph unicode="$" d="M131 145q2 12 32 86t32 80q14 31 32 31q16 0 23 -10q113 -123 278 -146l88 416q-154 29 -230.5 145.5t-43.5 278.5q43 188 154 291q117 106 299 123q0 8 7 23l15 32q8 16 26.5 28.5t45.5 12.5q76 0 55 -94q98 -6 182 -49l29 -17q31 -14 59.5 -36.5t24.5 -36.5 q0 -12 -10 -27l-45 -117q-14 -45 -39 -45q-10 0 -21 10q-100 96 -225 111l-76 -358q152 -31 227.5 -155t39.5 -298q-84 -399 -457 -442q-18 -96 -94 -97q-72 0 -54 97q-182 16 -313 114q-31 25 -37 32t-4 17zM590 1073q-25 -119 94 -162l68 322q-131 -25 -162 -160zM678 190 q133 31 164 187q14 66 -9.5 116t-74.5 72z" />
<glyph unicode="%" horiz-adv-x="2107" d="M365 1124q86 412 458 412q367 0 279 -414q-86 -412 -453 -411q-372 -1 -284 413zM406 -29q6 29 40 64l1409 1458q43 43 84 43q37 0 56.5 -25.5t11.5 -60.5q0 -25 -37 -64l-1411 -1458q-43 -43 -86 -43q-35 0 -55 25.5t-12 60.5zM587 977q-3 -45 5 -64.5t28.5 -37 t57.5 -17.5q135 0 192 266q8 39 10.5 55.5t5.5 64.5t-4.5 72.5t-30 48.5t-60.5 24q-37 0 -65 -17.5t-45 -38t-32.5 -64.5t-21.5 -67.5t-19 -79.5l-14 -78q-4 -22 -7 -67zM1305 299q88 412 460 412q367 0 279 -414q-39 -186 -148.5 -299t-306.5 -113q-372 0 -284 414z M1527 152q-3 -43 5 -63.5t28.5 -38t57.5 -17.5q135 0 192 266q57 264 -79 264q-37 0 -65 -17.5t-45 -38t-32.5 -63.5t-21.5 -68.5t-17 -76.5l-15 -79q-5 -25 -8 -68z" />
<glyph unicode="&#x26;" horiz-adv-x="1701" d="M158 301q31 139 151 234q47 35 244 151q-45 193 -4 385q37 174 175 284.5t290 110.5q147 0 224 -100t50 -233q-23 -98 -132 -198.5t-331 -238.5q35 -98 108 -210.5t103 -147.5q104 72 221 201t211 307q16 35 23.5 44t21.5 9q12 0 142 -39q27 -8 22 -29 q-6 -45 -152.5 -257t-348.5 -365q78 -49 176 -49q106 0 219 41q16 8 22 8q18 0 20.5 -15.5t-5.5 -43.5l-23 -99q-6 -33 -11 -43t-20 -14q-10 -8 -87.5 -23.5t-161.5 -15.5q-178 0 -355 113q-225 -113 -454 -113q-176 0 -272.5 100.5t-65.5 245.5zM443 312.5 q-1 -25.5 3.5 -63.5t30 -63.5t70.5 -25.5q121 0 252 49q-154 201 -205 344q-117 -59 -145 -197q-5 -18 -6 -43.5zM788 834q231 141 265 296q18 59 0.5 124t-70.5 65t-110.5 -49t-79.5 -152q-28 -141 -5 -284z" />
<glyph unicode="'" horiz-adv-x="626" d="M381 973l86 401q8 39 40 65.5t71 26.5h92q39 0 61.5 -26.5t13.5 -65.5l-86 -401q-8 -39 -41.5 -65.5t-72.5 -26.5h-92q-39 0 -59.5 26.5t-12.5 65.5z" />
<glyph unicode="(" horiz-adv-x="876" d="M253 46q-9 138 0 247.5t32 218.5q68 317 230.5 574t383.5 417q31 25 43 29t41 4h37q20 0 29.5 -1t16.5 -7t5 -19q-2 -6 -18 -22q-68 -66 -121 -129.5t-126 -178t-135.5 -284.5t-107.5 -383q-55 -258 -54 -458.5t32.5 -304t87.5 -198.5q18 -25 18 -36q-6 -27 -61 -27h-37 q-33 0 -44 5t-36 34q-98 109 -152.5 245t-63.5 274z" />
<glyph unicode=")" horiz-adv-x="876" d="M23 -485l16 22q70 68 122 131.5t124.5 178t135 283.5t107.5 382q55 258 53.5 460t-32.5 304t-86 197q-18 29 -17 36q4 27 60 27h37q31 0 43 -5t37 -34q98 -109 152 -245t63.5 -274t0 -247.5t-31.5 -218.5q-68 -319 -229.5 -576.5t-384.5 -414.5q-31 -25 -43.5 -29 t-40.5 -4h-37q-20 0 -29.5 1t-15.5 7.5t-4 18.5z" />
<glyph unicode="*" d="M330 893q14 66 86 88l291 86l-256 86q-63 20 -48 88q10 47 51.5 83t82.5 36q33 0 61 -33l164 -188v268v39q8 37 45 63.5t82 26.5q43 0 69.5 -26.5t18.5 -63.5l-16 -39l-115 -268l248 188q43 33 71 33q41 0 68 -36t16 -83q-14 -63 -86 -88l-291 -86l256 -86q59 -20 48 -88 q-10 -47 -52.5 -83t-83.5 -36q-33 0 -59 33l-166 188v-268v-39q-6 -35 -44 -62.5t-83 -27.5q-43 0 -69.5 26.5t-18.5 63.5l16 39l115 268l-246 -188q-43 -33 -73 -33q-41 0 -66.5 36t-15.5 83z" />
<glyph unicode="+" horiz-adv-x="1753" d="M233 512q18 86 127 86h558l118 557q23 109 109 109t63 -109l-118 -557h555q20 0 37.5 -2t39 -23.5t13.5 -60.5q-18 -86 -127 -86h-555l-119 -557q-23 -109 -109 -109t-63 109l119 557h-557q-20 0 -38 2t-39.5 23.5t-13.5 60.5z" />
<glyph unicode="," horiz-adv-x="626" d="M137 -199q0 2 2 9l54 92l55 98q-51 0 -59.5 8t1.5 47l33 158q10 41 19.5 48t48.5 7h158q41 0 46 -7t-3 -48l-33 -158q-10 -41 -33 -67l-143 -170q-20 -25 -30.5 -30t-41.5 -5h-25q-47 0 -49 18z" />
<glyph unicode="-" horiz-adv-x="751" d="M125 469q14 74 113 74h403q98 0 84 -74q-16 -74 -115 -74h-403q-23 0 -38 2t-33.5 20.5t-10.5 51.5z" />
<glyph unicode="." horiz-adv-x="626" d="M187.5 8q-5.5 8 2.5 47l33 158q10 41 19.5 48t48.5 7h158q41 0 46 -7t-3 -48l-33 -158q-10 -41 -19.5 -48t-48.5 -7h-158q-40 0 -45.5 8z" />
<glyph unicode="/" d="M35 -426q2 16 22 47l1082 1845q39 70 100 70q37 0 56.5 -25.5t11.5 -60.5q-2 -16 -21 -47l-1083 -1845q-39 -70 -101 -70q-37 0 -56 25.5t-11 60.5z" />
<glyph unicode="0" d="M186 288.5q-4 55.5 6.5 145.5t18.5 136t27 132l29 135q11 50 39 140t57.5 147.5t80 129t107.5 112.5t141 70.5t182.5 29.5t169 -29.5t110.5 -70.5t59.5 -113.5t24.5 -129t-5 -148.5t-19.5 -140.5t-27.5 -132.5q-12 -59 -19.5 -90.5t-24 -95t-31.5 -101.5l-39 -98 q-24 -59 -49 -96l-60 -84q-35 -47 -77 -75.5t-92.5 -55t-111.5 -39t-131 -12.5q-98 0 -169 28.5t-111 68.5t-60.5 110.5t-24.5 126zM455 346q-27 -244 129 -244q158 0 231 240q41 121 98 389q57 281 66 375q10 213 -137 213q-156 0 -234 -236q-39 -117 -86 -352 q-59 -268 -67 -385z" />
<glyph unicode="1" d="M205 74q14 74 112 73h160l225 1057q-102 -27 -198 -26q-23 0 -39 2t-33.5 20.5t-9.5 50.5q14 74 106 74q197 4 340 113q37 29 80 28q59 0 71.5 -34.5t-1.5 -63.5l-260 -1221h143q20 0 36.5 -2t35 -20.5t12.5 -50.5q-16 -74 -115 -74h-583q-23 0 -39.5 2t-33.5 20.5 t-9 51.5z" />
<glyph unicode="2" d="M133 98l4 17q4 20 7 27.5t8.5 14.5t17.5 17l479 418q246 213 287 399q23 106 -17 188.5t-151 82.5q-176 0 -291 -228q-16 -39 -37 -39q-14 0 -26 25l-76 131q72 143 199 225q129 90 305 90q217 0 319.5 -138t61.5 -333q-18 -86 -72.5 -164.5t-99.5 -119.5t-138 -117 l-165 -119l-324 -256h332l139 2q106 0 119 -8q39 -18 24 -90l-6 -25q-10 -55 -35.5 -76.5t-83.5 -21.5h-702q-55 0 -71.5 21.5t-6.5 76.5z" />
<glyph unicode="3" d="M125 147l55 142q12 23 31 22q8 0 25 -20q123 -143 323 -144q68 0 115 21.5t74.5 66t42 84t28.5 101.5q14 80 16.5 141.5t-38.5 97t-129 35.5h-90q-41 0 -46.5 7.5t3.5 48.5l8 36q8 45 24 52q4 2 70 8q39 2 60.5 6t54 18.5t61.5 40.5q80 78 107 205q18 86 -3.5 127 t-111.5 41q-172 0 -307 -149q-23 -23 -35 -23l-14 8q-6 6 -11 17l-41 82l-6 30q2 8 36 41t90 74t148.5 71.5t188.5 30.5q29 0 55.5 -2t64.5 -7t67.5 -16t63.5 -28.5t54.5 -44.5t39 -62.5t16 -83.5t-10.5 -110q-47 -219 -293 -340q266 -72 207 -356q-45 -215 -190.5 -338 t-399.5 -123q-121 0 -221 44t-142 87t-40 61z" />
<glyph unicode="4" d="M152 412l10 51q10 41 33 74l632 837q35 47 105 47h149q57 0 72.5 -21.5t3.5 -76.5l-172 -817h86q55 0 71.5 -20.5t6.5 -75.5q-12 -57 -40 -77t-79 -20h-86l-47 -215q-10 -55 -35.5 -76.5t-83.5 -21.5h-57q-59 0 -74.5 22.5t-3.5 75.5l47 215h-461q-59 0 -74 23t-3 76z M385 506h358l148 700h-2q-41 -88 -504 -700z" />
<glyph unicode="5" d="M117 193q2 8 104 133q23 27 39 26q12 0 21 -24q53 -180 245 -181q61 0 108.5 19.5t74 43t48 74t30 82t22.5 95.5q35 121 28.5 218t-94.5 97q-133 0 -231 -121q-27 -35 -46.5 -42t-64.5 -7q-27 0 -39 2t-29.5 11.5t-16.5 27.5l3 53l134 627q12 57 38.5 75.5t79.5 18.5h570 q66 0 79 -30.5t-3 -71.5q-6 -27 -11.5 -40t-17.5 -30.5t-35 -24.5t-57 -7h-402l-67 -320q78 27 155 27q223 0 298 -127t28 -344q-51 -246 -209 -372t-407 -126q-82 0 -151 23.5t-110 55.5t-68.5 67.5t-37.5 60.5t-8 31z" />
<glyph unicode="6" d="M198 314.5q-5 58.5 4 144.5t17 129t23 108q166 770 753 770q76 0 125 -20.5t56.5 -30.5t-0.5 -47l-17 -76q-10 -55 -37 -55q-10 0 -26 14q-53 33 -133 33q-201 0 -304 -174q-33 -57 -51 -109.5t-57 -201.5q123 182 289 182q397 0 293 -498q-29 -135 -70 -224t-133 -171 q-147 -133 -369 -133q-98 0 -170 31.5t-110.5 77t-58 119t-24.5 132zM471 263q6 -56 39 -86t90 -30q51 0 89 17.5t60.5 42t42 75t28.5 89.5l26 114l20 98q6 30 12.5 81t1 73.5t-16.5 49t-37.5 37t-67.5 10.5q-102 0 -169 -92.5t-95 -233.5q-16 -76 -22.5 -132.5t-0.5 -112.5 z" />
<glyph unicode="7" d="M309 76q135 623 699 1126h-346l-144 -2q-111 0 -125 8q-41 18 -22 90l6 27q14 68 45 83t115 15h129l581 -2q55 -2 66.5 -35.5t-2.5 -66.5q-12 -53 -33 -74q-254 -252 -427 -540.5t-255 -647.5q-16 -80 -115 -80h-94q-59 0 -74.5 23t-3.5 76z" />
<glyph unicode="8" d="M182 416q61 281 326 350q-207 76 -156 301q84 399 522 399q436 0 353 -399q-51 -227 -287 -301q236 -72 178 -350q-98 -461 -567 -461q-467 0 -369 461zM446 257q0 -40 15.5 -60.5t47.5 -35t85 -14.5q51 0 90 15.5t62.5 36t42 60.5t26.5 71.5t21 89.5q12 53 16 81.5 t4 71.5t-14.5 64.5t-47 39t-85.5 17.5q-66 0 -110 -21.5t-69.5 -68.5t-37 -83t-23.5 -101q-12 -57 -17.5 -90t-5.5 -73zM598 935q2 -34 16.5 -51.5t46 -29.5t80.5 -12q61 0 102.5 16t65 53t33.5 67t23 87q31 109 6 164t-137.5 55t-153.5 -49t-66 -170q-10 -47 -14 -71.5 t-2 -58.5z" />
<glyph unicode="9" d="M178 80q4 14 94 125q23 27 37.5 26.5t22.5 -16.5q59 -68 164 -68q246 0 344 332q14 49 24 94t13 52q-119 -184 -289 -185q-104 0 -170 31t-109 107q-31 55 -38 119.5t-1 114.5t25 128q27 127 63.5 210t114.5 163q158 154 401 153q96 0 166 -30.5t108 -74.5t57.5 -118 t23.5 -130t-5.5 -143t-16.5 -129t-21 -112q-164 -774 -727 -774q-129 0 -207 50t-74 75zM547 685.5q6 -23.5 17 -50.5t38 -37t68 -10q68 0 122 43t83.5 111.5t42 103.5t18.5 65q41 162 21.5 267.5t-117.5 105.5q-55 0 -95 -19.5t-64 -43t-45.5 -77.5t-30.5 -91t-25 -115 l-20.5 -98.5t-12.5 -81.5t0 -72.5z" />
<glyph unicode=":" horiz-adv-x="626" d="M187.5 8q-5.5 8 2.5 47l33 158q10 41 19.5 48t48.5 7h158q41 0 46 -7t-3 -48l-33 -158q-10 -41 -19.5 -48t-48.5 -7h-158q-40 0 -45.5 8zM330 677q-6 7 2 48l35 158q8 41 17 48t48 7h158q41 0 47 -8t-2 -47l-35 -158q-8 -41 -17.5 -48t-47.5 -7h-158q-41 0 -47 7z" />
<glyph unicode=";" horiz-adv-x="626" d="M137 -199q0 2 2 9l54 92l55 98q-51 0 -59.5 8t1.5 47l33 158q10 41 19.5 48t48.5 7h158q41 0 46 -7t-3 -48l-33 -158q-10 -41 -33 -67l-143 -170q-20 -25 -30.5 -30t-41.5 -5h-25q-47 0 -49 18zM330 677q-6 7 2 48l35 158q8 41 17 48t48 7h158q41 0 47 -8t-2 -47 l-35 -158q-8 -41 -17.5 -48t-47.5 -7h-158q-41 0 -47 7z" />
<glyph unicode="&#x3c;" horiz-adv-x="1830" d="M305 514q8 39 66 64l1411 612q25 12 43 12q27 0 40 -19.5t9 -41.5q-6 -39 -64 -66l-1298 -563l1059 -561q45 -27 37 -66q-4 -23 -26.5 -42t-49.5 -19l-43 14l-1145 611q-45 22 -39 65z" />
<glyph unicode="=" horiz-adv-x="1753" d="M184 276q18 86 129 86h1280q23 0 40.5 -2t39 -23.5t13.5 -60.5q-18 -86 -127 -86h-1285q-20 0 -37.5 2.5t-39 23.5t-13.5 60zM285 748q18 86 127 86h1284q20 0 37.5 -2.5t39 -24t13.5 -59.5q-18 -86 -129 -86h-1280q-23 0 -40.5 2t-38.5 23.5t-13 60.5z" />
<glyph unicode="&#x3e;" horiz-adv-x="1830" d="M172 -115q8 41 66 66l1296 563l-1057 561q-47 25 -39 66q6 25 28.5 43t47.5 18q18 0 43 -14l1147 -610q45 -23 37 -64q-8 -43 -64 -65l-1413 -613q-25 -12 -41 -12q-29 0 -42 19t-9 42z" />
<glyph unicode="?" horiz-adv-x="1062" d="M385 98l16 72q10 55 36 76.5t83 21.5h72q59 0 73.5 -22.5t4.5 -75.5l-17 -72q-10 -55 -35.5 -76.5t-82.5 -21.5h-72q-55 0 -71.5 21.5t-6.5 76.5zM403 1315q4 18 74 51q160 78 342 78q51 0 86 -2t101.5 -18.5t105.5 -46t61.5 -92t4.5 -150.5q-33 -158 -164 -238 q-254 -166 -299 -385l-13 -55q-8 -41 -17 -48.5t-50 -7.5h-100q-47 0 -54 17q0 14 15 71q59 285 309 494q33 27 46 41t26.5 44t23.5 77q18 86 -2 118.5t-117 32.5q-168 0 -305 -131q-18 -18 -31 -18q-20 0 -22 35l-16 100z" />
<glyph unicode="@" horiz-adv-x="1501" d="M276 711q78 367 305.5 550t592.5 183q129 0 214 -35t128 -91t54 -149.5t2 -188.5t-38 -228q-10 -49 -17.5 -78t-29 -88.5t-45 -99.5t-66.5 -90t-94 -80.5t-127 -52t-166 -21.5q-434 0 -333.5 469t532.5 469q72 0 133 -15q-25 131 -180 131q-266 0 -426 -170 q-135 -145 -193 -415q-59 -276 23 -428q90 -158 354 -158q158 0 334 74q14 8 51 8h78q20 0 29.5 -1t16.5 -7t5 -19q-4 -20 -85 -67t-146 -74q-160 -61 -320 -62q-360 0 -512 182.5t-74 551.5zM901 711q-74 -322 121 -322q190 0 258 322q66 322 -122.5 322t-256.5 -322z" />
<glyph unicode="A" horiz-adv-x="1501" d="M98 55q4 16 19 41l694 1237q51 88 152 88h180q29 0 46 -3t38.5 -23.5t25.5 -61.5l170 -1237q3 -19 3 -31q0 -65 -93 -65h-110q-47 0 -72 15.5t-31 35t-10 62.5l-29 196h-567l-127 -227q-47 -82 -147 -82h-74q-23 0 -35 2t-26 15q-9 9 -9 24q0 6 2 14zM612 485h445 l-72 576q-5 35 -5 74q0 13 1 26h-2q-37 -84 -127 -241z" />
<glyph unicode="B" horiz-adv-x="1501" d="M207 98l260 1225q12 55 38.5 76.5t82.5 21.5h504q377 0 440 -202q12 -38 12 -82q0 -40 -10 -84q-25 -119 -118 -198t-245 -112q296 -49 296 -264q0 -38 -9 -82q-27 -129 -103.5 -216t-179 -122.5t-177 -47t-152.5 -11.5h-561q-55 0 -72 22q-10 13 -10 39q0 16 4 37z M512 176h297q319 0 367 225q7 32 7 61q0 37 -13 67q-22 54 -55.5 80t-89.5 39.5t-85 15.5t-66 2h-258zM647 813h238q29 0 54.5 1t81.5 14.5t98 35t82 69.5t54 114q5 22 5 41q0 29 -11 53q-18 39 -49 58.5t-79 30.5t-77.5 13t-64.5 2h-240z" />
<glyph unicode="C" horiz-adv-x="1439" d="M276 711q158 756 914 755q197 0 350 -59q39 -14 47 -19q5 -3 6 -11q0 -4 -2 -9q-6 -18 -10 -27l-68 -178q-14 -37 -36 -37q-12 0 -27 15q-59 61 -128 91t-177 30q-121 0 -217.5 -41t-153.5 -96.5t-100 -138.5t-61.5 -142.5t-34.5 -132.5q-26 -114 -26 -205q0 -97 33 -180 q32 -80 115.5 -123t219.5 -43q127 0 204.5 24.5t180.5 89.5q33 23 45 23q23 0 18 -37q-2 -8 -6 -46t-9 -70.5t-7 -43.5q-4 -16 -13.5 -23t-54.5 -30q-113 -53 -197 -72.5t-211 -19.5q-622 0 -622 513q-1 110 28 243z" />
<glyph unicode="D" horiz-adv-x="1626" d="M207 98l260 1225q12 55 38.5 76.5t82.5 21.5h540q358 0 486 -215q62 -106 62 -268q0 -107 -27 -238q-70 -326 -269.5 -513t-554.5 -187h-540q-55 0 -72 22q-10 13 -10 39q0 16 4 37zM518 176h264q125 0 222.5 34t153.5 82t98 126t60.5 137t37.5 145q14 72 21 121 q8 57 8 128q0 67 -19 112q-20 47 -59 93t-115 68.5t-182 22.5h-263z" />
<glyph unicode="E" horiz-adv-x="1314" d="M207 98l260 1219q12 57 37.5 77.5t81.5 20.5h805q59 0 73 -22q8 -13 9 -37q0 -17 -5 -39l-4 -17q-14 -68 -43.5 -83t-95.5 -15l-481 6h-101l-79 -379h538q55 0 73 -20q10 -12 10 -36q0 -17 -5 -40q-12 -57 -39 -76.5t-80 -19.5h-538l-88 -420l299 4l317 4q43 0 61.5 -3 t30.5 -25q7 -12 7 -32q0 -16 -5 -38l-6 -29q-10 -55 -35.5 -76.5t-83.5 -21.5h-835q-55 0 -72 22q-10 13 -10 39q0 16 4 37z" />
<glyph unicode="F" horiz-adv-x="1251" d="M207 98l260 1219q12 57 37.5 77.5t81.5 20.5h772q59 0 74 -22q8 -13 8 -37q0 -17 -4 -39l-4 -17q-14 -68 -44 -83t-94 -15l-463 6h-88l-84 -403h476q55 0 71 -21q10 -13 10 -38q0 -16 -4 -37q-12 -57 -39.5 -77t-78.5 -20h-476l-110 -514q-10 -55 -36 -76.5t-83 -21.5 h-104q-55 0 -72 22q-10 13 -10 39q0 16 4 37z" />
<glyph unicode="G" horiz-adv-x="1501" d="M276 711q160 756 910 755q207 0 379 -82q47 -25 49 -34q1 -2 1 -5t-1 -6q-6 -18 -10 -26l-68 -178q-14 -37 -37 -37q-8 0 -18 10l-55 56q-17 17 -59 46t-96 40.5t-126 11.5q-453 0 -567 -551q-16 -78 -24 -144q-3 -25 -3 -53q0 -43 7 -92q11 -80 46 -134.5t114 -91 t195 -36.5q100 0 197 22l61 289h-141q-41 0 -46 8t3 47l17 82q10 41 19 48.5t48 7.5h365q41 0 46 -8.5t-3 -47.5l-107 -497q-6 -39 -14 -48q-14 -10 -71.5 -32.5t-181.5 -49t-245 -26.5q-369 0 -516 190q-96 124 -96 325q0 109 28 241z" />
<glyph unicode="H" horiz-adv-x="1626" d="M207 98l260 1225q12 55 38.5 76.5t82.5 21.5h104q59 0 74 -22q8 -12 8 -33q0 -18 -6 -43l-102 -487h649l102 487q12 55 38 76.5t83 21.5h104q59 0 74 -22q8 -12 8 -33q0 -18 -6 -43l-260 -1225q-10 -55 -35.5 -76.5t-83.5 -21.5h-104q-59 0 -75 23q-9 13 -8 34q0 18 5 41 l117 545h-649l-117 -545q-10 -55 -36 -76.5t-83 -21.5h-104q-55 0 -72 22q-10 13 -10 39q0 16 4 37z" />
<glyph unicode="I" horiz-adv-x="677" d="M209 98l260 1225q12 55 39 76.5t82 21.5h104q59 0 74 -22q8 -12 8 -33q0 -18 -6 -43l-260 -1225q-10 -55 -35.5 -76.5t-83.5 -21.5h-104q-55 0 -72 22q-10 13 -10 39q0 16 4 37z" />
<glyph unicode="J" horiz-adv-x="1062" d="M109 68l69 180q16 39 37 39q12 0 27 -25q57 -102 192 -102q63 0 106.5 16.5t65 48t28.5 48t13 44.5l213 1006q12 55 38 76.5t83 21.5h98q59 0 74 -22q8 -12 8 -33q0 -18 -6 -43l-215 -1018q-37 -172 -166 -261t-303 -89t-319 72q-29 12 -37 20.5t-6 20.5z" />
<glyph unicode="K" horiz-adv-x="1564" d="M207 98l260 1225q12 55 38.5 76.5t82.5 21.5h69q59 0 74 -22q8 -12 8 -33q0 -18 -6 -43l-119 -565l791 622q53 41 129 41h125q20 0 31.5 -1t21.5 -11q7 -7 7 -20q0 -5 -1 -11q-6 -20 -32 -43l-648 -506l410 -770q-8 -41 -26.5 -50t-57.5 -9h-123q-70 0 -94 43l-328 614 l-272 -215l-74 -344q-10 -55 -35.5 -76.5t-83.5 -21.5h-69q-55 0 -72 22q-10 13 -10 39q0 16 4 37z" />
<glyph unicode="L" horiz-adv-x="1189" d="M207 98l260 1225q12 55 38.5 76.5t82.5 21.5h104q59 0 74 -22q8 -12 8 -33q0 -18 -6 -43l-238 -1116l512 8q43 0 64 -15q19 -14 19 -33q0 -12 -7 -50l-4 -19q-10 -55 -35.5 -76.5t-83.5 -21.5h-710q-55 0 -72 22q-10 13 -10 39q0 16 4 37z" />
<glyph unicode="M" horiz-adv-x="2002" d="M207 98l260 1225q12 55 38.5 76.5t82.5 21.5h170q102 0 119 -84l124 -647q63 -369 64 -385h2q35 80 213 365l410 663q35 57 71.5 72.5t85.5 15.5h172q59 0 74 -22q8 -12 8 -33q0 -18 -6 -43l-260 -1225q-10 -55 -35.5 -76.5t-83.5 -21.5h-55q-59 0 -75 23q-9 13 -8 34 q0 18 5 41l225 1059h-2q-37 -78 -225 -381l-399 -643q-37 -59 -73 -73.5t-101 -14.5q-45 0 -65.5 3t-42 23.5t-30.5 61.5l-114 584q-66 352 -70 440h-2l-225 -1059q-10 -55 -36 -76.5t-83 -21.5h-55q-55 0 -72 22q-10 13 -10 39q0 16 4 37z" />
<glyph unicode="N" horiz-adv-x="1626" d="M207 98l260 1225q12 55 38.5 76.5t82.5 21.5h190q23 0 35 -2t32.5 -8t36 -24.5t23.5 -47.5l332 -1091h2l227 1075q12 55 38 76.5t83 21.5h55q59 0 74 -22q8 -12 8 -33q0 -18 -6 -43l-260 -1225q-10 -55 -35.5 -76.5t-83.5 -21.5h-190q-23 0 -35 2t-32.5 8t-36 24.5 t-23.5 47.5l-332 1092h-2l-229 -1076q-10 -55 -36 -76.5t-83 -21.5h-55q-55 0 -72 22q-10 13 -10 39q0 16 4 37z" />
<glyph unicode="O" horiz-adv-x="1626" d="M274 700q164 766 850 766q555 0 555 -503q0 -118 -30 -263q-160 -745 -848 -745q-557 0 -557 490q0 114 30 255zM544 412q3 -47 18.5 -108.5t48 -97.5t90 -61.5t137.5 -25.5t148.5 25.5t115.5 62.5t88 97.5t65.5 108.5t47 119.5t30.5 107.5l21 93q12 57 18 91t13 102 q5 43 5 76q0 19 -1 35q-4 44 -20.5 100.5t-49.5 89.5t-91.5 56.5t-138 23.5t-147.5 -23.5t-115 -57.5t-87 -90.5t-63.5 -100.5t-45 -111.5t-29.5 -100t-20 -90.5q-12 -59 -18.5 -94t-14.5 -108q-6 -53 -6 -92q0 -14 1 -27z" />
<glyph unicode="P" horiz-adv-x="1439" d="M207 98l260 1225q12 55 38.5 76.5t82.5 21.5h512q246 0 357 -108q78 -76 79 -211q0 -57 -14 -123q-47 -217 -203 -323.5t-404 -106.5h-311l-96 -451q-10 -55 -36 -76.5t-83 -21.5h-104q-55 0 -72 22q-10 13 -10 39q0 16 4 37zM633 711h250q98 0 165.5 20.5t104.5 63.5 t53.5 83t30.5 101q13 47 13 89q0 6 -1 12q-2 48 -20.5 85t-76.5 58.5t-155 21.5h-252z" />
<glyph unicode="Q" horiz-adv-x="1626" d="M274 700q164 766 850 766q555 0 555 -503q0 -118 -30 -263q-106 -479 -412 -643l96 -172q23 -43 19 -57q-10 -45 -84 -45h-164q-49 0 -63.5 10t-36.5 62l-54 110q-68 -10 -149 -10q-557 0 -557 490q0 114 30 255zM535 393q4 -45 20 -102.5t49 -92t92.5 -59t139.5 -24.5 l41 4l-27 65q-68 132 -68 163q0 50 84 50h125q33 0 43 -3t23 -19l82 -146q145 135 215 473q12 57 18 92t14 106q5 47 6 84q0 18 -1 34q-4 47 -20.5 106.5t-49.5 95t-91.5 61.5t-139.5 26q-80 0 -150 -26t-118 -61.5t-90 -95t-65.5 -106.5t-46 -118t-30.5 -105.5l-21 -92.5 q-12 -55 -18 -91t-13 -104q-5 -44 -5 -78q1 -20 2 -36z" />
<glyph unicode="R" horiz-adv-x="1439" d="M207 98l260 1225q12 55 38.5 76.5t82.5 21.5h491q393 0 453 -229q9 -36 9 -77q0 -45 -11 -97q-61 -285 -402 -363l222 -594q-6 -29 -20.5 -43t-28 -16t-39.5 -2h-121q-27 0 -39 2t-25.5 12.5t-21.5 34.5l-211 588h-228l-114 -539q-10 -55 -36 -76.5t-83 -21.5h-98 q-55 0 -72 22q-10 13 -10 39q0 16 4 37zM647 784h266q172 0 240 60.5t90 171.5q9 40 9 74q0 61 -29 98q-45 57 -211 57h-267z" />
<glyph unicode="S" horiz-adv-x="1251" d="M137 150l68 178q14 37 37 37q12 0 30 -25q147 -162 390 -162q244 0 286 199q4 20 4 39q0 56 -37 102q-25 29 -60.5 42t-127.5 36q-98 25 -139 37t-94.5 44t-92.5 83q-65 86 -65 194q0 42 10 86q90 426 590 426q205 0 354 -82q35 -20 40 -26q4 -4 4 -12q0 -3 -1 -7 q-6 -18 -10 -26l-68 -178q-14 -37 -36 -37q-8 0 -37 32q-98 125 -291 125q-244 0 -281 -178q-4 -19 -4 -36q0 -51 37 -83q49 -43 102 -55l187 -45q152 -37 233 -160q57 -86 58 -193q0 -46 -11 -95q-49 -231 -203.5 -343t-394.5 -112q-150 0 -290 47l-25 10l-52 23 q-28 12 -57.5 27.5t-47.5 31.5q-16 15 -15 26q0 9 10 30z" />
<glyph unicode="T" horiz-adv-x="1501" d="M356 1294l4 17q12 57 38 77.5t81 20.5h1139q59 0 75 -23q9 -13 8 -34q0 -18 -5 -41l-4 -17q-10 -47 -32 -69.5t-40 -25.5t-55 -3l-408 6l-235 -1104q-10 -55 -36 -76.5t-83 -21.5h-105q-55 0 -71 22q-10 13 -10 39q0 16 4 37l235 1104l-414 -6q-37 0 -54 3t-30 26 q-7 12 -6 32q-1 16 4 37z" />
<glyph unicode="U" horiz-adv-x="1564" d="M271 306q-2 18 -1 36q0 59 17 129l180 852q12 55 38.5 76.5t82.5 21.5h104q59 0 74 -22q8 -12 8 -33q0 -18 -6 -43l-182 -860q-16 -72 -16 -128q0 -75 28 -122q49 -82 219 -82q176 0 260 84t119 250l182 858q12 55 38 76.5t83 21.5h82q59 0 74 -22q8 -12 8 -33 q0 -18 -6 -43l-180 -854q-27 -127 -87.5 -223t-132 -150.5t-161.5 -87.5t-165 -43t-155 -10q-59 0 -113.5 6t-114 20.5t-103.5 40t-86 64.5t-61.5 93t-26.5 127z" />
<glyph unicode="V" horiz-adv-x="1501" d="M438 1421h111q23 0 35 -2t31.5 -9t30.5 -26.5t16 -50.5l137 -915q8 -49 15 -104.5t7 -57.5l172 315l439 760q18 33 38.5 52.5t44 26.5t37 9t35.5 2h80q23 0 35 -2t25 -15q9 -9 10 -24q0 -7 -2 -14l-19 -37l-721 -1239q-25 -41 -54.5 -62.5t-48 -24.5t-48.5 -3h-189 q-23 0 -35 2t-31.5 9t-30.5 25.5t-15 49.5l-195 1243q-3 18 -3 28q0 64 93 64z" />
<glyph unicode="W" horiz-adv-x="2127" d="M338 1323v39q14 59 98 59h70q29 0 45 -3t35.5 -23.5t21.5 -61.5l37 -655q14 -224 14 -346q0 -41 -2 -70h2q16 41 84 195l95 202l323 672q20 41 49 62.5t47.5 24.5t49.5 3h135q51 0 74.5 -17.5t27.5 -72.5l45 -829q9 -152 9 -217q0 -13 -1 -23h2q29 66 121 262l389 807 q20 41 49 62.5t47.5 24.5t47.5 3h43q23 0 36 -2t26 -16q9 -10 9 -25q0 -7 -2 -16l-16 -39l-598 -1237q-14 -31 -31.5 -49.5t-39 -25.5t-35 -9t-35.5 -2h-148q-20 0 -32.5 2t-31 9t-27.5 25.5t-11 49.5l-45 772q-9 142 -9 258q0 23 1 45h-2l-123 -266l-385 -801 q-20 -43 -49 -65.5t-47.5 -25.5t-49.5 -3h-135q-23 0 -35 2t-30.5 9t-27.5 25.5t-11 49.5z" />
<glyph unicode="X" horiz-adv-x="1501" d="M86 47q2 12 29 41l624 666l-323 581q-14 23 -13 41q10 45 82 45h170q27 0 39.5 -2t27.5 -12t28 -33l194 -379l350 383q41 43 111 43h154q20 0 32.5 -1t23.5 -12q8 -8 8 -23q0 -5 -1 -11q-4 -14 -31 -41l-544 -579l374 -668q12 -23 11 -41q-10 -45 -84 -45h-170 q-25 0 -38.5 2t-28.5 12.5t-26 30.5l-237 492l-434 -488q-27 -31 -45.5 -40t-65.5 -9h-153q-20 0 -33 1t-24 12q-8 8 -8 23q0 5 1 11z" />
<glyph unicode="Y" horiz-adv-x="1501" d="M342 1374q10 47 84 47h135q57 0 90 -17.5t58 -66.5l159 -331q55 -113 76 -181q49 72 195 232l260 286q74 78 180 78h100q20 0 32.5 -1t24.5 -12q8 -8 8 -23q0 -5 -1 -11q-6 -20 -29 -43l-696 -764l-100 -471q-12 -55 -38 -75.5t-81 -20.5h-99q-55 0 -71 22q-10 13 -10 39 q0 16 4 37l100 471l-373 764q-9 18 -9 33q0 4 1 8z" />
<glyph unicode="Z" horiz-adv-x="1376" d="M145 98l5 17q8 43 34 71l963 1041h-72l-534 -6h-38q-11 0 -28.5 3t-25 9t-13.5 17.5t-5 28.5t5 42q12 53 36 76.5t85 23.5h897q66 0 79 -30q6 -14 6 -30q0 -19 -9 -42q-8 -35 -13.5 -46t-23.5 -30l-958 -1036l655 8q43 0 62.5 -3t31.5 -26q7 -12 7 -32q0 -16 -5 -37 l-4 -19q-10 -55 -35.5 -76.5t-83.5 -21.5h-940q-55 0 -71 22q-10 13 -11 39q0 16 4 37z" />
<glyph unicode="[" horiz-adv-x="702" d="M90 -414l393 1852q12 55 37 76.5t82 21.5h277q98 0 84 -74q-16 -74 -115 -73h-109l-372 -1754h108q98 0 84 -73q-16 -74 -115 -74h-276q-59 0 -74.5 22.5t-3.5 75.5z" />
<glyph unicode="\" horiz-adv-x="1177" d="M444 1473q6 29 29 46t45 17q20 0 31.5 -9t15.5 -20.5t8 -31.5l373 -1883q4 -33 2 -41q-6 -29 -28.5 -46t-45.5 -17q-20 0 -32.5 10t-15.5 20.5t-7 30.5l-370 1883q-7 27 -5 41z" />
<glyph unicode="]" horiz-adv-x="702" d="M-43 -438q14 74 113 73h108l373 1754h-109q-23 0 -38 2t-33.5 20.5t-10.5 50.5q14 74 113 74h277q59 0 74.5 -22.5t2.5 -75.5l-393 -1852q-10 -55 -35.5 -76.5t-83.5 -21.5h-276q-23 0 -38 2t-33.5 20.5t-10.5 51.5z" />
<glyph unicode="^" horiz-adv-x="1138" d="M244 1196l649 328l510 -328l-35 -45l-502 252l-610 -252z" />
<glyph unicode="_" horiz-adv-x="1501" d="M-84 -395l59 278h1502l-60 -278h-1501z" />
<glyph unicode="`" d="M541 1395q6 27 61 26h168q29 0 37 -3t18 -21l125 -240l13 -31q-6 -27 -62 -26h-76l-268 264q-20 17 -16 31z" />
<glyph unicode="a" horiz-adv-x="1075" d="M121 272q18 84 90 146.5t151.5 91.5t184 46t154 19.5t94.5 2.5l14 71q11 45 11 80t-11 59q-23 49 -102 50q-188 0 -347 -138q-16 -12 -26 -12q-25 0 -21 23q0 35 17 149q4 16 15 24.5t48 22.5q170 66 350 66q355 0 355 -238q0 -20 -2 -43l-9 -45l-116 -549 q-10 -55 -36 -76.5t-83 -21.5h-76q-59 0 -75 23q-9 13 -8 34q0 18 5 41l9 41q-143 -162 -353 -162q-129 0 -193 91q-47 65 -47 143q0 29 7 61zM389 276q-4 -18 -3 -34q0 -40 21 -72q30 -45 91 -45q14 0 36.5 4t68.5 18.5t84 58.5t52 109l37 179l-59 -5q-29 -2 -87.5 -15 t-103.5 -34.5t-85 -64t-52 -99.5z" />
<glyph unicode="b" horiz-adv-x="1148" d="M145 98l261 1225q12 55 38.5 76.5t81.5 21.5h76q59 0 74 -22q8 -12 8 -33q0 -18 -6 -43l-100 -477q20 18 54 39.5t108.5 48.5t150.5 27q302 0 302 -304q0 -81 -22 -184q-8 -37 -14 -60.5t-26.5 -81t-44 -97t-66.5 -92t-95.5 -85t-128 -56.5t-165.5 -24q-137 0 -211 103 q-18 -80 -115 -80h-82q-55 0 -71 22q-10 13 -11 39q0 16 4 37zM446 205q45 -80 144 -80q66 0 117 23.5t79.5 52t52 85t32 89.5t22.5 96q10 51 15 80t11 76q2 18 1 33q0 24 -5 41q-8 28 -23 56.5t-50 42t-84 13.5q-106 0 -197 -72z" />
<glyph unicode="c" horiz-adv-x="1001" d="M176 471q106 502 602 502q100 0 158.5 -14.5t130.5 -51.5q18 -10 25.5 -15t12.5 -12q4 -5 4 -11t-27 -73l-29 -73q-12 -27 -33 -27q-12 0 -31 23q-51 51 -100 72.5t-144 21.5q-74 0 -127 -26.5t-83.5 -83t-46 -102.5t-33.5 -126l-14.5 -72.5t-8.5 -71.5q-1 -18 -1 -32 q0 -26 4 -43q7 -27 23.5 -58.5t51.5 -46t86 -14.5q170 0 324 115q25 20 36 20q20 0 21 -26q-6 -74 -19 -144q-2 -14 -12 -22t-59 -31q-156 -72 -330 -72q-399 0 -399 335q0 72 18 159z" />
<glyph unicode="d" horiz-adv-x="1148" d="M174 467q111 494 522 494q150 0 236 -103l98 465q12 55 38 76.5t83 21.5h76q59 0 73 -22q8 -12 8 -33q0 -18 -5 -43l-261 -1225q-10 -55 -35.5 -76.5t-82.5 -21.5h-82q-53 0 -72 20q-11 12 -11 38q0 17 5 38q-137 -119 -287 -119q-322 0 -322 318q0 77 19 172zM429 311 q-2 -20 -2 -37q0 -23 4 -37q7 -26 22.5 -55.5t50.5 -43t84 -13.5q63 0 131 37q33 20 49 35.5t21.5 25.5t9.5 33l104 494q-55 63 -147 63q-66 0 -117 -23.5t-80 -52t-52.5 -84t-31.5 -89.5l-22 -97l-14.5 -81t-9.5 -75z" />
<glyph unicode="e" horiz-adv-x="1046" d="M166 477q49 238 200.5 367t393.5 129q221 0 300 -117q50 -74 50 -185q0 -63 -16 -139q-8 -43 -30 -65.5t-40 -25.5t-49 -3h-557q-8 -49 -10 -84q-1 -9 -1 -18q0 -28 5 -64q6 -47 26.5 -75.5t65.5 -50t110 -21.5q170 0 334 119q27 20 39 20q14 0 16.5 -9t0.5 -56 q-10 -84 -13 -90q-2 -16 -14 -25.5t-55 -28.5q-172 -78 -347 -78q-246 0 -354 126q-73 84 -73 224q0 68 18 150zM444 547h426q12 82 12.5 143.5t-37.5 98t-116 36.5q-211 1 -285 -278z" />
<glyph unicode="f" horiz-adv-x="688" d="M197 98l147 693q-33 0 -51.5 2t-36.5 19t-10 52q14 74 129 74l35 164q74 342 473 342q74 0 131 -12q49 -10 57 -20q4 -5 4 -16.5t-4 -29.5l-20 -94q-10 -53 -39 -53q-12 0 -25 20q-49 57 -135 57q-47 0 -79 -12t-48 -36.5t-22.5 -42t-12.5 -44.5l-49 -223h104 q86 0 86 -56q0 -8 -2 -18q-16 -74 -114 -73h-99l-147 -693q-10 -55 -35.5 -76.5t-83.5 -21.5h-76q-55 0 -71 22q-10 13 -10 39q0 16 4 37z" />
<glyph unicode="g" d="M23 -137q25 125 174 180q-26 49 -27 106q0 27 6 56q16 86 90 166q-56 61 -56 157q0 44 11 95q72 338 484 338q182 0 274 -72q133 72 260 72q27 0 31 -8q3 -5 2 -23v-23q0 -70 -2 -78q-4 -27 -33 -26q-10 0 -27 8q-78 23 -184 23q28 -51 28 -120q0 -43 -12 -93 q-72 -338 -483 -338q-164 0 -248 53l-10 -31q-2 -11 -2 -22q0 -36 25 -70q25 -25 127 -25h98h84q29 0 80 -2t78.5 -6t70.5 -12t66 -21l51 -28q29 -16 42 -40t25 -53q10 -27 10 -63q0 -41 -12 -94q-61 -291 -573 -291q-229 0 -338 55q-78 41 -101 106q-15 40 -15 78 q1 24 6 46zM233 -131q-2 -13 -2 -25q0 -20 7 -35q10 -26 36.5 -41.5t53 -24.5t66.5 -12t60.5 -4t51.5 -1q299 0 328 137q2 8 1 15q0 41 -49 63q-57 25 -184 24h-237q-33 0 -52.5 -3t-44.5 -25.5t-35 -67.5zM468 513q0 -37 27 -58q30 -25 97 -25q51 0 86 12.5t54.5 43 t29.5 58t20 79.5q10 57 14 99v8q0 37 -27 58q-30 25 -97 25q-51 0 -86 -12.5t-54.5 -43t-29.5 -58t-21 -78.5q-13 -77 -13 -108z" />
<glyph unicode="h" horiz-adv-x="1148" d="M143 98l260 1225q12 55 39 76.5t82 21.5h76q59 0 74 -22q8 -12 8 -33q0 -18 -6 -43l-119 -561h2q29 41 69 79t124 79t178 41q158 0 213 -69q35 -43 35 -121q0 -46 -13 -105l-121 -568q-10 -55 -35.5 -76.5t-82.5 -21.5h-82q-59 0 -75 23q-9 13 -9 34q0 18 6 41l121 564 q9 39 9 67.5t-9 46.5q-18 37 -88 37q-88 0 -171 -68.5t-110 -193.5l-96 -453q-10 -55 -36 -76.5t-83 -21.5h-82q-55 0 -71 22q-10 13 -11 39q0 16 4 37z" />
<glyph unicode="i" horiz-adv-x="524" d="M145 98l158 742q12 57 38 77.5t81 20.5h76q59 0 74 -23q9 -13 9 -34q0 -18 -6 -41l-157 -742q-10 -55 -36 -76.5t-83 -21.5h-76q-55 0 -71 22q-10 13 -11 39q0 16 4 37zM375 1241l8 39q10 55 35.5 76.5t83.5 21.5h104q59 0 75 -22q9 -13 8 -35q0 -18 -5 -41l-8 -39 q-12 -51 -36 -74.5t-83 -23.5h-104q-61 0 -75 23q-8 13 -8 36q1 17 5 39z" />
<glyph unicode="j" horiz-adv-x="585" d="M-178 -258q23 39 30 47t19 8q2 0 18 -8q49 -37 121 -37q43 0 73 12.5t45 36t21.5 41t12.5 43.5l203 955q12 55 36.5 76.5t81.5 21.5h76q59 0 75 -23q9 -13 8 -34q0 -18 -5 -41l-193 -906q-76 -354 -381 -354q-96 0 -190 34q-88 32 -88 59q0 8 37 69zM422 1241l8 39 q10 55 36 76.5t83 21.5h104q59 0 75 -22q9 -13 9 -35q0 -18 -6 -41l-8 -39q-12 -51 -35.5 -74.5t-83.5 -23.5h-104q-61 0 -75 23q-8 13 -8 36q1 17 5 39z" />
<glyph unicode="k" horiz-adv-x="1087" d="M162 98l260 1225q12 55 38.5 76.5t82.5 21.5h43q59 0 73 -22q8 -12 8 -33q0 -18 -5 -43l-150 -702l354 274q55 43 131 43h119q20 0 31.5 -1t22.5 -11q8 -8 9 -21q0 -5 -1 -10q-4 -18 -41 -45l-377 -293l256 -467q10 -16 12 -31v-14q-10 -45 -84 -45h-98q-45 0 -61.5 9 t-36.5 42l-193 348l-115 -88l-45 -213q-10 -55 -35.5 -76.5t-83.5 -21.5h-36q-55 0 -72 22q-10 13 -10 39q0 16 4 37z" />
<glyph unicode="l" horiz-adv-x="524" d="M145 98l261 1225q12 55 38.5 76.5t81.5 21.5h76q59 0 74 -22q8 -12 8 -33q0 -18 -6 -43l-260 -1225q-10 -55 -36 -76.5t-83 -21.5h-76q-55 0 -71 22q-10 13 -11 39q0 16 4 37z" />
<glyph unicode="m" horiz-adv-x="1775" d="M143 98l160 754q12 55 39 76.5t82 21.5h70q59 0 73 -22q8 -12 8 -33q0 -18 -6 -43l-20 -102h2q55 84 149 143q106 68 232 68q45 0 78.5 -5.5t80 -23t69.5 -61.5q22 -41 22 -102v-11q154 203 374 203q158 0 213 -69q35 -43 35 -121q0 -46 -12 -105l-121 -568 q-10 -55 -35.5 -76.5t-83.5 -21.5h-82q-55 0 -71 22q-10 13 -10 39q0 16 4 37l120 564q9 41 9.5 70t-9.5 46q-18 35 -90 35q-86 0 -170 -67.5t-110 -194.5l-96 -453q-10 -55 -36 -76.5t-83 -21.5h-82q-55 0 -72 22q-10 13 -10 39q0 16 4 37l121 564q9 41 9 70t-9 46 q-18 35 -90 35q-86 0 -170 -67.5t-111 -194.5l-96 -453q-10 -55 -36 -76.5t-83 -21.5h-82q-55 0 -71 22q-10 13 -11 39q0 16 4 37z" />
<glyph unicode="n" horiz-adv-x="1148" d="M143 98l160 754q12 55 39 76.5t82 21.5h70q59 0 73 -22q8 -12 8 -33q0 -18 -6 -43l-20 -102h2q31 43 68.5 81.5t124.5 84t186 45.5q158 0 213 -69q35 -43 35 -121q0 -46 -13 -105l-121 -568q-10 -55 -35.5 -76.5t-82.5 -21.5h-82q-59 0 -75 23q-9 13 -9 34q0 18 6 41 l121 564q9 39 9 67.5t-9 46.5q-18 37 -88 37q-88 0 -171 -68.5t-110 -193.5l-96 -453q-10 -55 -36 -76.5t-83 -21.5h-82q-55 0 -71 22q-10 13 -11 39q0 16 4 37z" />
<glyph unicode="o" d="M162 461q109 512 608 512q409 0 409 -345q0 -75 -20 -167q-102 -483 -602 -484q-413 0 -413 331q0 69 18 153zM418 324l-2 -31q0 -28 6 -45q8 -27 25.5 -55.5t54.5 -42t90 -13.5q78 0 132 29t86 88t45 105.5t30 125.5q14 63 20 98t6 88.5t-16 82t-55 50t-102.5 21.5 t-111.5 -22.5t-76 -50t-51.5 -82t-31.5 -87t-23 -98.5q-12 -55 -17 -83.5t-9 -77.5z" />
<glyph unicode="p" horiz-adv-x="1148" d="M61 -299l242 1139q12 57 38 77.5t81 20.5h76q53 0 71 -20q11 -12 11 -38q0 -17 -5 -38q154 119 330 119q88 0 149.5 -28t89 -78t42.5 -99q11 -36 10 -81q0 -16 -1 -33q-5 -65 -10 -97.5t-14 -71.5q-12 -55 -22 -94t-51 -122t-94.5 -137t-150.5 -98.5t-220 -44.5 q-141 0 -213 103l-80 -379q-10 -55 -35.5 -76.5t-83.5 -21.5h-82q-57 0 -73 21q-9 12 -10 36q0 17 5 41zM452 200q5 -15 35 -40q39 -35 101 -35q227 0 305 344q17 81 16 142q0 189 -157 190q-104 0 -193 -68l-104 -491q-5 -16 -5 -29q0 -7 2 -13z" />
<glyph unicode="q" horiz-adv-x="1148" d="M174 467q12 61 30.5 115.5t59.5 128t95.5 125t145.5 88.5t204 37q156 0 215 -138l8 39q12 55 37.5 77t83.5 22h75q59 0 74 -23q8 -12 8 -33q0 -18 -6 -43l-246 -1161q-10 -55 -35.5 -76.5t-82.5 -21.5h-82q-59 0 -75 22q-9 13 -9 35q0 18 6 41l84 397 q-131 -121 -279 -121q-331 0 -331 317q0 77 20 173zM453 465q-18 -86 -18 -150q0 -190 155 -190q106 0 209 111l88 405q2 13 2 25q0 48 -33 88q-35 47 -102 47q-225 0 -301 -336z" />
<glyph unicode="r" horiz-adv-x="761" d="M145 98l160 754q12 55 39 76.5t82 21.5h66q59 0 73 -22q8 -12 8 -33q0 -18 -6 -43l-26 -133h2q51 78 106.5 130t104.5 74.5t81.5 30t61.5 7.5q25 0 29 -13q1 -4 1 -10q0 -12 -5 -33l-21 -96q-8 -39 -16 -46t-37 -9q-115 -8 -218.5 -79t-131.5 -204l-80 -373 q-10 -55 -36 -76.5t-83 -21.5h-76q-55 0 -71 22q-10 13 -11 39q0 16 4 37z" />
<glyph unicode="s" horiz-adv-x="864" d="M116 184q30 74 31 80q16 31 35 31q12 0 25 -16q88 -141 270 -142q162 0 185 111q6 31 -4.5 54.5t-38 35.5t-47 17t-50.5 12q-72 14 -104.5 22t-73.5 28.5t-68 51.5q-62 68 -61 154q0 28 6 57q61 293 428 293q113 0 195 -25q14 -6 41.5 -14t53.5 -25q22 -14 22 -26v-4 q0 -4 -12.5 -35t-26 -68t-15.5 -39q-14 -27 -33 -26q-12 0 -28 20q-92 96 -244 96q-147 0 -170 -100q-2 -10 -2 -18q0 -25 17 -43q24 -25 56 -34t99 -22q55 -10 82 -17t65.5 -28.5t71.5 -56.5q59 -66 59 -154q0 -31 -8 -65q-66 -311 -428 -312q-119 0 -225 35l-72 33 q-64 28 -64 50q1 9 33 89z" />
<glyph unicode="t" horiz-adv-x="827" d="M225 864q14 74 113 74h47l37 170q12 57 37.5 77.5t81.5 20.5h63q59 0 75 -22q9 -13 8 -35q0 -18 -5 -41l-37 -170h182q86 0 86 -56q0 -8 -2 -18q-16 -74 -114 -73h-183l-102 -484q-11 -64 -11 -100q0 -23 4 -36q11 -34 50 -34q78 0 178 62q16 14 27 14q20 0 22 -53 q2 -61 2 -64q-8 -41 -172 -86q-113 -33 -221 -33q-167 0 -167 179q0 51 14 116l110 519h-41q-23 0 -38 2t-33 20q-13 13 -13 32q-1 9 2 19z" />
<glyph unicode="u" horiz-adv-x="1148" d="M178 258l123 582q12 57 38 77.5t81 20.5h82q59 0 75 -23q9 -13 8 -34q0 -18 -5 -41l-127 -600q-11 -44 -11 -73q0 -24 8 -37q17 -28 101 -28q104 0 176 72t94 180l103 486q12 55 36.5 76.5t81.5 21.5h82q59 0 75 -23q9 -13 9 -34q0 -18 -6 -41l-158 -742 q-10 -55 -35.5 -76.5t-82.5 -21.5h-76q-59 0 -75 23q-9 13 -8 34q0 18 5 41l12 54q-133 -174 -333 -175q-170 0 -238 62q-46 41 -46 126q0 42 11 93z" />
<glyph unicode="v" horiz-adv-x="1024" d="M240 881q12 57 94 57h49q45 0 70.5 -14.5t30.5 -29.5t8 -44l71 -619l334 619q25 47 54.5 67.5t90.5 20.5h43q23 0 36.5 -2t26.5 -15q9 -9 9 -25q0 -7 -2 -15q0 -6 -18 -39l-404 -756q-47 -86 -147 -86h-150q-100 0 -110 86l-84 756q-2 14 -2 39z" />
<glyph unicode="w" horiz-adv-x="1523" d="M236 881q8 27 26.5 40t32.5 15t41 2h41q61 0 82.5 -19.5t25.5 -72.5l41 -580l176 358q123 251 136 267q39 47 116 47q33 0 54.5 -7t31 -23.5t12.5 -28t5 -33.5l43 -615l293 594q37 78 66.5 95.5t105.5 17.5q31 0 44 -1t28.5 -6t19.5 -18q3 -8 3 -20q0 -6 -1 -12 l-385 -787q-27 -55 -56.5 -74.5t-93.5 -19.5h-139q-37 0 -59.5 6t-32.5 23.5t-13 33t-6 50.5q-19 311 -19 452q0 55 3 84l-2 -2q-25 -82 -242 -534q-33 -68 -62.5 -90.5t-96.5 -22.5h-58q-35 0 -52 3t-36.5 25.5t-21.5 65.5z" />
<glyph unicode="x" horiz-adv-x="1024" d="M59 45q2 18 29 41l408 399l-230 369q-16 23 -12 39q8 45 80 45h90q39 0 58.5 -7t37.5 -38l129 -221q217 227 228 235q35 31 96 31h88q23 0 34 -1t22 -12q8 -8 8 -22q0 -5 -1 -10q-4 -18 -30 -43l-375 -365l248 -397q16 -29 14 -43q-10 -45 -82 -45h-90q-27 0 -39 1 t-25.5 10t-23.5 30l-146 295l-231 -262q-45 -51 -64.5 -62.5t-68.5 -11.5h-88q-20 0 -32.5 1t-23.5 12q-8 8 -9 22q0 5 1 10z" />
<glyph unicode="y" horiz-adv-x="1024" d="M8 -386q0 16 6 74q8 73 13 87q6 31 32 30q8 0 19 -8q55 -43 127 -43q51 0 94 29t63.5 56.5t47.5 74.5q14 29 47 86l-207 852q-4 23 -2 33q10 53 90 53h53q74 0 95.5 -27.5t45.5 -132.5q79 -344 80 -460q0 -16 -2 -27h2q25 86 158 330.5t152 269.5q41 47 118 47h45 q14 0 24.5 -1t25 -5t20.5 -18q4 -8 4 -17q0 -7 -2 -14q-2 -12 -20 -41l-539 -971q-16 -31 -46 -69t-84 -93t-135 -92t-169 -37q-156 0 -156 34z" />
<glyph unicode="z" horiz-adv-x="974" d="M80 44q-4 8 -4 17q0 11 6 25q6 37 39 70l635 632h-76l-299 -4q-39 0 -58.5 2t-37 20.5t-9.5 53.5q16 78 115 78h606q14 0 23.5 -1t26 -5t20.5 -12l12 -26q4 -8 4 -17q0 -11 -6 -25q-6 -37 -39 -70l-632 -632h94l313 4q41 0 60.5 -3.5t37 -20.5t9.5 -54q-16 -76 -115 -76 h-643q-14 0 -23.5 1t-26 5t-20.5 12z" />
<glyph unicode="{" horiz-adv-x="1177" d="M268 512q4 16 12.5 24.5t15.5 9.5t26 3q127 6 219 76q55 41 73.5 80.5t42.5 148.5l88 422q29 119 172.5 189.5t360.5 70.5q20 0 29.5 -1t17.5 -4t10 -10.5t0 -21.5q-4 -16 -12 -24.5t-15.5 -9.5t-25.5 -3q-113 -6 -201 -57q-96 -61 -114 -164l-93 -430q-8 -37 -14 -60.5 t-27.5 -64.5t-51 -68.5t-85 -57.5t-129.5 -48q115 -33 161 -98.5t32 -139.5l-103 -485q-10 -45 -8 -72q16 -141 240 -155q33 -2 26 -37q-6 -25 -19 -31t-52 -6q-53 0 -102.5 4t-118 21.5t-114.5 46t-72.5 84t-10.5 129.5l92 430q16 76 17 96q-2 66 -58.5 118t-181.5 58 q-35 4 -27 37z" />
<glyph unicode="|" horiz-adv-x="653" d="M174 -422l397 1868q18 90 82 90q61 0 43 -90l-397 -1868q-18 -90 -82 -90q-61 0 -43 90z" />
<glyph unicode="}" horiz-adv-x="1177" d="M59 -475q2 16 10.5 24.5t15.5 9.5t28 3q113 6 206 61q92 61 109 160l92 430q10 51 21.5 80t42 77t91 83.5t152.5 58.5q-117 35 -161.5 99.5t-30.5 138.5l102 485q10 43 11 72q-14 143 -242 155q-35 2 -27 37q4 25 18.5 31t51.5 6q78 0 146.5 -10t144 -37t111.5 -88.5 t18 -149.5l-92 -430q-16 -82 -15 -100q8 -82 70.5 -125t165.5 -47q35 -2 26 -37q-2 -16 -10 -24.5t-15 -9.5t-28 -3q-135 -8 -213 -74q-59 -45 -78.5 -85t-40.5 -146l-90 -422q-27 -115 -168 -187.5t-366 -72.5q-27 0 -37 1t-16.5 9.5t-2.5 26.5z" />
<glyph unicode="~" horiz-adv-x="1138" d="M92 430l129 90q49 35 131 72q92 37 158 37q88 0 190 -70q43 -29 63.5 -40t57.5 -23.5t76 -12.5q141 0 344 146l23 -35l-131 -90q-49 -35 -132 -72q-88 -37 -157 -37q-84 0 -191 70q-113 76 -196 76q-139 0 -344 -146z" />
<glyph unicode="&#xa0;" />
<glyph unicode="&#xa1;" horiz-adv-x="751" d="M166 -354q18 84 57 241l53 219l113 459q8 41 18.5 49.5t51.5 8.5h100q23 0 31 -1t13 -5.5t5 -14.5q2 -8 -30.5 -187t-42.5 -218q-12 -63 -45 -255t-56 -296q-6 -31 -16 -37t-47 -6h-158q-37 0 -45 6t-2 37zM424 854l14 72q12 57 38 77.5t81 20.5h72q59 0 74.5 -22.5 t3.5 -75.5l-15 -72q-12 -55 -37.5 -76.5t-83.5 -21.5h-71q-59 0 -73.5 22.5t-2.5 75.5z" />
<glyph unicode="&#xa2;" horiz-adv-x="1001" d="M176 471q92 434 477 494l29 129q2 20 20.5 34.5t38.5 14.5h107q45 0 39 -49l-27 -123q98 -8 207 -64q18 -10 25.5 -15t12.5 -12.5t3 -15.5t-25.5 -68.5t-29.5 -72.5q-12 -27 -33 -27q-12 0 -31 23q-80 78 -164 90l-141 -664q121 20 236 107q25 20 36 20q20 0 21 -26 q-6 -74 -19 -144q-2 -14 -12 -22t-59 -31q-109 -51 -238 -67l-28 -138q-4 -20 -21.5 -34.5t-38.5 -14.5h-106q-20 0 -31.5 14.5t-7.5 34.5l30 142q-362 53 -270 485zM434 360q-6 -41 3 -102t46 -90l131 614q-47 -27 -80.5 -81t-48 -102t-30.5 -124q-15 -74 -21 -115z" />
<glyph unicode="&#xa3;" horiz-adv-x="1501" d="M170 94q12 55 59 96q176 152 277 369l22 49h-176q-31 0 -47 21.5t-10 52.5l12 57q6 31 32 52.5t56 21.5h199l39 137q55 195 189 333t296 138q174 0 247 -154.5t30 -365.5q-12 -57 -62.5 -98t-108 -41t-89 41t-19.5 98q25 86 16.5 164t-73.5 78q-33 0 -57.5 -17.5 t-44 -55.5t-28.5 -64l-26 -78l-31 -115h127q31 0 48.5 -21.5t11.5 -52.5l-12 -57q-6 -31 -33 -52.5t-58 -21.5h-145q-25 -68 -49 -119q-51 -104 -107 -188q92 -12 232 -45q86 -23 149 -23q35 0 66 24t39 56q10 57 60 98.5t107.5 41.5t89.5 -41t21 -99q-33 -150 -162 -254 t-280 -104q-98 0 -211 31q-94 23 -145.5 33t-125 9t-106.5 -30q-49 -43 -110 -43q-57 0 -89 41t-20 98z" />
<glyph unicode="&#xa4;" horiz-adv-x="1753" d="M340 -18q-45 59 45 137l111 90q-70 137 -33 303q37 172 162 303l-72 92q-55 78 12 137q27 20 51.5 24.5t40 -4.5t28.5 -19.5t17 -16.5l70 -90q158 96 324 96q170 0 282 -96l107 88q102 72 143 16q45 -59 -45 -137l-108 -90q70 -135 32 -303q-37 -166 -159 -303l69 -90 q63 -74 -14 -137q-25 -20 -49.5 -25.5t-42 4.5t-26.5 19.5t-15 17.5l-72 90q-158 -98 -323.5 -98t-284.5 96l-107 -88q-6 -6 -23.5 -16.5t-37 -19.5t-43 -4.5t-39.5 24.5zM635 512q-31 -145 50 -247.5t226.5 -102.5t269.5 102.5t154.5 247.5t-50.5 247.5t-226.5 102.5 t-269 -102.5t-154.5 -247.5z" />
<glyph unicode="&#xa5;" horiz-adv-x="1501" d="M319 330l13 57q6 31 32.5 52.5t57.5 21.5h278l23 108l-10 21h-264q-31 0 -47.5 21.5t-10.5 52.5l12 57q6 29 32 51.5t57 22.5h120l-262 538q-12 25 -8 41q10 47 84 47h135q57 0 90 -17.5t58 -66.5l159 -331q55 -113 76 -181q49 72 195 232l260 286q74 78 180 78h100 q20 0 32.5 -1t24 -12t7.5 -34q-6 -20 -29 -43l-489 -536h121q31 0 48 -22.5t11 -51.5l-12 -57q-6 -31 -33 -52.5t-57 -21.5h-265l-20 -23l-23 -106h281q31 0 47 -21.5t10 -52.5l-12 -57q-6 -31 -31.5 -52.5t-56.5 -21.5h-281l-34 -160q-12 -55 -38 -75.5t-81 -20.5h-99 q-55 0 -71.5 21.5t-5.5 76.5l34 158h-278q-31 0 -48.5 21.5t-11.5 52.5z" />
<glyph unicode="&#xa6;" horiz-adv-x="653" d="M174 -422l160 748q8 41 30.5 71.5t53.5 30.5t40 -30.5t1 -71.5l-160 -748q-18 -90 -82 -90q-61 0 -43 90zM412 698l159 748q18 90 82 90q61 0 43 -90l-159 -748q-8 -41 -30 -71.5t-52.5 -30.5t-40.5 30.5t-2 71.5z" />
<glyph unicode="&#xa7;" horiz-adv-x="1159" d="M92 -49h279q-12 -61 40 -95t132 -34t146.5 33.5t78.5 95.5q6 33 -33 63.5t-106 63.5l-187 96q-127 66 -195.5 178.5t-39.5 249.5q33 152 151 283q-49 86 -28 188q35 168 199.5 273.5t359 105.5t312.5 -105.5t83 -273.5h-278q14 61 -37 95t-133 34q-80 0 -146.5 -33.5 t-81.5 -95.5q-6 -33 33 -62.5t107 -64.5l186 -96q129 -66 196.5 -178.5t38.5 -249.5q-33 -152 -151 -283q49 -88 29 -188q-35 -168 -199 -273.5t-358.5 -105.5t-313.5 105.5t-84 273.5zM485 602q-18 -98 129 -176l187 -96l45 -27q33 59 45 119q12 57 -25 98t-104 78l-187 96 l-45 25q-27 -49 -45 -117z" />
<glyph unicode="&#xa8;" d="M444 1243l9 35q10 49 32.5 68.5t73.5 19.5h94q53 0 66.5 -19.5t3.5 -68.5l-8 -35q-10 -47 -31.5 -67.5t-75.5 -20.5h-94q-53 0 -66.5 21.5t-3.5 66.5zM940 1243l8 35q10 49 33 68.5t74 19.5h94q53 0 66.5 -19.5t3.5 -68.5l-9 -35q-10 -47 -31.5 -67.5t-74.5 -20.5h-94 q-53 0 -66.5 21.5t-3.5 66.5z" />
<glyph unicode="&#xa9;" horiz-adv-x="1421" d="M151.5 711q63.5 295 315.5 502.5t547 207.5t458.5 -207.5t100 -502.5t-315 -503t-546.5 -208t-459 208t-100.5 503zM303 710.5q-49 -231.5 80 -395t360.5 -163.5t430 163.5t247.5 395t-80 395.5t-360 164t-430 -164t-248 -395.5zM512 711q80 389 471 389q102 0 180 -29 q20 -8 24.5 -11t2.5 -9q0 -2 -2 -6.5t-2 -8.5l-37 -92q-6 -18 -19 -18q-6 0 -12 8q-61 61 -160 61q-233 0 -290 -284q-61 -283 174 -283q106 0 200 57q16 12 25 13q12 0 8 -19q-10 -78 -12 -82q-2 -10 -6 -13t-29 -15q-100 -47 -211 -47q-389 0 -305 389z" />
<glyph unicode="&#xaa;" horiz-adv-x="851" d="M260 977q12 59 70.5 102t125 63.5t153.5 33t128 13.5t80 1l12 51q14 66 -6 98.5t-88 32.5q-158 0 -286 -96q-12 -8 -21 -8q-20 0 -20 16q2 6 6 53t4 52q4 16 53 32q137 45 291 45q41 0 70.5 -1t84 -13t87 -33.5t53 -68.5t6.5 -111l-82 -383q-8 -39 -28.5 -54.5 t-69.5 -15.5h-64q-49 0 -62.5 16.5t-4.5 53.5l6 29q-117 -115 -293 -115q-109 0 -165 63.5t-40 143.5zM291 637q6 31 41 51.5t78 20.5h335q41 0 67 -20.5t19 -51.5q-6 -29 -40.5 -50.5t-75.5 -21.5h-336q-43 0 -68.5 21.5t-19.5 50.5zM485 979q-10 -41 17.5 -73t79.5 -32 q12 0 30.5 3.5t57.5 13.5t69.5 41t40.5 76l27 125q-293 -13 -322 -154z" />
<glyph unicode="&#xab;" d="M262 500q-4 12 6 24l330 486q10 14 27 14h94q31 0 20 -33l-198 -479l-6 -479q0 -14 -10.5 -23.5t-22.5 -9.5h-94q-16 0 -21 14zM735 500q-2 12 6 24l330 486q10 14 27 14h94q31 0 20 -33l-198 -479l-6 -479q0 -14 -10.5 -23.5t-22.5 -9.5h-94q-16 0 -21 14z" />
<glyph unicode="&#xac;" horiz-adv-x="1753" d="M285 748q6 35 37.5 60.5t66.5 25.5h1329q35 0 54.5 -26t13.5 -60l-100 -472q-8 -35 -39 -60.5t-66 -25.5t-55.5 26t-12.5 60l82 386h-1243q-35 0 -55 25.5t-12 60.5z" />
<glyph unicode="&#xad;" horiz-adv-x="751" d="M125 469q14 74 113 74h403q98 0 84 -74q-16 -74 -115 -74h-403q-23 0 -38 2t-33.5 20.5t-10.5 51.5z" />
<glyph unicode="&#xae;" horiz-adv-x="1421" d="M151.5 711q63.5 295 315.5 502.5t547 207.5t458.5 -207.5t100 -502.5t-315 -503t-546.5 -208t-459 208t-100.5 503zM303 710.5q-49 -231.5 80 -395t360.5 -163.5t430 163.5t247.5 395t-80 395.5t-360 164t-430 -164t-248 -395.5zM528 395l134 631q14 51 63 51h254 q27 0 48.5 -1t65.5 -12t70.5 -30.5t43 -62.5t3.5 -101q-31 -147 -206 -188l114 -305q-6 -33 -45 -33h-61q-35 0 -47 27l-107 303h-117l-59 -279q-6 -29 -19.5 -40t-41.5 -11h-52q-29 0 -38 11t-3 40zM758 750h137q88 0 123 31.5t45 86.5q12 59 -11.5 89t-107.5 30h-137z" />
<glyph unicode="&#xaf;" d="M417 1181q-5 7 3 48l12 63q10 41 19.5 48.5t48.5 7.5h702q41 0 46 -8.5t-3 -47.5l-12 -63q-10 -41 -19.5 -48t-48.5 -7h-702q-41 0 -46 7z" />
<glyph unicode="&#xb0;" horiz-adv-x="845" d="M344 1110q27 129 139.5 220t241.5 91q131 0 202.5 -91t43.5 -220q-29 -131 -138.5 -222t-240.5 -91q-129 0 -202 91t-46 222zM516 1110q-12 -57 20.5 -99t92.5 -42q57 0 107 41t63 100q12 57 -19.5 98t-91 41t-110 -41t-62.5 -98z" />
<glyph unicode="&#xb1;" horiz-adv-x="1753" d="M143 86q18 86 127 86h557l97 453h-557q-20 0 -38 2t-39.5 23.5t-13.5 60.5q18 86 127 86h558l108 516q23 109 111 108q84 0 61 -108l-108 -516h555q20 0 37.5 -2t39 -23.5t13.5 -60.5q-18 -86 -127 -86h-555l-97 -453h555q20 0 38 -2t39.5 -23.5t13.5 -60.5 q-18 -86 -127 -86h-1285q-20 0 -37.5 2t-39 23.5t-13.5 60.5z" />
<glyph unicode="&#xb2;" horiz-adv-x="796" d="M219 647l2 8q4 23 23 37l334 250q174 131 196 240q14 63 -17.5 112t-111.5 49q-127 0 -203 -135q-10 -25 -24.5 -24.5t-20.5 16.5l-57 78q47 90 137 135q90 53 215 53q158 0 236 -81.5t53 -200.5q-10 -51 -48 -98.5t-71 -73t-96 -68.5q-12 -10 -57 -36.5t-56 -35.5 l-229 -153h240l100 2q78 0 86 -6q31 -10 20 -53l-4 -15q-6 -33 -24.5 -46t-59.5 -13h-506q-41 0 -53 13t-4 46z" />
<glyph unicode="&#xb3;" horiz-adv-x="808" d="M211 676l37 84q0 14 20 14q6 0 19 -12q90 -86 237 -86q90 0 126 43t52 121q23 70 0.5 117t-114.5 47h-66q-29 0 -33 5t3 27l4 23q6 27 16 31l51 6q80 4 123 39q57 47 74 122q10 51 -6.5 76t-81.5 25q-123 0 -217 -90q-16 -12 -25 -13l-12 7q-4 4 -6 8l-31 49l-6 18 q2 6 24.5 24.5t62.5 43.5t105.5 43t134.5 18q49 0 90.5 -6t91.5 -24.5t72.5 -64.5t8.5 -116q-27 -133 -203 -204q193 -43 158 -213q-59 -276 -414 -277q-86 0 -160 25.5t-105.5 52.5t-29.5 37z" />
<glyph unicode="&#xb4;" d="M643 1126l25 31l227 240q16 16 26.5 20t41.5 4h167q20 0 29.5 -1t16 -7t4.5 -18q-4 -10 -29 -31l-383 -264h-76q-20 0 -29.5 1t-15.5 7t-4 18z" />
<glyph unicode="&#xb5;" horiz-adv-x="1148" d="M59 -295l242 1131q12 61 38 81.5t85 20.5h74q61 0 77.5 -21.5t4.5 -80.5l-125 -590q-23 -84 -6.5 -114t102.5 -30q100 0 173 70t97 188l103 476q12 61 37.5 81.5t85.5 20.5h73q61 0 77.5 -21.5t4.5 -80.5l-155 -734q-14 -61 -40 -81.5t-85 -20.5h-68q-18 0 -27.5 1t-27 5 t-20.5 13.5t-11 26.5t2 44q-139 -113 -317 -113q-29 0 -56 3l-59 -275q-12 -61 -38 -81.5t-85 -20.5h-74q-61 0 -77.5 21.5t-4.5 80.5z" />
<glyph unicode="&#xb6;" horiz-adv-x="1439" d="M330 936q45 209 248.5 347t443.5 138h561q25 0 40 -2t29.5 -17.5t8.5 -43.5q-12 -61 -105 -62h-104l-342 -1603q-18 -90 -82 -90q-61 0 -43 90l342 1603h-164l-342 -1603q-18 -90 -82 -90q-61 0 -43 90l162 758q-281 16 -426 148t-102 337z" />
<glyph unicode="&#xb7;" horiz-adv-x="1753" d="M873.5 586q-5.5 8 3.5 47l32 158q10 41 19.5 48t48.5 7h158q41 0 46 -7.5t-3 -47.5l-33 -158q-10 -41 -19.5 -48t-48.5 -7h-157q-41 0 -46.5 8z" />
<glyph unicode="&#xb8;" horiz-adv-x="1001" d="M221 -375q0 2 2 8q0 6 50 65l111 130q60 72 69 80q29 31 39 37t43 6h36q47 0 50 -19q0 -2 -3 -8l-16 -33l-158 -247q-18 -27 -27 -32t-44 -5h-103q-47 0 -49 18z" />
<glyph unicode="&#xb9;" horiz-adv-x="808" d="M268 631q10 45 82 45h115l135 635q-72 -16 -143 -17q-70 0 -60 43q10 45 72 45q145 2 244 68q27 16 57 16q70 0 53 -57l-155 -733h102q14 0 26.5 -1t26 -12.5t8.5 -31.5q-8 -43 -79 -43h-420q-16 0 -28.5 1t-26 11.5t-9.5 30.5z" />
<glyph unicode="&#xba;" horiz-adv-x="944" d="M289 1108q76 358 495 358q418 0 342 -358q-72 -338 -491 -338q-418 0 -346 338zM291 637q6 31 41 51.5t78 20.5h428q43 0 67.5 -20.5t18.5 -51.5q-6 -29 -40 -50.5t-77 -21.5h-428q-43 0 -68.5 21.5t-19.5 50.5zM510 992q2 -38 16.5 -58.5t48 -35.5t87.5 -15 q66 0 109.5 19.5t68 62.5t35 72.5t22.5 88.5q10 47 13 69t2 60.5t-15 58t-48 35t-87 15.5q-66 0 -111 -19.5t-69.5 -60.5t-34.5 -71.5t-21 -86.5q-10 -45 -14 -70.5t-2 -63.5z" />
<glyph unicode="&#xbb;" d="M133 9q-6 9 0 24l197 479l6 479q0 14 10 23.5t23 9.5h94q16 0 20 -14l125 -486q2 -10 -4 -24l-332 -486q-10 -14 -26 -14h-94q-13 0 -19 9zM606 9q-6 9 0 24l197 479l6 479q0 14 10 23.5t23 9.5h94q16 0 20 -14l125 -486q2 -10 -4 -24l-332 -486q-10 -14 -26 -14h-94 q-13 0 -19 9z" />
<glyph unicode="&#xbc;" horiz-adv-x="1802" d="M268 631q10 45 82 45h115l135 635q-72 -16 -143 -17q-70 0 -60 43q10 45 72 45q145 2 244 68q27 16 57 16q70 0 53 -57l-155 -733h102q14 0 26.5 -1t26 -12.5t8.5 -31.5q-8 -43 -79 -43h-420q-16 0 -28.5 1t-26 11.5t-9.5 30.5zM464 1q-15 46 23 87l1186 1342 q37 37 80 36q53 0 67.5 -45t-24.5 -88l-1186 -1339q-33 -39 -80 -39q-51 0 -66 46zM1024 248l6 31q6 27 21 43l436 503q23 27 72 27h108q41 0 53.5 -12.5t3.5 -44.5l-104 -492h61q41 0 54.5 -12t7.5 -45q-8 -35 -26.5 -46.5t-57.5 -11.5h-62l-28 -129q-6 -33 -23.5 -46 t-58.5 -13h-43q-43 0 -53.5 14.5t-4.5 44.5l29 129h-332q-45 0 -56 13.5t-3 46.5zM1188 303h258l90 420q-33 -55 -348 -420z" />
<glyph unicode="&#xbd;" horiz-adv-x="2002" d="M268 631q10 45 82 45h115l135 635q-72 -16 -143 -17q-70 0 -60 43q10 45 72 45q145 2 244 68q27 16 57 16q70 0 53 -57l-155 -733h102q14 0 26.5 -1t26 -12.5t8.5 -31.5q-8 -43 -79 -43h-420q-16 0 -28.5 1t-26 11.5t-9.5 30.5zM474 1q-15 46 24 87l1185 1342 q37 37 80 36q53 0 67.5 -45t-24.5 -88l-1185 -1339q-33 -39 -80 -39q-52 0 -67 46zM1255 59l2 11q4 20 23 34l334 250q174 131 196 240q14 66 -16.5 115t-110.5 49q-127 0 -204 -137q-10 -23 -25 -23q-12 0 -20 14l-58 78q47 90 137 135q90 55 218 56q156 0 233.5 -83 t52.5 -200q-10 -51 -48 -99t-69.5 -73t-95.5 -70l-114 -71l-228 -154h238l100 2q78 0 86 -6q29 -10 21 -53l-4 -15q-6 -33 -23.5 -46t-60.5 -13h-506q-41 0 -53.5 13t-4.5 46z" />
<glyph unicode="&#xbe;" horiz-adv-x="1802" d="M279 676l36 84q8 14 21 14q6 0 18 -12q92 -86 238 -86q90 0 126 43t52 121q8 47 9 84t-29.5 58.5t-94.5 21.5h-65q-29 0 -33 5t2 27l4 23q6 27 17 31l51 6q80 4 125 39q55 47 71 122q10 51 -6 76t-82 25q-123 0 -217 -90q-12 -12 -24 -13l-13 7q-4 4 -6 8l-30 49l-7 18 q2 6 24.5 24.5t62.5 43.5t105.5 43t135.5 18q49 0 90 -6t91 -24.5t73 -64.5t8 -116q-27 -133 -203 -204q193 -43 158 -213q-59 -276 -414 -277q-86 0 -159.5 25.5t-105 52.5t-29.5 37zM464 1q-15 46 23 87l1186 1342q37 37 80 36q53 0 67.5 -45t-24.5 -88l-1186 -1339 q-33 -39 -80 -39q-51 0 -66 46zM1024 248l6 31q6 27 21 43l436 503q23 27 72 27h108q41 0 53.5 -12.5t3.5 -44.5l-104 -492h61q41 0 54.5 -12t7.5 -45q-8 -35 -26.5 -46.5t-57.5 -11.5h-62l-28 -129q-6 -33 -23.5 -46t-58.5 -13h-43q-43 0 -53.5 14.5t-4.5 44.5l29 129h-332 q-45 0 -56 13.5t-3 46.5zM1188 303h258l90 420q-33 -55 -348 -420z" />
<glyph unicode="&#xbf;" horiz-adv-x="1062" d="M92 -199q0 41 10 88q33 158 140 234q205 147 258 385l12 59q8 39 18.5 47.5t51.5 8.5h100q47 0 51 -17q0 -14 -14 -71q-25 -119 -77 -224.5t-196 -275.5q-31 -35 -43 -61.5t-24 -92.5q-23 -90 -11.5 -121.5t78.5 -31.5q186 0 363 141q14 8 22 8q16 0 23 -27q2 -6 2 -8 q23 -111 18 -133q-4 -14 -13 -20t-58 -27q-201 -82 -397 -82q-25 0 -45.5 1t-50 4t-53.5 9.5t-50.5 17.5t-46 26.5t-35.5 39t-24.5 53t-8.5 70.5zM547 854l14 72q12 57 38 77.5t81 20.5h72q59 0 74.5 -22.5t2.5 -75.5l-14 -72q-12 -55 -37.5 -76.5t-83.5 -21.5h-71 q-59 0 -73.5 22.5t-2.5 75.5z" />
<glyph unicode="&#xc0;" horiz-adv-x="1501" d="M98 55q4 16 19 41l694 1237q51 88 152 88h180q29 0 46 -3t38.5 -23.5t25.5 -61.5l170 -1237q4 -29 2 -41q-12 -55 -92 -55h-110q-47 0 -72 15.5t-31 35t-10 62.5l-29 196h-567l-127 -227q-47 -82 -147 -82h-74q-23 0 -35 2t-25.5 15t-7.5 38zM612 485h445l-72 576 q-6 47 -4 100h-2q-37 -84 -127 -241zM710.5 1794q10.5 18 37.5 18h329l213 -223q14 -18 3 -29.5t-36 -11.5h-137l-401 217q-19 11 -8.5 29z" />
<glyph unicode="&#xc1;" horiz-adv-x="1501" d="M98 55q4 16 19 41l694 1237q51 88 152 88h180q29 0 46 -3t38.5 -23.5t25.5 -61.5l170 -1237q4 -29 2 -41q-12 -55 -92 -55h-110q-47 0 -72 15.5t-31 35t-10 62.5l-29 196h-567l-127 -227q-47 -82 -147 -82h-74q-23 0 -35 2t-25.5 15t-7.5 38zM612 485h445l-72 576 q-6 47 -4 100h-2q-37 -84 -127 -241zM873.5 1559.5q-7.5 11.5 15.5 29.5l307 223h330q18 0 25.5 -9t3 -20t-20.5 -18l-492 -217h-137q-24 0 -31.5 11.5z" />
<glyph unicode="&#xc2;" horiz-adv-x="1501" d="M98 55q4 16 19 41l694 1237q51 88 152 88h180q29 0 46 -3t38.5 -23.5t25.5 -61.5l170 -1237q4 -29 2 -41q-12 -55 -92 -55h-110q-47 0 -72 15.5t-31 35t-10 62.5l-29 196h-567l-127 -227q-47 -82 -147 -82h-74q-23 0 -35 2t-25.5 15t-7.5 38zM612 485h445l-72 576 q-6 47 -4 100h-2q-37 -84 -127 -241zM719 1552.5q2 10.5 12 16.5l270 213q6 6 17 6h227q10 0 17 -6l176 -209q10 -10 -1.5 -27.5t-27.5 -17.5h-96l-8 2l-195 166l-264 -166l-12 -2h-97q-10 0 -15 7t-3 17.5z" />
<glyph unicode="&#xc3;" horiz-adv-x="1501" d="M98 55q4 16 19 41l694 1237q51 88 152 88h180q29 0 46 -3t38.5 -23.5t25.5 -61.5l170 -1237q4 -29 2 -41q-12 -55 -92 -55h-110q-47 0 -72 15.5t-31 35t-10 62.5l-29 196h-567l-127 -227q-47 -82 -147 -82h-74q-23 0 -35 2t-25.5 15t-7.5 38zM612 485h445l-72 576 q-6 47 -4 100h-2q-37 -84 -127 -241zM711 1563q16 84 94 158.5t180 74.5q94 0 184 -76q53 -45 88 -45q68 0 97 90q8 23 18 27t43 4h37q35 0 44 -5t5 -30q-18 -84 -97 -158.5t-179 -74.5q-88 0 -185 76q-49 45 -86 45q-68 0 -96 -90q-8 -23 -19.5 -27t-43.5 -4h-37 q-33 0 -43 5t-4 30z" />
<glyph unicode="&#xc4;" horiz-adv-x="1501" d="M98 55q4 16 19 41l694 1237q51 88 152 88h180q29 0 46 -3t38.5 -23.5t25.5 -61.5l170 -1237q4 -29 2 -41q-12 -55 -92 -55h-110q-47 0 -72 15.5t-31 35t-10 62.5l-29 196h-567l-127 -227q-47 -82 -147 -82h-74q-23 0 -35 2t-25.5 15t-7.5 38zM612 485h445l-72 576 q-6 47 -4 100h-2q-37 -84 -127 -241zM663 1569.5q-1 19.5 5 46.5l6 35q10 49 32.5 68.5t73.5 19.5h94q53 0 66.5 -19.5t3.5 -68.5l-6 -35q-10 -47 -31.5 -67.5t-77.5 -20.5h-94q-37 0 -54 11t-18 30.5zM1248 1569.5q-1 19.5 5 46.5l7 35q10 49 32.5 68.5t73.5 19.5h94 q53 0 66.5 -19.5t3.5 -68.5l-6 -35q-10 -47 -32 -67.5t-77 -20.5h-94q-37 0 -54.5 11t-18.5 30.5z" />
<glyph unicode="&#xc5;" horiz-adv-x="1501" d="M98 55q4 16 19 41l694 1237q51 88 152 88h180q29 0 46 -3t38.5 -23.5t25.5 -61.5l170 -1237q4 -29 2 -41q-12 -55 -92 -55h-110q-47 0 -72 15.5t-31 35t-10 62.5l-29 196h-567l-127 -227q-47 -82 -147 -82h-74q-23 0 -35 2t-25.5 15t-7.5 38zM612 485h445l-72 576 q-6 47 -4 100h-2q-37 -84 -127 -241zM836 1585q35 160 286 160q29 0 49.5 -1t60.5 -9.5t63.5 -24.5t39 -49t4.5 -80q-35 -160 -286 -160q-29 0 -49.5 1t-60.5 9.5t-63.5 25t-38.5 49t-5 79.5zM975 1583q-8 -43 16.5 -56.5t81.5 -13.5q61 0 90 12.5t37 57.5q10 43 -15.5 56.5 t-82.5 13.5q-61 0 -89 -12.5t-38 -57.5z" />
<glyph unicode="&#xc6;" horiz-adv-x="1939" d="M102 53q2 14 17 37l780 1245q31 51 64.5 68.5t89.5 17.5h964q59 0 73.5 -22.5t2.5 -75.5l-2 -16q-10 -47 -32.5 -70t-42 -26t-58.5 -3l-406 6h-51l-82 -383h408q55 0 72.5 -20t5.5 -76q-12 -57 -39 -76.5t-80 -19.5h-408l-88 -420h105q66 0 193.5 3t193.5 3q39 0 56 -3 t29.5 -25.5t2.5 -69.5l-6 -29q-10 -55 -36 -76.5t-83 -21.5h-703q-55 0 -71.5 21.5t-5.5 76.5l63 295h-436l-193 -305q-33 -55 -67.5 -71.5t-87.5 -16.5h-76q-20 0 -32.5 2t-26 14t-7.5 37zM700 569h365l137 648h-96z" />
<glyph unicode="&#xc7;" horiz-adv-x="1439" d="M276 711q158 756 914 755q197 0 350 -59q39 -14 47 -19.5t4 -19.5q-6 -18 -10 -27l-68 -178q-14 -37 -36 -37q-12 0 -27 15q-59 61 -128 91t-177 30q-121 0 -217.5 -41t-153.5 -96.5t-100 -138.5t-61.5 -142.5t-34.5 -132.5q-27 -119 -26 -212t32.5 -173t115.5 -123 t220 -43q127 0 204.5 24.5t180.5 89.5q33 23 45 23q23 0 18 -37q-2 -8 -6 -46t-9 -70.5t-7 -43.5q-4 -16 -13.5 -23t-54.5 -30q-113 -53 -197 -72.5t-211 -19.5q-756 0 -594 756zM479 -412q6 20 232 275q27 31 37 37t43 6h36q47 0 50 -19q0 -2 -3 -8l-16 -33l-158 -247 q-16 -27 -25 -32t-44 -5h-103q-20 0 -29.5 1t-15.5 7t-4 18z" />
<glyph unicode="&#xc8;" horiz-adv-x="1314" d="M207 98l260 1219q12 57 37.5 77.5t81.5 20.5h805q59 0 73.5 -22.5t3.5 -75.5l-4 -17q-14 -68 -43.5 -83t-95.5 -15l-481 6h-101l-79 -379h538q55 0 72.5 -20.5t5.5 -75.5q-12 -57 -39 -76.5t-80 -19.5h-538l-88 -420l299 4l317 4q43 0 61.5 -3t30.5 -25.5t2 -69.5l-6 -29 q-10 -55 -35.5 -76.5t-83.5 -21.5h-835q-55 0 -71.5 21.5t-6.5 76.5zM616.5 1794q10.5 18 36.5 18h330l213 -223q14 -18 3 -29.5t-36 -11.5h-137l-401 217q-19 11 -8.5 29z" />
<glyph unicode="&#xc9;" horiz-adv-x="1314" d="M207 98l260 1219q12 57 37.5 77.5t81.5 20.5h805q59 0 73.5 -22.5t3.5 -75.5l-4 -17q-14 -68 -43.5 -83t-95.5 -15l-481 6h-101l-79 -379h538q55 0 72.5 -20.5t5.5 -75.5q-12 -57 -39 -76.5t-80 -19.5h-538l-88 -420l299 4l317 4q43 0 61.5 -3t30.5 -25.5t2 -69.5l-6 -29 q-10 -55 -35.5 -76.5t-83.5 -21.5h-835q-55 0 -71.5 21.5t-6.5 76.5zM779 1559.5q-7 11.5 16 29.5l307 223h330q18 0 25 -9t3 -20t-20 -18l-492 -217h-137q-25 0 -32 11.5z" />
<glyph unicode="&#xca;" horiz-adv-x="1314" d="M207 98l260 1219q12 57 37.5 77.5t81.5 20.5h805q59 0 73.5 -22.5t3.5 -75.5l-4 -17q-14 -68 -43.5 -83t-95.5 -15l-481 6h-101l-79 -379h538q55 0 72.5 -20.5t5.5 -75.5q-12 -57 -39 -76.5t-80 -19.5h-538l-88 -420l299 4l317 4q43 0 61.5 -3t30.5 -25.5t2 -69.5l-6 -29 q-10 -55 -35.5 -76.5t-83.5 -21.5h-835q-55 0 -71.5 21.5t-6.5 76.5zM625 1552.5q2 10.5 12 16.5l270 213q6 6 17 6h227q10 0 16 -6l176 -209q10 -10 -1 -27.5t-27 -17.5h-96l-9 2l-194 166l-264 -166l-13 -2h-96q-10 0 -15 7t-3 17.5z" />
<glyph unicode="&#xcb;" horiz-adv-x="1314" d="M207 98l260 1219q12 57 37.5 77.5t81.5 20.5h805q59 0 73.5 -22.5t3.5 -75.5l-4 -17q-14 -68 -43.5 -83t-95.5 -15l-481 6h-101l-79 -379h538q55 0 72.5 -20.5t5.5 -75.5q-12 -57 -39 -76.5t-80 -19.5h-538l-88 -420l299 4l317 4q43 0 61.5 -3t30.5 -25.5t2 -69.5l-6 -29 q-10 -55 -35.5 -76.5t-83.5 -21.5h-835q-55 0 -71.5 21.5t-6.5 76.5zM568 1569.5q-1 19.5 5 46.5l7 35q10 49 32.5 68.5t73.5 19.5h94q53 0 66.5 -19.5t3.5 -68.5l-6 -35q-10 -47 -31.5 -67.5t-77.5 -20.5h-94q-37 0 -54.5 11t-18.5 30.5zM1154 1569.5q-1 19.5 5 46.5l6 35 q10 49 33 68.5t74 19.5h94q53 0 66.5 -19.5t3.5 -68.5l-6 -35q-10 -47 -32 -67.5t-77 -20.5h-94q-37 0 -54.5 11t-18.5 30.5z" />
<glyph unicode="&#xcc;" horiz-adv-x="677" d="M209 98l260 1225q12 55 39 76.5t82 21.5h104q59 0 73.5 -22.5t2.5 -75.5l-260 -1225q-10 -55 -35.5 -76.5t-83.5 -21.5h-104q-55 0 -71.5 21.5t-6.5 76.5zM235.5 1794q10.5 18 36.5 18h330l213 -223q14 -18 3 -29.5t-36 -11.5h-137l-401 217q-19 11 -8.5 29z" />
<glyph unicode="&#xcd;" horiz-adv-x="677" d="M209 98l260 1225q12 55 39 76.5t82 21.5h104q59 0 73.5 -22.5t2.5 -75.5l-260 -1225q-10 -55 -35.5 -76.5t-83.5 -21.5h-104q-55 0 -71.5 21.5t-6.5 76.5zM523 1559.5q-7 11.5 16 29.5l307 223h330q18 0 25 -9t3 -20t-20 -18l-492 -217h-137q-25 0 -32 11.5z" />
<glyph unicode="&#xce;" horiz-adv-x="677" d="M209 98l260 1225q12 55 39 76.5t82 21.5h104q59 0 73.5 -22.5t2.5 -75.5l-260 -1225q-10 -55 -35.5 -76.5t-83.5 -21.5h-104q-55 0 -71.5 21.5t-6.5 76.5zM305 1552.5q2 10.5 12 16.5l271 213q6 6 16 6h227q10 0 17 -6l176 -209q10 -10 -1 -27.5t-28 -17.5h-96l-8 2 l-195 166l-264 -166l-12 -2h-96q-10 0 -15.5 7t-3.5 17.5z" />
<glyph unicode="&#xcf;" horiz-adv-x="677" d="M209 98l260 1225q12 55 39 76.5t82 21.5h104q59 0 73.5 -22.5t2.5 -75.5l-260 -1225q-10 -55 -35.5 -76.5t-83.5 -21.5h-104q-55 0 -71.5 21.5t-6.5 76.5zM249 1569.5q-1 19.5 5 46.5l6 35q10 49 32.5 68.5t74.5 19.5h94q53 0 66.5 -19.5t2.5 -68.5l-6 -35 q-10 -47 -31.5 -67.5t-76.5 -20.5h-94q-37 0 -54.5 11t-18.5 30.5zM835 1569.5q-1 19.5 5 46.5l6 35q10 49 32.5 68.5t73.5 19.5h95q53 0 66 -19.5t3 -68.5l-6 -35q-10 -47 -31.5 -67.5t-77.5 -20.5h-94q-37 0 -54 11t-18 30.5z" />
<glyph unicode="&#xd0;" horiz-adv-x="1626" d="M193 682l12 57q6 31 31.5 52.5t56.5 21.5h65l109 510q12 55 38.5 76.5t82.5 21.5h540q358 0 486 -215q102 -176 35 -506q-70 -326 -269.5 -513t-554.5 -187h-540q-55 0 -71.5 21.5t-6.5 76.5l108 510h-65q-31 0 -47 21.5t-10 52.5zM518 176h264q125 0 222.5 34t153.5 82 t98 126t60.5 137t37.5 145q14 72 21 121t8 121t-19.5 119t-59 93t-114.5 68.5t-182 22.5h-263l-92 -432h119q31 0 48.5 -21.5t10.5 -52.5l-12 -57q-6 -31 -32.5 -52.5t-57.5 -21.5h-119z" />
<glyph unicode="&#xd1;" horiz-adv-x="1626" d="M207 98l260 1225q12 55 38.5 76.5t82.5 21.5h190q23 0 35 -2t32.5 -8t36 -24.5t23.5 -47.5l332 -1091h2l227 1075q12 55 38 76.5t83 21.5h55q59 0 74 -22.5t2 -75.5l-260 -1225q-10 -55 -35.5 -76.5t-83.5 -21.5h-190q-23 0 -35 2t-32.5 8t-36 24.5t-23.5 47.5l-332 1092 h-2l-229 -1076q-10 -55 -36 -76.5t-83 -21.5h-55q-55 0 -71.5 21.5t-6.5 76.5zM772 1563q16 84 94 158.5t181 74.5q94 0 184 -76q53 -45 88 -45q68 0 96 90q8 23 18.5 27t43.5 4h36q35 0 44.5 -5t5.5 -30q-18 -84 -97.5 -158.5t-179.5 -74.5q-88 0 -184 76q-49 45 -86 45 q-68 0 -96 -90q-8 -23 -19.5 -27t-44.5 -4h-37q-33 0 -43 5t-4 30z" />
<glyph unicode="&#xd2;" horiz-adv-x="1626" d="M274 700q164 766 850 766q684 0 525 -766q-160 -745 -848 -745q-687 0 -527 745zM544 412q3 -47 18.5 -108.5t48 -97.5t90 -61.5t137.5 -25.5t148.5 25.5t115.5 62.5t88 97.5t65.5 108.5t47 119.5t30.5 107.5l21 93q12 57 18 91t13.5 101.5t3 111.5t-20.5 100.5t-49 89.5 t-91.5 56.5t-138 23.5t-147.5 -23.5t-115 -57.5t-87 -90.5t-63.5 -100.5t-45 -111.5t-29.5 -100t-20 -90.5q-12 -59 -18.5 -94t-14.5 -107.5t-5 -119.5zM772 1794q10 18 37 18h330l213 -223q14 -18 2.5 -29.5t-35.5 -11.5h-137l-402 217q-18 11 -8 29z" />
<glyph unicode="&#xd3;" horiz-adv-x="1626" d="M274 700q164 766 850 766q684 0 525 -766q-160 -745 -848 -745q-687 0 -527 745zM544 412q3 -47 18.5 -108.5t48 -97.5t90 -61.5t137.5 -25.5t148.5 25.5t115.5 62.5t88 97.5t65.5 108.5t47 119.5t30.5 107.5l21 93q12 57 18 91t13.5 101.5t3 111.5t-20.5 100.5t-49 89.5 t-91.5 56.5t-138 23.5t-147.5 -23.5t-115 -57.5t-87 -90.5t-63.5 -100.5t-45 -111.5t-29.5 -100t-20 -90.5q-12 -59 -18.5 -94t-14.5 -107.5t-5 -119.5zM935 1559.5q-7 11.5 15 29.5l307 223h330q18 0 25.5 -9t3.5 -20t-21 -18l-491 -217h-137q-25 0 -32 11.5z" />
<glyph unicode="&#xd4;" horiz-adv-x="1626" d="M274 700q164 766 850 766q684 0 525 -766q-160 -745 -848 -745q-687 0 -527 745zM544 412q3 -47 18.5 -108.5t48 -97.5t90 -61.5t137.5 -25.5t148.5 25.5t115.5 62.5t88 97.5t65.5 108.5t47 119.5t30.5 107.5l21 93q12 57 18 91t13.5 101.5t3 111.5t-20.5 100.5t-49 89.5 t-91.5 56.5t-138 23.5t-147.5 -23.5t-115 -57.5t-87 -90.5t-63.5 -100.5t-45 -111.5t-29.5 -100t-20 -90.5q-12 -59 -18.5 -94t-14.5 -107.5t-5 -119.5zM780 1552.5q2 10.5 13 16.5l270 213q6 6 16 6h228q10 0 16 -6l176 -209q10 -10 -1 -27.5t-28 -17.5h-96l-8 2l-195 166 l-264 -166l-12 -2h-96q-10 0 -15.5 7t-3.5 17.5z" />
<glyph unicode="&#xd5;" horiz-adv-x="1626" d="M274 700q164 766 850 766q684 0 525 -766q-160 -745 -848 -745q-687 0 -527 745zM544 412q3 -47 18.5 -108.5t48 -97.5t90 -61.5t137.5 -25.5t148.5 25.5t115.5 62.5t88 97.5t65.5 108.5t47 119.5t30.5 107.5l21 93q12 57 18 91t13.5 101.5t3 111.5t-20.5 100.5t-49 89.5 t-91.5 56.5t-138 23.5t-147.5 -23.5t-115 -57.5t-87 -90.5t-63.5 -100.5t-45 -111.5t-29.5 -100t-20 -90.5q-12 -59 -18.5 -94t-14.5 -107.5t-5 -119.5zM772 1563q16 84 94 158.5t181 74.5q94 0 184 -76q53 -45 88 -45q68 0 96 90q8 23 18.5 27t43.5 4h36q35 0 44.5 -5 t5.5 -30q-18 -84 -97.5 -158.5t-179.5 -74.5q-88 0 -184 76q-49 45 -86 45q-68 0 -96 -90q-8 -23 -19.5 -27t-44.5 -4h-37q-33 0 -43 5t-4 30z" />
<glyph unicode="&#xd6;" horiz-adv-x="1626" d="M274 700q164 766 850 766q684 0 525 -766q-160 -745 -848 -745q-687 0 -527 745zM544 412q3 -47 18.5 -108.5t48 -97.5t90 -61.5t137.5 -25.5t148.5 25.5t115.5 62.5t88 97.5t65.5 108.5t47 119.5t30.5 107.5l21 93q12 57 18 91t13.5 101.5t3 111.5t-20.5 100.5t-49 89.5 t-91.5 56.5t-138 23.5t-147.5 -23.5t-115 -57.5t-87 -90.5t-63.5 -100.5t-45 -111.5t-29.5 -100t-20 -90.5q-12 -59 -18.5 -94t-14.5 -107.5t-5 -119.5zM724 1569.5q-1 19.5 5 46.5l6 35q10 49 33 68.5t74 19.5h94q53 0 66.5 -19.5t3.5 -68.5l-7 -35q-10 -47 -31.5 -67.5 t-76.5 -20.5h-94q-37 0 -54.5 11t-18.5 30.5zM1310 1569.5q-1 19.5 5 46.5l6 35q10 49 32.5 68.5t73.5 19.5h95q53 0 66.5 -19.5t2.5 -68.5l-6 -35q-10 -47 -31.5 -67.5t-76.5 -20.5h-95q-37 0 -54 11t-18 30.5z" />
<glyph unicode="&#xd7;" horiz-adv-x="1753" d="M340 -18q-45 59 45 137l477 393l-309 395q-55 78 12 137q27 20 51.5 24.5t40 -4.5t28.5 -19.5t17 -16.5l310 -393l473 391q102 72 143 16q45 -59 -45 -137l-477 -393l311 -393q63 -74 -14 -137q-25 -20 -49.5 -25.5t-42 4.5t-26.5 19.5t-15 17.5l-309 393l-478 -393 q-6 -6 -23.5 -16.5t-37 -19.5t-43 -4.5t-39.5 24.5z" />
<glyph unicode="&#xd8;" horiz-adv-x="1753" d="M274 700q160 766 914 766q176 0 309 -45l82 103q33 43 52.5 58t48 15t52 -20.5t17.5 -58.5q-6 -23 -57 -86q-23 -25 -64 -78q250 -178 148 -654q-158 -745 -912 -745q-170 0 -309 43l-82 -100q-31 -41 -50.5 -57.5t-48 -16.5t-53 20.5t-16.5 59.5q4 20 55 84q12 14 28 35 l34 43q-244 185 -148 634zM510 527.5q-8 -70.5 2 -151.5t47 -138l821 1038q-92 43 -225 43q-98 0 -181 -23.5t-140.5 -58.5t-105.5 -92.5t-75.5 -105.5t-52.5 -119.5t-35 -112.5t-24 -105q-23 -104 -31 -174.5zM670 143q94 -41 229 -41q98 0 181 22.5t139.5 55.5t103.5 88.5 t74.5 101.5t52.5 115.5t35 110.5t24 106q72 340 -18 478z" />
<glyph unicode="&#xd9;" horiz-adv-x="1564" d="M271.5 306q-7.5 73 15.5 165l180 852q12 55 38.5 76.5t82.5 21.5h104q59 0 73.5 -22.5t2.5 -75.5l-182 -860q-37 -168 12 -250t219 -82q176 0 260 84t119 250l182 858q12 55 38 76.5t83 21.5h82q59 0 73.5 -22.5t2.5 -75.5l-180 -854q-27 -127 -87.5 -223t-132 -150.5 t-161.5 -87.5t-165 -43t-155 -10q-59 0 -113.5 6t-114 20.5t-103.5 40t-86 64.5t-61 93t-26.5 127zM741.5 1794q10.5 18 36.5 18h330l213 -223q14 -18 3 -29.5t-36 -11.5h-137l-401 217q-19 11 -8.5 29z" />
<glyph unicode="&#xda;" horiz-adv-x="1564" d="M271.5 306q-7.5 73 15.5 165l180 852q12 55 38.5 76.5t82.5 21.5h104q59 0 73.5 -22.5t2.5 -75.5l-182 -860q-37 -168 12 -250t219 -82q176 0 260 84t119 250l182 858q12 55 38 76.5t83 21.5h82q59 0 73.5 -22.5t2.5 -75.5l-180 -854q-27 -127 -87.5 -223t-132 -150.5 t-161.5 -87.5t-165 -43t-155 -10q-59 0 -113.5 6t-114 20.5t-103.5 40t-86 64.5t-61 93t-26.5 127zM904 1559.5q-7 11.5 16 29.5l307 223h329q18 0 25.5 -9t3.5 -20t-20 -18l-492 -217h-137q-25 0 -32 11.5z" />
<glyph unicode="&#xdb;" horiz-adv-x="1564" d="M271.5 306q-7.5 73 15.5 165l180 852q12 55 38.5 76.5t82.5 21.5h104q59 0 73.5 -22.5t2.5 -75.5l-182 -860q-37 -168 12 -250t219 -82q176 0 260 84t119 250l182 858q12 55 38 76.5t83 21.5h82q59 0 73.5 -22.5t2.5 -75.5l-180 -854q-27 -127 -87.5 -223t-132 -150.5 t-161.5 -87.5t-165 -43t-155 -10q-59 0 -113.5 6t-114 20.5t-103.5 40t-86 64.5t-61 93t-26.5 127zM750 1552.5q2 10.5 12 16.5l270 213q6 6 17 6h227q10 0 16 -6l176 -209q10 -10 -1 -27.5t-27 -17.5h-97l-8 2l-194 166l-264 -166l-13 -2h-96q-10 0 -15 7t-3 17.5z" />
<glyph unicode="&#xdc;" horiz-adv-x="1564" d="M271.5 306q-7.5 73 15.5 165l180 852q12 55 38.5 76.5t82.5 21.5h104q59 0 73.5 -22.5t2.5 -75.5l-182 -860q-37 -168 12 -250t219 -82q176 0 260 84t119 250l182 858q12 55 38 76.5t83 21.5h82q59 0 73.5 -22.5t2.5 -75.5l-180 -854q-27 -127 -87.5 -223t-132 -150.5 t-161.5 -87.5t-165 -43t-155 -10q-59 0 -113.5 6t-114 20.5t-103.5 40t-86 64.5t-61 93t-26.5 127zM693 1569.5q-1 19.5 5 46.5l7 35q10 49 32.5 68.5t73.5 19.5h94q53 0 66.5 -19.5t3.5 -68.5l-6 -35q-10 -47 -32 -67.5t-77 -20.5h-94q-37 0 -54.5 11t-18.5 30.5z M1279 1569.5q-1 19.5 5 46.5l6 35q10 49 33 68.5t74 19.5h94q53 0 66.5 -19.5t3.5 -68.5l-7 -35q-10 -47 -31.5 -67.5t-76.5 -20.5h-94q-37 0 -54.5 11t-18.5 30.5z" />
<glyph unicode="&#xdd;" horiz-adv-x="1501" d="M342 1374q10 47 84 47h135q57 0 90 -17.5t58 -66.5l159 -331q55 -113 76 -181q49 72 195 232l260 286q74 78 180 78h100q20 0 32.5 -1t24 -12t7.5 -34q-6 -20 -29 -43l-696 -764l-100 -471q-12 -55 -38 -75.5t-81 -20.5h-99q-55 0 -71.5 21.5t-5.5 76.5l100 471l-373 764 q-12 25 -8 41zM873.5 1559.5q-7.5 11.5 15.5 29.5l307 223h330q18 0 25.5 -9t3 -20t-20.5 -18l-492 -217h-137q-24 0 -31.5 11.5z" />
<glyph unicode="&#xde;" horiz-adv-x="1439" d="M207 98l260 1225q12 55 38.5 76.5t82.5 21.5h104q59 0 73.5 -22.5t2.5 -75.5l-37 -176h309q246 0 357.5 -108.5t64.5 -333.5q-45 -217 -201.5 -324t-404.5 -107h-311l-37 -176q-10 -55 -36 -76.5t-83 -21.5h-104q-55 0 -71.5 21.5t-6.5 76.5zM575 444h250q98 0 166 21.5 t105 63.5t54 82t30 102q12 74 11 133t-61.5 96t-187.5 37h-252z" />
<glyph unicode="&#xdf;" horiz-adv-x="1157" d="M145 98l224 1045q63 301 516 301q412 0 395 -246q0 -23 -6 -47q-43 -199 -215 -291q184 -133 115 -479q-86 -403 -510 -404q-43 0 -87.5 7.5t-77 23t-28.5 33.5q2 4 16.5 30.5l20.5 37.5l15 25q3 5 9.5 13.5t11.5 9.5t11 1q2 0 20 -6q49 -27 109 -27q45 0 81 18.5 t55.5 39t36.5 64.5t23.5 65.5t16.5 68.5q23 115 25 203t-45.5 143t-151.5 64q-25 2 -28 12t5 43l9 37q4 20 7 29.5t10 17.5t20 8q66 2 104.5 12.5t82.5 58.5t62 138q18 82 -10.5 115.5t-134.5 33.5q-111 0 -154 -36.5t-59 -118.5l-221 -1043q-10 -55 -36 -76.5t-83 -21.5 h-76q-55 0 -71.5 21.5t-6.5 76.5z" />
<glyph unicode="&#xe0;" horiz-adv-x="1075" d="M121 272q18 84 90 146.5t151.5 91.5t184 46t154 19.5t94.5 2.5l14 71q23 90 0 139.5t-102 49.5q-188 0 -347 -138q-16 -12 -26 -12q-25 0 -21 23q0 35 17 149q4 16 15 24.5t48 22.5q170 66 350 66q385 0 353 -281l-9 -45l-116 -549q-10 -55 -36 -76.5t-83 -21.5h-76 q-59 0 -74.5 22.5t-3.5 75.5l9 41q-143 -162 -353 -162q-129 0 -193.5 90t-39.5 205zM389 276q-12 -61 17.5 -106t91.5 -45q14 0 36.5 4t68.5 18.5t84 58.5t52 109l37 179l-59 -5q-29 -2 -87.5 -15t-103.5 -34.5t-85 -64t-52 -99.5zM516 1395q6 27 62 26h167q29 0 37.5 -3 t18.5 -21l125 -240l12 -31q-6 -27 -61 -26h-76l-269 264q-20 17 -16 31z" />
<glyph unicode="&#xe1;" horiz-adv-x="1075" d="M121 272q18 84 90 146.5t151.5 91.5t184 46t154 19.5t94.5 2.5l14 71q23 90 0 139.5t-102 49.5q-188 0 -347 -138q-16 -12 -26 -12q-25 0 -21 23q0 35 17 149q4 16 15 24.5t48 22.5q170 66 350 66q385 0 353 -281l-9 -45l-116 -549q-10 -55 -36 -76.5t-83 -21.5h-76 q-59 0 -74.5 22.5t-3.5 75.5l9 41q-143 -162 -353 -162q-129 0 -193.5 90t-39.5 205zM389 276q-12 -61 17.5 -106t91.5 -45q14 0 36.5 4t68.5 18.5t84 58.5t52 109l37 179l-59 -5q-29 -2 -87.5 -15t-103.5 -34.5t-85 -64t-52 -99.5zM618 1126l25 31l227 240q16 16 26.5 20 t41.5 4h168q20 0 29.5 -1t15.5 -7t4 -18q-4 -10 -29 -31l-383 -264h-75q-20 0 -29.5 1t-16 7t-4.5 18z" />
<glyph unicode="&#xe2;" horiz-adv-x="1075" d="M121 272q18 84 90 146.5t151.5 91.5t184 46t154 19.5t94.5 2.5l14 71q23 90 0 139.5t-102 49.5q-188 0 -347 -138q-16 -12 -26 -12q-25 0 -21 23q0 35 17 149q4 16 15 24.5t48 22.5q170 66 350 66q385 0 353 -281l-9 -45l-116 -549q-10 -55 -36 -76.5t-83 -21.5h-76 q-59 0 -74.5 22.5t-3.5 75.5l9 41q-143 -162 -353 -162q-129 0 -193.5 90t-39.5 205zM389 276q-12 -61 17.5 -106t91.5 -45q14 0 36.5 4t68.5 18.5t84 58.5t52 109l37 179l-59 -5q-29 -2 -87.5 -15t-103.5 -34.5t-85 -64t-52 -99.5zM444.5 1109q-4.5 13 6.5 26l260 284 q8 8 20 8h227q14 0 17 -8l137 -280q4 -12 -6 -27.5t-25 -15.5h-96l-12 4l-156 207l-246 -207l-12 -4h-96q-14 0 -18.5 13z" />
<glyph unicode="&#xe3;" horiz-adv-x="1075" d="M121 272q18 84 90 146.5t151.5 91.5t184 46t154 19.5t94.5 2.5l14 71q23 90 0 139.5t-102 49.5q-188 0 -347 -138q-16 -12 -26 -12q-25 0 -21 23q0 35 17 149q4 16 15 24.5t48 22.5q170 66 350 66q385 0 353 -281l-9 -45l-116 -549q-10 -55 -36 -76.5t-83 -21.5h-76 q-59 0 -74.5 22.5t-3.5 75.5l9 41q-143 -162 -353 -162q-129 0 -193.5 90t-39.5 205zM389 276q-12 -61 17.5 -106t91.5 -45q14 0 36.5 4t68.5 18.5t84 58.5t52 109l37 179l-59 -5q-29 -2 -87.5 -15t-103.5 -34.5t-85 -64t-52 -99.5zM414 1161q16 84 94 159t180 75 q88 0 184 -76q53 -45 86 -45q68 0 99 90q8 23 18 27t43 4h37q35 0 44 -5.5t3 -29.5q-16 -84 -94 -159t-180 -75q-88 0 -185 76q-53 45 -88 45q-68 0 -96 -90q-8 -23 -18.5 -27t-42.5 -4h-37q-33 0 -43 5t-4 30z" />
<glyph unicode="&#xe4;" horiz-adv-x="1075" d="M121 272q18 84 90 146.5t151.5 91.5t184 46t154 19.5t94.5 2.5l14 71q23 90 0 139.5t-102 49.5q-188 0 -347 -138q-16 -12 -26 -12q-25 0 -21 23q0 35 17 149q4 16 15 24.5t48 22.5q170 66 350 66q385 0 353 -281l-9 -45l-116 -549q-10 -55 -36 -76.5t-83 -21.5h-76 q-59 0 -74.5 22.5t-3.5 75.5l9 41q-143 -162 -353 -162q-129 0 -193.5 90t-39.5 205zM389 276q-12 -61 17.5 -106t91.5 -45q14 0 36.5 4t68.5 18.5t84 58.5t52 109l37 179l-59 -5q-29 -2 -87.5 -15t-103.5 -34.5t-85 -64t-52 -99.5zM420 1243l8 35q10 49 32.5 68.5 t74.5 19.5h94q53 0 66.5 -19.5t2.5 -68.5l-8 -35q-10 -47 -31.5 -67.5t-74.5 -20.5h-95q-53 0 -66 21.5t-3 66.5zM915 1243l9 35q10 49 32.5 68.5t73.5 19.5h94q53 0 66.5 -19.5t3.5 -68.5l-8 -35q-10 -47 -31.5 -67.5t-75.5 -20.5h-94q-53 0 -66.5 21.5t-3.5 66.5z" />
<glyph unicode="&#xe5;" horiz-adv-x="1075" d="M121 272q18 84 90 146.5t151.5 91.5t184 46t154 19.5t94.5 2.5l14 71q23 90 0 139.5t-102 49.5q-188 0 -347 -138q-16 -12 -26 -12q-25 0 -21 23q0 35 17 149q4 16 15 24.5t48 22.5q170 66 350 66q385 0 353 -281l-9 -45l-116 -549q-10 -55 -36 -76.5t-83 -21.5h-76 q-59 0 -74.5 22.5t-3.5 75.5l9 41q-143 -162 -353 -162q-129 0 -193.5 90t-39.5 205zM389 276q-12 -61 17.5 -106t91.5 -45q14 0 36.5 4t68.5 18.5t84 58.5t52 109l37 179l-59 -5q-29 -2 -87.5 -15t-103.5 -34.5t-85 -64t-52 -99.5zM549 1241q33 160 285 160q29 0 49 -1 t60 -9.5t63.5 -24.5t39 -49t5.5 -80q-33 -160 -285 -160q-29 0 -49.5 1t-60.5 9.5t-63.5 24.5t-38.5 49t-5 80zM688 1239q-10 -43 14.5 -56.5t81.5 -13.5q61 0 90 12.5t39 57.5q8 43 -16.5 56.5t-81.5 13.5q-61 0 -90 -12.5t-37 -57.5z" />
<glyph unicode="&#xe6;" horiz-adv-x="1626" d="M113.5 170q-9.5 47 3.5 82q14 70 74.5 121t127 76.5t169 42t158.5 20.5t138 6l27 131q25 84 2.5 136.5t-104.5 52.5q-190 0 -349 -138q-16 -12 -26 -12q-25 0 -21 23q0 35 17 149q4 16 15 24.5t46 20.5q172 68 352 68q211 0 297 -84q135 84 324 84q205 0 279.5 -116 t29.5 -322q-12 -57 -38.5 -77t-80.5 -20h-510q-27 -147 10.5 -230t166.5 -83q168 0 309 119q25 20 37 20q14 0 16 -9t0 -56q-10 -84 -12 -90q-4 -16 -13.5 -23.5t-56.5 -32.5q-156 -76 -319 -76q-229 0 -344 113q-166 -113 -478 -113q-82 0 -139 30t-77.5 73t-30 90z M383 254q-8 -47 20.5 -88t98.5 -41q102 0 177 43t83 82l-2 24q-4 55 2 134q-348 -19 -379 -154zM1071 547h373q8 45 12 73.5t3 72.5t-12 68.5t-39 44t-73 19.5q-190 1 -264 -278z" />
<glyph unicode="&#xe7;" horiz-adv-x="1001" d="M176 471q106 502 602 502q100 0 158.5 -14.5t130.5 -51.5q18 -10 25.5 -15t12.5 -12.5t3 -15.5t-25.5 -68.5t-29.5 -72.5q-12 -27 -33 -27q-12 0 -31 23q-51 51 -100 72.5t-144 21.5q-74 0 -127 -26.5t-83.5 -83t-46 -102.5t-33.5 -126l-14.5 -72.5t-8.5 -71.5t3 -75 t23.5 -58.5t51.5 -46t86 -14.5q170 0 324 115q25 20 36 20q20 0 21 -26q-6 -74 -19 -144q-2 -14 -12 -22t-59 -31q-156 -72 -330 -72q-485 0 -381 494zM258 -412q6 20 231 275q27 31 37.5 37t42.5 6h37q47 0 49 -19q0 -2 -2 -8l-16 -33l-158 -247q-16 -27 -25.5 -32 t-43.5 -5h-103q-20 0 -29.5 1t-15.5 7t-4 18z" />
<glyph unicode="&#xe8;" horiz-adv-x="1046" d="M166 477q49 238 200.5 367t393.5 129q221 0 300 -117t34 -324q-8 -43 -30 -65.5t-40 -25.5t-49 -3h-557q-8 -49 -10 -84t4 -82t26.5 -75.5t65.5 -50t110 -21.5q170 0 334 119q27 20 39 20q14 0 16.5 -9t0.5 -56q-10 -84 -13 -90q-2 -16 -14 -25.5t-55 -28.5 q-172 -78 -347 -78q-246 0 -354 126t-55 374zM444 547h426q12 82 12.5 143.5t-37.5 98t-116 36.5q-211 1 -285 -278zM502 1395q6 27 61 26h168q29 0 37 -3t18 -21l125 -240l13 -31q-6 -27 -62 -26h-76l-268 264q-20 17 -16 31z" />
<glyph unicode="&#xe9;" horiz-adv-x="1046" d="M166 477q49 238 200.5 367t393.5 129q221 0 300 -117t34 -324q-8 -43 -30 -65.5t-40 -25.5t-49 -3h-557q-8 -49 -10 -84t4 -82t26.5 -75.5t65.5 -50t110 -21.5q170 0 334 119q27 20 39 20q14 0 16.5 -9t0.5 -56q-10 -84 -13 -90q-2 -16 -14 -25.5t-55 -28.5 q-172 -78 -347 -78q-246 0 -354 126t-55 374zM444 547h426q12 82 12.5 143.5t-37.5 98t-116 36.5q-211 1 -285 -278zM604 1126l25 31l227 240q16 16 26.5 20t41.5 4h168q20 0 29 -1t15.5 -7t4.5 -18q-4 -10 -29 -31l-383 -264h-76q-20 0 -29.5 1t-15.5 7t-4 18z" />
<glyph unicode="&#xea;" horiz-adv-x="1046" d="M166 477q49 238 200.5 367t393.5 129q221 0 300 -117t34 -324q-8 -43 -30 -65.5t-40 -25.5t-49 -3h-557q-8 -49 -10 -84t4 -82t26.5 -75.5t65.5 -50t110 -21.5q170 0 334 119q27 20 39 20q14 0 16.5 -9t0.5 -56q-10 -84 -13 -90q-2 -16 -14 -25.5t-55 -28.5 q-172 -78 -347 -78q-246 0 -354 126t-55 374zM430 1109q-4 13 6 26l260 284q8 8 21 8h227q14 0 17 -8l137 -280q4 -12 -6.5 -27.5t-24.5 -15.5h-96l-13 4l-155 207l-246 -207l-12 -4h-96q-15 0 -19 13zM444 547h426q12 82 12.5 143.5t-37.5 98t-116 36.5q-211 1 -285 -278z " />
<glyph unicode="&#xeb;" horiz-adv-x="1046" d="M166 477q49 238 200.5 367t393.5 129q221 0 300 -117t34 -324q-8 -43 -30 -65.5t-40 -25.5t-49 -3h-557q-8 -49 -10 -84t4 -82t26.5 -75.5t65.5 -50t110 -21.5q170 0 334 119q27 20 39 20q14 0 16.5 -9t0.5 -56q-10 -84 -13 -90q-2 -16 -14 -25.5t-55 -28.5 q-172 -78 -347 -78q-246 0 -354 126t-55 374zM406 1243l8 35q10 49 32.5 68.5t73.5 19.5h94q53 0 66.5 -19.5t3.5 -68.5l-8 -35q-10 -47 -31.5 -67.5t-75.5 -20.5h-94q-53 0 -66 21.5t-3 66.5zM444 547h426q12 82 12.5 143.5t-37.5 98t-116 36.5q-211 1 -285 -278zM901 1243 l8 35q10 49 33 68.5t74 19.5h94q53 0 66.5 -19.5t3.5 -68.5l-9 -35q-10 -47 -31.5 -67.5t-74.5 -20.5h-94q-53 0 -66.5 21.5t-3.5 66.5z" />
<glyph unicode="&#xec;" horiz-adv-x="524" d="M145 98l158 742q12 57 38 77.5t81 20.5h76q59 0 74.5 -22.5t2.5 -75.5l-157 -742q-10 -55 -36 -76.5t-83 -21.5h-76q-55 0 -71.5 21.5t-6.5 76.5zM215 1395q6 27 61 26h168q29 0 37 -3t19 -21l125 -240l12 -31q-6 -27 -62 -26h-75l-269 264q-20 17 -16 31z" />
<glyph unicode="&#xed;" horiz-adv-x="524" d="M145 98l158 742q12 57 38 77.5t81 20.5h76q59 0 74.5 -22.5t2.5 -75.5l-157 -742q-10 -55 -36 -76.5t-83 -21.5h-76q-55 0 -71.5 21.5t-6.5 76.5zM365 1126l24 31l227 240q16 16 26.5 20t41.5 4h168q20 0 29.5 -1t15.5 -7t4 -18q-4 -10 -29 -31l-383 -264h-75 q-20 0 -29.5 1t-15.5 7t-4 18z" />
<glyph unicode="&#xee;" horiz-adv-x="524" d="M145 98l158 742q12 57 38 77.5t81 20.5h76q59 0 74.5 -22.5t2.5 -75.5l-157 -742q-10 -55 -36 -76.5t-83 -21.5h-76q-55 0 -71.5 21.5t-6.5 76.5zM168 1109q-4 13 6 26l260 284q8 8 21 8h227q14 0 16 -8l138 -280q4 -12 -6.5 -27.5t-24.5 -15.5h-96l-13 4l-155 207 l-246 -207l-12 -4h-97q-14 0 -18 13z" />
<glyph unicode="&#xef;" horiz-adv-x="524" d="M143 1243l9 35q10 49 32.5 68.5t73.5 19.5h94q53 0 66.5 -19.5t3.5 -68.5l-8 -35q-10 -47 -32 -67.5t-75 -20.5h-94q-53 0 -66.5 21.5t-3.5 66.5zM145 98l158 742q12 57 38 77.5t81 20.5h76q59 0 74.5 -22.5t2.5 -75.5l-157 -742q-10 -55 -36 -76.5t-83 -21.5h-76 q-55 0 -71.5 21.5t-6.5 76.5zM639 1243l8 35q10 49 32.5 68.5t74.5 19.5h94q53 0 66.5 -19.5t3.5 -68.5l-9 -35q-10 -47 -31.5 -67.5t-74.5 -20.5h-94q-53 0 -66.5 21.5t-3.5 66.5z" />
<glyph unicode="&#xf0;" d="M162 461q109 512 608 512q115 0 197 -29q12 76 8 146l-8 -5q-31 -14 -57.5 -3.5t-35.5 36.5l-16 51q-8 29 8.5 57.5t46.5 41.5l21 10l-23 22q-63 43 -51 93l10 57q8 33 35 53.5t56 16.5q135 -25 200 -138l82 35q31 14 57.5 4t34.5 -37l15 -51q8 -27 -7.5 -55.5 t-46.5 -42.5l-73 -33q41 -246 -64 -741q-51 -244 -207 -367q-150 -117 -395 -117q-499 1 -395 484zM418 323.5q-4 -49.5 4 -76t25.5 -55t54.5 -42t90 -13.5q78 0 132 29t86 88t45 105.5t30 125.5q14 63 20 98t6 88.5t-16 82t-55 50t-102.5 21.5t-111.5 -22.5t-76 -50 t-51.5 -82t-31.5 -87t-23 -98.5q-12 -55 -17 -83.5t-9 -78z" />
<glyph unicode="&#xf1;" horiz-adv-x="1148" d="M143 98l160 754q12 55 39 76.5t82 21.5h70q59 0 73.5 -22.5t1.5 -75.5l-20 -102h2q31 43 68.5 81.5t124.5 84t186 45.5q158 0 213 -69t22 -226l-121 -568q-10 -55 -35.5 -76.5t-82.5 -21.5h-82q-59 0 -74.5 22.5t-3.5 75.5l121 564q18 78 -0.5 114.5t-87.5 36.5 q-88 0 -171 -68.5t-110 -193.5l-96 -453q-10 -55 -36 -76.5t-83 -21.5h-82q-55 0 -71.5 21.5t-6.5 76.5zM451 1161q16 84 94 159t180 75q88 0 184 -76q53 -45 86 -45q68 0 99 90q8 23 18 27t43 4h37q35 0 44 -5.5t3 -29.5q-16 -84 -94 -159t-180 -75q-88 0 -185 76 q-53 45 -88 45q-68 0 -96 -90q-8 -23 -18.5 -27t-42.5 -4h-37q-33 0 -43 5t-4 30z" />
<glyph unicode="&#xf2;" d="M162 461q109 512 608 512q498 0 389 -512q-102 -483 -601.5 -483t-395.5 483zM418 323.5q-4 -49.5 4 -76t25.5 -55t54.5 -42t90 -13.5q78 0 132 29t86 88t45 105.5t30 125.5q14 63 20 98t6 88.5t-16 82t-55 50t-102.5 21.5t-111.5 -22.5t-76 -50t-51.5 -82t-31.5 -87 t-23 -98.5q-12 -55 -17 -83.5t-9 -78zM541 1395q6 27 61 26h168q29 0 37 -3t18 -21l125 -240l13 -31q-6 -27 -62 -26h-76l-268 264q-20 17 -16 31z" />
<glyph unicode="&#xf3;" d="M162 461q109 512 608 512q498 0 389 -512q-102 -483 -601.5 -483t-395.5 483zM418 323.5q-4 -49.5 4 -76t25.5 -55t54.5 -42t90 -13.5q78 0 132 29t86 88t45 105.5t30 125.5q14 63 20 98t6 88.5t-16 82t-55 50t-102.5 21.5t-111.5 -22.5t-76 -50t-51.5 -82t-31.5 -87 t-23 -98.5q-12 -55 -17 -83.5t-9 -78zM643 1126l25 31l227 240q16 16 26.5 20t41.5 4h167q20 0 29.5 -1t16 -7t4.5 -18q-4 -10 -29 -31l-383 -264h-76q-20 0 -29.5 1t-15.5 7t-4 18z" />
<glyph unicode="&#xf4;" d="M162 461q109 512 608 512q498 0 389 -512q-102 -483 -601.5 -483t-395.5 483zM418 323.5q-4 -49.5 4 -76t25.5 -55t54.5 -42t90 -13.5q78 0 132 29t86 88t45 105.5t30 125.5q14 63 20 98t6 88.5t-16 82t-55 50t-102.5 21.5t-111.5 -22.5t-76 -50t-51.5 -82t-31.5 -87 t-23 -98.5q-12 -55 -17 -83.5t-9 -78zM469 1109q-4 13 6 26l260 284q8 8 21 8h227q14 0 16 -8l138 -280q4 -12 -6.5 -27.5t-24.5 -15.5h-96l-13 4l-155 207l-246 -207l-12 -4h-97q-14 0 -18 13z" />
<glyph unicode="&#xf5;" d="M162 461q109 512 608 512q498 0 389 -512q-102 -483 -601.5 -483t-395.5 483zM418 323.5q-4 -49.5 4 -76t25.5 -55t54.5 -42t90 -13.5q78 0 132 29t86 88t45 105.5t30 125.5q14 63 20 98t6 88.5t-16 82t-55 50t-102.5 21.5t-111.5 -22.5t-76 -50t-51.5 -82t-31.5 -87 t-23 -98.5q-12 -55 -17 -83.5t-9 -78zM438 1161q16 84 94 159t181 75q88 0 184 -76q53 -45 86 -45q68 0 98 90q8 23 18.5 27t43.5 4h37q35 0 44 -5.5t3 -29.5q-16 -84 -94 -159t-181 -75q-88 0 -184 76q-53 45 -88 45q-68 0 -96 -90q-8 -23 -18.5 -27t-43.5 -4h-37 q-33 0 -43 5t-4 30z" />
<glyph unicode="&#xf6;" d="M162 461q109 512 608 512q498 0 389 -512q-102 -483 -601.5 -483t-395.5 483zM418 323.5q-4 -49.5 4 -76t25.5 -55t54.5 -42t90 -13.5q78 0 132 29t86 88t45 105.5t30 125.5q14 63 20 98t6 88.5t-16 82t-55 50t-102.5 21.5t-111.5 -22.5t-76 -50t-51.5 -82t-31.5 -87 t-23 -98.5q-12 -55 -17 -83.5t-9 -78zM444 1243l9 35q10 49 32.5 68.5t73.5 19.5h94q53 0 66.5 -19.5t3.5 -68.5l-8 -35q-10 -47 -31.5 -67.5t-75.5 -20.5h-94q-53 0 -66.5 21.5t-3.5 66.5zM940 1243l8 35q10 49 33 68.5t74 19.5h94q53 0 66.5 -19.5t3.5 -68.5l-9 -35 q-10 -47 -31.5 -67.5t-74.5 -20.5h-94q-53 0 -66.5 21.5t-3.5 66.5z" />
<glyph unicode="&#xf7;" horiz-adv-x="1753" d="M233 512q18 86 127 86h1285q20 0 37.5 -2t39 -23.5t13.5 -60.5q-18 -86 -129 -86h-1280q-23 0 -40.5 2t-39 23.5t-13.5 60.5zM736 -60.5q-5 7.5 3 48.5l33 157q10 41 19.5 48.5t48.5 7.5h157q41 0 46.5 -8.5t-3.5 -47.5l-32 -157q-10 -41 -19.5 -48.5t-48.5 -7.5h-158 q-41 0 -46 7.5zM925 828.5q-5 7.5 3 48.5l33 157q10 41 19 48.5t48 7.5h158q41 0 46 -8.5t-3 -47.5l-33 -157q-10 -41 -19.5 -48.5t-48.5 -7.5h-157q-41 0 -46 7.5z" />
<glyph unicode="&#xf8;" d="M70 -199q6 20 45 70l141 184q-160 115 -94 406q109 512 606 512q106 0 182 -23l164 213q35 49 82 49q31 0 48.5 -21.5t8.5 -51.5l-8 -17q-6 -18 -22 -39l-152 -194q154 -125 88 -428q-102 -483 -602 -484q-100 0 -176 19l-158 -201q-10 -12 -18 -23.5t-17.5 -19.5 t-17.5 -13t-18.5 -8t-22.5 -3q-31 0 -48 21t-11 52zM393 233l447 576q-49 16 -101 16q-74 0 -129 -25.5t-86.5 -56t-57.5 -89t-35 -93.5t-23 -98q-35 -164 -15 -230zM489 137q45 -12 99 -12q74 0 129 22.5t86 50t55.5 82t32.5 87t22 96.5q37 168 17 244z" />
<glyph unicode="&#xf9;" horiz-adv-x="1148" d="M178 258l123 582q12 57 38 77.5t81 20.5h82q59 0 74.5 -22.5t3.5 -75.5l-127 -600q-20 -82 -3 -110t101 -28q104 0 176 72t94 180l103 486q12 55 36.5 76.5t81.5 21.5h82q59 0 74.5 -22.5t3.5 -75.5l-158 -742q-10 -55 -35.5 -76.5t-82.5 -21.5h-76q-59 0 -74.5 22.5 t-3.5 75.5l12 54q-133 -174 -333 -175q-170 0 -238 61.5t-35 219.5zM553 1395q6 27 61 26h168q29 0 37 -3t19 -21l125 -240l12 -31q-6 -27 -62 -26h-75l-269 264q-20 17 -16 31z" />
<glyph unicode="&#xfa;" horiz-adv-x="1148" d="M178 258l123 582q12 57 38 77.5t81 20.5h82q59 0 74.5 -22.5t3.5 -75.5l-127 -600q-20 -82 -3 -110t101 -28q104 0 176 72t94 180l103 486q12 55 36.5 76.5t81.5 21.5h82q59 0 74.5 -22.5t3.5 -75.5l-158 -742q-10 -55 -35.5 -76.5t-82.5 -21.5h-76q-59 0 -74.5 22.5 t-3.5 75.5l12 54q-133 -174 -333 -175q-170 0 -238 61.5t-35 219.5zM655 1126l25 31l227 240q16 16 26.5 20t41.5 4h168q20 0 29.5 -1t15.5 -7t4 -18q-4 -10 -29 -31l-383 -264h-75q-20 0 -29.5 1t-16 7t-4.5 18z" />
<glyph unicode="&#xfb;" horiz-adv-x="1148" d="M178 258l123 582q12 57 38 77.5t81 20.5h82q59 0 74.5 -22.5t3.5 -75.5l-127 -600q-20 -82 -3 -110t101 -28q104 0 176 72t94 180l103 486q12 55 36.5 76.5t81.5 21.5h82q59 0 74.5 -22.5t3.5 -75.5l-158 -742q-10 -55 -35.5 -76.5t-82.5 -21.5h-76q-59 0 -74.5 22.5 t-3.5 75.5l12 54q-133 -174 -333 -175q-170 0 -238 61.5t-35 219.5zM481 1109q-4 13 6 26l261 284q8 8 20 8h227q14 0 17 -8l137 -280q4 -12 -6 -27.5t-25 -15.5h-96l-12 4l-156 207l-246 -207l-12 -4h-96q-15 0 -19 13z" />
<glyph unicode="&#xfc;" horiz-adv-x="1148" d="M178 258l123 582q12 57 38 77.5t81 20.5h82q59 0 74.5 -22.5t3.5 -75.5l-127 -600q-20 -82 -3 -110t101 -28q104 0 176 72t94 180l103 486q12 55 36.5 76.5t81.5 21.5h82q59 0 74.5 -22.5t3.5 -75.5l-158 -742q-10 -55 -35.5 -76.5t-82.5 -21.5h-76q-59 0 -74.5 22.5 t-3.5 75.5l12 54q-133 -174 -333 -175q-170 0 -238 61.5t-35 219.5zM457 1243l8 35q10 49 32.5 68.5t73.5 19.5h95q53 0 66 -19.5t3 -68.5l-8 -35q-10 -47 -31.5 -67.5t-74.5 -20.5h-95q-53 0 -66 21.5t-3 66.5zM952 1243l9 35q10 49 32.5 68.5t73.5 19.5h94 q53 0 66.5 -19.5t3.5 -68.5l-8 -35q-10 -47 -32 -67.5t-75 -20.5h-94q-53 0 -66.5 21.5t-3.5 66.5z" />
<glyph unicode="&#xfd;" horiz-adv-x="1024" d="M8 -391q-2 6 6.5 78.5t12.5 87.5q6 31 32 30q8 0 19 -8q55 -43 127 -43q51 0 94 29t63.5 56.5t47.5 74.5q14 29 47 86l-207 852q-4 23 -2 33q10 53 90 53h53q74 0 95.5 -27.5t45.5 -132.5q90 -391 78 -487h2q25 86 158 330.5t152 269.5q41 47 118 47h45q14 0 24.5 -1 t25 -5t20.5 -17.5t2 -31.5q-2 -12 -20 -41l-539 -971q-16 -31 -46 -69t-84 -93t-135 -92t-169 -37q-140 0 -156 29zM592 1126l24 31l228 240q16 16 26.5 20t40.5 4h168q20 0 29.5 -1t15.5 -7t4 -18q-4 -10 -28 -31l-383 -264h-76q-20 0 -29.5 1t-15.5 7t-4 18z" />
<glyph unicode="&#xfe;" horiz-adv-x="1148" d="M61 -299l345 1622q12 55 38.5 76.5t81.5 21.5h76q59 0 73.5 -22.5t2.5 -75.5l-103 -481q154 119 330 119q88 0 149.5 -28t89 -78t42 -99t9.5 -113.5t-10 -97.5t-14 -72q-12 -55 -22 -94t-51 -122t-94.5 -137t-150.5 -98.5t-220 -44.5q-141 0 -213 103l-80 -379 q-10 -55 -35.5 -76.5t-83.5 -21.5h-82q-57 0 -73.5 21.5t-4.5 76.5zM446 205q45 -80 144 -80q66 0 117 23.5t79.5 52t52 85t32 89.5t22.5 96q10 51 15 80t10.5 76t-3 74.5t-23.5 56t-50 42t-84 13.5q-106 0 -197 -72z" />
<glyph unicode="&#xff;" horiz-adv-x="1024" d="M8 -391q-2 6 6.5 78.5t12.5 87.5q6 31 32 30q8 0 19 -8q55 -43 127 -43q51 0 94 29t63.5 56.5t47.5 74.5q14 29 47 86l-207 852q-4 23 -2 33q10 53 90 53h53q74 0 95.5 -27.5t45.5 -132.5q90 -391 78 -487h2q25 86 158 330.5t152 269.5q41 47 118 47h45q14 0 24.5 -1 t25 -5t20.5 -17.5t2 -31.5q-2 -12 -20 -41l-539 -971q-16 -31 -46 -69t-84 -93t-135 -92t-169 -37q-140 0 -156 29zM393 1243l8 35q10 49 33 68.5t74 19.5h94q53 0 66.5 -19.5t3.5 -68.5l-8 -35q-10 -47 -32 -67.5t-75 -20.5h-94q-53 0 -66.5 21.5t-3.5 66.5zM889 1243l8 35 q10 49 32.5 68.5t74.5 19.5h94q53 0 66.5 -19.5t2.5 -68.5l-8 -35q-10 -47 -31.5 -67.5t-74.5 -20.5h-95q-53 0 -66 21.5t-3 66.5z" />
<glyph unicode="&#x152;" horiz-adv-x="2189" d="M211 700q160 766 903 766q78 0 186 -20q147 -25 216 -25h751q59 0 73.5 -22.5t2.5 -75.5l-2 -16q-14 -68 -45 -83.5t-96 -15.5l-480 6h-102l-82 -383h541q55 0 72.5 -20t4.5 -76q-12 -57 -38.5 -76.5t-79.5 -19.5h-541l-88 -422l301 4l317 4q43 0 61.5 -3t31 -25.5 t2.5 -69.5l-6 -29q-10 -55 -36 -76.5t-83 -21.5h-783q-74 0 -198 -23q-143 -23 -223 -22q-375 0 -516.5 191.5t-63.5 553.5zM512 735q-135 -633 332 -633q156 0 212 71t109 308l49 230q76 356 80 419q8 111 -31.5 150t-162.5 39q-129 0 -231.5 -46t-160 -106.5 t-102.5 -152.5t-61.5 -148.5t-32.5 -130.5z" />
<glyph unicode="&#x153;" horiz-adv-x="1753" d="M164 475q106 498 612 498q238 0 344 -115q147 115 371 115q203 0 278.5 -115t30.5 -323q-12 -57 -38.5 -77t-80.5 -20h-512q-10 -84 -9 -153.5t48 -114.5t140 -45q168 0 309 119q27 20 37 20q14 0 16 -9t0 -56q-10 -84 -12 -90q0 -6 -1 -9.5t-5 -8.5t-12 -9l-19 -11 q-12 -7 -31 -16q-158 -78 -323 -78q-231 0 -346 119q-152 -119 -396 -119q-248 0 -351 124t-50 374zM409 279.5q3 -25.5 13 -59.5t30.5 -51t56.5 -30.5t85 -13.5q66 0 118 24.5t81.5 56.5t53 89t33 93t21.5 97l15.5 78t9.5 75t-5.5 73.5t-26.5 57.5t-56 43t-95 13 q-68 0 -121 -23.5t-81.5 -52t-53 -84t-32.5 -87.5l-23 -95q-8 -45 -13 -67.5t-9 -66.5t-1 -69.5zM1196 547h375q6 41 9 63.5t6 60.5t-3 60.5t-19.5 47t-39 35.5t-64.5 11q-192 1 -264 -278z" />
<glyph unicode="&#x178;" horiz-adv-x="1501" d="M342 1374q10 47 84 47h135q57 0 90 -17.5t58 -66.5l159 -331q55 -113 76 -181q49 72 195 232l260 286q74 78 180 78h100q20 0 32.5 -1t24 -12t7.5 -34q-6 -20 -29 -43l-696 -764l-100 -471q-12 -55 -38 -75.5t-81 -20.5h-99q-55 0 -71.5 21.5t-5.5 76.5l100 471l-373 764 q-12 25 -8 41zM663 1569.5q-1 19.5 5 46.5l6 35q10 49 32.5 68.5t73.5 19.5h94q53 0 66.5 -19.5t3.5 -68.5l-6 -35q-10 -47 -31.5 -67.5t-77.5 -20.5h-94q-37 0 -54 11t-18 30.5zM1248 1569.5q-1 19.5 5 46.5l7 35q10 49 32.5 68.5t73.5 19.5h94q53 0 66.5 -19.5t3.5 -68.5 l-6 -35q-10 -47 -32 -67.5t-77 -20.5h-94q-37 0 -54.5 11t-18.5 30.5z" />
<glyph unicode="&#x2c6;" d="M469 1109q-4 13 6 26l260 284q8 8 21 8h227q14 0 16 -8l138 -280q4 -12 -6.5 -27.5t-24.5 -15.5h-96l-13 4l-155 207l-246 -207l-12 -4h-97q-14 0 -18 13z" />
<glyph unicode="&#x2dc;" d="M438 1161q16 84 94 159t181 75q88 0 184 -76q53 -45 86 -45q68 0 98 90q8 23 18.5 27t43.5 4h37q35 0 44 -5.5t3 -29.5q-16 -84 -94 -159t-181 -75q-88 0 -184 76q-53 45 -88 45q-68 0 -96 -90q-8 -23 -18.5 -27t-43.5 -4h-37q-33 0 -43 5t-4 30z" />
<glyph unicode="&#x2000;" horiz-adv-x="905" />
<glyph unicode="&#x2001;" horiz-adv-x="1812" />
<glyph unicode="&#x2002;" horiz-adv-x="905" />
<glyph unicode="&#x2003;" horiz-adv-x="1812" />
<glyph unicode="&#x2004;" horiz-adv-x="604" />
<glyph unicode="&#x2005;" horiz-adv-x="452" />
<glyph unicode="&#x2006;" horiz-adv-x="301" />
<glyph unicode="&#x2007;" horiz-adv-x="301" />
<glyph unicode="&#x2008;" horiz-adv-x="225" />
<glyph unicode="&#x2009;" horiz-adv-x="362" />
<glyph unicode="&#x200a;" horiz-adv-x="100" />
<glyph unicode="&#x2010;" horiz-adv-x="751" d="M125 469q14 74 113 74h403q98 0 84 -74q-16 -74 -115 -74h-403q-23 0 -38 2t-33.5 20.5t-10.5 51.5z" />
<glyph unicode="&#x2011;" horiz-adv-x="751" d="M125 469q14 74 113 74h403q98 0 84 -74q-16 -74 -115 -74h-403q-23 0 -38 2t-33.5 20.5t-10.5 51.5z" />
<glyph unicode="&#x2012;" horiz-adv-x="751" d="M125 469q14 74 113 74h403q98 0 84 -74q-16 -74 -115 -74h-403q-23 0 -38 2t-33.5 20.5t-10.5 51.5z" />
<glyph unicode="&#x2013;" d="M123 580q16 74 115 73h927q23 0 38.5 -2t33.5 -20.5t10 -50.5q-14 -74 -112 -74h-928q-98 0 -84 74z" />
<glyph unicode="&#x2014;" horiz-adv-x="2252" d="M123 580q16 74 115 73h2054q23 0 38 -2t33.5 -20.5t10.5 -50.5q-14 -74 -113 -74h-2054q-98 0 -84 74z" />
<glyph unicode="&#x2018;" horiz-adv-x="626" d="M386 943q-5 7 3 48l41 195l174 209q16 18 25.5 22t40.5 4h24q47 0 49 -18q0 -2 -2 -8q-4 -12 -12 -27l-96 -164q51 0 59 -8t-2 -47l-33 -158q-10 -41 -19 -48t-48 -7h-158q-41 0 -46 7z" />
<glyph unicode="&#x2019;" horiz-adv-x="626" d="M383 954q0 2 2 9q4 12 12 26l97 164q-51 0 -59.5 7t-0.5 48l35 158q8 39 17.5 47t50.5 8h157q39 0 45 -8t-2 -47l-41 -195l-174 -208q-16 -18 -25.5 -22.5t-39.5 -4.5h-25q-47 0 -49 18z" />
<glyph unicode="&#x201a;" horiz-adv-x="626" d="M137 -203q0 2 2 8q4 12 13 27l96 164q-51 0 -59.5 7t-0.5 48l35 158q8 41 17.5 48t48.5 7h157q41 0 47.5 -7t-1.5 -48l-43 -195l-173 -209q-16 -18 -25 -22t-40 -4h-25q-47 0 -49 18z" />
<glyph unicode="&#x201c;" horiz-adv-x="1083" d="M386 943q-5 7 3 48l41 195l174 209q16 18 25.5 22t40.5 4h24q47 0 49 -18q0 -2 -2 -8q-4 -12 -12 -27l-96 -164q51 0 59 -8t-2 -47l-33 -158q-10 -41 -19 -48t-48 -7h-158q-41 0 -46 7zM843 943q-5 7 3 48l41 195l174 209q16 18 25.5 22t39.5 4h25q47 0 49 -18 q0 -2 -2 -8q-4 -12 -12 -27l-96 -164q51 0 59 -8t-2 -47l-33 -158q-10 -41 -19.5 -48t-47.5 -7h-158q-41 0 -46 7z" />
<glyph unicode="&#x201d;" horiz-adv-x="1083" d="M385 954q0 2 2 9q4 12 12 26l97 164q-51 0 -59.5 7t-0.5 48l35 158q8 39 17.5 47t50.5 8h157q39 0 45.5 -8t-2.5 -47l-41 -195l-174 -208q-16 -18 -25.5 -22.5t-39.5 -4.5h-25q-47 0 -49 18zM842 954q0 2 2 9q4 12 12 26l96 164q-51 0 -59 7t0 48l35 158q8 39 17 47t50 8 h158q39 0 45 -8t-2 -47l-41 -195l-174 -208q-16 -18 -25.5 -22.5t-40.5 -4.5h-24q-47 0 -49 18z" />
<glyph unicode="&#x201e;" horiz-adv-x="1083" d="M139 -203q0 2 2 8q4 12 13 27l96 164q-51 0 -59.5 7t-0.5 48l35 158q8 41 17.5 48t48.5 7h158q41 0 47 -7t-2 -48l-43 -195l-172 -209q-16 -18 -25.5 -22t-40.5 -4h-25q-47 0 -49 18zM596 -203q0 2 2 8q4 12 12 27l97 164q-51 0 -59.5 7t-0.5 48l35 158q8 41 17.5 48 t48.5 7h157q41 0 47 -7t-2 -48l-43 -195l-172 -209q-16 -18 -25.5 -22t-39.5 -4h-25q-47 0 -49 18z" />
<glyph unicode="&#x2022;" horiz-adv-x="1753" d="M636 250.5q-13 17.5 7 111.5l76 365q20 94 41.5 111.5t116.5 17.5h364q94 0 107.5 -17.5t-7.5 -111.5l-75 -365q-20 -94 -42 -111.5t-116 -17.5h-365q-94 0 -107 17.5z" />
<glyph unicode="&#x2026;" horiz-adv-x="1572" d="M189.5 8q-5.5 8 3.5 47l32 158q10 41 19.5 48t48.5 7h158q41 0 46 -7t-3 -48l-33 -158q-10 -41 -19.5 -48t-48.5 -7h-157q-41 0 -46.5 8zM662.5 8q-5.5 8 3.5 47l32 158q10 41 19.5 48t48.5 7h158q41 0 46 -7t-3 -48l-33 -158q-10 -41 -19.5 -48t-48.5 -7h-157 q-41 0 -46.5 8zM1135.5 8q-5.5 8 3.5 47l32 158q10 41 19.5 48t48.5 7h158q41 0 46 -7t-3 -48l-33 -158q-10 -41 -19.5 -48t-48.5 -7h-157q-41 0 -46.5 8z" />
<glyph unicode="&#x202f;" horiz-adv-x="362" />
<glyph unicode="&#x2039;" horiz-adv-x="653" d="M262 500q-4 12 6 24l330 486q10 14 27 14h94q31 0 20 -33l-198 -479l-6 -479q0 -14 -10.5 -23.5t-22.5 -9.5h-94q-16 0 -21 14z" />
<glyph unicode="&#x203a;" horiz-adv-x="653" d="M133 9q-6 9 0 24l197 479l6 479q0 14 10 23.5t23 9.5h94q16 0 20 -14l125 -486q2 -10 -4 -24l-332 -486q-10 -14 -26 -14h-94q-13 0 -19 9z" />
<glyph unicode="&#x205f;" horiz-adv-x="452" />
<glyph unicode="&#x20ac;" horiz-adv-x="1347" d="M217 485l49 123q6 23 31 23h88l16 80l19 80h-111q-12 0 -18 10t-2 20l49 123q6 23 31 23h108q74 184 205 309q203 190 522 190q162 0 289 -71q14 -12 8 -29l-86 -219q-8 -18 -25.5 -21.5t-25.5 11.5q-25 57 -79 91t-124 34q-172 0 -280 -132q-61 -74 -101 -163h506 q12 0 18.5 -9.5t2.5 -21.5l-47 -123q-10 -23 -31 -22h-506l-18 -80l-17 -80h469q12 0 17.5 -9.5t1.5 -21.5l-48 -123q-10 -23 -30 -22h-426q0 -88 30 -162q57 -133 225.5 -133t307.5 129q14 14 29.5 8t13.5 -23l-23 -176q0 -12 -14 -22q-168 -121 -358 -121q-322 0 -441 192 q-78 119 -73 308h-131q-12 0 -18.5 10t-2.5 20z" />
<glyph unicode="&#x2122;" horiz-adv-x="2103" d="M336 1354l4 10q6 33 21.5 45t50.5 12h682q37 0 45 -13t2 -44l-4 -10q-6 -29 -18.5 -42.5t-24 -15.5t-33.5 -2l-244 4l-141 -663q-8 -33 -22.5 -45t-49.5 -12h-61q-35 0 -45.5 12t-1.5 45l141 663l-250 -4q-23 0 -33 2t-17 15.5t-1 42.5zM1098 635l155 735q8 35 23.5 47.5 t48.5 12.5h100q61 0 74 -52l74 -387q39 -207 39 -231h2q12 31 127 219l246 397q35 53 94 54h102q37 0 45 -13.5t2 -46.5l-155 -735q-8 -33 -22.5 -45t-49.5 -12h-33q-37 0 -45 13t-2 44l135 637h-2q-27 -59 -135 -230l-240 -385q-23 -37 -44 -45t-60 -8q-27 0 -38 2 t-24.5 14.5t-19.5 36.5l-68 351q-41 205 -43 264l-135 -637q-8 -33 -22.5 -45t-48.5 -12h-33q-35 0 -45 12t-2 45z" />
<glyph unicode="&#xe000;" horiz-adv-x="940" d="M0 940h940v-940h-940v940z" />
<glyph unicode="&#xfb01;" horiz-adv-x="1200" d="M197 98l147 693q-33 0 -51.5 2t-36.5 19t-10 52q14 74 129 74l37 168q72 338 401 338q55 0 102 -14q37 -8 42.5 -18.5t-3.5 -45.5l-22 -104q-10 -55 -39 -56q-16 0 -21 21q-16 70 -86 69q-68 0 -94 -125l-51 -233h123q98 0 84 -74q-16 -74 -115 -73h-117l-147 -693 q-10 -55 -35.5 -76.5t-83.5 -21.5h-76q-55 0 -71 21.5t-6 76.5zM821 98l158 742q12 55 36.5 76.5t82.5 21.5h76q59 0 74.5 -22.5t2.5 -75.5l-157 -742q-10 -55 -36 -76.5t-83 -21.5h-76q-59 0 -74.5 22.5t-3.5 75.5zM1061 1243l18 82q10 55 36 76.5t83 21.5h82 q59 0 73.5 -22.5t4.5 -75.5l-19 -82q-10 -55 -35.5 -76.5t-82.5 -21.5h-82q-59 0 -74.5 22.5t-3.5 75.5z" />
<glyph unicode="&#xfb02;" horiz-adv-x="1200" d="M197 98l147 693q-33 0 -51.5 2t-36.5 19t-10 52q14 74 129 74l37 168q72 338 401 338q55 0 102 -14q37 -8 42.5 -18.5t-3.5 -45.5l-20 -94q-10 -53 -39 -53q-14 0 -21 22q-2 6 -8 15.5t-14 18.5t-25.5 15t-40.5 6q-68 0 -94 -125l-51 -233h123q98 0 84 -74 q-16 -74 -115 -73h-117l-147 -693q-10 -55 -35.5 -76.5t-83.5 -21.5h-76q-55 0 -71 21.5t-6 76.5zM821 98l260 1225q12 55 38 76.5t83 21.5h76q59 0 73.5 -22.5t2.5 -75.5l-260 -1225q-10 -55 -36 -76.5t-83 -21.5h-76q-59 0 -74.5 22.5t-3.5 75.5z" />
<glyph unicode="&#xfb03;" horiz-adv-x="1826" d="M197 98l147 693q-33 0 -51.5 2t-36.5 19t-10 52q14 74 129 74l37 166q72 340 434 340q66 0 117 -12q41 -10 48 -19.5t-1 -46.5l-21 -94q-10 -53 -39 -53q-10 0 -20 14q-37 63 -111 63q-43 0 -71.5 -21.5t-39 -45t-18.5 -64.5l-49 -227h121q98 0 84 -74q-16 -74 -115 -73 h-115l-147 -693q-10 -55 -35.5 -76.5t-83.5 -21.5h-76q-55 0 -71 21.5t-6 76.5zM823 98l215 1008q72 338 404 338q53 0 98 -10q39 -8 44 -16.5t-5 -45.5l-23 -106q-4 -20 -7 -29.5t-10 -17t-19 -7.5q-16 0 -21 21q-20 63 -86 63q-70 0 -94 -125l-51 -233h121q98 0 84 -74 q-16 -74 -115 -73h-115l-147 -693q-10 -55 -36 -76.5t-83 -21.5h-76q-55 0 -71.5 21.5t-6.5 76.5zM1448 98l158 742q12 55 36.5 76.5t81.5 21.5h76q59 0 74.5 -22.5t3.5 -75.5l-158 -742q-10 -55 -35.5 -76.5t-82.5 -21.5h-76q-59 0 -74.5 22.5t-3.5 75.5zM1688 1243l18 82 q10 55 35.5 76.5t83.5 21.5h82q59 0 73.5 -22.5t4.5 -75.5l-19 -82q-10 -55 -35.5 -76.5t-83.5 -21.5h-82q-59 0 -74 22.5t-3 75.5z" />
<glyph unicode="&#xfb04;" horiz-adv-x="1826" d="M197 98l147 693q-33 0 -51.5 2t-36.5 19t-10 52q14 74 129 74l37 166q72 340 434 340q66 0 117 -12q41 -10 48 -19.5t-1 -46.5l-21 -94q-10 -53 -39 -53q-10 0 -20 14q-37 63 -111 63q-43 0 -71.5 -21.5t-39 -45t-18.5 -64.5l-49 -227h121q98 0 84 -74q-16 -74 -115 -73 h-115l-147 -693q-10 -55 -35.5 -76.5t-83.5 -21.5h-76q-55 0 -71 21.5t-6 76.5zM823 98l215 1008q72 338 400 338q57 0 102 -14q37 -8 42 -17.5t-3 -46.5l-20 -94q-10 -53 -39 -53q-12 0 -21 20q-29 57 -86 57q-70 0 -94 -125l-51 -233h121q98 0 84 -74q-16 -74 -115 -73 h-115l-147 -693q-10 -55 -36 -76.5t-83 -21.5h-76q-55 0 -71.5 21.5t-6.5 76.5zM1448 98l260 1225q12 55 38 76.5t83 21.5h76q59 0 73.5 -22.5t1.5 -75.5l-260 -1225q-10 -55 -35.5 -76.5t-82.5 -21.5h-76q-59 0 -74.5 22.5t-3.5 75.5z" />
</font>
</defs>
</svg>
