<?xml version="1.0" encoding="utf-8"?>
<!-- Generator: Adobe Illustrator 19.1.0, SVG Export Plug-In . SVG Version: 6.00 Build 0)  -->
<svg version="1.1" id="Layer_1" xmlns="http://www.w3.org/2000/svg" xmlns:xlink="http://www.w3.org/1999/xlink" x="0px" y="0px"
	 viewBox="0 0 65 65" style="enable-background:new 0 0 65 65;" xml:space="preserve">
<style type="text/css">
	.st0{fill:#CFB87C;}
	.st1{fill:#FFFFFF;}
</style>
<g>
	<g>
		<polygon class="st0" points="46.960125,15.6258135 46.960125,8.5040684 38.3726959,-0.0000004 8.6151667,-0.0000004 
			-0.0000001,8.502511 -0.0000001,37.8541565 8.6151667,46.3505898 18.065958,46.3505898 18.065958,53.4928932 26.7503853,62 
			51.8602486,62 60.566185,53.5005226 60.566185,30.7627735 65,30.7627735 65,15.6258135 		"/>
		<polygon points="38.004879,0.881245 46.0660362,8.8697548 46.0660362,16.5085392 64.1058273,16.5085392 64.1058273,29.8854218 
			59.6720963,29.8854218 59.6720963,53.1302414 51.4940071,61.1157951 27.1151276,61.1157951 18.9601269,53.1302414 
			18.9601269,45.4702072 8.9829826,45.4702072 0.8925934,37.4838753 0.8925934,8.8689766 8.9829826,0.881245 		"/>
		<polyline class="st1" points="9.9078827,43.2622261 21.1901131,43.2622261 21.1901131,52.2095261 28.0338821,58.9108543 
			50.5782471,58.9108543 57.4405327,52.2095261 57.4405327,27.6774426 61.8774223,27.6774426 61.8774223,18.7134781 
			48.2682838,18.7134781 48.2682838,49.9574814 30.2607956,49.9574814 30.2607956,43.2622261 37.0753326,43.2622261 
			43.8376236,36.5700073 43.8376236,27.6774426 34.7668648,27.6774426 34.7668648,34.3217773 30.2607956,34.3217773 
			30.2607956,18.7134781 16.6901112,18.7134781 16.6901112,27.6774426 21.1901131,27.6774426 21.1901131,34.3217773 
			12.1732483,34.3217773 12.1732483,11.9649706 34.7668648,11.9649706 34.7668648,18.7134781 43.8376236,18.7134781 
			43.8376236,9.7844 37.0753326,3.0861101 9.9078827,3.0861101 3.1210043,9.7813644 3.1210043,36.5700073 9.9078827,43.2622261 		
			"/>
		<polygon class="st0" points="29.1419811,42.1597939 36.6136703,42.1597939 42.7203064,36.11689 42.7203064,28.7814312 
			35.8857574,28.7814312 35.8857574,35.4235115 29.1419811,35.4235115 29.1419811,19.8189507 17.8058529,19.8189507 
			17.8058529,26.5780468 22.3073521,26.5780468 22.3073521,35.4235115 11.0590038,35.4235115 11.0590038,10.8640213 
			35.8857574,10.8640213 35.8857574,17.6110439 42.7203064,17.6110439 42.7203064,10.2390757 36.6136703,4.1885428 
			10.3711205,4.1885428 4.2383223,10.2390757 4.2383223,36.11689 10.3680477,42.1597939 22.3073521,42.1597939 
			22.3073521,51.7487793 28.4956226,57.8122368 50.1181641,57.8122368 56.3263664,51.7457428 56.3263664,26.5780468 
			60.758606,26.5780468 60.758606,19.8189507 49.3840256,19.8189507 49.3840256,51.0568771 29.1419811,51.0568771 		"/>
	</g>
</g>
</svg>
